<?xml version="1.0" encoding="utf-8"?>
<!-- Generator: Adobe Illustrator 27.5.0, SVG Export Plug-In . SVG Version: 6.00 Build 0)  -->
<svg version="1.1" id="Ebene_1" xmlns="http://www.w3.org/2000/svg" xmlns:xlink="http://www.w3.org/1999/xlink" x="0px" y="0px"
	 viewBox="0 0 425.2 336.8" style="enable-background:new 0 0 425.2 336.8;" xml:space="preserve">
<style type="text/css">
	.st0{fill:#FFFFFF;}
</style>
<g>
	<polygon class="st0" points="202.3,11.7 202.3,11.7 202.3,11.7 	"/>
	<path class="st0" d="M302.9,86.2c-11.3-37-42.7-66.4-83.5-73.1c-5.8-0.9-11.5-1.4-17.1-1.4v6c5.4,0,10.8,0.4,16.1,1.3
		c36.7,6,65.4,31.6,77.2,64.3c-17.1-6.5-37-12.2-57.7-16.8c-21.5-17.9-43.7-33.3-64-44.7c9.1-2.7,18.7-4.2,28.3-4.2l0-6c0,0,0,0,0,0
		c-12.3,0-24.3,2.2-35.5,6.2c-17.3-9.2-32.9-15.2-44.9-17.2c-11.3-1.9-19.3-0.1-23.7,5.2c-4.4,5.4-4.4,13.3-1.9,22
		C86.6,29,78.7,32.2,75.6,39c-3.1,6.8-0.4,14.7,5.1,22.7c-12.2,3.9-19.9,9.7-21.2,17.5c-2.1,12.5,13.4,25.5,38,36.8
		c-0.4,50.9,36.3,95.8,88,104.3c5.8,0.9,11.5,1.4,17.1,1.4c37.3,0,71.4-20,90.1-51.2c7.8,1.2,16.1,2,23.8,1.8
		c3.4,10.1,3.5,17.8,0.1,21.8c-3.8,4.6-12.1,4.3-18.5,3.3c-6.3-1-13.3-3.2-21.3-6.5c-1.6,1.6-2.6,2.5-4.4,4.2
		c9.2,3.9,17.8,6.5,24.9,7.7c11.3,1.9,19.3,0.1,23.7-5.2c4.7-5.7,4.9-14.7,1.5-25.7c9.9-1,18.1-4.2,21.2-11.2
		c2.7-6,0.9-13.4-4.4-21.5c5.9-3.1,9.9-7.3,10.7-12.3C352.2,112.9,332.6,98.4,302.9,86.2z M261.4,77.4c13.4,3.8,25.7,8.1,36.4,12.5
		c1.2,4.3,2.2,8.8,2.8,13.3c-12.2-8.7-26-17.2-39.7-24.3c-2.4-1.3-9-4.1-11.3-5.2C252.1,74.4,258.9,76.7,261.4,77.4z M259.1,83.2
		c15.9,8.9,30.3,18.2,42.2,27c0.5,7.1,0.2,14.3-1,21.6c-11.1-15.1-26.5-32.6-42.2-46.9c-2.1-1.9-7.9-6.2-10-8
		C250.6,78.2,256.7,81.9,259.1,83.2z M307.4,114.9c10.1,8,18.1,15.5,23.3,21.9c-6.4,2-14.8,3.2-24.5,3.5c-0.4-0.5-0.7-1.1-1.1-1.6
		c0.3-1.6,0.7-3.3,0.9-4.9C307.1,127.4,307.5,121.1,307.4,114.9z M212,53c2.7,1.9,8.9,5.8,11.5,7.8c-3-1.3-9.5-4.5-12.5-5.7
		c-21.4-8.8-43.4-16.4-62.7-21.3c5.8-3.8,12-6.9,18.4-9.4C181.1,32.1,196.6,41.9,212,53z M104.5,78.8c-5.8-4.9-10.6-9.7-14.4-14.1
		c6.6-1.5,14.3-2.7,23.1-3.4C109.8,66.8,106.9,72.7,104.5,78.8z M116.9,55.7c0,0-0.1-0.1-0.1-0.2c-5.7-8.1-10-15.8-12.7-22.5
		c6.9-0.1,15,0.6,24.2,2.1c2.1,0.3,4.3,0.8,6.6,1.2C128.1,42,122.1,48.5,116.9,55.7C116.9,55.7,116.9,55.7,116.9,55.7z M138.6,41
		c1.2-1,2.5-2,3.8-3c20.2,4.6,44.1,12.2,67,21.4c2.9,1.2,9.6,3.4,12.5,4.7c-3.2-0.6-10-2.2-13.1-2.7c-28.6-4.9-53.5-7.3-84.1-6
		C128.9,50.1,133.5,45.3,138.6,41z M102.5,9.5c3.8-4.6,12.1-4.3,18.5-3.3c10.2,1.7,23.7,6.8,38.8,14.5c-6.8,3-13.3,6.8-19.3,11.2
		c-3.9-0.9-7.8-1.6-11.4-2.2c-8.7-1.4-18.4-2.5-27.1-2.2C99.5,19.3,99.6,13,102.5,9.5z M80.6,41.3c2-4.4,8.2-7.1,17.5-8
		c3,7.7,7.5,15.7,12.3,22.8c-8.9,0.8-17.1,2.1-24.1,3.9C80.7,52.3,78.6,45.8,80.6,41.3z M97.6,110.2C75.4,99.6,63.5,88.6,64.9,80.1
		c0.9-5.6,7.7-10.4,19.2-13.8C89.3,72.8,96,79,102.5,84.5c0.2-0.5,0.4-1,0.5-1.6c-1.8,5.4-3.3,11-4.2,16.8
		C98.2,103.2,97.8,106.7,97.6,110.2z M266.2,192.4c-17.9,15-40.5,23.3-63.7,23.3c-5.4,0-10.8-0.4-16.2-1.3
		c-53.9-8.8-90.5-59.9-81.7-113.8c2.4-14.4,7.9-28,16-39.9c24.1-1.3,54.9,0.4,89.9,6.1c8.6,1.4,16.9,3,24.8,4.7
		c28.3,23.4,49.5,47.1,63.5,67.5C294,159.9,282.6,178.6,266.2,192.4z M295.5,165.3c3.2-6.1,5.8-12.7,7.8-19.5
		c4.8,7.6,8.5,14.6,11.1,20.9C308.8,166.7,302.5,166.3,295.5,165.3z M338.5,158.4c-2,4.5-8.4,7.2-18.1,8
		c-2.5-6.4-6.1-13.3-10.6-20.7c9.1-0.2,17.6-1.7,24.4-4.3C338.8,148.4,340.4,154.2,338.5,158.4z M344.4,126
		c-0.6,3.5-3.6,6.4-8.4,8.8c-6.2-8-16.5-17.3-28.9-26.7c-0.4-5.1-1.2-10.2-2.4-15.1C330.6,104.6,345.9,117,344.4,126z"/>
</g>
<g>
	<path class="st0" d="M417.8,278.7v-5h-12v-22h-5.3v27H417.8z M377.5,257.5l3.7,10.2h-7.5L377.5,257.5z M385.3,278.7h5.7l-10.3-27
		h-6.1l-10.3,27h5.6l2.2-6.2h11L385.3,278.7z M354.7,251.7h-5.3v27h5.3V251.7z M325.7,278.7c7.7,0,13.4-4.9,13.4-13.5
		c0-8.5-5.6-13.5-13.3-13.5h-9.7v27H325.7z M321.4,273.8v-17.2h4.2c4.4,0,8.1,2.8,8.1,8.6c0,5.9-3.7,8.6-8.1,8.6H321.4z
		 M303.9,278.7v-27h-5.3v17.8l-11.2-17.8h-6.5v27h5.3v-19.1l12.3,19.1H303.9z M242.4,265.2c0,8.7,6.5,14,13.9,14
		c7.3,0,13.9-5.4,13.9-14c0-8.7-6.5-14.1-13.9-14.1C249,251.2,242.4,256.5,242.4,265.2 M247.9,265.2c0-6.1,4.3-9,8.4-9
		c4.2,0,8.4,2.9,8.4,9c0,6.1-4.3,9-8.4,9C252.1,274.2,247.9,271.3,247.9,265.2 M232.6,278.7v-27h-7.2l-7.9,19.5l-8.1-19.5h-6.9v27h5
		v-18.8l7.8,18.8h4.4l7.8-18.9v18.9H232.6z"/>
	<path class="st0" d="M177.9,263.8v-7.5h4.3c2.7,0,4.2,1.5,4.2,3.8c0,2.2-1.6,3.7-4.2,3.7H177.9z M186,278.7h5.9l-5.8-11
		c3.5-1,5.7-3.9,5.7-7.6c0-4.7-3.3-8.3-8.6-8.3h-10.5v27h5.3v-10.4h2.7L186,278.7z M161.3,278.7v-4.9h-11.6v-6.2h10.5v-4.7h-10.5
		v-6.2h11.6v-4.9h-16.9v27H161.3z M132.2,251.7h-5.3v27h5.3V251.7z M116.7,278.7v-5h-12v-22h-5.3v27H116.7z M88.1,278.7v-4.9H76.5
		v-6.2H87v-4.7H76.5v-6.2h11.6v-4.9H71.2v27H88.1z M61.4,256.7v-5H39.1v5h8.5v22h5.3v-22H61.4z M20.2,257.5l3.7,10.2h-7.5
		L20.2,257.5z M27.9,278.7h5.7l-10.3-27h-6.1l-10.4,27h5.6l2.2-6.2h11L27.9,278.7z"/>
</g>
<g>
	<path class="st0" d="M87.1,304.7v-10.6h1.5v10.6H87.1z"/>
	<path class="st0" d="M92.7,304.7h-1.4v-7.2h1.4v1c0.5-0.9,1.4-1.2,2.2-1.2c1.7,0,2.6,1.2,2.6,2.8v4.6H96v-4.3c0-1-0.4-1.8-1.7-1.8
		c-1.1,0-1.7,0.9-1.7,2V304.7z"/>
	<path class="st0" d="M101.7,297.5h1.6v1.3h-1.6v3.8c0,0.7,0.3,1,1,1c0.2,0,0.4,0,0.6-0.1v1.2c-0.1,0-0.5,0.1-1,0.1
		c-1.2,0-2-0.8-2-2.1v-4h-1.4v-1.3h0.4c0.8,0,1.1-0.5,1.1-1.1v-1.2h1.3V297.5z"/>
	<path class="st0" d="M111.5,302.7c-0.4,1.3-1.6,2.3-3.2,2.3c-1.9,0-3.6-1.4-3.6-3.9c0-2.3,1.6-3.8,3.4-3.8c2.2,0,3.5,1.5,3.5,3.8
		c0,0.2,0,0.4,0,0.5h-5.4c0,1.3,1,2.2,2.2,2.2c1.2,0,1.8-0.6,2-1.5L111.5,302.7z M110.1,300.4c0-1-0.7-1.8-2-1.8
		c-1.2,0-1.9,0.9-2,1.8H110.1z"/>
	<path class="st0" d="M117.5,298.9c-0.2,0-0.4,0-0.6,0c-1.2,0-2,0.6-2,2.2v3.6h-1.4v-7.2h1.4v1.3c0.5-1.1,1.4-1.4,2.2-1.4
		c0.2,0,0.4,0,0.5,0V298.9z"/>
	<path class="st0" d="M120.6,304.7h-1.4v-7.2h1.4v1c0.5-0.9,1.4-1.2,2.2-1.2c1.7,0,2.6,1.2,2.6,2.8v4.6h-1.4v-4.3
		c0-1-0.4-1.8-1.7-1.8c-1.1,0-1.7,0.9-1.7,2V304.7z"/>
	<path class="st0" d="M129.5,300.6l2-0.3c0.4-0.1,0.6-0.3,0.6-0.5c0-0.7-0.5-1.3-1.6-1.3c-1,0-1.5,0.6-1.6,1.5l-1.3-0.3
		c0.1-1.4,1.4-2.3,3-2.3c2.2,0,3,1.2,3,2.6v3.6c0,0.6,0.1,1,0.1,1.2h-1.4c0-0.2-0.1-0.5-0.1-1c-0.3,0.5-1,1.2-2.3,1.2
		c-1.5,0-2.4-1-2.4-2.2C127.3,301.5,128.2,300.8,129.5,300.6z M132,301.6v-0.3l-2.2,0.3c-0.6,0.1-1.1,0.4-1.1,1.1c0,0.5,0.5,1,1.2,1
		C131,303.8,132,303.2,132,301.6z"/>
	<path class="st0" d="M137.6,297.5h1.6v1.3h-1.6v3.8c0,0.7,0.3,1,1,1c0.2,0,0.4,0,0.6-0.1v1.2c-0.1,0-0.5,0.1-1,0.1
		c-1.2,0-2-0.8-2-2.1v-4h-1.4v-1.3h0.4c0.8,0,1.1-0.5,1.1-1.1v-1.2h1.3V297.5z"/>
	<path class="st0" d="M141.9,293.8c0.6,0,1,0.5,1,1c0,0.6-0.5,1-1,1c-0.6,0-1-0.5-1-1C140.9,294.2,141.3,293.8,141.9,293.8z
		 M141.2,304.7v-7.2h1.4v7.2H141.2z"/>
	<path class="st0" d="M151.9,301.1c0,2.2-1.5,3.8-3.7,3.8c-2.2,0-3.7-1.6-3.7-3.8c0-2.2,1.5-3.8,3.7-3.8
		C150.4,297.3,151.9,298.9,151.9,301.1z M150.5,301.1c0-1.7-1-2.6-2.2-2.6c-1.2,0-2.2,0.9-2.2,2.6c0,1.7,1,2.6,2.2,2.6
		C149.4,303.7,150.5,302.8,150.5,301.1z"/>
	<path class="st0" d="M155.3,304.7h-1.4v-7.2h1.4v1c0.5-0.9,1.4-1.2,2.2-1.2c1.7,0,2.6,1.2,2.6,2.8v4.6h-1.4v-4.3
		c0-1-0.4-1.8-1.7-1.8c-1.1,0-1.7,0.9-1.7,2V304.7z"/>
	<path class="st0" d="M164.2,300.6l2-0.3c0.4-0.1,0.6-0.3,0.6-0.5c0-0.7-0.5-1.3-1.6-1.3c-1,0-1.5,0.6-1.6,1.5l-1.3-0.3
		c0.1-1.4,1.4-2.3,3-2.3c2.2,0,3,1.2,3,2.6v3.6c0,0.6,0.1,1,0.1,1.2h-1.4c0-0.2-0.1-0.5-0.1-1c-0.3,0.5-1,1.2-2.3,1.2
		c-1.5,0-2.4-1-2.4-2.2C162,301.5,163,300.8,164.2,300.6z M166.7,301.6v-0.3l-2.2,0.3c-0.6,0.1-1.1,0.4-1.1,1.1c0,0.5,0.5,1,1.2,1
		C165.8,303.8,166.7,303.2,166.7,301.6z"/>
	<path class="st0" d="M170.5,304.7v-10.9h1.4v10.9H170.5z"/>
	<path class="st0" d="M184.6,301.8h-4.7l-1.1,3h-1.6l4.2-10.6h1.7l4.2,10.6h-1.6L184.6,301.8z M180.5,300.4h3.7l-1.8-4.8
		L180.5,300.4z"/>
	<path class="st0" d="M192.8,298.9c-0.2,0-0.4,0-0.6,0c-1.2,0-2,0.6-2,2.2v3.6h-1.4v-7.2h1.4v1.3c0.5-1.1,1.4-1.4,2.2-1.4
		c0.2,0,0.4,0,0.5,0V298.9z"/>
	<path class="st0" d="M196.7,297.5h1.6v1.3h-1.6v3.8c0,0.7,0.3,1,1,1c0.2,0,0.4,0,0.6-0.1v1.2c-0.1,0-0.5,0.1-1,0.1
		c-1.2,0-2-0.8-2-2.1v-4h-1.4v-1.3h0.4c0.8,0,1.1-0.5,1.1-1.1v-1.2h1.3V297.5z"/>
	<path class="st0" d="M201,302.4c0.1,0.8,0.7,1.4,1.7,1.4c0.8,0,1.2-0.5,1.2-1c0-0.5-0.3-0.8-0.9-0.9l-1.2-0.3c-1.1-0.2-1.8-1-1.8-2
		c0-1.2,1.2-2.3,2.6-2.3c2,0,2.6,1.3,2.7,1.9l-1.2,0.5c-0.1-0.4-0.4-1.2-1.5-1.2c-0.7,0-1.2,0.5-1.2,1c0,0.4,0.3,0.8,0.8,0.9
		l1.2,0.3c1.3,0.3,2,1.1,2,2.1c0,1-0.9,2.2-2.6,2.2c-2,0-2.8-1.3-2.9-2.1L201,302.4z"/>
	<path class="st0" d="M211.3,304.7v-10.6h6.5v1.4h-5v3.3h4.5v1.4h-4.5v3.3h5v1.4H211.3z"/>
	<path class="st0" d="M221.7,301.1l-2.6-3.5h1.7l1.8,2.5l1.7-2.5h1.7l-2.6,3.5c0.4,0.6,2.2,3.1,2.7,3.7h-1.7l-1.9-2.7l-1.8,2.7H219
		L221.7,301.1z"/>
	<path class="st0" d="M228.3,301.1c0,1.7,1,2.5,2.2,2.5c1.3,0,1.8-0.9,2-1.5l1.2,0.5c-0.3,1-1.4,2.2-3.3,2.2c-2.1,0-3.6-1.6-3.6-3.8
		c0-2.2,1.6-3.8,3.6-3.8c1.9,0,2.9,1.2,3.2,2.3l-1.3,0.5c-0.2-0.7-0.7-1.5-1.9-1.5C229.3,298.6,228.3,299.4,228.3,301.1z"/>
	<path class="st0" d="M236.9,304.7h-1.4v-10.9h1.4v4.5c0.5-0.8,1.4-1,2.2-1c1.7,0,2.6,1.2,2.6,2.8v4.6h-1.4v-4.3
		c0-1-0.4-1.8-1.7-1.8c-1.1,0-1.7,0.8-1.7,1.9V304.7z"/>
	<path class="st0" d="M245.8,300.6l2-0.3c0.4-0.1,0.6-0.3,0.6-0.5c0-0.7-0.5-1.3-1.6-1.3c-1,0-1.5,0.6-1.6,1.5l-1.3-0.3
		c0.1-1.4,1.4-2.3,3-2.3c2.2,0,3,1.2,3,2.6v3.6c0,0.6,0.1,1,0.1,1.2h-1.4c0-0.2-0.1-0.5-0.1-1c-0.3,0.5-1,1.2-2.3,1.2
		c-1.5,0-2.4-1-2.4-2.2C243.6,301.5,244.6,300.8,245.8,300.6z M248.3,301.6v-0.3l-2.2,0.3c-0.6,0.1-1.1,0.4-1.1,1.1
		c0,0.5,0.5,1,1.2,1C247.4,303.8,248.3,303.2,248.3,301.6z"/>
	<path class="st0" d="M253.5,304.7h-1.4v-7.2h1.4v1c0.5-0.9,1.4-1.2,2.2-1.2c1.7,0,2.6,1.2,2.6,2.8v4.6h-1.4v-4.3
		c0-1-0.4-1.8-1.7-1.8c-1.1,0-1.7,0.9-1.7,2V304.7z"/>
	<path class="st0" d="M261.5,304.8c0.1,1,0.9,1.8,2,1.8c1.5,0,2.2-0.8,2.2-2.3v-1c-0.3,0.7-1.1,1.2-2.2,1.2c-1.9,0-3.3-1.5-3.3-3.5
		c0-2,1.3-3.5,3.3-3.5c1.1,0,1.9,0.4,2.2,1.1v-1h1.4v6.7c0,1.8-0.9,3.6-3.6,3.6c-1.8,0-3.2-1.1-3.3-2.7L261.5,304.8z M265.7,300.9
		c0-1.4-0.8-2.3-2.1-2.3c-1.2,0-2.1,0.9-2.1,2.3c0,1.4,0.8,2.3,2.1,2.3C264.9,303.2,265.7,302.3,265.7,300.9z"/>
	<path class="st0" d="M275.7,302.7c-0.4,1.3-1.6,2.3-3.2,2.3c-1.9,0-3.6-1.4-3.6-3.9c0-2.3,1.6-3.8,3.4-3.8c2.2,0,3.5,1.5,3.5,3.8
		c0,0.2,0,0.4,0,0.5h-5.4c0,1.3,1,2.2,2.2,2.2c1.2,0,1.8-0.6,2-1.5L275.7,302.7z M274.3,300.4c0-1-0.7-1.8-2-1.8
		c-1.2,0-1.9,0.9-2,1.8H274.3z"/>
	<path class="st0" d="M283.3,300.4v4.3h-1.5v-10.6h3.9c2,0,3.3,1.4,3.3,3.2c0,1.8-1.3,3.1-3.3,3.1H283.3z M285.4,299.1
		c1.3,0,2.1-0.7,2.1-1.8c0-1.1-0.8-1.8-2.1-1.8h-2.1v3.6H285.4z"/>
	<path class="st0" d="M294.5,298.9c-0.2,0-0.4,0-0.6,0c-1.2,0-2,0.6-2,2.2v3.6h-1.4v-7.2h1.4v1.3c0.5-1.1,1.4-1.4,2.2-1.4
		c0.2,0,0.4,0,0.5,0V298.9z"/>
	<path class="st0" d="M302.9,301.1c0,2.2-1.5,3.8-3.7,3.8c-2.2,0-3.7-1.6-3.7-3.8c0-2.2,1.5-3.8,3.7-3.8
		C301.4,297.3,302.9,298.9,302.9,301.1z M301.4,301.1c0-1.7-1-2.6-2.2-2.6s-2.2,0.9-2.2,2.6c0,1.7,1,2.6,2.2,2.6
		S301.4,302.8,301.4,301.1z"/>
	<path class="st0" d="M305.7,304.8c0.1,1,0.9,1.8,2,1.8c1.5,0,2.2-0.8,2.2-2.3v-1c-0.3,0.7-1.1,1.2-2.2,1.2c-1.9,0-3.3-1.5-3.3-3.5
		c0-2,1.3-3.5,3.3-3.5c1.1,0,1.9,0.4,2.2,1.1v-1h1.4v6.7c0,1.8-0.9,3.6-3.6,3.6c-1.8,0-3.2-1.1-3.3-2.7L305.7,304.8z M309.9,300.9
		c0-1.4-0.8-2.3-2.1-2.3c-1.2,0-2.1,0.9-2.1,2.3c0,1.4,0.8,2.3,2.1,2.3C309.1,303.2,309.9,302.3,309.9,300.9z"/>
	<path class="st0" d="M317.7,298.9c-0.2,0-0.4,0-0.6,0c-1.2,0-2,0.6-2,2.2v3.6h-1.4v-7.2h1.4v1.3c0.5-1.1,1.4-1.4,2.2-1.4
		c0.2,0,0.4,0,0.5,0V298.9z"/>
	<path class="st0" d="M321,300.6l2-0.3c0.4-0.1,0.6-0.3,0.6-0.5c0-0.7-0.5-1.3-1.6-1.3c-1,0-1.5,0.6-1.6,1.5l-1.3-0.3
		c0.1-1.4,1.4-2.3,3-2.3c2.2,0,3,1.2,3,2.6v3.6c0,0.6,0.1,1,0.1,1.2h-1.4c0-0.2-0.1-0.5-0.1-1c-0.3,0.5-1,1.2-2.3,1.2
		c-1.5,0-2.4-1-2.4-2.2C318.9,301.5,319.8,300.8,321,300.6z M323.6,301.6v-0.3l-2.2,0.3c-0.6,0.1-1.1,0.4-1.1,1.1c0,0.5,0.5,1,1.2,1
		C322.6,303.8,323.6,303.2,323.6,301.6z"/>
	<path class="st0" d="M327.3,304.7v-7.2h1.3v1c0.5-0.8,1.3-1.2,2.2-1.2c0.9,0,1.8,0.4,2.2,1.4c0.6-1,1.5-1.4,2.4-1.4
		c1.3,0,2.5,0.9,2.5,2.7v4.7h-1.4v-4.5c0-0.9-0.5-1.6-1.5-1.6c-1,0-1.7,0.8-1.7,1.8v4.4h-1.4v-4.5c0-0.9-0.5-1.6-1.5-1.6
		c-1,0-1.7,0.8-1.7,1.8v4.3H327.3z"/>
</g>
<g>
	<path class="st0" d="M120.3,315.1c2,0,3.2,1.2,3.2,2.9c0,1.1-0.7,2-1.6,2.3c1.2,0.3,1.9,1.4,1.9,2.6c0,1.7-1.3,2.9-3.3,2.9h-3.7
		v-10.6H120.3z M120.1,319.8c1.2,0,1.9-0.7,1.9-1.7c0-1-0.7-1.7-2-1.7h-1.8v3.4H120.1z M120.3,324.4c1.2,0,2-0.7,2-1.7
		c0-1-0.6-1.7-1.9-1.7h-2.1v3.4H120.3z"/>
	<path class="st0" d="M127.4,321.6l2-0.3c0.4-0.1,0.6-0.3,0.6-0.5c0-0.7-0.5-1.3-1.6-1.3c-1,0-1.5,0.6-1.6,1.5l-1.3-0.3
		c0.1-1.4,1.4-2.3,3-2.3c2.2,0,3,1.2,3,2.6v3.6c0,0.6,0.1,1,0.1,1.2H130c0-0.2-0.1-0.5-0.1-1c-0.3,0.5-1,1.2-2.3,1.2
		c-1.5,0-2.4-1-2.4-2.2C125.2,322.5,126.2,321.8,127.4,321.6z M129.9,322.6v-0.3l-2.2,0.3c-0.6,0.1-1.1,0.4-1.1,1.1
		c0,0.5,0.5,1,1.2,1C129,324.8,129.9,324.2,129.9,322.6z"/>
	<path class="st0" d="M134.3,323.4c0.1,0.8,0.7,1.4,1.7,1.4c0.8,0,1.2-0.5,1.2-1c0-0.5-0.3-0.8-0.9-0.9l-1.2-0.3
		c-1.1-0.2-1.8-1-1.8-2c0-1.2,1.2-2.3,2.6-2.3c2,0,2.6,1.3,2.7,1.9l-1.2,0.5c-0.1-0.4-0.4-1.2-1.5-1.2c-0.7,0-1.2,0.5-1.2,1
		c0,0.4,0.3,0.8,0.8,0.9l1.2,0.3c1.3,0.3,2,1.1,2,2.1c0,1-0.9,2.2-2.6,2.2c-2,0-2.8-1.3-2.9-2.1L134.3,323.4z"/>
	<path class="st0" d="M146.8,323.7c-0.4,1.3-1.6,2.3-3.2,2.3c-1.9,0-3.6-1.4-3.6-3.9c0-2.3,1.6-3.8,3.4-3.8c2.2,0,3.5,1.5,3.5,3.8
		c0,0.2,0,0.4,0,0.5h-5.4c0,1.3,1,2.2,2.2,2.2c1.2,0,1.8-0.6,2-1.5L146.8,323.7z M145.4,321.4c0-1-0.7-1.8-2-1.8
		c-1.2,0-1.9,0.9-2,1.8H145.4z"/>
	<path class="st0" d="M148.8,325.7v-10.9h1.4v10.9H148.8z"/>
	<path class="st0" d="M155.7,322v-1.2h7.7v1.2H155.7z"/>
	<path class="st0" d="M179,325.7v-8.3l-3.6,8.3H174l-3.6-8.3v8.3H169v-10.6h2l3.8,8.7l3.8-8.7h2v10.6H179z"/>
	<path class="st0" d="M185.8,326c-1.7,0-2.7-1.3-2.7-2.9v-4.5h1.4v4.3c0,1,0.5,1.9,1.6,1.9c1.1,0,1.7-0.8,1.7-1.8v-4.3h1.4v5.9
		c0,0.6,0,1.1,0.1,1.3H188c0-0.2-0.1-0.6-0.1-0.9C187.5,325.6,186.6,326,185.8,326z"/>
	<path class="st0" d="M191.8,325.7v-10.9h1.4v10.9H191.8z"/>
	<path class="st0" d="M197.1,325.7h-1.4v-10.9h1.4v4.5c0.5-0.8,1.4-1,2.2-1c1.7,0,2.6,1.2,2.6,2.8v4.6h-1.4v-4.3
		c0-1-0.4-1.8-1.7-1.8c-1.1,0-1.7,0.8-1.7,1.9V325.7z"/>
	<path class="st0" d="M211.1,322.1c0,2.2-1.5,3.8-3.7,3.8c-2.2,0-3.7-1.6-3.7-3.8c0-2.2,1.5-3.8,3.7-3.8
		C209.5,318.3,211.1,319.9,211.1,322.1z M209.6,322.1c0-1.7-1-2.6-2.2-2.6s-2.2,0.9-2.2,2.6c0,1.7,1,2.6,2.2,2.6
		S209.6,323.8,209.6,322.1z"/>
	<path class="st0" d="M215.6,326c-1.7,0-2.7-1.3-2.7-2.9v-4.5h1.4v4.3c0,1,0.5,1.9,1.6,1.9c1.1,0,1.7-0.8,1.7-1.8v-4.3h1.4v5.9
		c0,0.6,0,1.1,0.1,1.3h-1.3c0-0.2-0.1-0.6-0.1-0.9C217.3,325.6,216.4,326,215.6,326z"/>
	<path class="st0" d="M222.2,323.4c0.1,0.8,0.7,1.4,1.7,1.4c0.8,0,1.2-0.5,1.2-1c0-0.5-0.3-0.8-0.9-0.9l-1.2-0.3
		c-1.1-0.2-1.8-1-1.8-2c0-1.2,1.2-2.3,2.6-2.3c2,0,2.6,1.3,2.7,1.9l-1.2,0.5c-0.1-0.4-0.4-1.2-1.5-1.2c-0.7,0-1.2,0.5-1.2,1
		c0,0.4,0.3,0.8,0.8,0.9l1.2,0.3c1.3,0.3,2,1.1,2,2.1c0,1-0.9,2.2-2.6,2.2c-2,0-2.8-1.3-2.9-2.1L222.2,323.4z"/>
	<path class="st0" d="M234.7,323.7c-0.4,1.3-1.6,2.3-3.2,2.3c-1.9,0-3.6-1.4-3.6-3.9c0-2.3,1.6-3.8,3.4-3.8c2.2,0,3.5,1.5,3.5,3.8
		c0,0.2,0,0.4,0,0.5h-5.4c0,1.3,1,2.2,2.2,2.2c1.2,0,1.8-0.6,2-1.5L234.7,323.7z M233.3,321.4c0-1-0.7-1.8-2-1.8
		c-1.2,0-1.9,0.9-2,1.8H233.3z"/>
	<path class="st0" d="M239.6,322v-1.2h7.7v1.2H239.6z"/>
	<path class="st0" d="M252.9,325.7v-10.6h6.5v1.4h-5v3.4h4.5v1.4h-4.5v4.5H252.9z"/>
	<path class="st0" d="M264.8,319.9c-0.2,0-0.4,0-0.6,0c-1.2,0-2,0.6-2,2.2v3.6h-1.4v-7.2h1.4v1.3c0.5-1.1,1.4-1.4,2.2-1.4
		c0.2,0,0.4,0,0.5,0V319.9z"/>
	<path class="st0" d="M272.7,323.7c-0.4,1.3-1.6,2.3-3.2,2.3c-1.9,0-3.6-1.4-3.6-3.9c0-2.3,1.6-3.8,3.4-3.8c2.2,0,3.5,1.5,3.5,3.8
		c0,0.2,0,0.4,0,0.5h-5.4c0,1.3,1,2.2,2.2,2.2c1.2,0,1.8-0.6,2-1.5L272.7,323.7z M271.3,321.4c0-1-0.7-1.8-2-1.8
		c-1.2,0-1.9,0.9-2,1.8H271.3z"/>
	<path class="st0" d="M275.4,314.8c0.6,0,1,0.5,1,1c0,0.6-0.5,1-1,1c-0.6,0-1-0.5-1-1C274.4,315.2,274.8,314.8,275.4,314.8z
		 M274.7,325.7v-7.2h1.4v7.2H274.7z"/>
	<path class="st0" d="M278.6,325.7v-10.9h1.4v4.7c0.3-0.6,1.2-1.2,2.4-1.2c2.2,0,3.3,1.7,3.3,3.8c0,2.1-1.2,3.8-3.4,3.8
		c-1.1,0-1.9-0.5-2.3-1.2v1H278.6z M282.2,319.6c-1.2,0-2.1,1-2.1,2.5c0,1.6,0.9,2.6,2.1,2.6c1.3,0,2.1-1,2.1-2.6
		C284.3,320.5,283.5,319.6,282.2,319.6z"/>
	<path class="st0" d="M290.2,326c-1.7,0-2.7-1.3-2.7-2.9v-4.5h1.4v4.3c0,1,0.5,1.9,1.6,1.9c1.1,0,1.7-0.8,1.7-1.8v-4.3h1.4v5.9
		c0,0.6,0,1.1,0.1,1.3h-1.3c0-0.2-0.1-0.6-0.1-0.9C292,325.6,291.1,326,290.2,326z"/>
	<path class="st0" d="M300.2,319.9c-0.2,0-0.4,0-0.6,0c-1.2,0-2,0.6-2,2.2v3.6h-1.4v-7.2h1.4v1.3c0.5-1.1,1.4-1.4,2.2-1.4
		c0.2,0,0.4,0,0.5,0V319.9z"/>
	<path class="st0" d="M302.7,325.8c0.1,1,0.9,1.8,2,1.8c1.5,0,2.2-0.8,2.2-2.3v-1c-0.3,0.7-1.1,1.2-2.2,1.2c-1.9,0-3.3-1.5-3.3-3.5
		c0-2,1.3-3.5,3.3-3.5c1.1,0,1.9,0.4,2.2,1.1v-1h1.4v6.7c0,1.8-0.9,3.6-3.6,3.6c-1.8,0-3.2-1.1-3.3-2.7L302.7,325.8z M306.9,321.9
		c0-1.4-0.8-2.3-2.1-2.3c-1.2,0-2.1,0.9-2.1,2.3c0,1.4,0.8,2.3,2.1,2.3C306.1,324.2,306.9,323.3,306.9,321.9z"/>
</g>
</svg>
