<?xml version="1.0" encoding="UTF-8"?>
<svg id="Ebene_1" xmlns="http://www.w3.org/2000/svg" version="1.1" viewBox="0 0 425.2 336.8">
  <!-- Generator: Adobe Illustrator 30.2.1, SVG Export Plug-In . SVG Version: 2.1.1 Build 1)  -->
  <g>
    <path d="M202.3,11.7h0Z"/>
    <path d="M302.9,86.2c-11.3-37-42.7-66.4-83.5-73.1-5.8-.9-11.5-1.4-17.1-1.4v6c5.4,0,10.8.4,16.1,1.3,36.7,6,65.4,31.6,77.2,64.3-17.1-6.5-37-12.2-57.7-16.8-21.5-17.9-43.7-33.3-64-44.7,9.1-2.7,18.7-4.2,28.3-4.2v-6h0c-12.3,0-24.3,2.2-35.5,6.2C149.4,8.6,133.8,2.6,121.8.6c-11.3-1.9-19.3-.1-23.7,5.2-4.4,5.4-4.4,13.3-1.9,22-9.6,1.2-17.5,4.4-20.6,11.2s-.4,14.7,5.1,22.7c-12.2,3.9-19.9,9.7-21.2,17.5-2.1,12.5,13.4,25.5,38,36.8-.4,50.9,36.3,95.8,88,104.3,5.8.9,11.5,1.4,17.1,1.4,37.3,0,71.4-20,90.1-51.2,7.8,1.2,16.1,2,23.8,1.8,3.4,10.1,3.5,17.8.1,21.8-3.8,4.6-12.1,4.3-18.5,3.3-6.3-1-13.3-3.2-21.3-6.5-1.6,1.6-2.6,2.5-4.4,4.2,9.2,3.9,17.8,6.5,24.9,7.7,11.3,1.9,19.3.1,23.7-5.2,4.7-5.7,4.9-14.7,1.5-25.7,9.9-1,18.1-4.2,21.2-11.2,2.7-6,.9-13.4-4.4-21.5,5.9-3.1,9.9-7.3,10.7-12.3,2.2-14-17.4-28.5-47.1-40.7h0ZM261.4,77.4c13.4,3.8,25.7,8.1,36.4,12.5,1.2,4.3,2.2,8.8,2.8,13.3-12.2-8.7-26-17.2-39.7-24.3-2.4-1.3-9-4.1-11.3-5.2,2.5.7,9.3,3,11.8,3.7h0ZM259.1,83.2c15.9,8.9,30.3,18.2,42.2,27,.5,7.1.2,14.3-1,21.6-11.1-15.1-26.5-32.6-42.2-46.9-2.1-1.9-7.9-6.2-10-8,2.5,1.3,8.6,5,11,6.3ZM307.4,114.9c10.1,8,18.1,15.5,23.3,21.9-6.4,2-14.8,3.2-24.5,3.5-.4-.5-.7-1.1-1.1-1.6.3-1.6.7-3.3.9-4.9,1.1-6.4,1.5-12.7,1.4-18.9h0ZM212,53c2.7,1.9,8.9,5.8,11.5,7.8-3-1.3-9.5-4.5-12.5-5.7-21.4-8.8-43.4-16.4-62.7-21.3,5.8-3.8,12-6.9,18.4-9.4,14.4,7.7,29.9,17.5,45.3,28.6ZM104.5,78.8c-5.8-4.9-10.6-9.7-14.4-14.1,6.6-1.5,14.3-2.7,23.1-3.4-3.4,5.5-6.3,11.4-8.7,17.5ZM116.9,55.7s-.1-.1-.1-.2c-5.7-8.1-10-15.8-12.7-22.5,6.9-.1,15,.6,24.2,2.1,2.1.3,4.3.8,6.6,1.2-6.8,5.7-12.8,12.2-18,19.4h0ZM138.6,41c1.2-1,2.5-2,3.8-3,20.2,4.6,44.1,12.2,67,21.4,2.9,1.2,9.6,3.4,12.5,4.7-3.2-.6-10-2.2-13.1-2.7-28.6-4.9-53.5-7.3-84.1-6,4.2-5.3,8.8-10.1,13.9-14.4ZM102.5,9.5c3.8-4.6,12.1-4.3,18.5-3.3,10.2,1.7,23.7,6.8,38.8,14.5-6.8,3-13.3,6.8-19.3,11.2-3.9-.9-7.8-1.6-11.4-2.2-8.7-1.4-18.4-2.5-27.1-2.2-2.5-8.2-2.4-14.5.5-18ZM80.6,41.3c2-4.4,8.2-7.1,17.5-8,3,7.7,7.5,15.7,12.3,22.8-8.9.8-17.1,2.1-24.1,3.9-5.6-7.7-7.7-14.2-5.7-18.7ZM97.6,110.2c-22.2-10.6-34.1-21.6-32.7-30.1.9-5.6,7.7-10.4,19.2-13.8,5.2,6.5,11.9,12.7,18.4,18.2.2-.5.4-1,.5-1.6-1.8,5.4-3.3,11-4.2,16.8-.6,3.5-1,7-1.2,10.5ZM266.2,192.4c-17.9,15-40.5,23.3-63.7,23.3-5.4,0-10.8-.4-16.2-1.3-53.9-8.8-90.5-59.9-81.7-113.8,2.4-14.4,7.9-28,16-39.9,24.1-1.3,54.9.4,89.9,6.1,8.6,1.4,16.9,3,24.8,4.7,28.3,23.4,49.5,47.1,63.5,67.5-4.8,20.9-16.2,39.6-32.6,53.4h0ZM295.5,165.3c3.2-6.1,5.8-12.7,7.8-19.5,4.8,7.6,8.5,14.6,11.1,20.9-5.6,0-11.9-.4-18.9-1.4ZM338.5,158.4c-2,4.5-8.4,7.2-18.1,8-2.5-6.4-6.1-13.3-10.6-20.7,9.1-.2,17.6-1.7,24.4-4.3,4.6,7,6.2,12.8,4.3,17h0ZM344.4,126c-.6,3.5-3.6,6.4-8.4,8.8-6.2-8-16.5-17.3-28.9-26.7-.4-5.1-1.2-10.2-2.4-15.1,25.9,11.6,41.2,24,39.7,33h0Z"/>
  </g>
  <g>
    <path d="M417.8,278.7v-5h-12v-22h-5.3v27h17.3ZM377.5,257.5l3.7,10.2h-7.5l3.8-10.2ZM385.3,278.7h5.7l-10.3-27h-6.1l-10.3,27h5.6l2.2-6.2h11l2.2,6.2h0ZM354.7,251.7h-5.3v27h5.3v-27h0ZM325.7,278.7c7.7,0,13.4-4.9,13.4-13.5s-5.6-13.5-13.3-13.5h-9.7v27h9.6ZM321.4,273.8v-17.2h4.2c4.4,0,8.1,2.8,8.1,8.6s-3.7,8.6-8.1,8.6h-4.2ZM303.9,278.7v-27h-5.3v17.8l-11.2-17.8h-6.5v27h5.3v-19.1l12.3,19.1h5.4ZM242.4,265.2c0,8.7,6.5,14,13.9,14s13.9-5.4,13.9-14-6.5-14.1-13.9-14.1c-7.3.1-13.9,5.4-13.9,14.1M247.9,265.2c0-6.1,4.3-9,8.4-9s8.4,2.9,8.4,9-4.3,9-8.4,9-8.4-2.9-8.4-9M232.6,278.7v-27h-7.2l-7.9,19.5-8.1-19.5h-6.9v27h5v-18.8l7.8,18.8h4.4l7.8-18.9v18.9h5.1,0Z"/>
    <path d="M177.9,263.8v-7.5h4.3c2.7,0,4.2,1.5,4.2,3.8s-1.6,3.7-4.2,3.7h-4.3ZM186,278.7h5.9l-5.8-11c3.5-1,5.7-3.9,5.7-7.6,0-4.7-3.3-8.3-8.6-8.3h-10.5v27h5.3v-10.4h2.7l5.3,10.3h0ZM161.3,278.7v-4.9h-11.6v-6.2h10.5v-4.7h-10.5v-6.2h11.6v-4.9h-16.9v27h16.9v-.1h0ZM132.2,251.7h-5.3v27h5.3v-27h0ZM116.7,278.7v-5h-12v-22h-5.3v27h17.3ZM88.1,278.7v-4.9h-11.6v-6.2h10.5v-4.7h-10.5v-6.2h11.6v-4.9h-16.9v27h16.9v-.1h0ZM61.4,256.7v-5h-22.3v5h8.5v22h5.3v-22h8.5ZM20.2,257.5l3.7,10.2h-7.5l3.8-10.2ZM27.9,278.7h5.7l-10.3-27h-6.1l-10.4,27h5.6l2.2-6.2h11s2.3,6.2,2.3,6.2Z"/>
  </g>
  <g>
    <path d="M87.1,304.7v-10.6h1.5v10.6h-1.5Z"/>
    <path d="M92.7,304.7h-1.4v-7.2h1.4v1c.5-.9,1.4-1.2,2.2-1.2,1.7,0,2.6,1.2,2.6,2.8v4.6h-1.5v-4.3c0-1-.4-1.8-1.7-1.8-1.1,0-1.7.9-1.7,2v4.1h.1Z"/>
    <path d="M101.7,297.5h1.6v1.3h-1.6v3.8c0,.7.3,1,1,1,.2,0,.4,0,.6-.1v1.2c-.1,0-.5.1-1,.1-1.2,0-2-.8-2-2.1v-4h-1.4v-1.3h.4c.8,0,1.1-.5,1.1-1.1v-1.2h1.3v2.4h0Z"/>
    <path d="M111.5,302.7c-.4,1.3-1.6,2.3-3.2,2.3-1.9,0-3.6-1.4-3.6-3.9,0-2.3,1.6-3.8,3.4-3.8,2.2,0,3.5,1.5,3.5,3.8v.5h-5.4c0,1.3,1,2.2,2.2,2.2s1.8-.6,2-1.5l1.1.4ZM110.1,300.4c0-1-.7-1.8-2-1.8-1.2,0-1.9.9-2,1.8h4Z"/>
    <path d="M117.5,298.9h-.6c-1.2,0-2,.6-2,2.2v3.6h-1.4v-7.2h1.4v1.3c.5-1.1,1.4-1.4,2.2-1.4h.5v1.5h-.1Z"/>
    <path d="M120.6,304.7h-1.4v-7.2h1.4v1c.5-.9,1.4-1.2,2.2-1.2,1.7,0,2.6,1.2,2.6,2.8v4.6h-1.4v-4.3c0-1-.4-1.8-1.7-1.8-1.1,0-1.7.9-1.7,2v4.1Z"/>
    <path d="M129.5,300.6l2-.3c.4-.1.6-.3.6-.5,0-.7-.5-1.3-1.6-1.3-1,0-1.5.6-1.6,1.5l-1.3-.3c.1-1.4,1.4-2.3,3-2.3,2.2,0,3,1.2,3,2.6v3.6c0,.6.1,1,.1,1.2h-1.4c0-.2-.1-.5-.1-1-.3.5-1,1.2-2.3,1.2-1.5,0-2.4-1-2.4-2.2-.2-1.3.7-2,2-2.2h0ZM132,301.6v-.3l-2.2.3c-.6.1-1.1.4-1.1,1.1,0,.5.5,1,1.2,1,1.1.1,2.1-.5,2.1-2.1Z"/>
    <path d="M137.6,297.5h1.6v1.3h-1.6v3.8c0,.7.3,1,1,1,.2,0,.4,0,.6-.1v1.2c-.1,0-.5.1-1,.1-1.2,0-2-.8-2-2.1v-4h-1.4v-1.3h.4c.8,0,1.1-.5,1.1-1.1v-1.2h1.3v2.4h0Z"/>
    <path d="M141.9,293.8c.6,0,1,.5,1,1,0,.6-.5,1-1,1-.6,0-1-.5-1-1,0-.6.4-1,1-1ZM141.2,304.7v-7.2h1.4v7.2h-1.4Z"/>
    <path d="M151.9,301.1c0,2.2-1.5,3.8-3.7,3.8s-3.7-1.6-3.7-3.8,1.5-3.8,3.7-3.8,3.7,1.6,3.7,3.8ZM150.5,301.1c0-1.7-1-2.6-2.2-2.6s-2.2.9-2.2,2.6,1,2.6,2.2,2.6c1.1,0,2.2-.9,2.2-2.6Z"/>
    <path d="M155.3,304.7h-1.4v-7.2h1.4v1c.5-.9,1.4-1.2,2.2-1.2,1.7,0,2.6,1.2,2.6,2.8v4.6h-1.4v-4.3c0-1-.4-1.8-1.7-1.8-1.1,0-1.7.9-1.7,2v4.1h0Z"/>
    <path d="M164.2,300.6l2-.3c.4-.1.6-.3.6-.5,0-.7-.5-1.3-1.6-1.3-1,0-1.5.6-1.6,1.5l-1.3-.3c.1-1.4,1.4-2.3,3-2.3,2.2,0,3,1.2,3,2.6v3.6c0,.6.1,1,.1,1.2h-1.4c0-.2-.1-.5-.1-1-.3.5-1,1.2-2.3,1.2-1.5,0-2.4-1-2.4-2.2-.2-1.3.8-2,2-2.2h0ZM166.7,301.6v-.3l-2.2.3c-.6.1-1.1.4-1.1,1.1,0,.5.5,1,1.2,1,1.2.1,2.1-.5,2.1-2.1Z"/>
    <path d="M170.5,304.7v-10.9h1.4v10.9h-1.4Z"/>
    <path d="M184.6,301.8h-4.7l-1.1,3h-1.6l4.2-10.6h1.7l4.2,10.6h-1.6l-1.1-3h0ZM180.5,300.4h3.7l-1.8-4.8-1.9,4.8Z"/>
    <path d="M192.8,298.9h-.6c-1.2,0-2,.6-2,2.2v3.6h-1.4v-7.2h1.4v1.3c.5-1.1,1.4-1.4,2.2-1.4h.5v1.5h-.1,0Z"/>
    <path d="M196.7,297.5h1.6v1.3h-1.6v3.8c0,.7.3,1,1,1,.2,0,.4,0,.6-.1v1.2c-.1,0-.5.1-1,.1-1.2,0-2-.8-2-2.1v-4h-1.4v-1.3h.4c.8,0,1.1-.5,1.1-1.1v-1.2h1.3v2.4h0Z"/>
    <path d="M201,302.4c.1.8.7,1.4,1.7,1.4.8,0,1.2-.5,1.2-1s-.3-.8-.9-.9l-1.2-.3c-1.1-.2-1.8-1-1.8-2,0-1.2,1.2-2.3,2.6-2.3,2,0,2.6,1.3,2.7,1.9l-1.2.5c-.1-.4-.4-1.2-1.5-1.2-.7,0-1.2.5-1.2,1,0,.4.3.8.8.9l1.2.3c1.3.3,2,1.1,2,2.1s-.9,2.2-2.6,2.2c-2,0-2.8-1.3-2.9-2.1l1.1-.5h0Z"/>
    <path d="M211.3,304.7v-10.6h6.5v1.4h-5v3.3h4.5v1.4h-4.5v3.3h5v1.4h-6.5v-.2h0Z"/>
    <path d="M221.7,301.1l-2.6-3.5h1.7l1.8,2.5,1.7-2.5h1.7l-2.6,3.5c.4.6,2.2,3.1,2.7,3.7h-1.7l-1.9-2.7-1.8,2.7h-1.7l2.7-3.7h0Z"/>
    <path d="M228.3,301.1c0,1.7,1,2.5,2.2,2.5,1.3,0,1.8-.9,2-1.5l1.2.5c-.3,1-1.4,2.2-3.3,2.2-2.1,0-3.6-1.6-3.6-3.8s1.6-3.8,3.6-3.8,2.9,1.2,3.2,2.3l-1.3.5c-.2-.7-.7-1.5-1.9-1.5-1.1.1-2.1.9-2.1,2.6h0Z"/>
    <path d="M236.9,304.7h-1.4v-10.9h1.4v4.5c.5-.8,1.4-1,2.2-1,1.7,0,2.6,1.2,2.6,2.8v4.6h-1.4v-4.3c0-1-.4-1.8-1.7-1.8-1.1,0-1.7.8-1.7,1.9v4.2h0Z"/>
    <path d="M245.8,300.6l2-.3c.4-.1.6-.3.6-.5,0-.7-.5-1.3-1.6-1.3-1,0-1.5.6-1.6,1.5l-1.3-.3c.1-1.4,1.4-2.3,3-2.3,2.2,0,3,1.2,3,2.6v3.6c0,.6.1,1,.1,1.2h-1.4c0-.2-.1-.5-.1-1-.3.5-1,1.2-2.3,1.2-1.5,0-2.4-1-2.4-2.2-.2-1.3.8-2,2-2.2h0ZM248.3,301.6v-.3l-2.2.3c-.6.1-1.1.4-1.1,1.1,0,.5.5,1,1.2,1,1.2.1,2.1-.5,2.1-2.1Z"/>
    <path d="M253.5,304.7h-1.4v-7.2h1.4v1c.5-.9,1.4-1.2,2.2-1.2,1.7,0,2.6,1.2,2.6,2.8v4.6h-1.4v-4.3c0-1-.4-1.8-1.7-1.8-1.1,0-1.7.9-1.7,2v4.1Z"/>
    <path d="M261.5,304.8c.1,1,.9,1.8,2,1.8,1.5,0,2.2-.8,2.2-2.3v-1c-.3.7-1.1,1.2-2.2,1.2-1.9,0-3.3-1.5-3.3-3.5s1.3-3.5,3.3-3.5c1.1,0,1.9.4,2.2,1.1v-1h1.4v6.7c0,1.8-.9,3.6-3.6,3.6-1.8,0-3.2-1.1-3.3-2.7l1.3-.4h0ZM265.7,300.9c0-1.4-.8-2.3-2.1-2.3-1.2,0-2.1.9-2.1,2.3s.8,2.3,2.1,2.3,2.1-.9,2.1-2.3Z"/>
    <path d="M275.7,302.7c-.4,1.3-1.6,2.3-3.2,2.3-1.9,0-3.6-1.4-3.6-3.9,0-2.3,1.6-3.8,3.4-3.8,2.2,0,3.5,1.5,3.5,3.8v.5h-5.4c0,1.3,1,2.2,2.2,2.2s1.8-.6,2-1.5l1.1.4ZM274.3,300.4c0-1-.7-1.8-2-1.8-1.2,0-1.9.9-2,1.8h4Z"/>
    <path d="M283.3,300.4v4.3h-1.5v-10.6h3.9c2,0,3.3,1.4,3.3,3.2s-1.3,3.1-3.3,3.1h-2.4ZM285.4,299.1c1.3,0,2.1-.7,2.1-1.8s-.8-1.8-2.1-1.8h-2.1v3.6h2.1Z"/>
    <path d="M294.5,298.9h-.6c-1.2,0-2,.6-2,2.2v3.6h-1.4v-7.2h1.4v1.3c.5-1.1,1.4-1.4,2.2-1.4h.5v1.5h-.1Z"/>
    <path d="M302.9,301.1c0,2.2-1.5,3.8-3.7,3.8s-3.7-1.6-3.7-3.8,1.5-3.8,3.7-3.8,3.7,1.6,3.7,3.8ZM301.4,301.1c0-1.7-1-2.6-2.2-2.6s-2.2.9-2.2,2.6,1,2.6,2.2,2.6,2.2-.9,2.2-2.6Z"/>
    <path d="M305.7,304.8c.1,1,.9,1.8,2,1.8,1.5,0,2.2-.8,2.2-2.3v-1c-.3.7-1.1,1.2-2.2,1.2-1.9,0-3.3-1.5-3.3-3.5s1.3-3.5,3.3-3.5c1.1,0,1.9.4,2.2,1.1v-1h1.4v6.7c0,1.8-.9,3.6-3.6,3.6-1.8,0-3.2-1.1-3.3-2.7l1.3-.4h0ZM309.9,300.9c0-1.4-.8-2.3-2.1-2.3-1.2,0-2.1.9-2.1,2.3s.8,2.3,2.1,2.3,2.1-.9,2.1-2.3Z"/>
    <path d="M317.7,298.9h-.6c-1.2,0-2,.6-2,2.2v3.6h-1.4v-7.2h1.4v1.3c.5-1.1,1.4-1.4,2.2-1.4h.5v1.5h-.1Z"/>
    <path d="M321,300.6l2-.3c.4-.1.6-.3.6-.5,0-.7-.5-1.3-1.6-1.3-1,0-1.5.6-1.6,1.5l-1.3-.3c.1-1.4,1.4-2.3,3-2.3,2.2,0,3,1.2,3,2.6v3.6c0,.6.1,1,.1,1.2h-1.4c0-.2-.1-.5-.1-1-.3.5-1,1.2-2.3,1.2-1.5,0-2.4-1-2.4-2.2-.1-1.3.8-2,2-2.2h0ZM323.6,301.6v-.3l-2.2.3c-.6.1-1.1.4-1.1,1.1,0,.5.5,1,1.2,1,1.1.1,2.1-.5,2.1-2.1Z"/>
    <path d="M327.3,304.7v-7.2h1.3v1c.5-.8,1.3-1.2,2.2-1.2s1.8.4,2.2,1.4c.6-1,1.5-1.4,2.4-1.4,1.3,0,2.5.9,2.5,2.7v4.7h-1.4v-4.5c0-.9-.5-1.6-1.5-1.6s-1.7.8-1.7,1.8v4.4h-1.4v-4.5c0-.9-.5-1.6-1.5-1.6s-1.7.8-1.7,1.8v4.3h-1.4v-.1h0Z"/>
  </g>
  <g>
    <path d="M120.3,315.1c2,0,3.2,1.2,3.2,2.9,0,1.1-.7,2-1.6,2.3,1.2.3,1.9,1.4,1.9,2.6,0,1.7-1.3,2.9-3.3,2.9h-3.7v-10.6h3.5v-.1h0ZM120.1,319.8c1.2,0,1.9-.7,1.9-1.7s-.7-1.7-2-1.7h-1.8v3.4h1.9ZM120.3,324.4c1.2,0,2-.7,2-1.7s-.6-1.7-1.9-1.7h-2.1v3.4h2Z"/>
    <path d="M127.4,321.6l2-.3c.4-.1.6-.3.6-.5,0-.7-.5-1.3-1.6-1.3-1,0-1.5.6-1.6,1.5l-1.3-.3c.1-1.4,1.4-2.3,3-2.3,2.2,0,3,1.2,3,2.6v3.6c0,.6.1,1,.1,1.2h-1.6c0-.2-.1-.5-.1-1-.3.5-1,1.2-2.3,1.2-1.5,0-2.4-1-2.4-2.2,0-1.3,1-2,2.2-2.2h0ZM129.9,322.6v-.3l-2.2.3c-.6.1-1.1.4-1.1,1.1,0,.5.5,1,1.2,1,1.2.1,2.1-.5,2.1-2.1Z"/>
    <path d="M134.3,323.4c.1.8.7,1.4,1.7,1.4.8,0,1.2-.5,1.2-1s-.3-.8-.9-.9l-1.2-.3c-1.1-.2-1.8-1-1.8-2,0-1.2,1.2-2.3,2.6-2.3,2,0,2.6,1.3,2.7,1.9l-1.2.5c-.1-.4-.4-1.2-1.5-1.2-.7,0-1.2.5-1.2,1,0,.4.3.8.8.9l1.2.3c1.3.3,2,1.1,2,2.1s-.9,2.2-2.6,2.2c-2,0-2.8-1.3-2.9-2.1l1.1-.5h0Z"/>
    <path d="M146.8,323.7c-.4,1.3-1.6,2.3-3.2,2.3-1.9,0-3.6-1.4-3.6-3.9,0-2.3,1.6-3.8,3.4-3.8,2.2,0,3.5,1.5,3.5,3.8v.5h-5.4c0,1.3,1,2.2,2.2,2.2s1.8-.6,2-1.5l1.1.4ZM145.4,321.4c0-1-.7-1.8-2-1.8-1.2,0-1.9.9-2,1.8h4Z"/>
    <path d="M148.8,325.7v-10.9h1.4v10.9h-1.4Z"/>
    <path d="M155.7,322v-1.2h7.7v1.2h-7.7Z"/>
    <path d="M179,325.7v-8.3l-3.6,8.3h-1.4l-3.6-8.3v8.3h-1.4v-10.6h2l3.8,8.7,3.8-8.7h2v10.6h-1.6Z"/>
    <path d="M185.8,326c-1.7,0-2.7-1.3-2.7-2.9v-4.5h1.4v4.3c0,1,.5,1.9,1.6,1.9s1.7-.8,1.7-1.8v-4.3h1.4v5.9c0,.6,0,1.1.1,1.3h-1.3c0-.2-.1-.6-.1-.9-.4.6-1.3,1-2.1,1h0Z"/>
    <path d="M191.8,325.7v-10.9h1.4v10.9h-1.4Z"/>
    <path d="M197.1,325.7h-1.4v-10.9h1.4v4.5c.5-.8,1.4-1,2.2-1,1.7,0,2.6,1.2,2.6,2.8v4.6h-1.4v-4.3c0-1-.4-1.8-1.7-1.8-1.1,0-1.7.8-1.7,1.9v4.2h0Z"/>
    <path d="M211.1,322.1c0,2.2-1.5,3.8-3.7,3.8s-3.7-1.6-3.7-3.8,1.5-3.8,3.7-3.8,3.7,1.6,3.7,3.8ZM209.6,322.1c0-1.7-1-2.6-2.2-2.6s-2.2.9-2.2,2.6,1,2.6,2.2,2.6,2.2-.9,2.2-2.6Z"/>
    <path d="M215.6,326c-1.7,0-2.7-1.3-2.7-2.9v-4.5h1.4v4.3c0,1,.5,1.9,1.6,1.9s1.7-.8,1.7-1.8v-4.3h1.4v5.9c0,.6,0,1.1.1,1.3h-1.3c0-.2-.1-.6-.1-.9-.4.6-1.3,1-2.1,1h0Z"/>
    <path d="M222.2,323.4c.1.8.7,1.4,1.7,1.4.8,0,1.2-.5,1.2-1s-.3-.8-.9-.9l-1.2-.3c-1.1-.2-1.8-1-1.8-2,0-1.2,1.2-2.3,2.6-2.3,2,0,2.6,1.3,2.7,1.9l-1.2.5c-.1-.4-.4-1.2-1.5-1.2-.7,0-1.2.5-1.2,1,0,.4.3.8.8.9l1.2.3c1.3.3,2,1.1,2,2.1s-.9,2.2-2.6,2.2c-2,0-2.8-1.3-2.9-2.1l1.1-.5h0Z"/>
    <path d="M234.7,323.7c-.4,1.3-1.6,2.3-3.2,2.3-1.9,0-3.6-1.4-3.6-3.9,0-2.3,1.6-3.8,3.4-3.8,2.2,0,3.5,1.5,3.5,3.8v.5h-5.4c0,1.3,1,2.2,2.2,2.2s1.8-.6,2-1.5l1.1.4ZM233.3,321.4c0-1-.7-1.8-2-1.8-1.2,0-1.9.9-2,1.8h4Z"/>
    <path d="M239.6,322v-1.2h7.7v1.2h-7.7Z"/>
    <path d="M252.9,325.7v-10.6h6.5v1.4h-5v3.4h4.5v1.4h-4.5v4.5h-1.5v-.1h0Z"/>
    <path d="M264.8,319.9h-.6c-1.2,0-2,.6-2,2.2v3.6h-1.4v-7.2h1.4v1.3c.5-1.1,1.4-1.4,2.2-1.4h.5v1.5h-.1Z"/>
    <path d="M272.7,323.7c-.4,1.3-1.6,2.3-3.2,2.3-1.9,0-3.6-1.4-3.6-3.9,0-2.3,1.6-3.8,3.4-3.8,2.2,0,3.5,1.5,3.5,3.8v.5h-5.4c0,1.3,1,2.2,2.2,2.2s1.8-.6,2-1.5l1.1.4ZM271.3,321.4c0-1-.7-1.8-2-1.8-1.2,0-1.9.9-2,1.8h4Z"/>
    <path d="M275.4,314.8c.6,0,1,.5,1,1,0,.6-.5,1-1,1-.6,0-1-.5-1-1,0-.6.4-1,1-1ZM274.7,325.7v-7.2h1.4v7.2h-1.4Z"/>
    <path d="M278.6,325.7v-10.9h1.4v4.7c.3-.6,1.2-1.2,2.4-1.2,2.2,0,3.3,1.7,3.3,3.8s-1.2,3.8-3.4,3.8c-1.1,0-1.9-.5-2.3-1.2v1h-1.4ZM282.2,319.6c-1.2,0-2.1,1-2.1,2.5,0,1.6.9,2.6,2.1,2.6,1.3,0,2.1-1,2.1-2.6s-.8-2.5-2.1-2.5Z"/>
    <path d="M290.2,326c-1.7,0-2.7-1.3-2.7-2.9v-4.5h1.4v4.3c0,1,.5,1.9,1.6,1.9s1.7-.8,1.7-1.8v-4.3h1.4v5.9c0,.6,0,1.1.1,1.3h-1.3c0-.2-.1-.6-.1-.9-.3.6-1.2,1-2.1,1Z"/>
    <path d="M300.2,319.9h-.6c-1.2,0-2,.6-2,2.2v3.6h-1.4v-7.2h1.4v1.3c.5-1.1,1.4-1.4,2.2-1.4h.5v1.5h-.1Z"/>
    <path d="M302.7,325.8c.1,1,.9,1.8,2,1.8,1.5,0,2.2-.8,2.2-2.3v-1c-.3.7-1.1,1.2-2.2,1.2-1.9,0-3.3-1.5-3.3-3.5s1.3-3.5,3.3-3.5c1.1,0,1.9.4,2.2,1.1v-1h1.4v6.7c0,1.8-.9,3.6-3.6,3.6-1.8,0-3.2-1.1-3.3-2.7l1.3-.4h0ZM306.9,321.9c0-1.4-.8-2.3-2.1-2.3-1.2,0-2.1.9-2.1,2.3s.8,2.3,2.1,2.3,2.1-.9,2.1-2.3Z"/>
  </g>
</svg>