<?xml version="1.0" encoding="UTF-8"?>
<svg id="BL-Logo" xmlns="http://www.w3.org/2000/svg" version="1.1" viewBox="0 0 52.57 52.57">
  <!-- Generator: Adobe Illustrator 30.6.0, SVG Export Plug-In . SVG Version: 2.1.4 Build 109)  -->
  <path d="M28.02,42.78c-.08.79-.5,1.18-1.26,1.18-.43,0-.75-.12-.95-.36-.21-.24-.31-.61-.31-1.12v-1.85c0-.5.1-.88.31-1.11s.53-.35.95-.35c.77,0,1.18.39,1.26,1.18v2.43ZM28.18,38.82c-.4-.47-.95-.7-1.63-.7-1.43,0-2.15.83-2.15,2.48v1.92c0,1.66.72,2.49,2.15,2.49.68,0,1.23-.24,1.63-.7l.17.54h.77v-6.56h-.77l-.17.54Z" fill="#1d1d1b"/>
  <polygon points="33.83 38.29 32.53 40.56 31.24 38.29 30.05 38.29 31.9 41.54 30.08 44.85 31.22 44.85 32.49 42.58 33.78 44.85 34.98 44.85 33.11 41.57 35 38.29 33.83 38.29" fill="#1d1d1b"/>
  <g>
    <path d="M22.32,39.27c0,.81-.47,1.22-1.4,1.22h-1.61v-3.72h1.62c.92,0,1.39.4,1.39,1.22v1.28ZM20.85,35.69h-2.69v9.16h1.14v-3.27h1.56c.79,0,1.42-.21,1.89-.62.47-.41.7-.97.7-1.68v-1.28c0-.7-.24-1.26-.71-1.68-.47-.42-1.1-.62-1.9-.62" fill="#1d1d1b"/>
    <path d="M8.6,28.6c0,.96-.43,1.44-1.28,1.44s-1.27-.48-1.27-1.44v-1.92c0-.95.43-1.43,1.27-1.43s1.28.48,1.28,1.43v1.92ZM9.69,28.59v-1.89c0-.79-.21-1.4-.62-1.84-.42-.43-.99-.65-1.75-.65s-1.33.22-1.74.65c-.41.43-.62,1.05-.62,1.84v1.89c0,.79.21,1.4.62,1.85.41.44.99.66,1.74.66s1.33-.22,1.75-.66c.41-.44.62-1.06.62-1.85" fill="#1d1d1b"/>
  </g>
  <polygon points=".04 21.77 .04 30.92 1.19 30.92 1.19 27.23 4.07 27.23 4.07 26.14 1.19 26.14 1.19 22.85 4.52 22.85 4.52 21.77 .04 21.77" fill="#1d1d1b"/>
  <path d="M11,24.37v4.19c0,1.7.67,2.54,2.01,2.54.7,0,1.25-.25,1.63-.74l.2.57h.71v-6.55h-1.1v4.6c-.05.35-.18.62-.39.8-.22.18-.5.27-.84.27-.74,0-1.11-.5-1.11-1.51v-4.16h-1.1Z" fill="#1d1d1b"/>
  <rect x="39.27" y="22" width="1.17" height="1.35" fill="#1d1d1b"/>
  <rect x="39.3" y="24.37" width="1.1" height="6.55" fill="#1d1d1b"/>
  <g>
    <path d="M35.67,28.66c0,.82.14,1.4.43,1.75.28.35.76.52,1.41.52h.82v-1.06h-.47c-.4,0-.68-.1-.84-.31-.16-.21-.24-.58-.24-1.13v-3.02h1.51v-1.04h-1.51v-1.92h-1.1v1.92h-.88v1.04h.88v3.24Z" fill="#1d1d1b"/>
    <path d="M45.42,28.6c0,.96-.43,1.44-1.28,1.44s-1.28-.48-1.28-1.44v-1.92c0-.95.43-1.43,1.28-1.43s1.28.48,1.28,1.43v1.92ZM44.14,24.2c-.75,0-1.33.22-1.74.65-.42.44-.62,1.05-.62,1.84v1.89c0,.79.21,1.4.62,1.85.41.44.99.66,1.74.66s1.33-.22,1.74-.66c.42-.44.62-1.06.62-1.85v-1.89c0-.79-.21-1.4-.62-1.84-.41-.43-.99-.65-1.74-.65" fill="#1d1d1b"/>
    <path d="M30.28,28.56v-1.85c0-.51.1-.88.31-1.11.21-.24.52-.35.95-.35.77,0,1.18.39,1.26,1.18v2.42c-.08.8-.5,1.19-1.26,1.19-.43,0-.75-.12-.95-.36-.21-.24-.31-.62-.31-1.12M32.97,30.39l.17.53h.77v-6.55h-.77l-.17.54c-.4-.47-.95-.7-1.63-.7-1.43,0-2.15.82-2.15,2.48v1.92c0,1.67.72,2.5,2.15,2.5.68,0,1.23-.24,1.63-.7" fill="#1d1d1b"/>
    <path d="M24.2,28.56v-1.85c0-.51.1-.88.31-1.11.21-.24.53-.35.95-.35.77,0,1.18.39,1.26,1.18v2.42c-.08.8-.5,1.19-1.26,1.19-.43,0-.75-.12-.95-.36-.21-.24-.31-.62-.31-1.12M26.89,30.39l.17.53h.77v-9.99h-1.1v3.79c-.39-.35-.88-.52-1.47-.52-1.43,0-2.15.82-2.15,2.48v1.92c0,1.67.72,2.5,2.15,2.5.68,0,1.23-.24,1.63-.7" fill="#1d1d1b"/>
    <path d="M18.21,26.33c.1-.72.53-1.08,1.28-1.08.8,0,1.21.5,1.21,1.51v4.16h1.1v-4.2c0-.84-.18-1.48-.54-1.9-.37-.42-.88-.63-1.56-.63-.73,0-1.3.24-1.69.74l-.19-.57h-.72v6.55h1.1v-4.6Z" fill="#1d1d1b"/>
    <path d="M52.03,24.83c-.36-.42-.88-.63-1.56-.63-.73,0-1.29.24-1.68.74l-.2-.57h-.71v6.55h1.1v-4.6c.11-.72.54-1.08,1.28-1.08.81,0,1.21.5,1.21,1.51v4.16h1.1v-4.2c0-.84-.18-1.48-.54-1.9" fill="#1d1d1b"/>
    <path d="M30.67,14.74c0,.82.14,1.4.43,1.75.28.35.75.52,1.41.52h.82v-1.06h-.48c-.39,0-.67-.1-.84-.31-.16-.21-.24-.58-.24-1.13v-3.03h1.51v-1.03h-1.51v-1.92h-1.1v1.92h-.88v1.03h.88v3.25Z" fill="#1d1d1b"/>
  </g>
  <path d="M22.33,9.24l1.02,4.29h-2.04l1.03-4.29ZM21.62,7.85l-2.36,9.15h1.12l.65-2.38h2.58l.65,2.38h1.13l-2.33-9.15h-1.44Z" fill="#1d1d1b"/>
  <path d="M29.47,10.36s-.13-.02-.24-.02c-.74,0-1.33.25-1.78.74l-.21-.63h-.77v6.55h1.1v-4.21c0-.43.14-.8.44-1.07.29-.28.66-.41,1.1-.41.07,0,.19.02.35.05v-1Z" fill="#1d1d1b"/>
  <rect x="7.73" y="48.81" width="9.28" height="3.75" fill="#1d1d1b"/>
  <rect x="7.74" width="9.28" height="3.75" fill="#1d1d1b"/>
  <rect x="35.56" y="48.81" width="9.28" height="3.75" fill="#1d1d1b"/>
  <rect x="35.56" width="9.28" height="3.75" fill="#1d1d1b"/>
  <rect y="7.73" width="3.75" height="9.28" fill="#1d1d1b"/>
  <rect x="48.81" y="7.73" width="3.75" height="9.28" fill="#1d1d1b"/>
  <rect y="35.57" width="3.75" height="9.28" fill="#1d1d1b"/>
  <rect x="48.81" y="35.57" width="3.75" height="9.28" fill="#1d1d1b"/>
</svg>