<?xml version="1.0" encoding="UTF-8"?>
<svg id="Ebene_1" xmlns="http://www.w3.org/2000/svg" version="1.1" viewBox="0 0 334.6 177.2">
  <!-- Generator: Adobe Illustrator 30.2.1, SVG Export Plug-In . SVG Version: 2.1.1 Build 1)  -->
  <path d="M266.9,14.2V.1h-53.1v80.6h53v-14.1h-37.3v-19.5h31.7v-14.2h-31.7V14.2h37.4Z"/>
  <path d="M199.9,8.4c-2.4-1.6-4.8-3.6-7.6-5-8.3-4.3-17.2-4.8-26.3-3.2-5.8,1-10.9,3.6-14.8,8.1-5.1,5.9-6.2,12.9-5.1,20.4,1,7.1,4.9,12.3,11.5,15.1,2.6,1.1,5.4,1.9,8.2,2.4,4.6.9,9.4,1.4,14,2.3,3.6.7,5.8,3,6.5,6.6,1,5.7-1.7,9.9-7.5,11.4-6,1.5-12,1.1-17.8-1-2.9-1.1-5.6-3-8.2-4.4-3.1,3.2-6.5,6.5-9.9,9.9,2.8,2.9,6.2,5.3,10.1,7,9,3.8,18.3,4.2,27.8,2.6,5.4-.9,10.3-3.1,14.4-6.9,5.9-5.5,7.5-12.4,6.9-20-.8-9.7-6.2-16.4-15.6-18.8-4.1-1-8.3-1.5-12.5-2.3-2.6-.5-5.2-.9-7.7-1.8-2.3-.8-3.9-2.4-4.7-4.8-1.5-5.2,1.3-10.4,6.7-12,4.1-1.3,8.2-.9,12.3-.1,3.6.7,6.8,2.3,9.6,4.9,3-3.5,6.2-6.8,9.7-10.4h0Z"/>
  <path d="M334.6,66.6h-36.5V.1h-15.7v80.6h52.2v-14.1Z"/>
  <path d="M165.6,177.2c0-.6-.1-1.1-.1-1.7v-79.1h53.1v14h-37.2v18.8h31.7v14.2h-31.6v19.5h45.2c-2.3,4.9-4.4,9.6-6.6,14.3h-54.5,0Z"/>
  <path d="M117.4,177.2c-1.3-3.7-2.5-7.3-3.8-11-7.6-22.8-15.1-45.7-22.6-68.5-.1-.3-.2-.7-.3-1.2h16.4c5.3,17.2,10.7,34.6,16.1,52.3.7-2.3,1.4-4.3,2-6.3,4.6-14.9,9.2-29.8,13.8-44.8.3-1,.7-1.4,1.8-1.3,5,.1,9.9,0,15.1,0-.2.5-.3,1-.4,1.4-7.3,22-14.6,44.1-21.9,66.1-1.5,4.4-2.9,8.9-4.3,13.3h-11.9Z"/>
  <path d="M0,96.4h15.7v66.5h36.6v12.8c0,.5-.1,1-.2,1.5H0s0-80.8,0-80.8Z"/>
  <path d="M65.2,177.2c0-.6-.1-1.1-.1-1.7v-79.1h15.8v80.7c-5.2.1-10.4.1-15.7.1h0Z"/>
  <path d="M226.7,177.2c.1-.5.2-1,.4-1.4,1.8-3.9,3.7-7.8,5.4-11.7.4-.8.8-1.2,1.8-1.1,4,.1,8.1,0,12.3,0-1.4,2.9-2.6,5.7-3.9,8.4-.9,2-1.9,3.9-2.9,5.8h-13.1Z"/>
  <path d="M266.9,14.2h-37.3v18.7h31.7v14.2h-31.7v19.5h37.3v14.1h-53V.1h53.1c-.1,4.7-.1,9.3-.1,14.1Z"/>
  <path d="M199.9,8.4c-3.5,3.6-6.7,6.9-10,10.3-2.7-2.6-5.9-4.2-9.6-4.9-4.1-.8-8.2-1.1-12.3.1-5.4,1.7-8.2,6.8-6.7,12,.7,2.4,2.4,4.1,4.7,4.8,2.5.8,5.1,1.3,7.7,1.8,4.1.8,8.4,1.2,12.5,2.3,9.4,2.4,14.8,9.1,15.6,18.8.6,7.7-1,14.6-6.9,20-4.1,3.8-9,6-14.4,6.9-9.5,1.6-18.8,1.2-27.8-2.6-3.9-1.6-7.3-4.1-10.1-7,3.4-3.4,6.8-6.8,9.9-9.9,2.6,1.4,5.3,3.3,8.2,4.4,5.8,2.2,11.8,2.5,17.8,1,5.9-1.5,8.6-5.7,7.5-11.4-.7-3.6-2.9-5.9-6.5-6.6-4.6-.9-9.4-1.4-14-2.3-2.8-.6-5.6-1.3-8.2-2.4-6.6-2.8-10.4-8-11.5-15.1-1.1-7.5,0-14.5,5.1-20.4,3.9-4.6,9-7.1,14.8-8.1,9.1-1.6,18-1.1,26.3,3.2,3.1,1.5,5.5,3.5,7.9,5.1Z"/>
  <path d="M334.6,66.6v14.1h-52.2V.1h15.7v66.5h36.5Z"/>
  <path d="M52.5,42.8c-1.4-1.3-3.1-2.3-4.7-3.5,1-.7,2-1.3,2.9-2.1,5.7-5,7.5-11.4,6.3-18.7-1.1-7-4.6-12.3-11-15.5C41.7.8,37,.1,32.2.1,21.5,0,10.7,0,0,0v80.8h31.9c2,0,4.1-.1,6.1-.3,5.1-.6,9.8-2.3,13.6-5.8,4.9-4.5,6.7-10.2,6.9-16.6.1-5.9-1.5-11.2-6-15.3ZM15.8,14.4c.1-.1.2-.2.3-.2,5.9.1,11.8-.2,17.7.3,5.1.4,7.9,4.2,7.8,9.3-.1,4.8-3.4,8.4-8.4,8.7-5.7.3-11.4.1-17.3.1-.1-6.2-.1-12.2-.1-18.2ZM39.7,64c-1.5,1.4-3.3,2.4-5.3,2.4-6.2.1-12.3,0-18.6,0v-19.4c.4,0,.8-.1,1.2-.1h15.7c4.5,0,7.9,2.2,9.3,5.9,1.5,3.9.6,8.6-2.3,11.2Z"/>
  <path d="M136.6,79.7c-9.6-26.2-19.1-52.4-28.7-78.6C107.6.3,107.2,0,106.3,0,103,.1,99.7.1,96.4,0,95.4,0,94.9.3,94.6,1.2c-9.5,26.1-19,52.1-28.4,78.2-.1.4-.2.8-.4,1.3h15.2c1,0,1.3-.4,1.6-1.2,1.3-4,2.7-7.9,4-11.8.3-.9.6-1.2,1.6-1.2h26.2c1,0,1.3.3,1.6,1.2,1.3,4,2.6,8,4,12,.2.4.7,1,1.1,1,5.2.1,10.3,0,15.7,0-.1-.4-.1-.7-.2-1h0ZM91.5,53.2c3.4-9.7,6.7-19.2,10.1-29.1,3.3,9.9,6.5,19.4,9.8,29.1h-19.9Z"/>
</svg>