<?xml version="1.0" encoding="utf-8"?>
<!-- Generator: Adobe Illustrator 27.5.0, SVG Export Plug-In . SVG Version: 6.00 Build 0)  -->
<svg version="1.1" id="Ebene_1" xmlns="http://www.w3.org/2000/svg" xmlns:xlink="http://www.w3.org/1999/xlink" x="0px" y="0px"
	 viewBox="0 0 334.6 177.2" style="enable-background:new 0 0 334.6 177.2;" xml:space="preserve">
<style type="text/css">
	.st0{fill:#FFFFFF;}
</style>
<path class="st0" d="M266.9,14.2c0-4.8,0-9.4,0-14.1c-17.7,0-35.4,0-53.1,0c0,26.9,0,53.8,0,80.6c17.8,0,35.4,0,53,0
	c0-4.7,0-9.3,0-14.1c-12.5,0-24.9,0-37.3,0c0-6.5,0-12.9,0-19.5c10.6,0,21.1,0,31.7,0c0-4.8,0-9.4,0-14.2c-10.6,0-21.1,0-31.7,0
	c0-6.3,0-12.5,0-18.7C242.1,14.2,254.4,14.2,266.9,14.2z"/>
<path class="st0" d="M199.9,8.4c-2.4-1.6-4.8-3.6-7.6-5C184-0.9,175.1-1.4,166,0.2c-5.8,1-10.9,3.6-14.8,8.1
	c-5.1,5.9-6.2,12.9-5.1,20.4c1,7.1,4.9,12.3,11.5,15.1c2.6,1.1,5.4,1.9,8.2,2.4c4.6,0.9,9.4,1.4,14,2.3c3.6,0.7,5.8,3,6.5,6.6
	c1,5.7-1.7,9.9-7.5,11.4c-6,1.5-12,1.1-17.8-1c-2.9-1.1-5.6-3-8.2-4.4c-3.1,3.2-6.5,6.5-9.9,9.9c2.8,2.9,6.2,5.3,10.1,7
	c9,3.8,18.3,4.2,27.8,2.6c5.4-0.9,10.3-3.1,14.4-6.9c5.9-5.5,7.5-12.4,6.9-20c-0.8-9.7-6.2-16.4-15.6-18.8c-4.1-1-8.3-1.5-12.5-2.3
	c-2.6-0.5-5.2-0.9-7.7-1.8c-2.3-0.8-3.9-2.4-4.7-4.8c-1.5-5.2,1.3-10.4,6.7-12c4.1-1.3,8.2-0.9,12.3-0.1c3.6,0.7,6.8,2.3,9.6,4.9
	C193.2,15.3,196.4,12,199.9,8.4z"/>
<path class="st0" d="M334.6,66.6c-12.2,0-24.3,0-36.5,0c0-22.2,0-44.3,0-66.5c-5.3,0-10.5,0-15.7,0c0,26.9,0,53.8,0,80.6
	c17.5,0,34.8,0,52.2,0C334.6,76,334.6,71.4,334.6,66.6z"/>
<path class="st0" d="M165.6,177.2c0-0.6-0.1-1.1-0.1-1.7c0-25.9,0-51.7,0-77.6c0-0.5,0-0.9,0-1.5c17.7,0,35.3,0,53.1,0
	c0,4.6,0,9.2,0,14c-12.4,0-24.7,0-37.2,0c0,6.3,0,12.5,0,18.8c10.5,0,21,0,31.7,0c0,4.8,0,9.5,0,14.2c-10.6,0-21,0-31.6,0
	c0,6.5,0,12.9,0,19.5c15,0,30,0,45.2,0c-2.3,4.9-4.4,9.6-6.6,14.3C201.9,177.2,183.8,177.2,165.6,177.2z"/>
<path class="st0" d="M117.4,177.2c-1.3-3.7-2.5-7.3-3.8-11c-7.6-22.8-15.1-45.7-22.6-68.5c-0.1-0.3-0.2-0.7-0.3-1.2
	c5.4,0,10.8,0,16.4,0c5.3,17.2,10.7,34.6,16.1,52.3c0.7-2.3,1.4-4.3,2-6.3c4.6-14.9,9.2-29.8,13.8-44.8c0.3-1,0.7-1.4,1.8-1.3
	c5,0.1,9.9,0,15.1,0c-0.2,0.5-0.3,1-0.4,1.4c-7.3,22-14.6,44.1-21.9,66.1c-1.5,4.4-2.9,8.9-4.3,13.3
	C125.2,177.2,121.3,177.2,117.4,177.2z"/>
<path class="st0" d="M0,96.4c5.2,0,10.4,0,15.7,0c0,22.2,0,44.3,0,66.5c12.3,0,24.4,0,36.6,0c0,2,0,3.8,0,5.7c0,2.4,0,4.7,0,7.1
	c0,0.5-0.1,1-0.2,1.5c-17.4,0-34.8,0-52.1,0C0,150.3,0,123.3,0,96.4z"/>
<path class="st0" d="M65.2,177.2c0-0.6-0.1-1.1-0.1-1.7c0-25.9,0-51.7,0-77.6c0-0.5,0-0.9,0-1.5c5.3,0,10.4,0,15.8,0
	c0,0.5,0,1.1,0,1.6c0,25.8,0,51.5,0,77.3c0,0.6,0,1.2,0,1.8C75.7,177.2,70.5,177.2,65.2,177.2z"/>
<path class="st0" d="M226.7,177.2c0.1-0.5,0.2-1,0.4-1.4c1.8-3.9,3.7-7.8,5.4-11.7c0.4-0.8,0.8-1.2,1.8-1.1c4,0.1,8.1,0,12.3,0
	c-1.4,2.9-2.6,5.7-3.9,8.4c-0.9,2-1.9,3.9-2.9,5.8C235.4,177.2,231.1,177.2,226.7,177.2z"/>
<path class="st0" d="M266.9,14.2c-12.5,0-24.8,0-37.3,0c0,6.2,0,12.4,0,18.7c10.5,0,21.1,0,31.7,0c0,4.8,0,9.4,0,14.2
	c-10.6,0-21.1,0-31.7,0c0,6.5,0,12.9,0,19.5c12.4,0,24.8,0,37.3,0c0,4.8,0,9.4,0,14.1c-17.7,0-35.3,0-53,0c0-26.8,0-53.7,0-80.6
	c17.7,0,35.3,0,53.1,0C266.9,4.8,266.9,9.4,266.9,14.2z"/>
<path class="st0" d="M199.9,8.4c-3.5,3.6-6.7,6.9-10,10.3c-2.7-2.6-5.9-4.2-9.6-4.9c-4.1-0.8-8.2-1.1-12.3,0.1
	c-5.4,1.7-8.2,6.8-6.7,12c0.7,2.4,2.4,4.1,4.7,4.8c2.5,0.8,5.1,1.3,7.7,1.8c4.1,0.8,8.4,1.2,12.5,2.3c9.4,2.4,14.8,9.1,15.6,18.8
	c0.6,7.7-1,14.6-6.9,20c-4.1,3.8-9,6-14.4,6.9c-9.5,1.6-18.8,1.2-27.8-2.6c-3.9-1.6-7.3-4.1-10.1-7c3.4-3.4,6.8-6.8,9.9-9.9
	c2.6,1.4,5.3,3.3,8.2,4.4c5.8,2.2,11.8,2.5,17.8,1c5.9-1.5,8.6-5.7,7.5-11.4c-0.7-3.6-2.9-5.9-6.5-6.6c-4.6-0.9-9.4-1.4-14-2.3
	c-2.8-0.6-5.6-1.3-8.2-2.4c-6.6-2.8-10.4-8-11.5-15.1c-1.1-7.5,0-14.5,5.1-20.4c3.9-4.6,9-7.1,14.8-8.1c9.1-1.6,18-1.1,26.3,3.2
	C195.1,4.8,197.5,6.8,199.9,8.4z"/>
<path class="st0" d="M334.6,66.6c0,4.8,0,9.4,0,14.1c-17.4,0-34.8,0-52.2,0c0-26.8,0-53.7,0-80.6c5.2,0,10.4,0,15.7,0
	c0,22.1,0,44.2,0,66.5C310.2,66.6,322.3,66.6,334.6,66.6z"/>
<path class="st0" d="M52.5,42.8c-1.4-1.3-3.1-2.3-4.7-3.5c1-0.7,2-1.3,2.9-2.1c5.7-5,7.5-11.4,6.3-18.7c-1.1-7-4.6-12.3-11-15.5
	C41.7,0.8,37,0.1,32.2,0.1C21.5,0,10.7,0,0,0c0,26.9,0,53.9,0,80.8c10.6,0,21.3,0,31.9,0c2,0,4.1-0.1,6.1-0.3
	c5.1-0.6,9.8-2.3,13.6-5.8c4.9-4.5,6.7-10.2,6.9-16.6C58.6,52.2,57,46.9,52.5,42.8z M15.8,14.4c0.1-0.1,0.2-0.2,0.3-0.2
	c5.9,0.1,11.8-0.2,17.7,0.3c5.1,0.4,7.9,4.2,7.8,9.3c-0.1,4.8-3.4,8.4-8.4,8.7c-5.7,0.3-11.4,0.1-17.3,0.1
	C15.8,26.4,15.8,20.4,15.8,14.4z M39.7,64c-1.5,1.4-3.3,2.4-5.3,2.4c-6.2,0.1-12.3,0-18.6,0c0-6.5,0-12.9,0-19.4
	c0.4,0,0.8-0.1,1.2-0.1c5.2,0,10.5,0,15.7,0c4.5,0,7.9,2.2,9.3,5.9C43.5,56.7,42.6,61.4,39.7,64z"/>
<path class="st0" d="M136.6,79.7c-9.6-26.2-19.1-52.4-28.7-78.6c-0.3-0.8-0.7-1.1-1.6-1.1c-3.3,0.1-6.6,0.1-9.9,0
	c-1,0-1.5,0.3-1.8,1.2c-9.5,26.1-19,52.1-28.4,78.2c-0.1,0.4-0.2,0.8-0.4,1.3c5.2,0,10.2,0,15.2,0c1,0,1.3-0.4,1.6-1.2
	c1.3-4,2.7-7.9,4-11.8c0.3-0.9,0.6-1.2,1.6-1.2c8.7,0,17.5,0,26.2,0c1,0,1.3,0.3,1.6,1.2c1.3,4,2.6,8,4,12c0.2,0.4,0.7,1,1.1,1
	c5.2,0.1,10.3,0,15.7,0C136.7,80.3,136.7,80,136.6,79.7z M91.5,53.2c3.4-9.7,6.7-19.2,10.1-29.1c3.3,9.9,6.5,19.4,9.8,29.1
	C104.7,53.2,98.2,53.2,91.5,53.2z"/>
</svg>
