<?xml version="1.0" encoding="UTF-8"?>
<svg id="BL-Logo" xmlns="http://www.w3.org/2000/svg" version="1.1" viewBox="0 0 158.37 53.23">
  <!-- Generator: Adobe Illustrator 30.6.0, SVG Export Plug-In . SVG Version: 2.1.4 Build 109)  -->
  <path d="M25.42,5.62h-1.51c0-.24.01-.48.04-.7.03-.23.09-.47.19-.74h1.51l.09-.53c.21-1.23.61-2.14,1.21-2.75.6-.61,1.45-.91,2.54-.91.32,0,.59.02.82.06.23.04.44.09.64.15-.07.32-.15.58-.23.79-.08.21-.18.43-.3.66-.13-.05-.27-.09-.42-.13-.15-.04-.32-.05-.51-.05-.26,0-.49.03-.69.1-.21.07-.39.18-.55.35-.16.16-.31.39-.43.67-.12.28-.22.65-.29,1.08-.02.09-.04.17-.05.25-.01.08-.03.16-.05.25h2.24c0,.25-.02.49-.04.71-.03.22-.09.46-.19.73h-2.24l-1.4,7.95c-.15.81-.32,1.5-.54,2.06-.21.56-.48,1.01-.79,1.36-.32.35-.68.6-1.1.75-.42.15-.91.23-1.46.23-.27,0-.52-.02-.76-.06-.24-.04-.45-.1-.64-.17.05-.28.11-.53.18-.76.07-.23.17-.45.29-.66.12.05.26.09.41.12.15.03.31.04.46.04.28,0,.53-.04.76-.11.23-.07.42-.22.59-.44.17-.22.32-.52.46-.92.14-.39.26-.91.37-1.54l1.4-7.85h0Z" fill="#1d1d1b"/>
  <path d="M39.83,13.74c-1.13,0-1.98-.31-2.55-.94-.57-.63-.86-1.51-.86-2.65,0-.67.1-1.37.31-2.1.21-.73.52-1.4.95-2,.43-.6.97-1.1,1.62-1.49.65-.39,1.42-.59,2.3-.59,1.14,0,1.99.32,2.57.95.57.63.86,1.52.86,2.66,0,.68-.1,1.38-.31,2.11-.21.73-.52,1.39-.95,1.99-.42.6-.96,1.1-1.62,1.48-.65.39-1.43.58-2.33.58h0ZM40.01,12.31c.57,0,1.06-.15,1.46-.46.41-.31.74-.7.99-1.17.26-.47.44-.99.56-1.54.12-.55.18-1.07.18-1.56,0-.69-.15-1.22-.46-1.58-.31-.36-.75-.55-1.32-.55s-1.05.16-1.45.47c-.4.32-.73.71-.98,1.18-.25.47-.44.99-.55,1.54-.12.55-.17,1.06-.17,1.54,0,.69.15,1.22.45,1.58.3.36.73.55,1.3.55h0Z" fill="#1d1d1b"/>
  <path d="M54.51,8.12c.13-.73.24-1.35.32-1.88.08-.52.12-.98.12-1.37,0-.16,0-.28,0-.37,0-.09-.02-.2-.04-.34.13-.02.28-.04.44-.05.16-.01.3-.02.44-.02.12,0,.26,0,.41.02.15.01.29.03.41.05.02.1.04.21.05.34.01.13.02.29.02.5,0,.23-.02.45-.04.65-.03.21-.06.41-.1.6.12-.25.29-.52.51-.79.22-.27.47-.52.76-.74.29-.22.62-.4.97-.55.36-.15.74-.22,1.14-.22.73,0,1.29.19,1.7.58.41.39.61.99.61,1.8,0,.18-.01.39-.04.61-.02.23-.05.44-.09.65l-1.04,5.92c-.15.02-.3.04-.47.05-.17.01-.32.02-.45.02s-.28,0-.45-.02c-.16-.01-.31-.03-.43-.05l.98-5.61c.04-.19.06-.38.08-.56.02-.18.03-.34.03-.47,0-.49-.11-.83-.34-1.04-.23-.21-.52-.31-.9-.31-.33,0-.65.1-.96.3-.32.2-.61.5-.89.88-.28.39-.53.87-.76,1.44-.23.57-.4,1.23-.54,1.97l-.6,3.4c-.15.02-.3.04-.47.05-.17.01-.32.02-.45.02s-.28,0-.45-.02c-.16-.01-.31-.03-.43-.05l.96-5.41h0Z" fill="#1d1d1b"/>
  <path d="M78.73,9.56c-.13.73-.24,1.35-.31,1.88-.07.52-.11.98-.11,1.37v.37c0,.09.01.2.04.34-.13.02-.28.04-.43.05-.15.01-.29.02-.43.02s-.27,0-.42-.02c-.15-.01-.28-.03-.4-.05-.02-.1-.04-.2-.06-.32-.02-.12-.03-.28-.03-.48,0-.15.01-.35.04-.61.03-.26.08-.5.14-.72-.15.27-.33.54-.55.82-.22.28-.47.53-.76.76-.29.23-.62.42-.97.56-.36.15-.74.22-1.16.22-.8,0-1.41-.26-1.82-.79-.41-.53-.62-1.25-.62-2.16,0-.86.13-1.7.4-2.52.27-.82.66-1.55,1.18-2.18.52-.64,1.17-1.15,1.96-1.54.78-.39,1.68-.58,2.7-.58.13,0,.27,0,.42.02.15.01.27.02.36.04.13-.7.24-1.31.31-1.82.07-.51.11-.96.11-1.35v-.36c0-.09,0-.19-.02-.31.13-.02.29-.04.48-.05.19-.01.35-.02.48-.02.12,0,.26,0,.41,0,.15,0,.29.02.41.05.04.24.05.47.05.67,0,.28-.03.64-.08,1.07-.05.44-.12.86-.19,1.26l-1.15,6.39h0ZM77.67,5.57c-.15-.04-.3-.06-.45-.07-.16-.01-.33-.02-.53-.02-.61,0-1.15.14-1.63.42-.48.28-.89.65-1.24,1.12-.35.47-.61,1-.79,1.58-.18.59-.27,1.19-.27,1.81,0,.58.1,1.03.31,1.36.21.32.52.48.93.48.38,0,.74-.12,1.09-.36.35-.24.67-.58.96-1.01.29-.43.55-.93.76-1.51.22-.58.39-1.19.51-1.85l.35-1.95h0Z" fill="#1d1d1b"/>
  <path d="M95.72,9.56c-.13.73-.24,1.35-.32,1.88-.08.52-.12.98-.12,1.37,0,.16,0,.28,0,.37,0,.09.02.2.05.34-.13.02-.28.04-.44.05-.16.01-.3.02-.44.02-.12,0-.26,0-.4-.02-.15-.01-.28-.03-.42-.05-.02-.13-.04-.27-.05-.41-.01-.14-.02-.31-.02-.52,0-.13.02-.32.04-.55.03-.23.06-.44.1-.62-.13.27-.31.54-.53.81-.22.27-.47.52-.76.75-.28.23-.61.41-.96.55-.36.15-.74.22-1.16.22-.8,0-1.4-.26-1.81-.79-.41-.53-.61-1.25-.61-2.16,0-.86.13-1.7.4-2.52.27-.82.66-1.55,1.18-2.18.52-.64,1.17-1.15,1.95-1.54.78-.39,1.68-.58,2.71-.58.44,0,.88.03,1.32.1.44.07.83.16,1.17.28l-.91,5.21h0ZM94.68,5.57c-.15-.04-.3-.06-.46-.07s-.33-.02-.53-.02c-.61,0-1.15.14-1.63.42-.48.28-.89.65-1.24,1.12-.35.47-.61,1-.79,1.58-.18.59-.27,1.19-.27,1.81,0,.58.1,1.03.31,1.36.21.32.52.48.93.48.38,0,.74-.12,1.09-.36.35-.24.67-.58.96-1.01.29-.43.54-.93.76-1.51.21-.58.38-1.19.5-1.85l.36-1.95h0Z" fill="#1d1d1b"/>
  <path d="M105.11,5.62c0-.24.02-.48.05-.7.04-.23.1-.47.2-.74h1.45c.06-.32.11-.64.16-.96.05-.33.07-.67.07-1.02v-.29c.24-.12.53-.21.87-.27.34-.06.63-.09.87-.09.01.11.02.22.03.33,0,.11,0,.23,0,.35,0,.38-.05.84-.15,1.4l-.11.56h2.35c0,.27-.02.51-.05.74-.04.23-.1.46-.18.7h-2.33l-.71,3.95c-.06.28-.12.57-.16.87-.05.3-.07.57-.07.81,0,.36.09.62.28.76.19.14.44.21.76.21.21,0,.39-.01.56-.05.17-.03.34-.07.51-.12.04.12.07.25.09.4.02.15.04.3.04.47v.26c0,.09,0,.18-.02.28-.16.05-.36.09-.62.14-.25.04-.53.06-.82.06-.39,0-.74-.03-1.06-.08-.32-.05-.6-.16-.83-.31-.23-.15-.41-.36-.54-.62-.13-.26-.19-.6-.19-1.03,0-.23.02-.48.06-.74.04-.26.09-.53.14-.81l.8-4.46h-1.48Z" fill="#1d1d1b"/>
  <path d="M120.1,5.62h-1.13c0-.24.01-.48.04-.71.03-.23.09-.47.19-.73h2.91l-1.64,9.34c-.13.02-.29.04-.46.05-.18,0-.33,0-.46,0s-.27,0-.42,0c-.15,0-.28-.02-.42-.05l1.38-7.9h0ZM120.08,2.26c0-.35.03-.69.09-1,.06-.32.14-.64.24-.96.17-.02.35-.04.55-.05.19-.01.36-.02.51-.02s.31,0,.5.02c.19.01.36.03.52.05-.01.35-.05.69-.11,1.01-.06.32-.14.64-.24.96-.17.02-.35.04-.55.05-.19,0-.36,0-.51,0-.13,0-.3,0-.49,0-.19,0-.36-.02-.51-.05Z" fill="#1d1d1b"/>
  <path d="M134.02,13.74c-1.13,0-1.98-.31-2.55-.94-.57-.63-.86-1.51-.86-2.65,0-.67.1-1.37.31-2.1.21-.73.52-1.4.95-2,.43-.6.97-1.1,1.62-1.49.65-.39,1.42-.59,2.3-.59,1.14,0,1.99.32,2.57.95.57.63.85,1.52.85,2.66,0,.68-.1,1.38-.31,2.11-.2.73-.52,1.39-.94,1.99-.42.6-.96,1.1-1.62,1.48-.65.39-1.43.58-2.33.58h0ZM134.2,12.31c.57,0,1.06-.15,1.47-.46.41-.31.74-.7.99-1.17.25-.47.44-.99.56-1.54.12-.55.18-1.07.18-1.56,0-.69-.15-1.22-.46-1.58-.31-.37-.75-.55-1.32-.55s-1.06.16-1.46.47c-.4.32-.73.71-.98,1.18-.26.47-.44.99-.55,1.54-.12.55-.17,1.06-.17,1.54,0,.69.15,1.22.45,1.58.3.36.73.55,1.3.55h0Z" fill="#1d1d1b"/>
  <path d="M148.7,8.12c.13-.73.24-1.35.32-1.88.08-.52.12-.98.12-1.37,0-.16,0-.28,0-.37,0-.09-.02-.2-.05-.34.13-.02.28-.04.44-.05.16-.01.3-.02.44-.02.12,0,.26,0,.41.02.15.01.29.03.41.05.02.1.04.21.05.34.01.13.02.29.02.5,0,.23-.02.45-.05.65-.03.21-.06.41-.1.6.12-.25.29-.52.51-.79.22-.27.47-.52.76-.74.29-.22.62-.4.97-.55.36-.15.74-.22,1.14-.22.73,0,1.29.19,1.7.58.41.39.61.99.61,1.8,0,.18-.01.39-.04.61-.02.23-.05.44-.09.65l-1.04,5.92c-.15.02-.3.04-.47.05-.17.01-.32.02-.46.02s-.28,0-.45-.02c-.16-.01-.31-.03-.43-.05l.98-5.61c.04-.19.07-.38.08-.56s.03-.34.03-.47c0-.49-.11-.83-.34-1.04-.22-.21-.52-.31-.9-.31-.33,0-.65.1-.96.3-.32.2-.61.5-.89.88-.28.39-.53.87-.76,1.44-.22.57-.4,1.23-.54,1.97l-.6,3.4c-.15.02-.3.04-.47.05-.17.01-.32.02-.46.02s-.28,0-.44-.02c-.16-.01-.31-.03-.43-.05l.96-5.41h0Z" fill="#1d1d1b"/>
  <path d="M20.21,44.36c0,1.76-.32,3.21-.96,4.36-.64,1.15-1.52,2.05-2.64,2.72-1.12.67-2.45,1.13-3.99,1.4-1.54.27-3.22.4-5.03.4-1.44,0-2.73-.05-3.88-.16-1.15-.11-2.38-.24-3.71-.4v-28.58c1.01-.16,2.12-.29,3.32-.4,1.2-.11,2.6-.16,4.2-.16s2.94.13,4.25.38c1.32.25,2.47.68,3.46,1.28.99.6,1.76,1.4,2.34,2.4.57,1,.86,2.26.86,3.78,0,1.25-.28,2.39-.84,3.42-.56,1.03-1.27,1.82-2.12,2.38.61.24,1.2.55,1.78.94.57.39,1.08.87,1.52,1.44.44.57.79,1.26,1.06,2.06.27.8.4,1.72.4,2.76h0ZM6.91,35h1.12c1.14,0,2.04-.23,2.68-.7.64-.47.96-1.27.96-2.42,0-.56-.11-1.03-.34-1.4-.23-.37-.51-.67-.86-.88-.35-.21-.73-.36-1.16-.44-.43-.08-.84-.12-1.24-.12h-.58c-.23,0-.42.01-.58.04v5.92h0ZM6.91,40.68v6.72c.19.03.42.05.7.06.28.01.65.02,1.1.02.51,0,1.02-.05,1.54-.16.52-.11.99-.29,1.42-.54.43-.25.77-.6,1.02-1.04.25-.44.38-.99.38-1.66,0-1.28-.42-2.16-1.26-2.66-.84-.49-1.92-.74-3.26-.74h-1.64Z" fill="#1d1d1b"/>
  <path d="M24.69,38.48c0-2.13.25-4.11.74-5.94.49-1.83,1.25-3.4,2.28-4.74,1.03-1.33,2.33-2.38,3.92-3.14,1.59-.76,3.47-1.14,5.65-1.14s4.06.38,5.63,1.14c1.57.76,2.87,1.81,3.89,3.14,1.03,1.33,1.78,2.91,2.28,4.74.49,1.83.74,3.8.74,5.94s-.25,4.1-.74,5.9c-.49,1.8-1.25,3.36-2.28,4.68-1.03,1.32-2.32,2.34-3.89,3.08-1.57.73-3.45,1.1-5.63,1.1s-4.07-.37-5.65-1.1c-1.58-.73-2.89-1.76-3.92-3.08-1.03-1.32-1.78-2.88-2.28-4.68-.49-1.8-.74-3.76-.74-5.9ZM42.39,38.48c0-5.81-1.69-8.71-5.07-8.71s-5.19,2.9-5.19,8.71c0,2.9.42,5.07,1.26,6.5.84,1.43,2.14,2.14,3.89,2.14,3.41,0,5.11-2.88,5.11-8.63h0Z" fill="#1d1d1b"/>
  <path d="M59.49,30.25h-6.67c-.24-1.15-.36-2.2-.36-3.16,0-.88.12-1.9.36-3.08h20.41c.11.59.19,1.13.24,1.64.05.51.08.99.08,1.44,0,.88-.11,1.93-.32,3.16h-6.67v22.38c-1.41.24-2.58.36-3.52.36-.99,0-2.17-.12-3.56-.36v-22.38h0Z" fill="#1d1d1b"/>
  <path d="M78.74,24.09c.59-.11,1.12-.19,1.6-.24.48-.05.95-.08,1.4-.08.48,0,.98.03,1.5.1.52.07.96.14,1.34.22l9.27,15.67v-15.67c.69-.11,1.32-.19,1.88-.24.56-.05,1.07-.08,1.52-.08s.93.03,1.44.08c.51.05,1.04.13,1.6.24l-.04,28.54c-.27.08-.65.16-1.16.24-.51.08-1.05.12-1.64.12-.67,0-1.27-.05-1.8-.14-.53-.09-.92-.17-1.16-.22l-9.31-15.59v15.59c-1.17.24-2.24.36-3.2.36s-2.04-.12-3.24-.36v-28.54h0Z" fill="#1d1d1b"/>
  <path d="M112.62,52.67c-.61.11-1.17.19-1.68.24-.51.05-1,.08-1.48.08s-1.03-.03-1.66-.1c-.63-.07-1.32-.17-2.1-.3l8.95-28.54c.69-.08,1.34-.15,1.94-.2.6-.05,1.21-.08,1.82-.08.51,0,1.06.03,1.66.08.6.05,1.28.12,2.06.2l8.83,28.58c-1.52.24-2.85.36-3.99.36-.53,0-1.07-.03-1.6-.08-.53-.05-1.11-.13-1.72-.24l-1.52-5.56c-.75.21-1.46.37-2.14.48-.68.11-1.35.16-2.02.16-.61,0-1.24-.05-1.88-.14-.64-.09-1.31-.23-2-.42l-1.48,5.48h0ZM118.22,31.57l-2.68,10.27c.45.13.88.24,1.28.32.4.08.81.12,1.24.12.45,0,.9-.03,1.34-.1.44-.07.9-.17,1.38-.3l-2.56-10.31h0Z" fill="#1d1d1b"/>
  <path d="M136.55,24.09c1.31-.13,2.51-.26,3.61-.38,1.1-.12,2.27-.18,3.5-.18,1.46,0,2.93.14,4.39.42,1.46.28,2.77.77,3.92,1.46,1.14.69,2.08,1.64,2.8,2.84.72,1.2,1.08,2.72,1.08,4.56,0,.99-.11,1.87-.34,2.66-.23.79-.52,1.49-.88,2.1-.36.61-.76,1.15-1.2,1.6-.44.45-.87.84-1.3,1.16l6.23,12.31c-.64.11-1.34.19-2.1.24-.76.05-1.45.08-2.06.08-.53,0-1.15-.03-1.86-.08-.71-.05-1.32-.13-1.86-.24l-5.67-13.07.36-.2c.32-.16.67-.43,1.06-.8.39-.37.75-.82,1.08-1.34.33-.52.61-1.1.84-1.74.23-.64.34-1.31.34-2,0-1.33-.37-2.3-1.12-2.92-.75-.61-1.66-.92-2.76-.92-.27,0-.49.01-.68.04-.19.03-.31.05-.36.08v22.86c-1.41.24-2.57.36-3.47.36-.98,0-2.17-.12-3.56-.36v-28.54h0Z" fill="#1d1d1b"/>
</svg>