<?xml version="1.0" encoding="utf-8"?>
<!-- Generator: Adobe Illustrator 27.5.0, SVG Export Plug-In . SVG Version: 6.00 Build 0)  -->
<svg version="1.1" id="Ebene_1" xmlns="http://www.w3.org/2000/svg" xmlns:xlink="http://www.w3.org/1999/xlink" x="0px" y="0px"
	 viewBox="0 0 363 107" style="enable-background:new 0 0 363 107;" xml:space="preserve">
<style type="text/css">
	.st0{fill:#FFFFFF;}
</style>
<g>
	<path class="st0" d="M15,13.6h18.8v4.6H20v7h13v4.6H20v7.7h14.4v4.6H15V13.6z"/>
	<path class="st0" d="M41.8,13.6h9.8c5.4,0,10.6,1.8,10.6,8.1c0,4.1-2.4,7.1-6.6,7.7l7.5,12.5h-6.1l-6.6-12h-3.7v12h-5V13.6z
		 M50.8,25.6c2.8,0,6.2-0.2,6.2-3.9c0-3.4-3.1-3.8-5.7-3.8h-4.4v7.7H50.8z"/>
	<path class="st0" d="M69.4,13.6h6.7l13.7,21l0.1,0.1h-0.1l0.1-0.1v-21h5v28.3h-6.4l-14-21.7h-0.1v21.7h-5V13.6z"/>
	<path class="st0" d="M117.5,19.7c-1.1-1.5-3-2.2-5-2.2c-2.3,0-4.6,1-4.6,3.6c0,5.7,13.4,2.4,13.4,12.5c0,6.1-4.8,9-10.4,9
		c-3.5,0-7-1.1-9.3-3.8l3.8-3.7c1.2,1.9,3.4,3,5.6,3c2.3,0,5-1.3,5-3.9c0-6.2-13.4-2.6-13.4-12.8c0-5.8,5.2-8.6,10.4-8.6
		c3,0,5.9,0.8,8.1,2.9L117.5,19.7z"/>
	<path class="st0" d="M134.8,18.2h-8.7v-4.6h22.4v4.6h-8.7v23.8h-5V18.2z"/>
	<path class="st0" d="M193.8,39.9c-3.4,1.8-7.4,2.8-11.7,2.8c-8.7,0-15-5.9-15-14.8c0-9.1,6.2-15,15-15c4.3,0,8.2,0.9,11.2,3.6
		l-3.7,3.8c-1.8-1.8-4.6-2.8-7.4-2.8c-5.8,0-9.7,4.5-9.7,10.1c0,6,3.9,10.5,9.7,10.5c2.6,0,4.9-0.5,6.6-1.5v-6.7h-5.8v-4.6h10.8
		V39.9z"/>
	<path class="st0" d="M215.6,12.9c8.8-0.2,15.1,5.8,15.1,14.8c0,8.8-6.2,14.8-15.1,14.9c-8.7,0-15-5.9-15-14.8
		C200.6,18.8,206.8,12.9,215.6,12.9z M215.6,38.1c5.9,0,9.8-4.5,9.8-10.5c0-5.6-3.9-10.1-9.8-10.1c-5.8,0-9.7,4.5-9.7,10.1
		C205.9,33.6,209.8,38.1,215.6,38.1z M211.5,5.9c1.8,0,3.1,1.2,3.1,2.9c0,1.6-1.4,2.9-3.1,2.9c-1.8,0-3-1.4-3-2.9
		C208.4,7.3,209.7,5.9,211.5,5.9z M219.7,5.9c1.8,0,3.1,1.2,3.1,2.9c0,1.6-1.4,2.9-3.1,2.9c-1.8,0-3-1.4-3-2.9
		C216.7,7.3,218,5.9,219.7,5.9z"/>
	<path class="st0" d="M237.8,13.6h5v11.3h13.2V13.6h5v28.3h-5V29.5h-13.2v12.5h-5V13.6z"/>
	<path class="st0" d="M269.9,13.6h6.7l13.7,21l0.1,0.1h-0.1l0.1-0.1v-21h5v28.3H289l-14-21.7h-0.1v21.7h-5V13.6z"/>
	<path class="st0" d="M304.1,13.6h18.8v4.6h-13.7v7h13v4.6h-13v7.7h14.4v4.6h-19.5V13.6z"/>
	<path class="st0" d="M331,13.6h9.8c5.4,0,10.6,1.8,10.6,8.1c0,4.1-2.4,7.1-6.6,7.7l7.5,12.5h-6.1l-6.6-12H336v12h-5V13.6z
		 M339.9,25.6c2.8,0,6.2-0.2,6.2-3.9c0-3.4-3.1-3.8-5.7-3.8H336v7.7H339.9z"/>
	<path class="st0" d="M150.4,84.7c1.4,2.4,3.7,3.6,6.5,3.6c3.6,0,6.4-2.2,6.4-5.6c0-7.9-14.6-3.3-14.6-14c0-5,4.3-7.8,9.1-7.8
		c3.1,0,5.8,1,7.7,3.6l-2.3,1.6c-1.3-1.8-3.1-2.8-5.5-2.8c-3.4,0-6.4,1.8-6.4,5.4c0,8.5,14.6,3.4,14.6,14c0,5.1-4.2,8-8.8,8
		c-3.7,0-7-1.2-9.2-4.3L150.4,84.7z"/>
	<path class="st0" d="M180.6,64h-9.7v-2.4h22V64h-9.7v25.9h-2.6V64z"/>
	<path class="st0" d="M199.7,61.6h2.6v28.3h-2.6V61.6z"/>
	<path class="st0" d="M212.5,61.6h17V64h-14.3v10.1h13.3v2.4h-13.3v13.4h-2.6V61.6z"/>
	<path class="st0" d="M243.4,64h-9.7v-2.4h22V64H246v25.9h-2.6V64z"/>
	<path class="st0" d="M282.6,79.1c0,6-2.6,11.6-10.3,11.6c-7.7,0-10.3-5.5-10.3-11.6V61.6h2.6v16.8c0,4,1.1,9.8,7.7,9.8
		c6.6,0,7.7-5.8,7.7-9.8V61.6h2.6V79.1z"/>
	<path class="st0" d="M292.2,61.6h3.4l17.2,24.8h0.1V61.6h2.6v28.3h-3.4L295,65.1h-0.1v24.8h-2.6V61.6z"/>
	<path class="st0" d="M349.1,88.1c-3.3,1.9-6.9,2.6-10.6,2.6c-8.6,0-14.6-6.2-14.6-14.9c0-8.6,6-14.9,14.6-14.9
		c4.2,0,7.6,1.3,10.2,3.9l-1.9,2c-1.7-2.1-5.2-3.5-8.3-3.5c-7.4,0-12,5.4-12,12.5c0,7,4.6,12.5,12,12.5c3,0,5.8-0.4,7.9-1.7v-9.5
		h-6.8v-2.4h9.4V88.1z"/>
</g>
</svg>
