<?xml version="1.0" encoding="UTF-8"?>
<svg id="Ebene_1" xmlns="http://www.w3.org/2000/svg" version="1.1" viewBox="0 0 217 50">
  <!-- Generator: Adobe Illustrator 30.2.1, SVG Export Plug-In . SVG Version: 2.1.1 Build 1)  -->
  <path d="M35.4,49.6h1.7V.7h-1.7s0,48.9,0,48.9Z"/>
  <path d="M10,16.9c.8-1.1,2.6-4.6,8-4.6,3.8,0,5.8,1.5,6.6,2.2,2.3,2.2,2.5,5.5,2.5,7.3v15.5h-9.7v-13.6c0-.3,0-3.5-3.3-3.5s-3.5,3.1-3.5,4v13.1H.8V12.9h9.2v4"/>
  <path d="M80.2,12.4c-1.8,0-3.3,1.5-3.3,3.3s1.5,3.3,3.3,3.3c1.7,0,2.4-1.2,2.4-1.1.9,2.8-4.1,17.6-10.9,17.6-2.2,0-2.9-1.8-2.9-4.1,0-2.7.8-5.5,1.8-9.2,1.1-3.7,2-7.2,2.5-9.1h-6.6c-.9,3.2-7.3,22-12.8,22-.7,0-1.4-.7-1.4-2,0-.7.6-3.3,1-4.2l2.2-7.3c.5-1.5,1.2-3.5,1.2-5,0-2.6-1.8-4-3.9-4-6,0-8.4,5.3-9.7,7.4l1,.6c.6-.9,3.2-5.4,5-5.4.3,0,.5.3.5,1.2,0,.6-.4,2-.7,3.3l-2.4,7.3c-.4,1.4-1.3,4-1.3,5.8,0,3.4,2.6,5.2,5,5.2,8.5,0,12.1-10.1,13.3-13l.1.1c-.2.6-.9,3.6-.9,5.2,0,4.5,2,7.7,6.5,7.7,12.8,0,19.8-25.6,11-25.6"/>
  <path d="M108.2,22.4v-9.5h5.7v1.1h-4.4v3h4.1v1.2h-4.1v4.2h-1.3"/>
  <path d="M119,18.3c0-1.1-.1-1.8-1.4-1.8-.6,0-1.2.4-1.3,1.1h-1.3c.1-1.5,1.2-2,2.5-2,1.4,0,2.7.4,2.7,2.3v3.1c0,.3,0,.8.1,1.4h-.9c-.1,0-.3.1-.4-.1,0-.3-.1-.6-.1-.9-.4.8-1.2,1.2-2.1,1.2-1.2,0-2.3-.6-2.3-1.9,0-1.9,1.7-2.4,3.3-2.4h1.2ZM117.7,19.2c-.8,0-1.8.3-1.8,1.3,0,.8.6,1.2,1.3,1.2,1.5,0,1.8-1.3,1.7-2.5h-1.2Z"/>
  <path d="M126.3,17.9c-.1-.8-.5-1.4-1.4-1.4-1.2,0-1.7,1-1.7,2.6s.5,2.6,1.7,2.6c.8,0,1.4-.5,1.4-1.5h1.3c-.1,1.5-1.2,2.4-2.7,2.4-2.1,0-3-1.5-3-3.5s1-3.6,3.1-3.6c1.4,0,2.5.9,2.5,2.3h-1.2"/>
  <path d="M129.4,22.4v-9.5h1.3v3.8c.5-.7,1.2-1.1,2.2-1.1,1.7,0,2.3,1.1,2.3,2.3v4.5h-1.3v-3.9c0-1.2-.3-1.9-1.5-1.9-.5,0-1.3.4-1.5.9-.3.7-.2,1.2-.2,1.5v3.4h-1.3"/>
  <path d="M137.5,22.4v-9.5h1.3v3.8c.5-.7,1.2-1.1,2.2-1.1,1.7,0,2.3,1.1,2.3,2.3v4.5h-1.3v-3.9c0-1.2-.3-1.9-1.5-1.9-.5,0-1.3.4-1.5.9-.3.7-.2,1.2-.2,1.5v3.4h-1.3"/>
  <path d="M151.5,19.1c0,2.1-1.1,3.5-3.3,3.5s-3.3-1.5-3.3-3.5,1.1-3.5,3.3-3.5,3.3,1.5,3.3,3.5ZM148.2,21.7c1.5,0,2-1.2,2-2.6s-.5-2.6-2-2.6-2,1.2-2,2.6.4,2.6,2,2.6Z"/>
  <path d="M157.1,17.9c-.1-.8-.5-1.4-1.4-1.4-1.2,0-1.7,1-1.7,2.6s.5,2.6,1.7,2.6c.8,0,1.4-.5,1.4-1.5h1.3c-.1,1.5-1.2,2.4-2.7,2.4-2.1,0-3-1.5-3-3.5s1-3.6,3.1-3.6c1.4,0,2.5.9,2.5,2.3h-1.2"/>
  <path d="M160.2,22.4v-9.5h1.3v3.8c.5-.7,1.2-1.1,2.2-1.1,1.8,0,2.3,1.1,2.3,2.3v4.5h-1.3v-3.9c0-1.2-.3-1.9-1.5-1.9-.5,0-1.3.4-1.5.9-.3.7-.2,1.2-.2,1.5v3.4h-1.3"/>
  <path d="M170.3,15.6c1.3,0,2.7.5,2.6,2h-1.3c.1-.8-.6-1.1-1.3-1.1s-1.2.3-1.2,1.1c0,.7,1.1.8,1.6.9,1.1.4,2.4.5,2.4,2,0,1.6-1.6,2.1-3,2.1s-2.6-.6-2.6-2.2h1.3c0,.8.6,1.3,1.4,1.3.7,0,1.5-.3,1.5-1.1,0-1.5-4.1-.4-4.1-3,.1-1.4,1.5-2,2.7-2"/>
  <path d="M178.7,17.9c-.1-.8-.5-1.4-1.4-1.4-1.2,0-1.7,1-1.7,2.6s.5,2.6,1.7,2.6c.8,0,1.4-.5,1.4-1.5h1.3c-.1,1.5-1.2,2.4-2.7,2.4-2.1,0-3-1.5-3-3.5s1-3.6,3.1-3.6c1.4,0,2.5.9,2.5,2.3h-1.2"/>
  <path d="M181.8,22.4v-9.5h1.3v3.8c.5-.7,1.2-1.1,2.2-1.1,1.7,0,2.3,1.1,2.3,2.3v4.5h-1.3v-3.9c0-1.2-.3-1.9-1.5-1.9-.5,0-1.3.4-1.5.9-.3.7-.2,1.2-.2,1.5v3.4h-1.3"/>
  <path d="M194.1,15.8h1.3v6.6h-1.2v-1c-.5.8-1.4,1.2-2.3,1.2-1.4,0-2.2-1.1-2.2-2.4v-4.4h1.3v3.9c0,1.1.3,2,1.5,2,.5,0,1.2-.3,1.5-1,.2-.6.3-1.4.3-1.6v-3.3"/>
  <path d="M197.5,22.4h1.2v-9.5h-1.2v9.5Z"/>
  <path d="M201.9,19.4c-.1,1.2.4,2.4,1.7,2.4,1,0,1.5-.4,1.6-1.3h1.3c-.2,1.5-1.4,2.3-3,2.3-2.1,0-3-1.5-3-3.5s1-3.6,3.1-3.6,2.9,1.3,2.9,3.1v.6h-4.6ZM205.3,18.5c0-1.1-.5-2-1.7-2-1.1,0-1.7.9-1.7,2h3.4Z"/>
  <path d="M115.9,27.8v9.5h-1.6l-4.9-8.1v8.1h-1.2v-9.5h1.8l4.7,7.9v-7.9h1.2"/>
  <path d="M124.4,34c0,2.1-1.1,3.5-3.3,3.5s-3.3-1.5-3.3-3.5c0-2.1,1.1-3.5,3.3-3.5s3.3,1.5,3.3,3.5ZM121.1,36.6c1.5,0,2-1.2,2-2.6s-.5-2.6-2-2.6-2,1.2-2,2.6.5,2.6,2,2.6Z"/>
  <path d="M127.4,37.3h-1.3v-6.6h1.3v1.3c.2-.9,1-1.4,2-1.4h.4v1.2c-.2-.1-.4-.1-.5-.1-1.6.1-1.9.9-1.9,2.3v3.3"/>
  <path d="M135.4,27.8h1.3v8.4c0,.4,0,.8.1,1.2h-1.3v-1.1c-.5.9-1.3,1.3-2.3,1.3-2,0-2.8-1.8-2.8-3.5,0-1.8.9-3.5,3-3.5.9,0,1.7.3,2.1,1.1l-.1-3.9h0ZM133.5,36.7c1.5,0,1.9-1.4,1.9-2.7,0-1.2-.5-2.6-1.9-2.6-1.5,0-1.9,1.4-1.9,2.6s.5,2.7,1.9,2.7Z"/>
  <path d="M148.7,30.7l-2.4,6.6h-1.4l-1.6-5.4-1.7,5.4h-1.5l-2.2-6.6h1.3l1.7,5.3,1.7-5.3h1.6l1.5,5.2,1.7-5.2h1.3"/>
  <path d="M150.8,34.3c-.1,1.2.4,2.4,1.7,2.4,1,0,1.5-.4,1.6-1.3h1.3c-.2,1.5-1.4,2.3-3,2.3-2.1,0-3-1.5-3-3.5s1-3.6,3.1-3.6,2.9,1.3,2.9,3.1v.6h-4.6ZM154.2,33.4c0-1.1-.5-2-1.7-2-1.1,0-1.7.9-1.7,2h3.4Z"/>
  <path d="M159.5,30.5c1.3,0,2.7.5,2.6,2h-1.3c.1-.8-.6-1.1-1.3-1.1s-1.2.3-1.2,1.1c0,.7,1.1.8,1.6.9,1.1.4,2.4.5,2.4,2,0,1.6-1.6,2.1-3,2.1s-2.6-.6-2.6-2.2h1.3c0,.8.6,1.3,1.4,1.3.7,0,1.5-.3,1.5-1.1,0-1.5-4.1-.4-4.1-3,.1-1.4,1.5-2,2.7-2"/>
  <path d="M164.5,30.7v-1.4l1.3-.4v1.8h1.5v.9h-1.5v4.3c0,.5.4.7.8.7.2,0,.5,0,.7-.1v1c-.3,0-.6.1-.9.1s-.5,0-.9-.1c-.2,0-.5-.1-.7-.4s-.3-.3-.3-1.2v-4.2h-1.1v-.9l1.1-.1"/>
  <path d="M171.1,30.5c1.3,0,2.7.5,2.6,2h-1.3c.1-.8-.6-1.1-1.3-1.1s-1.2.3-1.2,1.1c0,.7,1.1.8,1.6.9,1.1.4,2.4.5,2.4,2,0,1.6-1.6,2.1-3,2.1s-2.6-.6-2.6-2.2h1.3c0,.8.6,1.3,1.4,1.3.7,0,1.5-.3,1.5-1.1,0-1.5-4.1-.4-4.1-3,.1-1.4,1.5-2,2.7-2"/>
  <path d="M179.5,32.8c-.1-.8-.5-1.4-1.4-1.4-1.2,0-1.7,1-1.7,2.6s.5,2.6,1.7,2.6c.8,0,1.4-.5,1.4-1.5h1.3c-.1,1.5-1.2,2.4-2.7,2.4-2.1,0-3-1.5-3-3.5s1-3.6,3.1-3.6c1.4,0,2.5.9,2.6,2.3h-1.3"/>
  <path d="M182.5,37.3v-9.5h1.3v3.8c.5-.7,1.2-1.1,2.2-1.1,1.7,0,2.3,1.1,2.3,2.3v4.5h-1.3v-3.9c0-1.2-.3-1.9-1.5-1.9-.5,0-1.3.4-1.5.9-.3.7-.2,1.2-.2,1.5v3.4h-1.3"/>
  <path d="M200.1,30.7l-2.4,6.6h-1.4l-1.6-5.4-1.7,5.4h-1.5l-2.2-6.6h1.4l1.6,5.3,1.7-5.3h1.6l1.5,5.2,1.7-5.2h1.3"/>
  <path d="M202.2,34.3c-.1,1.2.4,2.4,1.7,2.4,1,0,1.5-.4,1.6-1.3h1.3c-.2,1.5-1.4,2.3-3,2.3-2.1,0-3-1.5-3-3.5s1-3.6,3.1-3.6,2.9,1.3,2.9,3.1v.6h-4.6ZM205.6,33.4c0-1.1-.5-2-1.7-2-1.1,0-1.7.9-1.7,2h3.4Z"/>
  <path d="M208.4,29.2h1.5v-1.4h-1.5v1.4ZM208.6,37.3h1.3v-6.6h-1.3v6.6Z"/>
  <path d="M216.6,37.3h-4.9v-.8l3.4-4.9h-3.3v-.9h4.6v.9l-3.3,4.9h3.5v.8"/>
</svg>