<?xml version="1.0" encoding="utf-8"?>
<!-- Generator: Adobe Illustrator 27.5.0, SVG Export Plug-In . SVG Version: 6.00 Build 0)  -->
<svg version="1.1" id="Ebene_1" xmlns="http://www.w3.org/2000/svg" xmlns:xlink="http://www.w3.org/1999/xlink" x="0px" y="0px"
	 viewBox="0 0 1021.9 218.9" style="enable-background:new 0 0 1021.9 218.9;" xml:space="preserve">
<style type="text/css">
	.st0{fill:#FFFFFF;}
</style>
<path class="st0" d="M387.2,133.1c0,2.2-1.6,3.9-3.9,3.9c-2.2,0-3.9-1.6-3.9-3.9V86c0-2.2,1.6-3.9,3.9-3.9h29.6
	c1.8,0,3.4,1.5,3.4,3.4c0,1.8-1.5,3.4-3.4,3.4h-25.7V107h19.8c1.8,0,3.4,1.5,3.4,3.4c0,1.8-1.5,3.4-3.4,3.4h-19.8V133.1z
	 M461.2,136.9c-2.2,0-3.9-1.6-3.9-3.9V86c0-2.2,1.6-3.9,3.9-3.9c2.2,0,3.9,1.6,3.9,3.9v44.1h26.2c1.8,0,3.4,1.5,3.4,3.4
	c0,1.8-1.5,3.4-3.4,3.4H461.2z M530.8,112.9V86c0-2.2,1.6-3.9,3.9-3.9s3.9,1.6,3.9,3.9v26.4c0,12.2,4,18.2,15.2,18.2
	c11.2,0,15.2-6,15.2-18.2V86c0-2.2,1.6-3.9,3.9-3.9c2.2,0,3.9,1.6,3.9,3.9v26.9c0,15.1-7.7,24.5-22.8,24.5
	C538.5,137.4,530.8,128.1,530.8,112.9z M641.3,116L625,135.5c-0.8,1-1.7,1.4-3,1.4c-2.2,0-3.9-1.6-3.9-3.9c0-0.9,0.2-1.5,0.6-2.1
	l17.9-21.5l-17.7-21.3c-0.4-0.6-0.6-1.3-0.6-2.1c0-2.2,1.4-3.9,3.7-3.9c1.3,0,2.2,0.5,3,1.4l16.3,19.4l16.3-19.4
	c0.8-1,1.7-1.4,3-1.4c2.2,0,3.7,1.6,3.7,3.9c0,0.9-0.2,1.5-0.6,2.1l-17.7,21.3l17.9,21.5c0.4,0.6,0.6,1.3,0.6,2.1
	c0,2.2-1.6,3.9-3.9,3.9c-1.3,0-2.2-0.5-3-1.4L641.3,116z M711.7,136.9c-2.2,0-3.9-1.6-3.9-3.9V86c0-2.2,1.6-3.9,3.9-3.9H727
	c15.4,0,26.3,12.1,26.3,27.6c0,15.4-10.9,27.2-26.3,27.2H711.7z M725.2,130.6c12,0,20.4-8.5,20.4-20.5c0-12-8.5-21.2-20.4-21.2h-9.7
	v41.7H725.2z M793.4,109.5c0-15.4,12.5-27.9,27.9-27.9c15.4,0,27.9,12.5,27.9,27.9c0,15.4-12.5,28-27.9,28
	C805.9,137.4,793.4,124.9,793.4,109.5z M801.1,109.7c0,11.9,8.3,20.9,20.1,20.9c12,0,20.3-9,20.3-20.9c0-12-8.4-21.2-20.3-21.2
	C809.4,88.5,801.1,97.8,801.1,109.7z M915,137.4c-15.4,0-28.1-12.5-28.1-28c0-15.4,12.7-27.9,28.1-27.9c6.5,0,12.7,2.6,17.4,6.4
	c0.9,0.7,1.3,1.6,1.3,2.7c0,1.8-1.5,3.4-3.6,3.4c-0.9,0-1.5-0.2-2-0.7c-3.9-3-7.9-4.7-13.2-4.7c-12,0-20.3,9.3-20.3,21.2
	c0,12.9,9.2,20.9,20.3,20.9c4.3,0,10.3-1.2,15.3-6.1c0.5-0.5,1.2-0.7,1.9-0.7c1.9,0,3.4,1.3,3.4,3.2c0,1.2-0.5,1.9-1.2,2.6
	C929.5,134.7,922.8,137.4,915,137.4z M995.9,108.9l-11.6,11.6v12.6c0,2.2-1.6,3.9-3.9,3.9c-2.2,0-3.9-1.6-3.9-3.9V86
	c0-2.2,1.6-3.9,3.9-3.9c2.2,0,3.9,1.6,3.9,3.9v23.6l26.3-26.2c0.7-0.9,1.6-1.3,2.8-1.3c2.2,0,3.9,1.6,3.9,3.9c0,1-0.3,1.7-0.9,2.4
	l-14.9,15l19.8,27.4c0.5,0.7,0.7,1.4,0.7,2.3c0,2.2-1.6,3.8-3.9,3.8c-1.4,0-2.6-0.6-3.3-1.7L995.9,108.9z M299.1,151.4
	c-0.4-0.2-0.9-0.2-1.2,0l-36.4,21.2L225,110.3l36.6-21.6c0.4-0.2,0.6-0.6,0.6-1.1V47.6l35.6,19.7c0.5,0.3,1.1,0.2,1.5-0.2
	c0.4-0.4,0.5-1,0.2-1.5L262.1,1.9c-0.3-0.5-0.9-0.7-1.4-0.6c-0.5,0.1-0.9,0.6-0.9,1.2v42.2l-35.3,19.8l-35-60.2V2.5
	c0-0.9-0.5-1.7-1.2-2.2c-0.8-0.4-1.7-0.4-2.5,0l-73.7,43c-0.8,0.4-1.2,1.3-1.2,2.2v44l-35,60.1l-36-61.8c-0.3-0.6-1.1-0.8-1.7-0.5
	L0.6,108.8c-0.6,0.3-0.8,1.1-0.5,1.7c0.3,0.6,1.1,0.8,1.7,0.5l36.4-20.9l36.4,62.6c0.2,0.4,0.6,0.6,1.1,0.6c0.4,0,0.9-0.2,1.1-0.6
	l33.9-58.3v122c0,0.9,0.5,1.7,1.2,2.1c0.4,0.2,0.8,0.3,1.3,0.3c0.4,0,0.8-0.1,1.2-0.3l36.9-20.6c0.8-0.4,1.3-1.3,1.3-2.2v-1.8
	l34.1-59.6l1.5-0.9c0,0,0,0,0,0l72.2,41.9c0,0,0,0,0,0c0.2,0.1,0.4,0.2,0.6,0.2l0,0c0,0,0,0,0,0c0.2,0,0.4-0.1,0.6-0.2c0,0,0,0,0,0
	l35.6-20.8v41.5c0,0.7,0.6,1.2,1.2,1.2c0.7,0,1.2-0.6,1.2-1.2v-43.7C299.7,152,299.5,151.6,299.1,151.4z M257.6,170.9l-68.2-39.5
	c0,0,0,0,0,0v0l33.5-19.7L257.6,170.9z M115.7,52.3l31.9,55.7v1.8c0,0.9,0.5,1.7,1.2,2.2c0.8,0.4,1.7,0.4,2.5,0l30.9-18l-31.9,55
	l-1.5,0.9c-0.8,0.4-1.3,1.3-1.3,2.2v36.8l-31.9-55.7V52.3z M222.1,107.7l-32.7-19.3v0c0-0.9-0.5-1.7-1.2-2.2c-0.8-0.4-1.7-0.4-2.5,0
	l-33.1,19.3V67.6l0.4-0.2h69.8L222.1,107.7z M147.6,103l-31-54.3l31,17.5V103z M184.4,95.2v34.7l-29.8,16.7L184.4,95.2z M189.4,91.3
	l31.5,18.6l-31.5,18.6V91.3z M224.6,107.7l0.6-40.8l34.6-19.3v39.4L224.6,107.7z M262.3,7.1l32.8,55.8l-32.8-18.2V7.1z M188.1,47.6
	c0.8-0.4,1.3-1.3,1.3-2.2V9.2l32.4,55.7h-64.5L188.1,47.6z M184.4,44l-35.6,20c0,0,0,0,0,0L117,46.1l67.5-39.3V44z M115.7,212.2v-74
	l31.9,55.7v0.4L115.7,212.2z M152.6,188.9v-35.4l29.8-16.8L152.6,188.9z"/>
</svg>
