<?xml version="1.0" encoding="utf-8"?>
<!-- Generator: Adobe Illustrator 26.1.0, SVG Export Plug-In . SVG Version: 6.00 Build 0)  -->
<svg version="1.1" id="Ebene_1" xmlns="http://www.w3.org/2000/svg" xmlns:xlink="http://www.w3.org/1999/xlink" x="0px" y="0px"
	 width="586.6px" height="53.7px" viewBox="0 0 586.6 53.7" style="enable-background:new 0 0 586.6 53.7;" xml:space="preserve">
<style type="text/css">
	.st0{fill:#FFFFFF;}
</style>
<g>
	<path class="st0" d="M257.1,33.6c3.6-7.2,3.9-8.1,3.1-11.2c-2,0-3.9,0-5.7,0c-0.6,2.1-1.1,3.9-1.7,6.2c-1-1.5-1.6-2.5-2.3-3.4
		c-3.4-4.5-3.4-4.5,0.2-8.5c3.8-4.1,2.5-10-0.5-12.4c-4.2-3.3-11.6-2.5-14.4,1.2c-3,4.1-2.7,7.7,0.6,12.3c1.3,1.8,1.1,2.4-0.5,3.6
		c-5.8,4.5-6.7,10.9-2.7,16.3c3,4,10.3,5,15.7,2.6c1.4-0.6,2.5-1.6,3.8-2.4c2.4,3.2,6,3.3,9.9,2.9c0-1.8,0-3.4,0-5.2
		c-1.1-0.2-2.1-0.2-3-0.5C258.7,34.7,257.9,34,257.1,33.6z M243.5,7.8c1.5-0.3,2.9,0.9,3.6,3.3c-1.3,1.4-2.6,2.7-3.8,4.1
		c-1-1.5-2.5-2.9-2.8-4.6C240.3,9.9,242.3,8.1,243.5,7.8z M240,34.8c-1.2-1.1-2.5-3.2-2.2-4.5c0.4-2,2.2-3.6,3.4-5.4
		c0.1-0.1,1,0,1.2,0.3c2,2.5,3.9,5,5.8,7.5C246.4,35.1,241.8,36.4,240,34.8z"/>
	<path class="st0" d="M416.6,2.6c-1.4-1.4-6.3-0.2-7.1,1.5c-2.3,4.7-4.5,9.4-7,14.4c-0.6-0.9-1.1-1.4-1.4-2.1
		c-1.8-3.6-3.7-7.2-5.2-10.9c-1.1-2.7-2.7-3.7-5.6-3.5c-2,0.1-2.7,0.6-2.7,2.7c0.1,11.2,0,22.5,0.1,33.7c0,0.7,0.1,1.4,0.2,2.1
		c2.1,0,4,0,5.7,0c0-8.7,0-17.3,0-26.2c2,3.6,3.6,6.9,5.5,10.1c0.5,0.9,1.7,1.6,2.7,1.9c1.6,0.4,3,0.1,3.9-1.8
		c1.6-3.2,3.4-6.2,5.2-9.4c0,8.5,0,16.8,0,25.5c1.5,0,2.8-0.1,4.1,0c1.7,0.1,2.1-0.6,2.1-2.2c-0.1-11.4,0-22.8,0-34.2
		C417.1,3.8,417,3,416.6,2.6z"/>
	<path class="st0" d="M194.7,12.3c-2.1,0.1-2.2,1.2-1.6,3.2c-0.7-0.4-1-0.5-1.1-0.7c-3.6-4.3-14-3.9-17.3,3.1
		c-2.2,4.6-2.8,9.3-1.4,14.1c1.4,4.6,3.9,8.5,9.3,9.2c3.5,0.4,7,0.3,9.9-3c0.1,1.2,0.2,1.7,0.3,2.2c0.1,4.2-1.3,6.4-4.6,7.3
		c-3.6,1-6.1-0.2-8.2-3.6c-0.3-0.5-1-0.9-1.5-0.9c-1.7-0.1-3.5,0-5.8,0c1,2.2,1.5,4,2.5,5.6c1.9,3.1,5.1,4.4,8.6,4.8
		c4.6,0.6,10.6-0.3,13.4-5.4c1.7-3.2,1.8-6.4,1.9-9.6c0.4-7.9,0.1-15.8,0.1-23.7C199.1,12.3,198.6,12.1,194.7,12.3z M192.7,26.5
		c0,4.6-2.2,8.1-5.2,8.8c-4,0.9-7.1-0.7-8.2-4.9c-1-3.7-0.7-8.3,2.8-11.3c2.1-1.8,5.6-1.7,7.6,0.2C192,21.4,193,24,192.7,26.5z"/>
	<path class="st0" d="M23.6,2.1c-1.8,0-2.5,0.7-2.4,2.6c0.1,3.7-0.1,7.5,0.1,11.2c0.1,1.9-0.6,2.4-2.5,2.4c-3.2-0.1-6.3-0.2-9.5,0
		c-2.5,0.2-3-0.9-2.9-3c0.1-4.3,0-8.6,0-13.1c-1.6,0-2.9,0.1-4.2,0C0.6,2-0.1,2.6,0,4.3c0.1,2.2,0,4.3,0,6.5C0,20,0,29.2,0.1,38.5
		c0,0.8,0.6,2.1,1.1,2.2c1.7,0.3,3.4,0.1,5.2,0.1c0-1.3,0-2.1,0-2.9c0-4,0-8,0-12c0-1,0-1.9,1.5-1.9c3.5,0.1,7,0.1,10.4-0.1
		c2.3-0.1,2.9,0.7,2.9,3c-0.2,4.6,0,9.1,0,13.8c2.2,0,4.2,0,6.4,0c0-11.8,0-23.3,0-34.7C27.7,2,27.7,2,23.6,2.1z"/>
	<path class="st0" d="M315.4,0.1c-0.6,0.1-1.5,1-1.5,1.5c-0.1,4.4-0.1,8.9-0.1,13.9c-6.3-6-15-3.6-17.8,1.5
		c-3.5,6.3-3.6,12.5-0.1,18.9c1.8,3.4,4.6,4.9,8.2,5.2c3.4,0.2,6.8,0.2,9.2-3.1c0.2,1,0.3,1.8,0.5,2.7c1,0,1.8,0,2.6,0
		c3.5,0,3.5,0,3.5-3.5c0-11,0-22,0-33C320,0.2,319.5-0.3,315.4,0.1z M313.6,26.7c0,4.6-2.3,7.9-6,8.7c-2.6,0.6-4.8-0.3-6.4-2.9
		c-2.3-3.6-2.2-9.7,1.1-12.9c2.4-2.4,5.6-2.6,8.1-0.4C312.6,21.2,313.7,23.7,313.6,26.7z"/>
	<path class="st0" d="M445.6,32.1c-0.9,0.1-2.1,0.2-2.7,0.8c-2.8,2.9-5.6,3.7-9.3,2.1c-2.3-1-3.7-3.2-3.4-5.9c4.5,0,8.9,0,13.4,0
		c6.5,0,6.5,0,5.9-6.4c-0.5-4.7-2.8-8.4-7.4-9.9c-4.4-1.5-9-1.5-13,1.5c-4.9,3.6-6.3,8.6-5.6,14.5c0.6,5.4,2.7,10,8,11.7
		c5.6,1.8,11.4,1.5,15.9-3.3c1.2-1.2,1.7-3.1,2.8-5.2C448.1,32,446.9,31.9,445.6,32.1z M436.4,17.8c4.1-0.1,6.7,2,6.6,5.6
		c-4,0-8.1,0-12.1,0C430.5,20.6,433.2,17.9,436.4,17.8z"/>
	<path class="st0" d="M61.5,24.2C60,11.6,49.7,10,42.2,13.3c-7,3.1-9.7,15.3-5.3,22c3.7,5.7,8,6.4,14.5,5.7c5.2-0.5,8.5-3.5,10.1-9
		c-3,0.3-5.8-1.3-8.2,2c-1.8,2.5-5,1.8-7.6,1c-2.4-0.7-4-3.3-4.1-5.9c0.6,0,1.3-0.1,1.9-0.1c5,0,10,0,15,0c3.2,0,3.7-0.6,3-3.7
		C61.5,25,61.5,24.6,61.5,24.2z M41.9,23.2c1-4.1,3.8-5.9,8.1-5.4c2.4,0.3,4.3,2.6,4.5,5.4C50.2,23.2,46.1,23.2,41.9,23.2z"/>
	<path class="st0" d="M348.8,29.1c6.8,0,6.9,0,5.7-6.8c-1.9-11-12.8-12.2-19.5-8.4c-7.5,4.2-7.8,14.5-5.2,20.4
		c3.1,6.8,8.3,7.7,15.2,6.9c5.2-0.6,8.5-3.5,10-9c-2,0-3.7-0.1-5.5,0c-0.6,0-1.2,0.6-1.8,0.9c-1.4,0.9-2.7,2.3-4.2,2.6
		c-3.9,0.8-9.2-2.1-8.3-6.5C339.7,29.1,344.3,29.1,348.8,29.1z M342.1,17.8c3.5,0,5.5,1.9,5.9,5.6c-4.3,0-8.4,0-12.5,0
		C335.9,19.9,338.4,17.8,342.1,17.8z"/>
	<path class="st0" d="M163.4,18c-3.2-6.2-13.5-8.1-19.1-3.9c-5.1,3.8-6.4,8.9-5.7,14.8c1.3,10.5,8.5,13.6,17.2,12
		c5.6-1,10.2-7.3,9.7-14.2c0.2-0.1,0.4-0.1,0.7-0.2C165.3,23.7,164.7,20.7,163.4,18z M154.1,35.3c-4.2,1.1-7.6-0.9-8.9-5.2
		c-0.8-2.7-0.7-5.5,0.6-8.1c1.7-3.4,4.3-4.8,7.9-4.1c2.6,0.5,5.3,3.8,5.5,6.9c0,0.7,0.2,1.5,0.3,2.7
		C158.9,31.4,157.3,34.4,154.1,35.3z"/>
	<path class="st0" d="M553.7,24.1c-0.5-5.3-3-9.4-8-11.2c-4.4-1.6-8.9-1.5-13.2,1.3c-6.2,4-6.8,13.2-4.8,18.8
		c3,8,10.1,10.1,18.4,7.3c4.2-1.4,8.1-6.3,7.6-13.4C553.7,25.9,553.7,25,553.7,24.1z M541.1,35.4c-1.6,0.2-3.7-0.3-5-1.3
		c-4.9-3.7-4.4-12.2,0.9-15.5c0.9-0.6,2.1-0.7,3.1-1.1c4.3,0.3,6.8,3,7.3,8.1C548,30.9,545.7,34.8,541.1,35.4z"/>
	<path class="st0" d="M119.4,28.9c3.3-3.4,6.7-6.7,9.7-10.4c1-1.2,0.8-3.5,0.8-5.3c0-0.3-2.1-0.8-3.2-0.8c-4.6-0.1-9.2,0-13.7,0
		c-2.6,0-5.1,0-7.6,0c-0.8,5.5-0.8,5.5,4.3,5.5c0.2,0,0.5,0,0.7,0c3.7,0,7.4,0,11.4,0c-3.1,3.2-5.9,6-8.6,8.9
		c-2.5,2.6-5.2,4.9-7.2,7.8c-1,1.4-0.9,3.7-1,5.6c0,0.2,2.3,0.6,3.5,0.7c6.5,0.1,13,0,19.5,0c0.9,0,1.7-0.1,2.5-0.1
		c0-1.9,0-3.6,0-5.4c-5.7,0-11.2,0-17,0C115.6,32.9,117.5,30.9,119.4,28.9z"/>
	<path class="st0" d="M477,26.2c0,2.6-0.7,5-2.1,7.2c-1.5,2.2-3.8,2.3-5.8,1.7c-1.2-0.3-2.3-1.8-3-3c-0.5-0.8-0.5-2.1-0.5-3.1
		c0-5.5,0-10.9,0-16.5c-2.1,0-3.9,0-5.5,0c0,7.4-0.1,14.5,0.1,21.7c0.1,3.3,3.4,6.1,6.6,6.8c4,0.9,7.5,0.3,10.5-3.3
		c-0.2,1.3-0.3,2.1-0.5,3.1c2.2,0,4.2,0,6.2,0c0-9.5,0-18.8,0-28.2c-1.9,0-3.7,0-5.8,0C477,17.1,477,21.7,477,26.2z"/>
	<path class="st0" d="M586.5,23c0-1.6-0.4-3.3-0.9-4.8c-1-3-3-5.3-6.1-5.8c-3.6-0.7-7.4-1-9.8,3.1c-0.6-3.6-0.9-3.8-6.7-2.9
		c0,9.4,0,18.6,0,28c1.9,0,3.9,0,6.1,0c0-4.8-0.1-9.5,0.1-14.3c0.1-2,0.7-4.1,1.5-5.8c1.1-2.3,3.3-3.2,5.9-2.7
		c2.3,0.4,3.2,2.1,3.5,4.2c0.3,1.5,0.4,2.9,0.5,4.4c0.1,4.7,0,9.4,0,14.2c2.1,0,4,0,6,0C586.6,34.6,586.6,28.8,586.5,23z"/>
	<path class="st0" d="M87.6,12.2c-3.8-0.5-7.3-0.3-9.8,3.3c0.6-3,0.4-3.3-2.4-3.3c-1.1,0-2.3,0-3.6,0c0,9.7,0,19,0,28.3
		c2,0,3.8,0,5.8,0c0-4.6,0-9,0-13.4c0-2.8,0.9-5.2,2.6-7.5c1.6-2,3.6-2.2,5.5-1.7c1.2,0.4,2.4,1.9,3,3.1c1.1,2.2,2.5,3.1,5.4,2.4
		c2.2-0.6,0.9-2.4,0.8-3.5C94.9,16.1,91.3,12.7,87.6,12.2z"/>
	<path class="st0" d="M512.1,12.5c-3.5-1.4-8.4-0.2-11.1,2.9c-0.6-3.4-1.5-3.7-6.5-2.7c0,0.8,0,1.7,0,2.6c0,6.9,0,13.8,0,20.7
		c0,5.3,0,5.3,5.4,4.6c0.1,0,0.1-0.1,0.3-0.1c0.1-0.3,0.2-0.5,0.2-0.6c0-4.2,0-8.3,0.1-12.5c0-2.6,0.4-5.1,2.1-7.4
		c1.6-2.1,3.4-2.5,5.6-2.2c2.1,0.3,3.1,1.9,3.7,3.9c0.2,0.7,0.8,1.6,1.3,1.7c1.5,0.1,3.1-0.1,4.6-0.3c0.1,0,0.2-0.7,0.2-1.1
		C518.1,17.9,515.6,13.9,512.1,12.5z"/>
</g>
</svg>
