<?xml version="1.0" encoding="UTF-8"?>
<svg id="Ebene_1" xmlns="http://www.w3.org/2000/svg" version="1.1" viewBox="0 0 566.9 125.9">
  <!-- Generator: Adobe Illustrator 30.2.1, SVG Export Plug-In . SVG Version: 2.1.1 Build 1)  -->
  <path d="M394.4,79.6v4.8c0,5,3.7,7.2,9.8,7.2,8.6,0,14-6.8,14-16.6v-2.5l-19.3,1.8c-4,.4-4.5,2.2-4.5,5.3Z"/>
  <path d="M0,0v125.9h566.9V0H0ZM37.3,25.6h10.7v10.8h-10.7v-10.8ZM62.7,98H24.3v-8.2h14.2v-37.9h-14.2v-8.2h23.7v46.1h14.7v8.2ZM437,98h-17.6l-.2-10h-.4c-3,7.7-8.9,11.3-17,11.3-5.3,0-9.9-1.7-13-4.9-2.8-2.9-4.5-7-4.5-11.3,0-8.5,5.4-15.3,16.2-16.3l17.7-1.6v-4.4c0-8.4-4.6-10.8-11.3-10.8s-11.2,2.9-11.2,9.8h-9.6c0-10.2,9.3-17.5,20.9-17.5s20.6,5.8,20.6,18.5v28.9h9.5v8.3s-.1,0-.1,0ZM488.4,52h-19v46h-9.6v-54.3h28.6v8.3ZM542.6,51.9h-14.2v37.9h14.2v8.2h-23.7v-46.1h-9.5v-8.2h9.5v-18.1h9.5v18.1h14.2v8.2Z"/>
</svg>