<?xml version="1.0" encoding="UTF-8"?>
<svg id="Layer_1" xmlns="http://www.w3.org/2000/svg" version="1.1" viewBox="0 0 99.2 99.2">
  <!-- Generator: Adobe Illustrator 30.2.1, SVG Export Plug-In . SVG Version: 2.1.1 Build 1)  -->
  <path d="M97.9,23.6h.9v15.2c0,1.6-.2,3.2-.9,4.7-.7,1.5-1.8,2.6-3.5,2.9-2.5.5-4.6-.6-5.6-3-.1-.2-.2-.5-.3-.7-.1.4-.2.8-.4,1.2-.5,1.3-1.2,2.4-2.4,3.2-2,1.2-5.5.9-7.2-1.7-.8-1.3-1.2-2.7-1.4-4.1-.1-.9-.1-1.7-.1-2.6v-15h.9v2.1c-.1.6.1,1.1.6,1.4.3.2.5.3.8.3h17.3c.2,0,.4-.1.6-.2.6-.4.8-.9.8-1.6-.1-.7-.1-1.4-.1-2.1ZM78.7,30.7v8.3c0,1.2.2,2.4.9,3.4,1.4,2.2,4.5,2.6,6.3.7,1-1,1.4-2.2,1.4-3.5v-8.9s-8.6,0-8.6,0ZM97.1,30.7h-7.6c-.3,0-.4.1-.4.4v6.7c0,.5,0,1.1.1,1.6.3,2,1.4,3.5,3.5,3.7,1.9.2,3.5-.6,4.1-2.7.2-.6.3-1.3.3-1.9v-7.8Z"/>
  <path d="M31.4,84q.07,0,0,0c.67-.07,1.13.17,1.4.7.4.8.7,1.6,1.1,2.4,0,.1.2.2.3.2h7.4v-8.6h-11.2c-.2,0-.4.1-.5.2-1.2,1.5-2.4,3-3.6,4.6-.1.2-.2.2-.4.2h-1.1c.3-.9.5-1.7.7-2.5.4-1.4.8-2.7,1.2-4.1.07-.13.17-.2.3-.2h21.4v.9h-2.4c-.1,0-.3.1-.4.2-.6.5-.7,1.1-.7,1.8v16.7c0,.3.1.5.3.7.4.6.8.7,1.5.7.6-.1,1.2,0,1.8,0v.8h-22.5v-6.8h1.1c.1,0,.2.1.2.2.6,1.5,1.2,3,1.8,4.5.1.2.2.3.5.3h12.1v-7.9h-7.2c-.2,0-.3.1-.4.3-.4,1-.9,2-1.4,3-.1.2-.2.3-.4.3h-.7c-.2-2.9-.2-5.7-.2-8.6h0Z"/>
  <path d="M48.1,21.4v.9h-1.3c.2.4.3.7.5,1-.2.2-.3.1-.4-.1-.4-.5-.9-.8-1.6-.8-.9,0-1.7.7-1.8,1.5-.1,1,.5,1.9,1.5,2.1.9.2,1.8-.2,2.3-1,.1-.1.2-.2.3-.3,0,.9-.8,1.7-1.7,1.9-1.1.2-2.3-.3-2.7-1.3-.5-1.1-.1-2.1,1.2-3-.4,0-.7-.1-1-.1-1.1-.2-2-.8-2.9-1.5-2.4-2.1-4.8-4.3-7.2-6.5-.9-.8-1.9-1.7-2.8-2.5-.1-.1-.2-.1-.3-.2v8.7c0,.2.1.4.2.5.4.6.9.9,1.7.8.4-.1.9,0,1.4,0v.8h-9.7v-.8h2c.3,0,.4-.1.6-.3.5-.5.7-1,.6-1.7V2.7c0-.3-.1-.4-.2-.7-.4-.6-.9-.8-1.6-.7-.5.1-.9,0-1.4,0V.5h9.7v.8h-1.4c-.9-.2-1.3.3-1.8.9,0,.1-.1.2-.1.3v9c3.1-3.1,6.2-6.1,9.4-9.2-.3-.3-.5-.6-.8-.9-.1-.1-.2-.1-.3-.1h-2.1V.4h9.2c.07.33-.07.57-.4.7-.9.4-1.8.7-2.7,1.1-.1,0-.2.1-.3.2-2.2,2.1-4.4,4.3-6.7,6.4-.6.5-1,1.1-1.6,1.7.3.2.6.6,1,.9,2.9,2.7,5.7,5.3,8.6,7.9.6.5,1.2,1,1.9,1.4.6.4,1.2.6,1.9.5.2.2.5.2.8.2Z"/>
  <path d="M56.1,82.4v14.3c0,.2.1.4.2.6.4.6.9.8,1.6.7.5-.1.9,0,1.4,0v.8h-8.4v-.8h1.9c.3,0,.6-.1.8-.3.4-.4.6-.9.6-1.5v-19.6c.4,0,.8-.1,1.1.3,4.4,4.8,8.9,9.6,13.3,14.5.6.6,1.1,1.2,1.7,1.9v-14c0-.2-.1-.4-.2-.6-.4-.6-.9-.8-1.6-.7-.4.1-.9,0-1.4,0v-.8h8.4v.8h-2.1c-.1,0-.2,0-.3.1-.3.3-.5.6-.7.9-.1.1-.1.2-.1.3v15.9c0,.1.1.3.2.4,1,1,2,2.1,3,3.1.1.1.2.2.3.4h-4.2c-.2,0-.3-.1-.5-.2-3.2-3.5-6.5-7-9.7-10.5-1.7-1.8-3.4-3.7-5.1-5.5,0-.4-.1-.4-.2-.5h0Z"/>
  <path d="M54.9,22.3c.3.1.6.2,1,.3v.1h-.3c-.2-.1-.4,0-.4.2-.2.8-.4,1.5-.6,2.3-.2.7.1,1.2.9,1.4.8.2,1.4,0,1.6-.7.2-.8.4-1.6.6-2.4.1-.2-.1-.3-.3-.4-.1,0-.2-.1-.3-.1v-.1c.5.1,1.1.3,1.6.4v.1h-.2c-.4-.1-.4,0-.5.3-.2.7-.4,1.4-.6,2.1-.2.9-.9,1.4-1.9,1.2-.2,0-.5,0-.8-.2-.7-.4-1-1-.8-1.8.2-.7.4-1.4.5-2.1.1-.4,0-.5-.3-.5h-2c.5.4.8,1,.8,1.6s-.2,1.2-.6,1.7c.2.2.5.4.7.6v.1c-.4,0-.8.1-1-.4-.6.3-1.2.5-1.8.4-1.2-.3-2.1-1.4-1.9-2.6.1-1.2,1.3-2,2.5-2,.2,0,.4,0,.6-.1.6-.3,1.2-.7,1.8-1.1.1-.1.3-.2.4-.4,2.6-5.7,5.3-11.3,7.9-17,.1-.2.1-.3,0-.5-.5-.7-.9-1.3-1.3-2,0-.1-.1-.2-.2-.3h3.7c.2,0,.3,0,.4.2,3.1,6.5,6.2,13.1,9.3,19.6.1.1.2.3.3.4.5.3,1,.7,1.6,1,.3.2.4.4.3.7h-9.9v-.8h3.2c.1,0,.2,0,.3-.1.3-.3.5-.6.7-.9v-.2c-.6-1.3-1.2-2.6-1.8-3.9,0-.1-.2-.2-.3-.2h-9.9c-.2,0-.2.1-.3.2-.6,1.3-1.2,2.5-1.8,3.8-.1.2-.1.3,0,.4.4.6.9.9,1.7.8s1.6,0,2.4,0v.9s-5,0-5,0ZM62.7,5c-1.5,3.2-2.9,6.3-4.4,9.5h8.9c-1.5-3.2-3-6.3-4.5-9.5ZM51.8,25.3c.6-.6.6-1.7,0-2.4-.6-.7-1.7-.7-2.4-.2-.7.6-.9,1.7-.3,2.5.5.7,1.6.9,2.4.4-.2-.2-.4-.5-.6-.7.5-.2.6.2.9.4Z"/>
  <path d="M2.1,37.4v5.2c0,.2.1.3.2.5,1.5,1.2,3,2.3,4.6,3.5.2.1.3.3.3.5v1.1c-.3-.1-.5-.1-.7-.2-1.9-.5-3.9-1.1-5.8-1.6-.2-.1-.3-.1-.3-.4v-20.1c0-.2,0-.3.2-.4,2.1-.5,4.3-1.2,6.4-1.8h.2v1.3c0,.1-.1.2-.2.2-1.5,1.2-3,2.4-4.5,3.6-.2.2-.3.3-.3.6v5h18c.2,0,.4-.1.6-.2.6-.4.8-.9.8-1.6-.1-.6,0-1.3,0-1.9v-.1h.8v10.7h-.8v-2.1c.1-.6-.1-1.1-.6-1.4-.3-.2-.5-.3-.8-.3H2.8c-.4-.1-.5-.1-.7-.1Z"/>
  <path d="M22.3,57.9v10.7h-.9v-2.7c0-.2-.1-.3-.2-.4-.5-.5-1.1-.7-1.8-.7H2.1v5.3c0,.2.1.3.2.5,1.5,1.2,3,2.3,4.6,3.5.2.1.3.3.3.5v1.1c-.3-.1-.6-.1-.8-.2-1.9-.5-3.7-1.1-5.6-1.6-.3-.1-.3-.2-.3-.4v-20c0-.3.1-.4.3-.4,2-.6,4-1.2,6-1.8.1-.3.2-.3.4-.4v1.3c0,.1-.1.2-.2.3-1.5,1.2-3,2.4-4.5,3.6-.2.2-.3.4-.3.6v5h17.9c.2,0,.4-.1.6-.2.6-.4.8-.9.7-1.6-.1-.7,0-1.3,0-2h.9Z"/>
  <path d="M76.9,51.9h1v8.6c0,.2.1.3.2.5.5.5,1.1.7,1.8.7h16.6c.3,0,.5-.1.7-.3.6-.4.7-.9.7-1.5v-8h1v22.7h-1v-8.6c0-.2-.1-.4-.2-.5-.5-.5-1-.7-1.8-.7h-16.5c-.3,0-.5.1-.8.3-.5.4-.7.8-.7,1.5v8h-1v-22.7h0Z"/>
  <path d="M44.1,75.9c-1.4-.4-2.8-.9-4.3-1.3.1-.4.3-.8.4-1.3.2,0,.3,0,.3.2,0,.3,0,.7.1.9.2.2.5.2.8.3.5.2,1,.3,1.5.5.2-.5.3-1,.5-1.5-.4-.1-.9-.3-1.3-.4-.1,0-.3.2-.4.3-.1.1-.2.2-.3.2l-.1-.1c.2-.5.3-1.1.5-1.6h.1c0,.1.1.2.1.3,0,.4.1.6.5.6.3.1.6.2,1,.3.2-.6.3-1.1.5-1.6-.7-.2-1.4-.4-2.1-.7-.1,0-.2,0-.2.1-.2.2-.5.3-.7.5-.1.1-.2,0-.3.1v-.1c.2-.3.5-.7.7-1,0-.1.2-.1.3,0,1,.3,2,.6,2.9.9.6.2,1.2.3,1.8.3.4,0,.8.2,1,.6.4.6.9,1.2,1.3,1.8.1.1.1.2.2.3.1-.7.1-1.3.2-1.9,0-.2-.1-.3-.3-.3-.1,0-.2,0-.3-.1v-.1c.4,0,.8.1,1.2.1.5,0,1.1,0,1.6-.1.4,0,.8,0,1.1.3.5.5,1.1.9,1.6,1.4.1.1.2.2.4.3-.1-.7-.2-1.3-.3-1.9,0-.2-.2-.3-.4-.2h-.3v-.1c.7-.1,1.3-.2,2-.3v.1c-.1,0-.2.1-.3.1-.3,0-.4.2-.4.5.1,1.1.3,2.1.4,3.2,0,.2.2.4.4.3h.3v.1c-.1,0-.2.1-.3.1-1,.1-2.1.3-3.1.4-.3,0-.6,0-.8-.1-.7-.2-.9-1.1-.4-1.7.4-.4.9-.5,1.4-.5.1,0,.3,0,.5-.1-.6-.5-1.2-1-1.8-1.4-.2-.1-.5-.1-.7-.1h-.5c-.3,0-.4.1-.4.4-.1.8-.1,1.6-.2,2.4,0,.2,0,.4-.1.7,0,.4,0,.5.4.5.1,0,.2,0,.3.1-.1,0-.1.1-.2.1-1.1-.1-2.3-.2-3.4-.3-.1,0-.2,0-.3-.1-.6-.2-1-.6-.9-1.2,0-.5.5-1,1.1-1h1.3c-.1-.1-.1-.2-.2-.3-.3-.4-.7-.9-1-1.3-.2-.3-.5-.4-.9-.4-.2,0-.4,0-.5-.1-.2-.1-.4,0-.4.2-.3,1.1-.7,2.2-1,3.2-.1.2,0,.3.2.4.1,0,.2.1.3.1-.07-.07-.1-.07-.1,0ZM54.1,73.9c-.3,0-.5.1-.7.1-.4.1-.9.1-1.3.2-.4.1-.7.5-.6.9,0,.4.3.7.7.7.7,0,1.4-.2,2.1-.2-.1-.6-.1-1.1-.2-1.7ZM48.7,74.3c-.7-.1-1.3-.1-1.9-.2-.5,0-.8.3-.9.7,0,.4.2.8.6.8.7.1,1.4.1,2.1.2,0-.4.1-.9.1-1.5Z"/>
  <path d="M29.3,59.2c-.8.8-1.6,1.6-2.4,2.5h0c.2-.1.3-.1.5-.2.6-.3,1.2-.6,1.8-.9.2-.13.27-.33.2-.6v-.2c.4.4.7,1.4.7,1.5h-.1c-.2-.33-.47-.43-.8-.3-.9.4-1.7.8-2.6,1.2-.33.13-.43.37-.3.7v.1h-.2c0-.1-.1-.1-.1-.2-.1-.3-.4-.6-.4-.9s.4-.5.6-.7c.5-.5,1-1,1.5-1.6.07-.07.13-.13.2-.2-.6.1-1.2.1-1.8.2-.5,0-1,.1-1.5.1-.1,0-.2,0-.2-.1-.2-.3-.3-.7-.5-1,0,0,.1,0,.1-.1.07.07.13.13.2.2.1.3.3.3.5.2,1-.5,1.9-.9,2.9-1.4.3-.1.3-.2.2-.6-.1-.2-.2-.4-.2-.6-.1-.2-.2-.3-.4-.2-1.1.2-2.1.5-3.2.7-.3.1-.4.2-.3.5,0,.1,0,.2.1.3,0,0-.1,0-.1.1,0-.1-.1-.1-.1-.2-.2-.6-.3-1.3-.4-1.9-.2-.7-.3-1.5-.5-2.3.4-.1.9-.2,1.4-.3-.1.3-.1.4-.1.5h0c-.2.2-.6.3-.6.5-.1.2.1.5.1.8.1.5.2,1,.3,1.5v.1c.5-.1,1-.2,1.5-.3-.1-.5-.2-.9-.3-1.3,0-.1-.2-.1-.4-.2-.1-.1-.3-.1-.4-.2.1-.1.3-.1.4-.2.3-.1.7-.2,1-.2.1,0,.2,0,.2.1s0,.2-.1.2c-.4.2-.5.6-.3,1,.1.3.1.5.2.8.6-.1,1.1-.2,1.7-.4-.1-.7-.3-1.2-.3-1.8-.1-.4-.2-.7-.6-.8-.2,0-.3-.1-.5-.2-.1-.1-.2-.2-.3-.3,0,0,0-.1.1-.1.4,0,.8,0,1.2.1.1,0,.2.1.2.2.3,1.2.5,2.5.9,3.7.2.6.5,1.1.7,1.7,0,.1.1.2.1.3,0,0-.1,0-.1.1-.1-.1-.1-.2-.2-.3-.1-.2-.2-.2-.4-.2-.8.4-1.6.7-2.3,1.2,1.1-.1,2.3-.2,3.4-.3,0,.1,0,.2.1.2Z"/>
  <path d="M24.6,45.4c.7.1,1.3.3,1.9.3.1,0,.2-.2.3-.3.1-.1.1-.2.1-.4.2.1-.1,1.7-.3,2.1v-.4c0-.3,0-.4-.3-.5-1.1-.2-2.1-.4-3.2-.6-.3,0-.4.1-.4.3,0,.1-.1.2-.1.3h-.1v-.3c.2-1,.3-2,.5-3,.1-.3.2-.6.3-.8.5-.7,1.5-.6,1.8.1.2.4.2.9.1,1.3,0,.2-.1.4-.1.6.7-.5,1.3-.9,1.9-1.3.2-.2.3-.5.4-.8l.1.1c0,.3-.1.6-.2.9-.1.3-.3.5-.5.7-.6.8-1.4,1.2-2.2,1.7ZM23,45.1c.5.1,1,.2,1.6.3.1-.7.2-1.3.3-2,.1-.5-.2-.9-.7-.9-.5-.1-.8.1-.9.7,0,.6-.1,1.2-.3,1.9Z"/>
  <path d="M74.2,45.1c-.5.6-1,1.2-1.4,1.8-.1.2-.1.4-.1.6v.3h-.1l-.1-.1c0-.3-.1-.6-.1-1,0-.2.1-.5.3-.7.5-.6,1-1.2,1.5-1.8.07-.07.13-.13.2-.2-.7.1-1.3.2-1.9.3-.1,0-.2.2-.2.3v.4c-.2-.6-.3-1.3-.4-2h.1c0,.1.1.2.1.3.1.3.1.4.5.4,1.1-.2,2.1-.3,3.2-.5.3,0,.4-.2.3-.5v-.3h.1c.1.4.1.7.2,1.1.1.8.3,1.5.3,2.3,0,.3,0,.6-.1.9-.3.7-1.1.9-1.7.4-.4-.4-.5-.9-.6-1.4,0-.2-.1-.3-.1-.6ZM74.4,44c.1.5.2,1,.2,1.5,0,.2.1.5.2.7.1.4.5.5.9.5.4-.1.7-.3.6-.7-.1-.7-.2-1.4-.3-2.1-.6-.1-1.1,0-1.6.1Z"/>
  <path d="M70,38.5c-.4-.5-.8-1.1-1.2-1.7l.1-.1c.1.1.2.2.2.3.1.2.3.2.5.1.4-.3.8-.6,1.3-.9-.4-.6-.8-1.2-1.2-1.8-.5.3-.9.6-1.3.9-.2.1-.1.3,0,.5.1.1.1.2.1.3-.3-.2-1.2-1.5-1.1-1.7l.1.1c.2.27.43.3.7.1.8-.6,1.6-1.1,2.4-1.6.4-.2.5-.4.1-.7,0,0-.1-.1-.1-.2.1.1.2.1.3.1s.1.1.1.2c.3.5.6.9.9,1.4,0,0,0,.1-.1.1s-.1-.1-.2-.1c-.2-.27-.43-.3-.7-.1-.3.2-.7.5-1,.7.4.6.8,1.2,1.2,1.8.4-.3.8-.6,1.2-.9.1-.1.1-.3,0-.4,0-.1-.1-.2-.2-.3.3,0,1.3,1.4,1.2,1.8-.1-.1-.2-.2-.2-.3-.1-.2-.3-.2-.5-.1-.9.6-1.8,1.2-2.8,1.9-.2.1-.2.3-.1.5.3-.2.4-.1.3.1q.07-.07,0,0Z"/>
  <path d="M31.7,63.4c1,1.1,2,2.1,2.9,3.2l-.1.1c-.1-.1-.2-.2-.3-.2-.2-.2-.3-.2-.5,0-.8.8-1.6,1.5-2.4,2.2-.2.2-.2.3,0,.5.1.1.1.2.2.3,0,0-.1,0-.1.1-1-1.1-2-2.2-3.1-3.3.3-.3.6-.5.9-.8,0,0,.1,0,.2-.1,0,.1.1.2,0,.2-.1.2-.2.4-.3.7v.3c.5.6,1,1.1,1.6,1.7.4-.4.8-.7,1.2-1.1-.3-.3-.6-.7-.9-1-.1-.1-.2-.1-.3,0-.2,0-.4.1-.6.1,0,0,0-.1-.1-.1.4-.4.8-.8,1.2-1.2h.1v.3c-.2.3-.1.6.2.8.2.2.4.5.7.7.4-.4.8-.8,1.3-1.2-.4-.4-.8-.8-1.1-1.2-.3-.4-.7-.6-1.2-.5-.2,0-.5.2-.7-.2.4.1.8-.1,1.2-.3Z"/>
  <path d="M59.8,69.8c-.1.1-.2.1-.3.1-.3.1-.3.2-.2.5.4,1,.7,2,1.1,3.1.1.3.3.3.5.2.1,0,.2,0,.3-.1v.1c-1.4.5-2.8,1-4.2,1.5-.1-.4-.3-.8-.4-1.1,0,0,0-.2.1-.2h.2c.2.2.3.4.5.5.1.1.2.1.3.1.7-.3,1.5-.5,2.2-.8-.2-.5-.4-1-.5-1.5-.4.2-.9.3-1.3.5-.1,0-.1.3-.1.5,0,.1-.1.2-.1.4h-.1c-.2-.5-.4-1-.6-1.6v-.1c.1,0,.2.1.3.1.2.3.5.4.9.2.3-.1.6-.2.9-.3-.2-.5-.4-1.1-.6-1.6-.4.1-.8.3-1.2.4-.8.2-1.2.6-1.3,1.3,0,.1-.1.2-.2.3h-.1c0-.4-.1-.8-.1-1.3l.1-.1c1.3-.5,2.6-.9,3.8-1.4,0,.2.1.2.1.3h0Z"/>
  <path d="M60.7,24.5c-.2.5-.5.9-.7,1.4.4.2.8.5,1.3.6.1,0,.3-.2.5-.3.1-.1.2-.1.3-.1v.1c-.3.5-.5,1-.8,1.5h-.1c0-.1-.1-.2-.1-.3.1-.4-.1-.6-.4-.8-.3-.1-.6-.3-.9-.4-.3.5-.5,1-.8,1.5.4.2.8.4,1.1.6.6.4,1.2.5,1.8,0,.1-.1.3-.1.4-.1v.1c-.3.3-.6.7-1,1-1.3-.7-2.6-1.3-3.9-2v-.1c.1,0,.2,0,.3.1.3.1.4.1.6-.2.5-.9.9-1.8,1.4-2.7.2-.3.2-.6-.2-.7-.1,0-.1-.1-.2-.1.1,0,.2-.1.3,0,1.3.7,2.6,1.3,3.9,2-.2.4-.4.8-.6,1.2h-.1c0-.1-.1-.2-.1-.3.2-.7-.1-1.1-.8-1.3-.3-.1-.7-.4-1.2-.7Z"/>
  <path d="M70,38.5q.07-.07,0,0c.1.1.2.2.3.3.1.2.2.3.4.2,1.1-.4,2.1-.8,3.2-1.2.2-.1.3-.2.2-.4,0-.1-.1-.2-.1-.3l.1-.1.1.1c.5,1.3,1,2.7,1.6,4.1-.4.2-.8.3-1.3.5,0-.2.1-.3.1-.4l.1-.1c.4-.4.5-.83.3-1.3-.2-.5-.4-1-.6-1.6-.5.2-1,.4-1.5.6.2.4.3.9.5,1.3,0,.1.2.1.3.1.2,0,.4-.1.6.2-.5.2-1.1.4-1.6.6h-.1c0-.1,0-.2.1-.3.4-.3.4-.5.2-.9-.1-.3-.2-.6-.4-.9-.5.2-1,.4-1.6.6.1.3.2.6.3.9.1.3.2.5.3.8.1.4.3.5.7.6.2,0,.4.1.6.2.1,0,.2.1.3.2v.1c-.4,0-.9.1-1.4.1-.2-.5-.4-.9-.5-1.4-.5-.8-.8-1.7-1.2-2.6h0Z"/>
  <path d="M38.7,69.4c-.1,0-.2-.1-.3-.1-.3-.2-.4-.2-.6.1-.6.9-1.2,1.7-1.8,2.6-.2.3-.2.4.1.6.07.07.13.13.2.2.1.1,0,.1-.1.1s-.1,0-.2-.1c-.6-.4-1.3-.8-1.9-1.3-.6-.5-1.1-1-1.1-1.9-.1-1.4,1.2-2.5,2.6-2.1.2,0,.4.1.5.2.8.5,1.6,1,2.5,1.6.13.07.17.1.1.1h0ZM37.4,69c-.3-.4-.9-.8-1.4-.9-.8-.2-1.4.1-1.9.8-.4.7-.4,1.4.1,2,.3.4.8.7,1.2,1.1.7-1.1,1.4-2.1,2-3Z"/>
  <path d="M70.8,61.9c.2-.4.4-.7.6-1.1.1.1.2.1.3.2-.4.7-.7,1.3-1.1,2h-.1c.1-.6-.4-.7-.7-.9-.3-.2-.6-.3-.9-.6.2-.1.4-.1.6-.2-.1-.8.1-1.5.6-2.1.3-.4.8-.7,1.3-.8,1-.2,2,.2,2.4,1.1.5.9.4,2.3-.8,3.3,0,.1.1.1.1.2.1.2-.1.4-.2.4-.4-.1-.9-.2-1.3-.3v-.1c.1-.1.2-.1.4-.2,1-.2,1.6-.7,1.8-1.6.1-.7,0-1.2-.5-1.7-.6-.5-1.3-.6-2-.3s-1.3,1.2-1.3,2c0,.1.1.3.2.3.1.2.3.3.6.4Z"/>
  <path d="M26.7,36.8c1.2,0,2.2,1,2.2,2.3s-1.1,2.4-2.4,2.4c-1.2,0-2.2-1-2.2-2.3s1.1-2.3,2.4-2.4ZM26.6,41c1,0,1.8-.8,1.8-1.8,0-.9-.8-1.8-1.9-1.8-1,0-1.7.8-1.7,1.8s.8,1.8,1.8,1.8Z"/>
  <path d="M71.5,55.8c0-1.3,1-2.4,2.3-2.4s2.3,1,2.3,2.4c0,1.3-1.1,2.4-2.4,2.4s-2.2-1.1-2.2-2.4ZM72,55.8c0,1,.8,1.8,1.8,1.8s1.7-.8,1.8-1.8c0-1-.8-1.7-1.8-1.7-1.1-.1-1.8.7-1.8,1.7Z"/>
  <path d="M67.3,28.6h.2c.2,0,.3.1.2.3-.2.5-.3.9-.5,1.4-.2,0-.2-.2-.2-.3.1-.8-.1-1.5-.7-2-.2-.1-.4-.3-.6-.3s-.5.1-.6.2-.1.4-.1.6c0,.1.1.3.2.4.3.4.6.8,1,1.3.2.3.4.7.3,1.1-.2.7-.8,1-1.5.7-.7-.2-1.2-.7-1.6-1.4,0-.1-.1-.1-.1-.2,0,0,0-.1-.1-.1-.33.07-.53.03-.6-.1.2-.5.5-1,.8-1.5.2,0,.2.2.2.3-.1,1,.2,1.8,1,2.3.2.1.4.2.6.3.5.1.9-.4.7-.9-.1-.1-.1-.3-.2-.4-.3-.4-.6-.8-.9-1.2-.1-.2-.3-.5-.4-.7-.2-.8.3-1.4,1.1-1.3.7.1,1.2.5,1.6,1,.1.2.1.4.2.5Z"/>
  <path d="M30.6,36.4c0,.07-.03.13-.1.2-.2.4-.5.7-.8,1,0,.1-.1.1-.2.1v-.2c.13-.27.1-.5-.1-.7-.7-.5-1.4-1-2.1-1.5-.2-.2-.4-.2-.7-.2-.2,0-.4.1-.6.1.3-.4.4-.8,1-.8,1.3-.1,2.6-.3,3.9-.5-.07-.07-.13-.13-.2-.2-.6-.5-1.3-.9-1.9-1.4-.2-.2-.4-.2-.6.1,0,.1-.1.1-.2.2l-.1-.1c.3-.5.6-.9,1-1.4h.1c0,.1,0,.2-.1.2-.2.3-.2.4.1.6,1,.7,2.1,1.5,3.2,2.3-.1.1-.2.1-.3.1-1.3.2-2.6.3-3.9.5-.1,0-.2,0-.4.1.6.4,1.1.8,1.7,1.2.1.1.2.1.2.2.33.2.63.17.9-.1,0,.2.1.2.2.2q-.07,0,0,0Z"/>
  <path d="M72.8,49.2c0,.8-.1,1.6-.1,2.3,0,.1.1.2.1.3.2.2.4.3.6.5.1.1.1.2.2.3l-.1.1c-.4-.1-.8-.2-1.2-.4,0,0-.1-.1-.1-.2.1-1.3.2-2.6.3-4,1.2,1.2,2.5,2.3,3.8,3.5,0-.7.1-1.3.1-2,0-.1-.1-.2-.1-.2-.2-.2-.4-.3-.7-.5-.1-.1-.1-.2-.2-.3,0,0,.1,0,.1-.1.4.1.8.2,1.2.3.1,0,.1.1.1.2-.1,1.2-.1,2.4-.2,3.6,0,0-.1,0-.1.1-1.2-1.2-2.4-2.3-3.7-3.5h0Z"/>
  <path d="M67.7,65.9c-.3-.3-.7-.6-1-.9-.2-.1-.3-.2-.5,0l-.3.3c0-.1-.1-.2,0-.2l1.5-1.5s.1,0,.1.1-.1.2-.1.2c-.27.27-.27.53,0,.8.7.7,1.4,1.4,2,2.1.27.27.53.27.8,0,.07-.07.13-.1.2-.1s.03.07-.1.2c-.8.8-1.6,1.6-2.4,2.3-.2.2-.4.3-.7.4-.4.1-.8.1-1.1-.2s-.5-.7-.3-1.2c.1-.3.3-.6.6-.9.4-.5.9-.9,1.3-1.4ZM67.9,66.3c-.4.4-.9.9-1.3,1.4-.3.3-.3.8,0,1.1.3.3.7.4,1.1.1.5-.4,1-.9,1.5-1.4-.4-.4-.8-.8-1.3-1.2Z"/>
  <path d="M38.6,28.9c.4-.6.3-1.3.3-2,.1-.7,0-1.3.1-2,0-.3,0-.5-.3-.6-.1,0-.1-.1-.2-.1.2-.1.4-.2.6-.2.1,0,.3.1.4.1.9.8,1.9,1.7,2.8,2.5.2.2.5.3.8.4-.6.2-1.2.5-1.8.7,0,0,0-.1-.1-.1.2-.1.3-.1.5-.2.3-.1.3-.2.1-.5-.3-.4-.7-.5-1.1-.2-.3.2-.7.3-1.1.5-.1,0-.2.2-.2.3v.5c0,.3.1.4.4.3.2-.1.3-.1.5-.2l.1.1c-.7.3-1.2.5-1.8.7ZM39.4,26.9c.5-.2,1-.4,1.6-.7-.5-.5-1-.9-1.5-1.4h-.1v2.1Z"/>
  <path d="M22.6,52.2c-.2-.4-.2-1.9,0-2v.3c0,.3.2.4.4.4h2.3c.7,0,1.1-.4,1.1-1.1.1-.9-.3-1.5-1-1.5-.9-.1-1.8,0-2.6,0-.1,0-.2.2-.2.3v.3c-.2-.1-.2-.6-.2-1.6h.1c0,.1.1.1.1.2,0,.4.1.4.4.4h2.1c1,0,1.6.5,1.7,1.5,0,.3,0,.7-.1,1-.2.8-.7,1.1-1.6,1.2h-2c-.33,0-.53.17-.6.5.1-.1.1,0,.1.1Z"/>
  <path d="M34.5,29.9c.2.2.3.4.5.5.3.3.7.3,1,0,.3-.2.4-.6.3-.9-.1-.1-.2-.3-.2-.4-.5-.6-.9-1.3-1.4-1.9-.2-.3-.3-.3-.6-.1-.3.2-.6.5-1,.7h-.2c0-.07.03-.13.1-.2.9-.7,1.9-1.4,2.8-2h.2c0,.07-.03.13-.1.2-.2.2-.4.3-.7.5-.2.1-.2.3-.1.5.4.6.9,1.2,1.3,1.8.1.2.3.4.4.6.3.7-.1,1.5-.9,1.8-.7.3-1.4,0-1.8-.7.1-.2.3-.3.4-.4Z"/>
  <path d="M63.9,67.3c-.4.3-.9.6-1.3.8-.2.2-.3.3-.1.6.6.9,1.2,1.8,1.7,2.7.1.2.3.3.6.1.4-.2.7-.5,1.1-.7.1,0,.2,0,.3-.1v.1c-.1,0-.1.1-.2.1-1.1.7-2.3,1.5-3.4,2.2-.1.1-.2.1-.3.1v-.1c.4-.3.9-.5,1.3-.8.3-.2.3-.3.1-.6-.6-.9-1.1-1.8-1.7-2.7-.2-.3-.3-.3-.6-.1-.4.2-.8.5-1.1.7h-.2c0-.1.1-.1.1-.2,1.2-.8,2.3-1.5,3.5-2.3h.2s0,.2,0,.2Z"/>
  <path d="M41.9,48.2h1.8c.5,0,.7.2.7.6.1.4-.1.6-.6.9.3.1.6.2.7.6.1.5-.2,1-.8,1.1s-1.2.1-1.9.1v-.1l.1-.1c.3,0,.4-.2.4-.5v-1.9c0-.33-.17-.53-.5-.6.13,0,.17-.03.1-.1ZM43,49.8v1.2c0,.1.1.2.1.2.3.2.8,0,.9-.3.2-.4,0-.9-.4-1-.2-.1-.4-.1-.6-.1ZM43,49.6c.2,0,.4,0,.6-.1.2-.1.4-.2.4-.5,0-.2,0-.5-.2-.6s-.5-.1-.7-.1l-.1.1s0,1.2,0,1.2Z"/>
  <path d="M54.2,51.4h-2.5s0-.1.1-.1c.33-.07.5-.27.5-.6v-1.9c0-.27-.13-.43-.4-.5-.4-.1-.1,0-.1-.1h2.4v.7c-.1-.1-.1-.2-.2-.2-.1-.3-.3-.4-.7-.4h-.6v1.2c.5.2.8,0,1-.5v1.2c-.2-.4-.5-.6-1-.5v1.4h1c.1,0,.2-.1.2-.1.1-.1.2-.3.4-.4,0,.3-.1.5-.1.8Z"/>
  <path d="M50.6,49.1c0-.1-.1-.2-.1-.2-.1-.2-.3-.4-.5-.5-.3-.2-.6,0-.7.2-.1.2,0,.5.2.7.3.2.6.3.8.4.3.2.5.4.5.8,0,.5-.3.9-.9.9-.2,0-.4,0-.6-.1h-.5v-1c.1.1.2.2.2.3.2.3.5.6.9.6.2,0,.4-.1.4-.3.1-.2,0-.4-.1-.5s-.3-.2-.4-.3c-.2-.1-.4-.2-.6-.3-.4-.2-.5-.6-.4-1s.4-.6.8-.7h1c.1.4.1.7,0,1q.07,0,0,0Z"/>
  <path d="M46.7,48.1c.5,1.1.9,2.2,1.4,3.3h-1.1v-.1h.2c.1,0,.2-.1.2-.1,0-.2-.1-.5-.2-.7,0-.1-.1-.1-.2-.1h-.5c-.33,0-.57.17-.7.5-.1.2,0,.4.3.4.07,0,.13.03.2.1h-.9c.2-.5.4-1,.6-1.5.2-.4.3-.8.4-1.1v-.4c.1-.1.2-.3.3-.3q0-.07,0,0ZM47.1,50.2c-.2-.4-.3-.9-.5-1.3-.2.5-.3.9-.5,1.3h1Z"/>
  <path d="M54.9,48.2h1.6v.1h-.3c-.2,0-.3.1-.3.3v2.3c0,.2.1.3.3.3h.2c.4.1.6-.1.8-.4,0-.1.1-.2.2-.2,0,.2-.1.5-.1.8h-2.3l.1-.1c.3,0,.4-.2.4-.5v-2c0-.4,0-.5-.5-.5-.33,0-.37-.03-.1-.1Z"/>
</svg>