<?xml version="1.0" encoding="utf-8"?>
<!-- Generator: Adobe Illustrator 27.5.0, SVG Export Plug-In . SVG Version: 6.00 Build 0)  -->
<svg version="1.1" id="Layer_1" xmlns="http://www.w3.org/2000/svg" xmlns:xlink="http://www.w3.org/1999/xlink" x="0px" y="0px"
	 viewBox="0 0 99.2 99.2" style="enable-background:new 0 0 99.2 99.2;" xml:space="preserve">
<style type="text/css">
	.st0{fill:#FFFFFF;}
</style>
<g>
	<path class="st0" d="M97.9,23.6c0.3,0,0.6,0,0.9,0c0,0.1,0,0.2,0,0.3c0,5,0,9.9,0,14.9c0,1.6-0.2,3.2-0.9,4.7
		c-0.7,1.5-1.8,2.6-3.5,2.9c-2.5,0.5-4.6-0.6-5.6-3c-0.1-0.2-0.2-0.5-0.3-0.7c-0.1,0.4-0.2,0.8-0.4,1.2c-0.5,1.3-1.2,2.4-2.4,3.2
		c-2,1.2-5.5,0.9-7.2-1.7c-0.8-1.3-1.2-2.7-1.4-4.1c-0.1-0.9-0.1-1.7-0.1-2.6c0-4.9,0-9.7,0-14.6c0-0.1,0-0.2,0-0.4
		c0.3,0,0.6,0,0.9,0c0,0.7,0,1.4,0,2.1c-0.1,0.6,0.1,1.1,0.6,1.4c0.3,0.2,0.5,0.3,0.8,0.3c5.8,0,11.6,0,17.3,0
		c0.2,0,0.4-0.1,0.6-0.2c0.6-0.4,0.8-0.9,0.8-1.6C97.9,25,97.9,24.3,97.9,23.6z M78.7,30.7c0,0.1,0,0.1,0,0.2c0,2.7,0,5.4,0,8.1
		c0,1.2,0.2,2.4,0.9,3.4c1.4,2.2,4.5,2.6,6.3,0.7c1-1,1.4-2.2,1.4-3.5c0-2.9,0-5.8,0-8.7c0-0.1,0-0.1,0-0.2
		C84.4,30.7,81.5,30.7,78.7,30.7z M97.1,30.7c-0.1,0-0.2,0-0.3,0c-2.4,0-4.9,0-7.3,0c-0.3,0-0.4,0.1-0.4,0.4c0,2.2,0,4.5,0,6.7
		c0,0.5,0,1.1,0.1,1.6c0.3,2,1.4,3.5,3.5,3.7c1.9,0.2,3.5-0.6,4.1-2.7c0.2-0.6,0.3-1.3,0.3-1.9c0-2.5,0-5,0-7.5
		C97.1,31,97.1,30.9,97.1,30.7z"/>
	<path class="st0" d="M31.4,84C31.5,84,31.5,84,31.4,84c1-0.1,1-0.1,1.4,0.7c0.4,0.8,0.7,1.6,1.1,2.4c0,0.1,0.2,0.2,0.3,0.2
		c2.4,0,4.8,0,7.3,0c0,0,0,0,0.1,0c0-2.8,0-5.7,0-8.6c-0.1,0-0.2,0-0.3,0c-3.6,0-7.3,0-10.9,0c-0.2,0-0.4,0.1-0.5,0.2
		c-1.2,1.5-2.4,3-3.6,4.6c-0.1,0.2-0.2,0.2-0.4,0.2c-0.4,0-0.7,0-1.1,0c0.3-0.9,0.5-1.7,0.7-2.5c0.4-1.4,0.8-2.7,1.2-4.1
		c0.1-0.2,0.1-0.2,0.3-0.2c7.1,0,14.1,0,21.2,0c0.1,0,0.1,0,0.2,0c0,0.3,0,0.5,0,0.9c-0.1,0-0.2,0-0.3,0c-0.7,0-1.4,0-2.1,0
		c-0.1,0-0.3,0.1-0.4,0.2c-0.6,0.5-0.7,1.1-0.7,1.8c0,5.6,0,11.2,0,16.7c0,0.3,0.1,0.5,0.3,0.7c0.4,0.6,0.8,0.7,1.5,0.7
		c0.6-0.1,1.2,0,1.8,0c0,0.3,0,0.6,0,0.8c-7.5,0-15,0-22.5,0c0-2.3,0-4.5,0-6.8c0.4,0,0.8,0,1.1,0c0.1,0,0.2,0.1,0.2,0.2
		c0.6,1.5,1.2,3,1.8,4.5c0.1,0.2,0.2,0.3,0.5,0.3c3.9,0,7.9,0,11.8,0c0.1,0,0.2,0,0.3,0c0-2.7,0-5.3,0-7.9c-0.1,0-0.2,0-0.3,0
		c-2.3,0-4.6,0-6.9,0c-0.2,0-0.3,0.1-0.4,0.3c-0.4,1-0.9,2-1.4,3c-0.1,0.2-0.2,0.3-0.4,0.3c-0.2,0-0.5,0-0.7,0
		C31.4,89.7,31.4,86.9,31.4,84z"/>
	<path class="st0" d="M48.1,21.4c0,0.3,0,0.6,0,0.9c-0.4,0-0.8,0-1.3,0c0.2,0.4,0.3,0.7,0.5,1c-0.2,0.2-0.3,0.1-0.4-0.1
		c-0.4-0.5-0.9-0.8-1.6-0.8c-0.9,0-1.7,0.7-1.8,1.5c-0.1,1,0.5,1.9,1.5,2.1c0.9,0.2,1.8-0.2,2.3-1c0.1-0.1,0.2-0.2,0.3-0.3
		c0,0.9-0.8,1.7-1.7,1.9c-1.1,0.2-2.3-0.3-2.7-1.3c-0.5-1.1-0.1-2.1,1.2-3c-0.4,0-0.7-0.1-1-0.1c-1.1-0.2-2-0.8-2.9-1.5
		c-2.4-2.1-4.8-4.3-7.2-6.5c-0.9-0.8-1.9-1.7-2.8-2.5c-0.1-0.1-0.2-0.1-0.3-0.2c0,0.2,0,0.3,0,0.4c0,2.8,0,5.5,0,8.3
		c0,0.2,0.1,0.4,0.2,0.5c0.4,0.6,0.9,0.9,1.7,0.8c0.4-0.1,0.9,0,1.4,0c0,0.3,0,0.6,0,0.8c-3.2,0-6.4,0-9.7,0c0-0.3,0-0.5,0-0.8
		c0.7,0,1.3,0,2,0c0.3,0,0.4-0.1,0.6-0.3c0.5-0.5,0.7-1,0.6-1.7c0-5.6,0-11.2,0-16.8c0-0.3-0.1-0.4-0.2-0.7
		c-0.4-0.6-0.9-0.8-1.6-0.7c-0.5,0.1-0.9,0-1.4,0c0-0.3,0-0.6,0-0.8c3.2,0,6.4,0,9.7,0c0,0.3,0,0.5,0,0.8c-0.3,0-0.6,0-0.9,0
		c-0.2,0-0.3,0-0.5,0c-0.9-0.2-1.3,0.3-1.8,0.9c0,0.1-0.1,0.2-0.1,0.3c0,2.9,0,5.9,0,8.8c0,0,0,0.1,0,0.2c3.1-3.1,6.2-6.1,9.4-9.2
		c-0.3-0.3-0.5-0.6-0.8-0.9c-0.1-0.1-0.2-0.1-0.3-0.1c-0.7,0-1.4,0-2.1,0c0-0.3,0-0.6,0-0.9c3.1,0,6.1,0,9.2,0
		c0.1,0.5,0.1,0.5-0.4,0.7c-0.9,0.4-1.8,0.7-2.7,1.1c-0.1,0-0.2,0.1-0.3,0.2c-2.2,2.1-4.4,4.3-6.7,6.4c-0.6,0.5-1,1.1-1.6,1.7
		c0.3,0.2,0.6,0.6,1,0.9c2.9,2.7,5.7,5.3,8.6,7.9c0.6,0.5,1.2,1,1.9,1.4c0.6,0.4,1.2,0.6,1.9,0.5C47.5,21.4,47.8,21.4,48.1,21.4z"/>
	<path class="st0" d="M56.1,82.4c0,0.2,0,0.3,0,0.4c0,4.6,0,9.2,0,13.9c0,0.2,0.1,0.4,0.2,0.6c0.4,0.6,0.9,0.8,1.6,0.7
		c0.5-0.1,0.9,0,1.4,0c0,0.3,0,0.6,0,0.8c-2.8,0-5.6,0-8.4,0c0-0.3,0-0.5,0-0.8c0.6,0,1.2,0,1.9,0c0.3,0,0.6-0.1,0.8-0.3
		c0.4-0.4,0.6-0.9,0.6-1.5c0-6.4,0-12.8,0-19.2c0-0.1,0-0.3,0-0.4c0.4,0,0.8-0.1,1.1,0.3c4.4,4.8,8.9,9.6,13.3,14.5
		c0.6,0.6,1.1,1.2,1.7,1.9c0-0.2,0-0.3,0-0.4c0-4.5,0-9.1,0-13.6c0-0.2-0.1-0.4-0.2-0.6c-0.4-0.6-0.9-0.8-1.6-0.7
		c-0.4,0.1-0.9,0-1.4,0c0-0.3,0-0.6,0-0.8c2.8,0,5.6,0,8.4,0c0,0.3,0,0.5,0,0.8c-0.1,0-0.2,0-0.3,0c-0.6,0-1.2,0-1.8,0
		c-0.1,0-0.2,0-0.3,0.1c-0.3,0.3-0.5,0.6-0.7,0.9c-0.1,0.1-0.1,0.2-0.1,0.3c0,5.3,0,10.6,0,15.9c0,0.1,0.1,0.3,0.2,0.4
		c1,1,2,2.1,3,3.1c0.1,0.1,0.2,0.2,0.3,0.4c-0.3,0-0.5,0-0.7,0c-1.2,0-2.3,0-3.5,0c-0.2,0-0.3-0.1-0.5-0.2c-3.2-3.5-6.5-7-9.7-10.5
		c-1.7-1.8-3.4-3.7-5.1-5.5C56.3,82.5,56.2,82.5,56.1,82.4z"/>
	<path class="st0" d="M54.9,22.3c0.3,0.1,0.6,0.2,1,0.3c0,0,0,0.1,0,0.1c-0.1,0-0.2,0-0.3,0c-0.2-0.1-0.4,0-0.4,0.2
		c-0.2,0.8-0.4,1.5-0.6,2.3c-0.2,0.7,0.1,1.2,0.9,1.4c0.8,0.2,1.4,0,1.6-0.7c0.2-0.8,0.4-1.6,0.6-2.4c0.1-0.2-0.1-0.3-0.3-0.4
		c-0.1,0-0.2-0.1-0.3-0.1c0,0,0-0.1,0-0.1c0.5,0.1,1.1,0.3,1.6,0.4c0,0,0,0.1,0,0.1c-0.1,0-0.2,0-0.2,0c-0.4-0.1-0.4,0-0.5,0.3
		c-0.2,0.7-0.4,1.4-0.6,2.1c-0.2,0.9-0.9,1.4-1.9,1.2C55.3,27,55,27,54.7,26.8c-0.7-0.4-1-1-0.8-1.8c0.2-0.7,0.4-1.4,0.5-2.1
		c0.1-0.4,0-0.5-0.3-0.5c-0.7,0-1.3,0-2,0c0.5,0.4,0.8,1,0.8,1.6c0,0.6-0.2,1.2-0.6,1.7c0.2,0.2,0.5,0.4,0.7,0.6c0,0,0,0,0,0.1
		c-0.4,0-0.8,0.1-1-0.4c-0.6,0.3-1.2,0.5-1.8,0.4c-1.2-0.3-2.1-1.4-1.9-2.6c0.1-1.2,1.3-2,2.5-2c0.2,0,0.4,0,0.6-0.1
		c0.6-0.3,1.2-0.7,1.8-1.1c0.1-0.1,0.3-0.2,0.4-0.4c2.6-5.7,5.3-11.3,7.9-17c0.1-0.2,0.1-0.3,0-0.5c-0.5-0.7-0.9-1.3-1.3-2
		c0-0.1-0.1-0.2-0.2-0.3c0.3,0,0.5,0,0.7,0c1,0,2,0,3,0c0.2,0,0.3,0,0.4,0.2c3.1,6.5,6.2,13.1,9.3,19.6c0.1,0.1,0.2,0.3,0.3,0.4
		c0.5,0.3,1,0.7,1.6,1c0.3,0.2,0.4,0.4,0.3,0.7c-3.3,0-6.6,0-9.9,0c0-0.3,0-0.5,0-0.8c0.1,0,0.2,0,0.3,0c1,0,2,0,2.9,0
		c0.1,0,0.2,0,0.3-0.1c0.3-0.3,0.5-0.6,0.7-0.9c0,0,0-0.2,0-0.2c-0.6-1.3-1.2-2.6-1.8-3.9c0-0.1-0.2-0.2-0.3-0.2c-2.6,0-5.2,0-7.8,0
		c-0.7,0-1.4,0-2.1,0c-0.2,0-0.2,0.1-0.3,0.2c-0.6,1.3-1.2,2.5-1.8,3.8c-0.1,0.2-0.1,0.3,0,0.4c0.4,0.6,0.9,0.9,1.7,0.8
		c0.8-0.1,1.6,0,2.4,0c0,0.3,0,0.6,0,0.9C58.2,22.3,56.5,22.3,54.9,22.3C54.9,22.3,54.9,22.3,54.9,22.3z M62.7,5
		c-1.5,3.2-2.9,6.3-4.4,9.5c3,0,5.9,0,8.9,0C65.7,11.3,64.2,8.2,62.7,5z M51.8,25.3c0.6-0.6,0.6-1.7,0-2.4c-0.6-0.7-1.7-0.7-2.4-0.2
		c-0.7,0.6-0.9,1.7-0.3,2.5c0.5,0.7,1.6,0.9,2.4,0.4c-0.2-0.2-0.4-0.5-0.6-0.7C51.4,24.7,51.5,25.1,51.8,25.3z"/>
	<path class="st0" d="M2.1,37.4c0,0.1,0,0.2,0,0.3c0,1.6,0,3.3,0,4.9c0,0.2,0.1,0.3,0.2,0.5c1.5,1.2,3,2.3,4.6,3.5
		c0.2,0.1,0.3,0.3,0.3,0.5c0,0.3,0,0.7,0,1.1c-0.3-0.1-0.5-0.1-0.7-0.2c-1.9-0.5-3.9-1.1-5.8-1.6c-0.2-0.1-0.3-0.1-0.3-0.4
		c0-6.7,0-13.4,0-20.1c0-0.2,0-0.3,0.2-0.4C2.7,25,4.9,24.3,7,23.7c0.1,0,0.1,0,0.2,0c0,0.4,0,0.9,0,1.3c0,0.1-0.1,0.2-0.2,0.2
		c-1.5,1.2-3,2.4-4.5,3.6c-0.2,0.2-0.3,0.3-0.3,0.6c0,1.5,0,3.1,0,4.6c0,0.1,0,0.2,0,0.4c0.1,0,0.3,0,0.4,0c5.9,0,11.7,0,17.6,0
		c0.2,0,0.4-0.1,0.6-0.2c0.6-0.4,0.8-0.9,0.8-1.6c-0.1-0.6,0-1.3,0-1.9c0,0,0,0,0-0.1c0.3,0,0.5,0,0.8,0c0,3.6,0,7.1,0,10.7
		c-0.3,0-0.5,0-0.8,0c0-0.7,0-1.4,0-2.1c0.1-0.6-0.1-1.1-0.6-1.4c-0.3-0.2-0.5-0.3-0.8-0.3c-5.8,0-11.6,0-17.4,0
		C2.4,37.4,2.3,37.4,2.1,37.4z"/>
	<path class="st0" d="M22.3,57.9c0,3.6,0,7.1,0,10.7c-0.3,0-0.5,0-0.9,0c0-0.1,0-0.2,0-0.3c0-0.8,0-1.6,0-2.4c0-0.2-0.1-0.3-0.2-0.4
		c-0.5-0.5-1.1-0.7-1.8-0.7c-5.6,0-11.2,0-16.9,0c-0.1,0-0.2,0-0.4,0c0,0.1,0,0.2,0,0.3c0,1.7,0,3.3,0,5c0,0.2,0.1,0.3,0.2,0.5
		c1.5,1.2,3,2.3,4.6,3.5c0.2,0.1,0.3,0.3,0.3,0.5c0,0.3,0,0.7,0,1.1c-0.3-0.1-0.6-0.1-0.8-0.2c-1.9-0.5-3.7-1.1-5.6-1.6
		c-0.3-0.1-0.3-0.2-0.3-0.4c0-6.7,0-13.3,0-20c0-0.3,0.1-0.4,0.3-0.4c2-0.6,4-1.2,6-1.8C6.9,51,7,51,7.2,50.9c0,0.5,0,0.9,0,1.3
		c0,0.1-0.1,0.2-0.2,0.3c-1.5,1.2-3,2.4-4.5,3.6c-0.2,0.2-0.3,0.4-0.3,0.6c0,1.5,0,3,0,4.6c0,0.1,0,0.2,0,0.4c0.2,0,0.3,0,0.4,0
		c5.8,0,11.7,0,17.5,0c0.2,0,0.4-0.1,0.6-0.2c0.6-0.4,0.8-0.9,0.7-1.6c-0.1-0.7,0-1.3,0-2C21.7,57.9,22,57.9,22.3,57.9z"/>
	<path class="st0" d="M76.9,51.9c0.3,0,0.6,0,1,0c0,0.1,0,0.2,0,0.4c0,2.7,0,5.5,0,8.2c0,0.2,0.1,0.3,0.2,0.5
		c0.5,0.5,1.1,0.7,1.8,0.7c5.5,0,11,0,16.6,0c0.3,0,0.5-0.1,0.7-0.3c0.6-0.4,0.7-0.9,0.7-1.5c0-2.5,0-5.1,0-7.6c0-0.1,0-0.2,0-0.4
		c0.3,0,0.6,0,1,0c0,7.6,0,15.1,0,22.7c-0.3,0-0.6,0-1,0c0-0.1,0-0.3,0-0.4c0-2.7,0-5.5,0-8.2c0-0.2-0.1-0.4-0.2-0.5
		c-0.5-0.5-1-0.7-1.8-0.7c-5.5,0-11,0-16.5,0c-0.3,0-0.5,0.1-0.8,0.3c-0.5,0.4-0.7,0.8-0.7,1.5c0,2.5,0,5.1,0,7.6c0,0.1,0,0.2,0,0.4
		c-0.3,0-0.6,0-1,0C76.9,67.1,76.9,59.5,76.9,51.9z"/>
	<path class="st0" d="M44.1,75.9c-1.4-0.4-2.8-0.9-4.3-1.3c0.1-0.4,0.3-0.8,0.4-1.3c0.2,0,0.3,0,0.3,0.2c0,0.3,0,0.7,0.1,0.9
		c0.2,0.2,0.5,0.2,0.8,0.3c0.5,0.2,1,0.3,1.5,0.5c0.2-0.5,0.3-1,0.5-1.5c-0.4-0.1-0.9-0.3-1.3-0.4c-0.1,0-0.3,0.2-0.4,0.3
		c-0.1,0.1-0.2,0.2-0.3,0.2c0,0-0.1-0.1-0.1-0.1c0.2-0.5,0.3-1.1,0.5-1.6c0,0,0.1,0,0.1,0c0,0.1,0.1,0.2,0.1,0.3
		c0,0.4,0.1,0.6,0.5,0.6c0.3,0.1,0.6,0.2,1,0.3c0.2-0.6,0.3-1.1,0.5-1.6c-0.7-0.2-1.4-0.4-2.1-0.7c-0.1,0-0.2,0-0.2,0.1
		c-0.2,0.2-0.5,0.3-0.7,0.5c-0.1,0.1-0.2,0-0.3,0.1c0,0,0-0.1,0-0.1c0.2-0.3,0.5-0.7,0.7-1c0-0.1,0.2-0.1,0.3,0c1,0.3,2,0.6,2.9,0.9
		c0.6,0.2,1.2,0.3,1.8,0.3c0.4,0,0.8,0.2,1,0.6c0.4,0.6,0.9,1.2,1.3,1.8c0.1,0.1,0.1,0.2,0.2,0.3c0.1-0.7,0.1-1.3,0.2-1.9
		c0-0.2-0.1-0.3-0.3-0.3c-0.1,0-0.2,0-0.3-0.1c0,0,0-0.1,0-0.1c0.4,0,0.8,0.1,1.2,0.1c0.5,0,1.1,0,1.6-0.1c0.4,0,0.8,0,1.1,0.3
		c0.5,0.5,1.1,0.9,1.6,1.4c0.1,0.1,0.2,0.2,0.4,0.3c-0.1-0.7-0.2-1.3-0.3-1.9c0-0.2-0.2-0.3-0.4-0.2c-0.1,0-0.2,0-0.3,0
		c0,0,0-0.1,0-0.1c0.7-0.1,1.3-0.2,2-0.3c0,0,0,0.1,0,0.1c-0.1,0-0.2,0.1-0.3,0.1c-0.3,0-0.4,0.2-0.4,0.5c0.1,1.1,0.3,2.1,0.4,3.2
		c0,0.2,0.2,0.4,0.4,0.3c0.1,0,0.2,0,0.3,0c0,0,0,0.1,0,0.1c-0.1,0-0.2,0.1-0.3,0.1c-1,0.1-2.1,0.3-3.1,0.4c-0.3,0-0.6,0-0.8-0.1
		c-0.7-0.2-0.9-1.1-0.4-1.7c0.4-0.4,0.9-0.5,1.4-0.5c0.1,0,0.3,0,0.5-0.1c-0.6-0.5-1.2-1-1.8-1.4c-0.2-0.1-0.5-0.1-0.7-0.1
		c-0.2,0-0.3,0-0.5,0c-0.3,0-0.4,0.1-0.4,0.4c-0.1,0.8-0.1,1.6-0.2,2.4c0,0.2,0,0.4-0.1,0.7c0,0.4,0,0.5,0.4,0.5
		c0.1,0,0.2,0,0.3,0.1c-0.1,0-0.1,0.1-0.2,0.1c-1.1-0.1-2.3-0.2-3.4-0.3c-0.1,0-0.2,0-0.3-0.1c-0.6-0.2-1-0.6-0.9-1.2
		c0-0.5,0.5-1,1.1-1c0.4,0,0.9,0,1.3,0c-0.1-0.1-0.1-0.2-0.2-0.3c-0.3-0.4-0.7-0.9-1-1.3c-0.2-0.3-0.5-0.4-0.9-0.4
		c-0.2,0-0.4,0-0.5-0.1c-0.2-0.1-0.4,0-0.4,0.2c-0.3,1.1-0.7,2.2-1,3.2c-0.1,0.2,0,0.3,0.2,0.4c0.1,0,0.2,0.1,0.3,0.1
		C44.1,75.8,44.1,75.8,44.1,75.9z M54.1,73.9c-0.3,0-0.5,0.1-0.7,0.1c-0.4,0.1-0.9,0.1-1.3,0.2c-0.4,0.1-0.7,0.5-0.6,0.9
		c0,0.4,0.3,0.7,0.7,0.7c0.7,0,1.4-0.2,2.1-0.2C54.2,75,54.2,74.5,54.1,73.9z M48.7,74.3c-0.7-0.1-1.3-0.1-1.9-0.2
		c-0.5,0-0.8,0.3-0.9,0.7c0,0.4,0.2,0.8,0.6,0.8c0.7,0.1,1.4,0.1,2.1,0.2C48.6,75.4,48.7,74.9,48.7,74.3z"/>
	<path class="st0" d="M29.3,59.2c-0.8,0.8-1.6,1.6-2.4,2.5c0,0,0,0,0,0c0.2-0.1,0.3-0.1,0.5-0.2c0.6-0.3,1.2-0.6,1.8-0.9
		c0.3-0.2,0.3-0.2,0.2-0.6c0-0.1,0-0.2,0-0.2c0.4,0.4,0.7,1.4,0.7,1.5c0,0,0,0-0.1,0c-0.3-0.5-0.3-0.5-0.8-0.3
		c-0.9,0.4-1.7,0.8-2.6,1.2c-0.5,0.2-0.5,0.2-0.3,0.7c0,0,0,0.1,0,0.1c-0.1,0-0.1,0-0.2,0c0-0.1-0.1-0.1-0.1-0.2
		c-0.1-0.3-0.4-0.6-0.4-0.9c0-0.3,0.4-0.5,0.6-0.7c0.5-0.5,1-1,1.5-1.6c0.1-0.1,0.1-0.1,0.2-0.2c-0.6,0.1-1.2,0.1-1.8,0.2
		c-0.5,0-1,0.1-1.5,0.1c-0.1,0-0.2,0-0.2-0.1c-0.2-0.3-0.3-0.7-0.5-1c0,0,0.1,0,0.1-0.1c0.1,0.1,0.1,0.1,0.2,0.2
		c0.1,0.3,0.3,0.3,0.5,0.2c1-0.5,1.9-0.9,2.9-1.4c0.3-0.1,0.3-0.2,0.2-0.6c-0.1-0.2-0.2-0.4-0.2-0.6c-0.1-0.2-0.2-0.3-0.4-0.2
		c-1.1,0.2-2.1,0.5-3.2,0.7c-0.3,0.1-0.4,0.2-0.3,0.5c0,0.1,0,0.2,0.1,0.3c0,0-0.1,0-0.1,0.1c0-0.1-0.1-0.1-0.1-0.2
		c-0.2-0.6-0.3-1.3-0.4-1.9c-0.2-0.7-0.3-1.5-0.5-2.3c0.4-0.1,0.9-0.2,1.4-0.3C24,53.3,24,53.4,24,53.5c0,0,0,0,0,0
		c-0.2,0.2-0.6,0.3-0.6,0.5c-0.1,0.2,0.1,0.5,0.1,0.8c0.1,0.5,0.2,1,0.3,1.5c0,0,0,0.1,0,0.1c0.5-0.1,1-0.2,1.5-0.3
		c-0.1-0.5-0.2-0.9-0.3-1.3c0-0.1-0.2-0.1-0.4-0.2c-0.1-0.1-0.3-0.1-0.4-0.2c0.1-0.1,0.3-0.1,0.4-0.2c0.3-0.1,0.7-0.2,1-0.2
		c0.1,0,0.2,0,0.2,0.1c0,0.1,0,0.2-0.1,0.2c-0.4,0.2-0.5,0.6-0.3,1c0.1,0.3,0.1,0.5,0.2,0.8c0.6-0.1,1.1-0.2,1.7-0.4
		C27.2,55,27,54.5,27,53.9c-0.1-0.4-0.2-0.7-0.6-0.8c-0.2,0-0.3-0.1-0.5-0.2c-0.1-0.1-0.2-0.2-0.3-0.3c0,0,0-0.1,0.1-0.1
		c0.4,0,0.8,0,1.2,0.1c0.1,0,0.2,0.1,0.2,0.2c0.3,1.2,0.5,2.5,0.9,3.7c0.2,0.6,0.5,1.1,0.7,1.7c0,0.1,0.1,0.2,0.1,0.3
		c0,0-0.1,0-0.1,0.1c-0.1-0.1-0.1-0.2-0.2-0.3c-0.1-0.2-0.2-0.2-0.4-0.2c-0.8,0.4-1.6,0.7-2.3,1.2c1.1-0.1,2.3-0.2,3.4-0.3
		C29.2,59.1,29.2,59.2,29.3,59.2z"/>
	<path class="st0" d="M24.6,45.4c0.7,0.1,1.3,0.3,1.9,0.3c0.1,0,0.2-0.2,0.3-0.3c0.1-0.1,0.1-0.2,0.1-0.4c0.2,0.1-0.1,1.7-0.3,2.1
		c0-0.2,0-0.3,0-0.4c0-0.3,0-0.4-0.3-0.5c-1.1-0.2-2.1-0.4-3.2-0.6c-0.3,0-0.4,0.1-0.4,0.3c0,0.1-0.1,0.2-0.1,0.3c0,0-0.1,0-0.1,0
		c0-0.1,0-0.2,0-0.3c0.2-1,0.3-2,0.5-3c0.1-0.3,0.2-0.6,0.3-0.8c0.5-0.7,1.5-0.6,1.8,0.1c0.2,0.4,0.2,0.9,0.1,1.3
		c0,0.2-0.1,0.4-0.1,0.6c0.7-0.5,1.3-0.9,1.9-1.3c0.2-0.2,0.3-0.5,0.4-0.8c0,0,0.1,0.1,0.1,0.1c0,0.3-0.1,0.6-0.2,0.9
		c-0.1,0.3-0.3,0.5-0.5,0.7C26.2,44.5,25.4,44.9,24.6,45.4z M23,45.1c0.5,0.1,1,0.2,1.6,0.3c0.1-0.7,0.2-1.3,0.3-2
		c0.1-0.5-0.2-0.9-0.7-0.9c-0.5-0.1-0.8,0.1-0.9,0.7C23.3,43.8,23.2,44.4,23,45.1z"/>
	<path class="st0" d="M74.2,45.1c-0.5,0.6-1,1.2-1.4,1.8c-0.1,0.2-0.1,0.4-0.1,0.6c0,0.1,0,0.2,0,0.3c0,0,0,0-0.1,0
		c0,0-0.1-0.1-0.1-0.1c0-0.3-0.1-0.6-0.1-1c0-0.2,0.1-0.5,0.3-0.7c0.5-0.6,1-1.2,1.5-1.8c0.1-0.1,0.1-0.1,0.2-0.2
		c-0.7,0.1-1.3,0.2-1.9,0.3c-0.1,0-0.2,0.2-0.2,0.3c0,0.1,0,0.2,0,0.4c-0.2-0.6-0.3-1.3-0.4-2c0,0,0.1,0,0.1,0
		c0,0.1,0.1,0.2,0.1,0.3c0.1,0.3,0.1,0.4,0.5,0.4c1.1-0.2,2.1-0.3,3.2-0.5c0.3,0,0.4-0.2,0.3-0.5c0-0.1,0-0.2,0-0.3c0,0,0.1,0,0.1,0
		c0.1,0.4,0.1,0.7,0.2,1.1c0.1,0.8,0.3,1.5,0.3,2.3c0,0.3,0,0.6-0.1,0.9c-0.3,0.7-1.1,0.9-1.7,0.4c-0.4-0.4-0.5-0.9-0.6-1.4
		C74.3,45.5,74.2,45.4,74.2,45.1z M74.4,44c0.1,0.5,0.2,1,0.2,1.5c0,0.2,0.1,0.5,0.2,0.7c0.1,0.4,0.5,0.5,0.9,0.5
		c0.4-0.1,0.7-0.3,0.6-0.7c-0.1-0.7-0.2-1.4-0.3-2.1C75.4,43.8,74.9,43.9,74.4,44z"/>
	<path class="st0" d="M70,38.5c-0.4-0.5-0.8-1.1-1.2-1.7c0,0,0.1-0.1,0.1-0.1c0.1,0.1,0.2,0.2,0.2,0.3c0.1,0.2,0.3,0.2,0.5,0.1
		c0.4-0.3,0.8-0.6,1.3-0.9c-0.4-0.6-0.8-1.2-1.2-1.8c-0.5,0.3-0.9,0.6-1.3,0.9c-0.2,0.1-0.1,0.3,0,0.5c0.1,0.1,0.1,0.2,0.1,0.3
		c-0.3-0.2-1.2-1.5-1.1-1.7c0,0,0.1,0.1,0.1,0.1c0.3,0.4,0.3,0.4,0.7,0.1c0.8-0.6,1.6-1.1,2.4-1.6c0.4-0.2,0.5-0.4,0.1-0.7
		c0,0-0.1-0.1-0.1-0.2c0.1,0.1,0.2,0.1,0.3,0.1c0.1,0,0.1,0.1,0.1,0.2c0.3,0.5,0.6,0.9,0.9,1.4c0,0,0,0.1-0.1,0.1
		c-0.1,0-0.1-0.1-0.2-0.1c-0.3-0.4-0.3-0.4-0.7-0.1c-0.3,0.2-0.7,0.5-1,0.7c0.4,0.6,0.8,1.2,1.2,1.8c0.4-0.3,0.8-0.6,1.2-0.9
		c0.1-0.1,0.1-0.3,0-0.4c0-0.1-0.1-0.2-0.2-0.3c0.3,0,1.3,1.4,1.2,1.8c-0.1-0.1-0.2-0.2-0.2-0.3c-0.1-0.2-0.3-0.2-0.5-0.1
		c-0.9,0.6-1.8,1.2-2.8,1.9c-0.2,0.1-0.2,0.3-0.1,0.5C70,38.2,70.1,38.3,70,38.5C70.1,38.4,70.1,38.4,70,38.5z"/>
	<path class="st0" d="M31.7,63.4c1,1.1,2,2.1,2.9,3.2c0,0-0.1,0.1-0.1,0.1c-0.1-0.1-0.2-0.2-0.3-0.2c-0.2-0.2-0.3-0.2-0.5,0
		c-0.8,0.8-1.6,1.5-2.4,2.2c-0.2,0.2-0.2,0.3,0,0.5c0.1,0.1,0.1,0.2,0.2,0.3c0,0-0.1,0-0.1,0.1c-1-1.1-2-2.2-3.1-3.3
		c0.3-0.3,0.6-0.5,0.9-0.8c0,0,0.1,0,0.2-0.1c0,0.1,0.1,0.2,0,0.2c-0.1,0.2-0.2,0.4-0.3,0.7c0,0.1,0,0.2,0,0.3
		c0.5,0.6,1,1.1,1.6,1.7c0.4-0.4,0.8-0.7,1.2-1.1c-0.3-0.3-0.6-0.7-0.9-1c-0.1-0.1-0.2-0.1-0.3,0c-0.2,0-0.4,0.1-0.6,0.1
		c0,0,0-0.1-0.1-0.1c0.4-0.4,0.8-0.8,1.2-1.2c0,0,0.1,0,0.1,0c0,0.1,0,0.3,0,0.3c-0.2,0.3-0.1,0.6,0.2,0.8c0.2,0.2,0.4,0.5,0.7,0.7
		c0.4-0.4,0.8-0.8,1.3-1.2c-0.4-0.4-0.8-0.8-1.1-1.2c-0.3-0.4-0.7-0.6-1.2-0.5c-0.2,0-0.5,0.2-0.7-0.2
		C30.9,63.8,31.3,63.6,31.7,63.4z"/>
	<path class="st0" d="M59.8,69.8c-0.1,0.1-0.2,0.1-0.3,0.1c-0.3,0.1-0.3,0.2-0.2,0.5c0.4,1,0.7,2,1.1,3.1c0.1,0.3,0.3,0.3,0.5,0.2
		c0.1,0,0.2,0,0.3-0.1c0,0,0,0.1,0,0.1c-1.4,0.5-2.8,1-4.2,1.5c-0.1-0.4-0.3-0.8-0.4-1.1c0,0,0-0.2,0.1-0.2c0.1,0,0.2,0,0.2,0
		c0.2,0.2,0.3,0.4,0.5,0.5c0.1,0.1,0.2,0.1,0.3,0.1c0.7-0.3,1.5-0.5,2.2-0.8c-0.2-0.5-0.4-1-0.5-1.5c-0.4,0.2-0.9,0.3-1.3,0.5
		c-0.1,0-0.1,0.3-0.1,0.5c0,0.1-0.1,0.2-0.1,0.4c0,0-0.1,0-0.1,0c-0.2-0.5-0.4-1-0.6-1.6c0,0,0-0.1,0-0.1c0.1,0,0.2,0.1,0.3,0.1
		c0.2,0.3,0.5,0.4,0.9,0.2c0.3-0.1,0.6-0.2,0.9-0.3c-0.2-0.5-0.4-1.1-0.6-1.6c-0.4,0.1-0.8,0.3-1.2,0.4c-0.8,0.2-1.2,0.6-1.3,1.3
		c0,0.1-0.1,0.2-0.2,0.3c0,0-0.1,0-0.1,0c0-0.4-0.1-0.8-0.1-1.3c0,0,0.1-0.1,0.1-0.1c1.3-0.5,2.6-0.9,3.8-1.4
		C59.7,69.7,59.8,69.7,59.8,69.8C59.8,69.8,59.8,69.8,59.8,69.8z"/>
	<path class="st0" d="M60.7,24.5c-0.2,0.5-0.5,0.9-0.7,1.4c0.4,0.2,0.8,0.5,1.3,0.6c0.1,0,0.3-0.2,0.5-0.3c0.1-0.1,0.2-0.1,0.3-0.1
		c0,0,0,0.1,0,0.1c-0.3,0.5-0.5,1-0.8,1.5c0,0-0.1,0-0.1,0c0-0.1-0.1-0.2-0.1-0.3c0.1-0.4-0.1-0.6-0.4-0.8c-0.3-0.1-0.6-0.3-0.9-0.4
		c-0.3,0.5-0.5,1-0.8,1.5c0.4,0.2,0.8,0.4,1.1,0.6c0.6,0.4,1.2,0.5,1.8,0c0.1-0.1,0.3-0.1,0.4-0.1c0,0,0,0.1,0,0.1
		c-0.3,0.3-0.6,0.7-1,1c-1.3-0.7-2.6-1.3-3.9-2c0,0,0-0.1,0-0.1c0.1,0,0.2,0,0.3,0.1c0.3,0.1,0.4,0.1,0.6-0.2
		c0.5-0.9,0.9-1.8,1.4-2.7c0.2-0.3,0.2-0.6-0.2-0.7c-0.1,0-0.1-0.1-0.2-0.1c0.1,0,0.2-0.1,0.3,0c1.3,0.7,2.6,1.3,3.9,2
		c-0.2,0.4-0.4,0.8-0.6,1.2c0,0-0.1,0-0.1,0c0-0.1-0.1-0.2-0.1-0.3c0.2-0.7-0.1-1.1-0.8-1.3C61.6,25.1,61.2,24.8,60.7,24.5z"/>
	<path class="st0" d="M70,38.5C70.1,38.4,70.1,38.4,70,38.5c0.1,0.1,0.2,0.2,0.3,0.3c0.1,0.2,0.2,0.3,0.4,0.2
		c1.1-0.4,2.1-0.8,3.2-1.2c0.2-0.1,0.3-0.2,0.2-0.4c0-0.1-0.1-0.2-0.1-0.3c0,0,0,0,0.1-0.1c0,0,0.1,0.1,0.1,0.1
		c0.5,1.3,1,2.7,1.6,4.1c-0.4,0.2-0.8,0.3-1.3,0.5c0-0.2,0.1-0.3,0.1-0.4c0,0,0,0,0.1-0.1c0.6-0.6,0.6-0.6,0.3-1.3
		c-0.2-0.5-0.4-1-0.6-1.6c-0.5,0.2-1,0.4-1.5,0.6c0.2,0.4,0.3,0.9,0.5,1.3c0,0.1,0.2,0.1,0.3,0.1c0.2,0,0.4-0.1,0.6,0.2
		c-0.5,0.2-1.1,0.4-1.6,0.6c0,0-0.1,0-0.1,0c0-0.1,0-0.2,0.1-0.3c0.4-0.3,0.4-0.5,0.2-0.9c-0.1-0.3-0.2-0.6-0.4-0.9
		c-0.5,0.2-1,0.4-1.6,0.6c0.1,0.3,0.2,0.6,0.3,0.9c0.1,0.3,0.2,0.5,0.3,0.8c0.1,0.4,0.3,0.5,0.7,0.6c0.2,0,0.4,0.1,0.6,0.2
		c0.1,0,0.2,0.1,0.3,0.2c0,0,0,0.1,0,0.1c-0.4,0-0.9,0.1-1.4,0.1c-0.2-0.5-0.4-0.9-0.5-1.4C70.7,40.3,70.4,39.4,70,38.5z"/>
	<path class="st0" d="M38.7,69.4c-0.1,0-0.2-0.1-0.3-0.1c-0.3-0.2-0.4-0.2-0.6,0.1c-0.6,0.9-1.2,1.7-1.8,2.6
		c-0.2,0.3-0.2,0.4,0.1,0.6c0.1,0.1,0.1,0.1,0.2,0.2c0,0,0,0.1-0.1,0.1c-0.1,0-0.1,0-0.2-0.1c-0.6-0.4-1.3-0.8-1.9-1.3
		c-0.6-0.5-1.1-1-1.1-1.9c-0.1-1.4,1.2-2.5,2.6-2.1c0.2,0,0.4,0.1,0.5,0.2c0.8,0.5,1.6,1,2.5,1.6C38.8,69.4,38.8,69.4,38.7,69.4z
		 M37.4,69c-0.3-0.4-0.9-0.8-1.4-0.9c-0.8-0.2-1.4,0.1-1.9,0.8c-0.4,0.7-0.4,1.4,0.1,2c0.3,0.4,0.8,0.7,1.2,1.1
		C36.1,70.9,36.8,69.9,37.4,69z"/>
	<path class="st0" d="M70.8,61.9c0.2-0.4,0.4-0.7,0.6-1.1c0.1,0.1,0.2,0.1,0.3,0.2c-0.4,0.7-0.7,1.3-1.1,2c0,0-0.1,0-0.1,0
		c0.1-0.6-0.4-0.7-0.7-0.9c-0.3-0.2-0.6-0.3-0.9-0.6c0.2-0.1,0.4-0.1,0.6-0.2c-0.1-0.8,0.1-1.5,0.6-2.1c0.3-0.4,0.8-0.7,1.3-0.8
		c1-0.2,2,0.2,2.4,1.1c0.5,0.9,0.4,2.3-0.8,3.3c0,0.1,0.1,0.1,0.1,0.2c0.1,0.2-0.1,0.4-0.2,0.4c-0.4-0.1-0.9-0.2-1.3-0.3
		c0,0,0-0.1,0-0.1c0.1-0.1,0.2-0.1,0.4-0.2c1-0.2,1.6-0.7,1.8-1.6c0.1-0.7,0-1.2-0.5-1.7c-0.6-0.5-1.3-0.6-2-0.3
		c-0.7,0.3-1.3,1.2-1.3,2c0,0.1,0.1,0.3,0.2,0.3C70.3,61.7,70.5,61.8,70.8,61.9z"/>
	<path class="st0" d="M26.7,36.8c1.2,0,2.2,1,2.2,2.3c0,1.3-1.1,2.4-2.4,2.4c-1.2,0-2.2-1-2.2-2.3C24.3,37.9,25.4,36.9,26.7,36.8z
		 M26.6,41c1,0,1.8-0.8,1.8-1.8c0-0.9-0.8-1.8-1.9-1.8c-1,0-1.7,0.8-1.7,1.8C24.8,40.2,25.6,41,26.6,41z"/>
	<path class="st0" d="M71.5,55.8c0-1.3,1-2.4,2.3-2.4c1.3,0,2.3,1,2.3,2.4c0,1.3-1.1,2.4-2.4,2.4C72.4,58.2,71.5,57.1,71.5,55.8z
		 M72,55.8c0,1,0.8,1.8,1.8,1.8c1,0,1.7-0.8,1.8-1.8c0-1-0.8-1.7-1.8-1.7C72.7,54,72,54.8,72,55.8z"/>
	<path class="st0" d="M67.3,28.6c0.1,0,0.2,0,0.2,0c0.2,0,0.3,0.1,0.2,0.3c-0.2,0.5-0.3,0.9-0.5,1.4c-0.2,0-0.2-0.2-0.2-0.3
		c0.1-0.8-0.1-1.5-0.7-2c-0.2-0.1-0.4-0.3-0.6-0.3c-0.2,0-0.5,0.1-0.6,0.2c-0.1,0.1-0.1,0.4-0.1,0.6c0,0.1,0.1,0.3,0.2,0.4
		c0.3,0.4,0.6,0.8,1,1.3c0.2,0.3,0.4,0.7,0.3,1.1c-0.2,0.7-0.8,1-1.5,0.7c-0.7-0.2-1.2-0.7-1.6-1.4c0-0.1-0.1-0.1-0.1-0.2
		c0,0,0-0.1-0.1-0.1c-0.5,0.1-0.5,0.1-0.6-0.1c0.2-0.5,0.5-1,0.8-1.5c0.2,0,0.2,0.2,0.2,0.3c-0.1,1,0.2,1.8,1,2.3
		c0.2,0.1,0.4,0.2,0.6,0.3c0.5,0.1,0.9-0.4,0.7-0.9c-0.1-0.1-0.1-0.3-0.2-0.4c-0.3-0.4-0.6-0.8-0.9-1.2c-0.1-0.2-0.3-0.5-0.4-0.7
		c-0.2-0.8,0.3-1.4,1.1-1.3c0.7,0.1,1.2,0.5,1.6,1C67.2,28.3,67.2,28.5,67.3,28.6z"/>
	<path class="st0" d="M30.6,36.4c0,0.1,0,0.1-0.1,0.2c-0.2,0.4-0.5,0.7-0.8,1c0,0.1-0.1,0.1-0.2,0.1c0-0.1,0-0.1,0-0.2
		c0.2-0.4,0.2-0.4-0.1-0.7c-0.7-0.5-1.4-1-2.1-1.5c-0.2-0.2-0.4-0.2-0.7-0.2c-0.2,0-0.4,0.1-0.6,0.1c0.3-0.4,0.4-0.8,1-0.8
		c1.3-0.1,2.6-0.3,3.9-0.5c-0.1-0.1-0.1-0.1-0.2-0.2c-0.6-0.5-1.3-0.9-1.9-1.4c-0.2-0.2-0.4-0.2-0.6,0.1c0,0.1-0.1,0.1-0.2,0.2
		c0,0-0.1-0.1-0.1-0.1c0.3-0.5,0.6-0.9,1-1.4c0,0,0.1,0,0.1,0c0,0.1,0,0.2-0.1,0.2c-0.2,0.3-0.2,0.4,0.1,0.6c1,0.7,2.1,1.5,3.2,2.3
		c-0.1,0.1-0.2,0.1-0.3,0.1c-1.3,0.2-2.6,0.3-3.9,0.5c-0.1,0-0.2,0-0.4,0.1c0.6,0.4,1.1,0.8,1.7,1.2c0.1,0.1,0.2,0.1,0.2,0.2
		c0.5,0.3,0.5,0.3,0.9-0.1C30.4,36.4,30.5,36.4,30.6,36.4C30.5,36.4,30.5,36.4,30.6,36.4z"/>
	<path class="st0" d="M72.8,49.2c0,0.8-0.1,1.6-0.1,2.3c0,0.1,0.1,0.2,0.1,0.3c0.2,0.2,0.4,0.3,0.6,0.5c0.1,0.1,0.1,0.2,0.2,0.3
		c0,0,0,0-0.1,0.1c-0.4-0.1-0.8-0.2-1.2-0.4c0,0-0.1-0.1-0.1-0.2c0.1-1.3,0.2-2.6,0.3-4c1.2,1.2,2.5,2.3,3.8,3.5
		c0-0.7,0.1-1.3,0.1-2c0-0.1-0.1-0.2-0.1-0.2c-0.2-0.2-0.4-0.3-0.7-0.5c-0.1-0.1-0.1-0.2-0.2-0.3c0,0,0.1,0,0.1-0.1
		c0.4,0.1,0.8,0.2,1.2,0.3c0.1,0,0.1,0.1,0.1,0.2c-0.1,1.2-0.1,2.4-0.2,3.6c0,0-0.1,0-0.1,0.1C75.3,51.5,74.1,50.4,72.8,49.2z"/>
	<path class="st0" d="M67.7,65.9c-0.3-0.3-0.7-0.6-1-0.9c-0.2-0.1-0.3-0.2-0.5,0c-0.1,0.1-0.2,0.2-0.3,0.3c0-0.1-0.1-0.2,0-0.2
		c0.5-0.5,1-1,1.5-1.5c0,0,0.1,0,0.1,0.1c0,0.1-0.1,0.2-0.1,0.2c-0.4,0.4-0.4,0.4,0,0.8c0.7,0.7,1.4,1.4,2,2.1
		c0.4,0.4,0.4,0.4,0.8,0c0.1-0.1,0.1-0.1,0.2-0.1c0,0.1,0,0.1-0.1,0.2c-0.8,0.8-1.6,1.6-2.4,2.3c-0.2,0.2-0.4,0.3-0.7,0.4
		c-0.4,0.1-0.8,0.1-1.1-0.2c-0.3-0.3-0.5-0.7-0.3-1.2c0.1-0.3,0.3-0.6,0.6-0.9C66.8,66.8,67.3,66.4,67.7,65.9z M67.9,66.3
		c-0.4,0.4-0.9,0.9-1.3,1.4c-0.3,0.3-0.3,0.8,0,1.1c0.3,0.3,0.7,0.4,1.1,0.1c0.5-0.4,1-0.9,1.5-1.4C68.8,67.1,68.4,66.7,67.9,66.3z"
		/>
	<path class="st0" d="M38.6,28.9c0.4-0.6,0.3-1.3,0.3-2c0.1-0.7,0-1.3,0.1-2c0-0.3,0-0.5-0.3-0.6c-0.1,0-0.1-0.1-0.2-0.1
		c0.2-0.1,0.4-0.2,0.6-0.2c0.1,0,0.3,0.1,0.4,0.1c0.9,0.8,1.9,1.7,2.8,2.5c0.2,0.2,0.5,0.3,0.8,0.4c-0.6,0.2-1.2,0.5-1.8,0.7
		c0,0,0-0.1-0.1-0.1c0.2-0.1,0.3-0.1,0.5-0.2c0.3-0.1,0.3-0.2,0.1-0.5c-0.3-0.4-0.7-0.5-1.1-0.2c-0.3,0.2-0.7,0.3-1.1,0.5
		c-0.1,0-0.2,0.2-0.2,0.3c0,0.2,0,0.3,0,0.5c0,0.3,0.1,0.4,0.4,0.3c0.2-0.1,0.3-0.1,0.5-0.2c0,0,0,0,0.1,0.1
		C39.7,28.5,39.2,28.7,38.6,28.9z M39.4,26.9c0.5-0.2,1-0.4,1.6-0.7c-0.5-0.5-1-0.9-1.5-1.4c0,0-0.1,0-0.1,0
		C39.4,25.6,39.4,26.2,39.4,26.9z"/>
	<path class="st0" d="M22.6,52.2c-0.2-0.4-0.2-1.9,0-2c0,0.1,0,0.2,0,0.3c0,0.3,0.2,0.4,0.4,0.4c0.8,0,1.6,0,2.3,0
		c0.7,0,1.1-0.4,1.1-1.1c0.1-0.9-0.3-1.5-1-1.5c-0.9-0.1-1.8,0-2.6,0c-0.1,0-0.2,0.2-0.2,0.3c0,0.1,0,0.2,0,0.3
		c-0.2-0.1-0.2-0.6-0.2-1.6c0,0,0.1,0,0.1,0c0,0.1,0.1,0.1,0.1,0.2c0,0.4,0.1,0.4,0.4,0.4c0.7,0,1.4,0,2.1,0c1,0,1.6,0.5,1.7,1.5
		c0,0.3,0,0.7-0.1,1c-0.2,0.8-0.7,1.1-1.6,1.2c-0.7,0-1.3,0-2,0c-0.5,0-0.5,0-0.6,0.5C22.6,52,22.6,52.1,22.6,52.2z"/>
	<path class="st0" d="M34.5,29.9c0.2,0.2,0.3,0.4,0.5,0.5c0.3,0.3,0.7,0.3,1,0c0.3-0.2,0.4-0.6,0.3-0.9c-0.1-0.1-0.2-0.3-0.2-0.4
		c-0.5-0.6-0.9-1.3-1.4-1.9c-0.2-0.3-0.3-0.3-0.6-0.1c-0.3,0.2-0.6,0.5-1,0.7c-0.1,0-0.1,0-0.2,0c0-0.1,0-0.1,0.1-0.2
		c0.9-0.7,1.9-1.4,2.8-2c0.1,0,0.1,0,0.2,0c0,0.1,0,0.1-0.1,0.2c-0.2,0.2-0.4,0.3-0.7,0.5c-0.2,0.1-0.2,0.3-0.1,0.5
		c0.4,0.6,0.9,1.2,1.3,1.8c0.1,0.2,0.3,0.4,0.4,0.6c0.3,0.7-0.1,1.5-0.9,1.8c-0.7,0.3-1.4,0-1.8-0.7C34.2,30.1,34.4,30,34.5,29.9z"
		/>
	<path class="st0" d="M63.9,67.3c-0.4,0.3-0.9,0.6-1.3,0.8c-0.2,0.2-0.3,0.3-0.1,0.6c0.6,0.9,1.2,1.8,1.7,2.7
		c0.1,0.2,0.3,0.3,0.6,0.1c0.4-0.2,0.7-0.5,1.1-0.7c0.1,0,0.2,0,0.3-0.1c0,0,0,0.1,0,0.1c-0.1,0-0.1,0.1-0.2,0.1
		c-1.1,0.7-2.3,1.5-3.4,2.2c-0.1,0.1-0.2,0.1-0.3,0.1c0,0,0-0.1,0-0.1c0.4-0.3,0.9-0.5,1.3-0.8c0.3-0.2,0.3-0.3,0.1-0.6
		c-0.6-0.9-1.1-1.8-1.7-2.7c-0.2-0.3-0.3-0.3-0.6-0.1c-0.4,0.2-0.8,0.5-1.1,0.7c-0.1,0-0.1,0-0.2,0c0-0.1,0.1-0.1,0.1-0.2
		c1.2-0.8,2.3-1.5,3.5-2.3c0.1,0,0.1,0,0.2,0C63.9,67.3,63.9,67.3,63.9,67.3z"/>
	<path class="st0" d="M41.9,48.2c0.7,0,1.3,0,1.8,0c0.5,0,0.7,0.2,0.7,0.6c0.1,0.4-0.1,0.6-0.6,0.9c0.3,0.1,0.6,0.2,0.7,0.6
		c0.1,0.5-0.2,1-0.8,1.1c-0.6,0.1-1.2,0.1-1.9,0.1c0,0,0-0.1,0-0.1c0,0,0.1-0.1,0.1-0.1c0.3,0,0.4-0.2,0.4-0.5c0-0.6,0-1.3,0-1.9
		c0-0.5,0-0.5-0.5-0.6C42,48.3,42,48.3,41.9,48.2z M43,49.8c0,0.1,0,0.2,0,0.3c0,0.3,0,0.6,0,0.9c0,0.1,0.1,0.2,0.1,0.2
		c0.3,0.2,0.8,0,0.9-0.3c0.2-0.4,0-0.9-0.4-1C43.4,49.8,43.2,49.8,43,49.8z M43,49.6c0.2,0,0.4,0,0.6-0.1c0.2-0.1,0.4-0.2,0.4-0.5
		c0-0.2,0-0.5-0.2-0.6c-0.2-0.1-0.5-0.1-0.7-0.1c0,0-0.1,0.1-0.1,0.1C43,48.9,43,49.3,43,49.6z"/>
	<path class="st0" d="M54.2,51.4c-0.8,0-1.7,0-2.5,0c0,0,0-0.1,0.1-0.1c0.5-0.1,0.5-0.1,0.5-0.6c0-0.6,0-1.2,0-1.9
		c0-0.4,0-0.4-0.4-0.5c0,0-0.1,0-0.1-0.1c0.8,0,1.6,0,2.4,0c0,0.2,0,0.5,0,0.7c-0.1-0.1-0.1-0.2-0.2-0.2c-0.1-0.3-0.3-0.4-0.7-0.4
		c-0.2,0-0.4,0-0.6,0c0,0.4,0,0.8,0,1.2c0.5,0.2,0.8,0,1-0.5c0,0.4,0,0.8,0,1.2c-0.2-0.4-0.5-0.6-1-0.5c0,0.4,0,0.9,0,1.4
		c0.3,0,0.7,0,1,0c0.1,0,0.2-0.1,0.2-0.1c0.1-0.1,0.2-0.3,0.4-0.4C54.3,50.9,54.2,51.1,54.2,51.4z"/>
	<path class="st0" d="M50.6,49.1c0-0.1-0.1-0.2-0.1-0.2c-0.1-0.2-0.3-0.4-0.5-0.5c-0.3-0.2-0.6,0-0.7,0.2c-0.1,0.2,0,0.5,0.2,0.7
		c0.3,0.2,0.6,0.3,0.8,0.4c0.3,0.2,0.5,0.4,0.5,0.8c0,0.5-0.3,0.9-0.9,0.9c-0.2,0-0.4,0-0.6-0.1c-0.2,0-0.3,0-0.5,0c0-0.3,0-0.6,0-1
		c0.1,0.1,0.2,0.2,0.2,0.3c0.2,0.3,0.5,0.6,0.9,0.6c0.2,0,0.4-0.1,0.4-0.3c0.1-0.2,0-0.4-0.1-0.5c-0.1-0.1-0.3-0.2-0.4-0.3
		c-0.2-0.1-0.4-0.2-0.6-0.3c-0.4-0.2-0.5-0.6-0.4-1c0.1-0.4,0.4-0.6,0.8-0.7c0.2,0,0.4,0,0.5,0c0.2,0,0.3,0,0.5,0
		C50.7,48.5,50.7,48.8,50.6,49.1C50.7,49.1,50.7,49.1,50.6,49.1z"/>
	<path class="st0" d="M46.7,48.1c0.5,1.1,0.9,2.2,1.4,3.3c-0.3,0-0.7,0-1.1,0c0,0,0,0,0-0.1c0.1,0,0.1,0,0.2,0
		c0.1,0,0.2-0.1,0.2-0.1c0-0.2-0.1-0.5-0.2-0.7c0-0.1-0.1-0.1-0.2-0.1c-0.2,0-0.3,0-0.5,0c-0.5,0-0.5,0-0.7,0.5
		c-0.1,0.2,0,0.4,0.3,0.4c0.1,0,0.1,0,0.2,0.1c-0.3,0-0.6,0-0.9,0c0.2-0.5,0.4-1,0.6-1.5c0.2-0.4,0.3-0.8,0.4-1.1c0-0.1,0-0.3,0-0.4
		C46.5,48.3,46.6,48.1,46.7,48.1C46.7,48,46.7,48,46.7,48.1z M47.1,50.2c-0.2-0.4-0.3-0.9-0.5-1.3c-0.2,0.5-0.3,0.9-0.5,1.3
		C46.4,50.2,46.7,50.2,47.1,50.2z"/>
	<path class="st0" d="M54.9,48.2c0.6,0,1.1,0,1.6,0c0,0,0,0,0,0.1c-0.1,0-0.2,0-0.3,0c-0.2,0-0.3,0.1-0.3,0.3c0,0.8,0,1.5,0,2.3
		c0,0.2,0.1,0.3,0.3,0.3c0.1,0,0.1,0,0.2,0c0.4,0.1,0.6-0.1,0.8-0.4c0-0.1,0.1-0.2,0.2-0.2c0,0.2-0.1,0.5-0.1,0.8
		c-0.8,0-1.6,0-2.3,0c0,0,0,0,0,0c0,0,0.1-0.1,0.1-0.1c0.3,0,0.4-0.2,0.4-0.5c0-0.7,0-1.3,0-2c0-0.4,0-0.5-0.5-0.5
		C55,48.3,55,48.3,54.9,48.2z"/>
</g>
</svg>
