<?xml version="1.0" encoding="utf-8"?>
<!-- Generator: Adobe Illustrator 27.5.0, SVG Export Plug-In . SVG Version: 6.00 Build 0)  -->
<svg version="1.1" id="Ebene_1" xmlns="http://www.w3.org/2000/svg" xmlns:xlink="http://www.w3.org/1999/xlink" x="0px" y="0px"
	 viewBox="0 0 143.4 50.1" style="enable-background:new 0 0 143.4 50.1;" xml:space="preserve">
<style type="text/css">
	.st0{fill:#FFFFFF;}
</style>
<g>
	<path class="st0" d="M135.3,19.1v-7.8h-0.7l-1.5,1.8c-0.5-0.4-1-0.7-1.4-0.9c-0.5-0.3-0.9-0.5-1.4-0.7c-0.5-0.2-1-0.3-1.6-0.4
		c-0.6-0.1-1.3-0.2-2-0.2c-1.9,0-3.6,0.4-5,1.2c-1.4,0.8-2.7,1.8-3.9,3.2c-1.2,1.4-2.1,2.9-2.8,4.6c-0.6,1.7-0.9,3.4-0.9,5.3
		c0,1.5,0.2,3,0.7,4.6c0.5,1.6,1.2,3,2.1,4.3c1.3,1.8,2.8,3.2,4.3,4c1.5,0.8,3.3,1.2,5.3,1.2c1.9,0,3.6-0.3,5.1-1s2.6-1.6,3.6-2.9
		c0.6-0.7,1-1.6,1.3-2.7c0.3-1,0.5-2.1,0.5-3.1h3v-0.9h-12.5v0.9h4.2v1.2c0,1,0,1.9,0,2.8c0,0.9-0.2,1.7-0.5,2.4
		c-0.3,0.7-0.8,1.3-1.5,1.7c-0.7,0.4-1.7,0.6-3,0.6c-1.6,0-2.8-0.2-3.6-0.7c-0.9-0.5-1.6-1.1-2.1-1.9c-0.3-0.5-0.5-1-0.7-1.5
		c-0.2-0.5-0.3-1.1-0.4-1.8c-0.1-0.6-0.2-1.4-0.2-2.2c0-0.8,0-1.8,0-2.8v-4.9c0-2,0.1-3.7,0.3-5c0.2-1.3,0.7-2.5,1.4-3.5
		c0.6-0.7,1.3-1.2,2.1-1.6c0.9-0.4,2-0.6,3.3-0.6c1.3,0,2.4,0.2,3.4,0.6c0.9,0.4,1.7,1,2.3,1.7c0.6,0.7,1.1,1.5,1.5,2.3
		c0.4,0.9,0.7,1.8,0.9,2.7H135.3z"/>
	<path class="st0" d="M106.9,38.5c0.5,0.5,1.2,0.8,2,0.8c0.8,0,1.4-0.3,2-0.8c0.5-0.5,0.8-1.2,0.8-2c0-0.8-0.3-1.4-0.8-2
		c-0.5-0.5-1.2-0.8-2-0.8c-0.8,0-1.4,0.3-2,0.8c-0.5,0.5-0.8,1.2-0.8,2C106.1,37.3,106.3,37.9,106.9,38.5"/>
	<polygon class="st0" points="93.2,25 93.2,37.7 89.2,37.7 89.2,38.6 101.8,38.6 101.8,37.7 97.7,37.7 97.7,12.3 101.8,12.3 
		101.8,11.5 89.2,11.5 89.2,12.3 93.2,12.3 93.2,24.1 82.1,24.1 82.1,12.3 86.2,12.3 86.2,11.5 73.5,11.5 73.5,12.3 77.6,12.3 
		77.6,37.7 73.5,37.7 73.5,38.6 86.2,38.6 86.2,37.7 82.1,37.7 82.1,25 	"/>
	<path class="st0" d="M62.6,28.6c-0.4-0.8-0.9-1.5-1.6-2.1c-0.6-0.6-1.4-1-2.2-1.4c-0.9-0.4-1.7-0.6-2.6-0.7v-0.1
		c0.8-0.2,1.6-0.4,2.4-0.8s1.4-0.8,2-1.3s1-1.1,1.3-1.8c0.3-0.7,0.5-1.5,0.5-2.4c0-1.5-0.3-2.6-1-3.5c-0.7-0.8-1.5-1.5-2.5-1.9
		c-1-0.4-2.2-0.7-3.4-0.9c-1.2-0.1-2.4-0.2-3.6-0.2H40.1v0.9h4v25.3h-4v0.9h9h0.4c0.1,0,0.3,0,0.5,0c0.2,0,0.5,0,0.9,0h1.4
		c1.1,0,2.1,0,3.1-0.1c1-0.1,2-0.3,2.9-0.5c1.4-0.5,2.6-1.2,3.5-2.2c0.9-1,1.4-2.4,1.4-4.3C63.2,30.4,63,29.4,62.6,28.6z M48.6,12.3
		h3.2c0.9,0,1.8,0,2.5,0.1c0.7,0.1,1.3,0.3,1.8,0.7c0.5,0.4,0.8,0.9,1.1,1.7c0.2,0.7,0.4,1.8,0.4,3.1c0,2.3-0.4,3.9-1.2,4.8
		c-0.8,0.9-2,1.3-3.5,1.3h-4.1V12.3z M57.8,33.9c-0.2,0.9-0.5,1.8-1,2.5c-0.3,0.4-0.7,0.7-1.1,1c-0.4,0.2-1.1,0.4-1.9,0.4h-5.2V25
		H53c1,0,1.8,0.2,2.5,0.5c0.7,0.3,1.2,0.7,1.6,1.3c0.4,0.6,0.7,1.2,0.8,2c0.2,0.8,0.2,1.6,0.2,2.5C58.1,32.1,58,33,57.8,33.9z"/>
	<polygon class="st0" points="16.9,11.5 4.3,11.5 4.3,12.3 8.4,12.3 8.4,37.7 4.3,37.7 4.3,38.6 16.9,38.6 16.9,37.7 12.9,37.7 
		12.9,12.3 16.9,12.3 	"/>
	<polygon class="st0" points="32.2,38.6 32.2,37.7 30,37.7 17.2,21.9 26.7,12.3 30.3,12.3 30.3,11.5 20.3,11.5 20.3,12.3 25.4,12.3 
		13.6,24.4 24.3,37.7 19.9,37.7 19.9,38.6 	"/>
</g>
</svg>
