<?xml version="1.0" encoding="UTF-8"?>
<svg id="Ebene_1" xmlns="http://www.w3.org/2000/svg" version="1.1" viewBox="0 0 567.9 36.4">
  <!-- Generator: Adobe Illustrator 30.2.1, SVG Export Plug-In . SVG Version: 2.1.1 Build 1)  -->
  <g id="g8">
    <g id="g10">
      <path id="path12" d="M567.89,18.19c0-5.6-1.57-9.92-4.72-12.95s-7.61-4.55-13.41-4.55h-10.67v34.99h10.67c5.8,0,10.27-1.52,13.41-4.55,3.15-3.03,4.72-7.35,4.72-12.95M563.13,18.19c0,4.39-1.15,7.73-3.44,10.03-2.29,2.29-5.61,3.44-9.97,3.44h-6.09V4.72h6.09c4.36,0,7.68,1.15,9.97,3.44s3.44,5.63,3.44,10.03M523.23,35.68h6.68V.69h-4.43v14c0,5.57.05,11.16.15,16.76h-.09c-2.33-4.43-5.15-9.65-8.45-15.68l-8.36-15.09h-6.64v34.99h4.43v-14c0-5.57-.05-11.16-.15-16.76h.09c2.49,4.81,5.31,10.04,8.45,15.68l8.32,15.09ZM493.99,35.68h4.87L485.53.69h-6.15l-11.73,30.96h-13.12V.69h-4.53v34.99h20.93l3.83-10.41h15.43l3.8,10.41h0ZM488.72,21.28h-12.53l1.17-3.2c2-5.51,3.68-10.25,5.05-14.25h.09c1.37,4,3.07,8.75,5.07,14.25l1.15,3.2ZM425.53,35.68h21.25v-4.03h-16.72V.69h-4.52v34.99h-.01ZM394.73,35.68h23.09v-4.03h-18.57v-11.89h17v-3.99h-17V4.72h18.04V.69h-22.56v34.99ZM367.75,12.27c-.59-.73-.88-1.71-.88-2.92,0-1.67.61-3,1.84-3.99s2.92-1.48,5.08-1.48c2.61,0,4.61.63,5.97,1.89s2.04,3.17,2.04,5.72h4.57c0-3.8-1.05-6.67-3.15-8.6C381.13.96,378,0,373.84,0,371.51,0,369.48.41,367.72,1.23c-1.76.81-3.11,1.96-4.05,3.41-.95,1.45-1.43,3.12-1.43,4.99,0,2.23.48,4,1.45,5.31.96,1.31,2.25,2.32,3.85,3.03,1.6.71,3.75,1.39,6.44,2.04,2.16.56,3.83,1.05,4.99,1.49s2.05,1.04,2.65,1.8.91,1.75.91,3c0,1.96-.68,3.49-2.04,4.57-1.36,1.08-3.28,1.63-5.77,1.63-2.69,0-4.77-.69-6.24-2.09-1.48-1.39-2.21-3.49-2.21-6.32h-4.67c0,4,1.15,7.04,3.44,9.15,2.29,2.09,5.51,3.15,9.63,3.15,2.52,0,4.72-.43,6.61-1.28,1.88-.85,3.33-2.05,4.37-3.61,1.03-1.56,1.55-3.37,1.55-5.43,0-2.27-.49-4.07-1.49-5.4-1-1.35-2.31-2.36-3.93-3.04-1.63-.69-3.77-1.36-6.47-2.01-2.13-.52-3.77-1.03-4.93-1.49-1.16-.51-2.03-1.11-2.63-1.84M355.19,35.68h4.87L346.73.69h-6.15l-13.27,34.99h4.81l3.83-10.41h15.43l3.8,10.41h.01ZM349.93,21.28h-12.53l1.17-3.2c2-5.51,3.68-10.25,5.07-14.25h.09c1.37,4,3.07,8.75,5.07,14.25l1.13,3.2h0ZM318.16,17.84v-.09c1.89-.69,3.35-1.73,4.32-3.12.99-1.4,1.48-3.07,1.48-5.04,0-2.75-.99-4.92-2.97-6.51-1.99-1.59-4.92-2.39-8.83-2.39h-11.4v34.99h12.33c3.64,0,6.49-.87,8.55-2.6,2.07-1.73,3.09-4.08,3.09-7.03,0-2.13-.57-3.91-1.72-5.33s-2.75-2.39-4.85-2.88M311.83,15.97h-6.53V4.52h6.73c2.59,0,4.48.48,5.68,1.43s1.8,2.37,1.8,4.28c-.01,3.83-2.57,5.75-7.68,5.75M320.08,25.8c0,4.03-2.53,6.04-7.61,6.04h-7.17v-12.09h6.53c5.51.01,8.25,2.03,8.25,6.05M259.88,12.27c-.59-.73-.88-1.71-.88-2.92,0-1.67.61-3,1.84-3.99s2.92-1.48,5.08-1.48c2.61,0,4.61.63,5.97,1.89s2.04,3.17,2.04,5.72h4.57c0-3.8-1.05-6.67-3.15-8.6C273.27.96,270.13,0,265.97,0,263.64,0,261.61.41,259.85,1.23c-1.76.81-3.11,1.96-4.05,3.41s-1.43,3.12-1.43,4.99c0,2.23.48,4,1.45,5.31.96,1.31,2.25,2.32,3.85,3.03,1.6.71,3.75,1.39,6.44,2.04,2.16.56,3.83,1.05,4.99,1.49s2.05,1.04,2.65,1.8.91,1.75.91,3c0,1.96-.68,3.49-2.04,4.57-1.36,1.08-3.28,1.63-5.77,1.63-2.69,0-4.77-.69-6.24-2.09-1.48-1.39-2.21-3.49-2.21-6.32h-4.67c0,4,1.15,7.04,3.44,9.15,2.29,2.09,6.2,3.15,10.33,3.15,2.52,0,4.03-.43,5.92-1.28,1.88-.85,3.33-2.05,4.37-3.61,1.03-1.56,1.55-3.37,1.55-5.43,0-2.27-.49-4.07-1.49-5.4-1-1.35-2.31-2.36-3.93-3.04-1.63-.69-3.77-1.36-6.47-2.01-2.13-.52-3.77-1.03-4.93-1.49-1.17-.51-2.05-1.11-2.64-1.84M243.44,32.83c2.23-2.36,3.35-5.79,3.35-10.27V.69h-4.57v21.76c0,3.21-.73,5.64-2.19,7.29s-3.53,2.48-6.21,2.48-4.77-.83-6.24-2.48c-1.48-1.65-2.21-4.09-2.21-7.29V.68h-4.52v21.87c0,4.52,1.11,7.96,3.32,10.29,2.21,2.35,6.13,3.52,10.36,3.52,4.17,0,6.69-1.17,8.92-3.53M213.87,35.68h4.87L205.41.69h-6.15l-13.27,34.99h4.81l3.84-10.41h15.43l3.79,10.41h0ZM208.61,21.28h-12.53l1.17-3.2c2-5.51,3.68-10.25,5.07-14.25h.09c1.37,4,3.07,8.75,5.07,14.25l1.13,3.2h0ZM178,35.68h4.57V.69h-4.57v14.84h-17.84V.69h-4.52v34.99h4.52v-16.17h17.84v16.17ZM141.19,4.72h11.29V.69h-27.16v4.03h11.29v30.96h4.57V4.72h.01ZM119.63,11.49h4.57c0-3.8-1.05-6.67-3.15-8.6C118.96.96,115.83,0,111.67,0,109.35,0,107.31.41,105.55,1.23c-1.75.81-3.11,1.96-4.05,3.41-.95,1.45-1.43,3.12-1.43,4.99,0,2.23.48,4,1.45,5.31.96,1.31,2.25,2.32,3.85,3.03,1.6.71,3.75,1.39,6.44,2.04,2.16.56,3.83,1.05,4.99,1.49s2.05,1.04,2.65,1.8c.61.76.91,1.75.91,3,0,1.96-.68,3.49-2.04,4.57s-3.28,1.63-5.77,1.63c-2.68,0-4.77-.69-6.24-2.09-1.47-1.39-2.21-3.49-2.21-6.32h-4.67c0,4,1.15,7.04,3.44,9.15,2.29,2.09,6.2,3.15,10.33,3.15,2.52,0,4.03-.43,5.91-1.28s3.35-2.05,4.37-3.61,2.24-3.37,2.24-5.43c0-2.27-1.2-4.07-2.2-5.4-.99-1.36-2.29-2.37-3.92-3.05-1.63-.69-3.77-1.36-6.47-2.01-2.13-.52-3.77-1.03-4.93-1.49-1.16-.48-2.04-1.08-2.63-1.81s-.88-1.71-.88-2.92c0-1.67.61-3,1.84-3.99s2.92-1.48,5.08-1.48c2.63,0,4.61.63,5.97,1.89,1.36,1.25,2.04,3.16,2.04,5.71M85.39,35.68h6.68V.69h-4.43v14c0,5.57.05,11.16.15,16.76h-.09c-2.32-4.43-5.15-9.65-8.45-15.68L70.89.68h-6.64v34.99h4.43v-14c0-5.57-.05-11.16-.15-16.76h.09c2.49,4.83,5.31,10.05,8.45,15.68l8.31,15.09h.01ZM52.07,32.83c2.23-2.36,3.35-5.79,3.35-10.27V.69h-4.57v21.76c0,3.21-.73,5.64-2.19,7.29s-3.53,2.48-6.21,2.48-4.77-.83-6.24-2.48c-1.48-1.65-2.21-4.09-2.21-7.29V.68h-4.52v21.87c0,4.52,1.11,7.96,3.32,10.29,2.21,2.35,6.13,3.52,10.36,3.52,4.17,0,6.68-1.17,8.92-3.53M25.85,35.68L9.13,17.35,24.41.68h-5.71l-14.09,15.79h-.09V.69H0v34.99h4.52v-17.2h.09l15.19,17.2h6.05"/>
    </g>
  </g>
</svg>