<?xml version="1.0" encoding="utf-8"?>
<!-- Generator: Adobe Illustrator 26.1.0, SVG Export Plug-In . SVG Version: 6.00 Build 0)  -->
<svg version="1.1" id="Ebene_1" xmlns="http://www.w3.org/2000/svg" xmlns:xlink="http://www.w3.org/1999/xlink" x="0px" y="0px"
	 width="567.9px" height="36.4px" viewBox="0 0 567.9 36.4" style="enable-background:new 0 0 567.9 36.4;" xml:space="preserve">
<style type="text/css">
	.st0{fill:#FFFFFF;}
</style>
<g id="g8" transform="matrix(1.3333333,0,0,-1.3333333,0,19.733333)">
	<g id="g10" transform="scale(0.1)">
		<path id="path12" class="st0" d="M4259.2,11.6c0,42-11.8,74.4-35.4,97.1c-23.6,22.7-57.1,34.1-100.6,34.1h-80v-262.4h80
			c43.5,0,77,11.4,100.6,34.1C4247.4-62.8,4259.2-30.4,4259.2,11.6 M4223.5,11.6c0-32.9-8.6-58-25.8-75.2
			c-17.2-17.2-42.1-25.8-74.8-25.8h-45.7v202h45.7c32.7,0,57.6-8.6,74.8-25.8C4214.9,69.6,4223.5,44.6,4223.5,11.6 M3924.2-119.6
			h50.1v262.4h-33.2v-105c0-41.8,0.4-83.7,1.1-125.7h-0.7c-17.5,33.2-38.6,72.4-63.4,117.6l-62.7,113.2h-49.8v-262.4h33.2v105
			c0,41.8-0.4,83.7-1.1,125.7h0.7c18.7-36.1,39.8-75.3,63.4-117.6L3924.2-119.6z M3704.9-119.6h36.5l-99.9,262.4h-46.1l-88-232.2
			h-98.4v232.2H3375v-262.4h120.9h34.9h1.2l28.7,78.1h115.7L3704.9-119.6z M3665.4-11.6h-94l8.8,24c15,41.3,27.6,76.9,37.9,106.9
			h0.7c10.3-30,23-65.6,38-106.9L3665.4-11.6z M3191.5-119.6h159.4v30.2h-125.4v232.2h-33.9V-119.6z M2960.5-119.6h173.2v30.2
			h-139.3v89.2h127.5v29.9h-127.5v82.9h135.3v30.2h-169.2V-119.6z M2758.1,56c-4.4,5.5-6.6,12.8-6.6,21.9c0,12.5,4.6,22.5,13.8,29.9
			c9.2,7.4,21.9,11.1,38.1,11.1c19.6,0,34.6-4.7,44.8-14.2c10.2-9.5,15.3-23.8,15.3-42.9h34.3c0,28.5-7.9,50-23.6,64.5
			c-15.7,14.5-39.2,21.7-70.4,21.7c-17.5,0-32.7-3.1-45.9-9.2c-13.2-6.1-23.3-14.7-30.4-25.6c-7.1-10.9-10.7-23.4-10.7-37.4
			c0-16.7,3.6-30,10.9-39.8c7.2-9.8,16.9-17.4,28.9-22.7c12-5.3,28.1-10.4,48.3-15.3c16.2-4.2,28.7-7.9,37.4-11.2
			c8.7-3.3,15.4-7.8,19.9-13.5c4.5-5.7,6.8-13.1,6.8-22.5c0-14.7-5.1-26.2-15.3-34.3c-10.2-8.1-24.6-12.2-43.3-12.2
			c-20.2,0-35.8,5.2-46.8,15.7c-11.1,10.4-16.6,26.2-16.6,47.4h-35c0-30,8.6-52.8,25.8-68.6c17.2-15.7,41.3-23.6,72.2-23.6
			c18.9,0,35.4,3.2,49.6,9.6c14.1,6.4,25,15.4,32.8,27.1c7.7,11.7,11.6,25.3,11.6,40.7c0,17-3.7,30.5-11.2,40.5
			c-7.5,10.1-17.3,17.7-29.5,22.8c-12.2,5.2-28.3,10.2-48.5,15.1c-16,3.9-28.3,7.7-37,11.2C2769.1,46,2762.6,50.5,2758.1,56
			 M2663.9-119.6h36.5l-99.9,262.4h-46.1l-99.5-262.4h36.1l28.7,78.1h115.7L2663.9-119.6z M2624.5-11.6h-94l8.8,24
			c15,41.3,27.6,76.9,38,106.9h0.7c10.3-30,23-65.6,38-106.9L2624.5-11.6z M2386.2,14.2v0.7c14.2,5.2,25.1,13,32.4,23.4
			c7.4,10.5,11.1,23,11.1,37.8c0,20.6-7.4,36.9-22.3,48.8c-14.9,11.9-36.9,17.9-66.2,17.9h-85.5v-262.4h92.5
			c27.3,0,48.7,6.5,64.1,19.5c15.5,13,23.2,30.6,23.2,52.7c0,16-4.3,29.3-12.9,40S2402,10.5,2386.2,14.2 M2338.7,28.2h-49v85.9h50.5
			c19.4,0,33.6-3.6,42.6-10.7c9-7.1,13.5-17.8,13.5-32.1C2396.2,42.6,2377,28.2,2338.7,28.2 M2400.6-45.5c0-30.2-19-45.3-57.1-45.3
			h-53.8v90.7h49C2380-0.2,2400.6-15.3,2400.6-45.5 M1949.1,56c-4.4,5.5-6.6,12.8-6.6,21.9c0,12.5,4.6,22.5,13.8,29.9
			c9.2,7.4,21.9,11.1,38.1,11.1c19.6,0,34.6-4.7,44.8-14.2c10.2-9.5,15.3-23.8,15.3-42.9h34.3c0,28.5-7.9,50-23.6,64.5
			c-15.7,14.5-39.2,21.7-70.4,21.7c-17.5,0-32.7-3.1-45.9-9.2c-13.2-6.1-23.3-14.7-30.4-25.6c-7.1-10.9-10.7-23.4-10.7-37.4
			c0-16.7,3.6-30,10.9-39.8c7.2-9.8,16.9-17.4,28.9-22.7c12-5.3,28.1-10.4,48.3-15.3c16.2-4.2,28.7-7.9,37.4-11.2
			c8.7-3.3,15.4-7.8,19.9-13.5c4.5-5.7,6.8-13.1,6.8-22.5c0-14.7-5.1-26.2-15.3-34.3c-10.2-8.1-24.6-12.2-43.3-12.2
			c-20.2,0-35.8,5.2-46.8,15.7c-11.1,10.4-16.6,26.2-16.6,47.4h-35c0-30,8.6-52.8,25.8-68.6c17.2-15.7,46.5-23.6,77.5-23.6
			c18.9,0,30.2,3.2,44.4,9.6c14.1,6.4,25,15.4,32.8,27.1c7.7,11.7,11.6,25.3,11.6,40.7c0,17-3.7,30.5-11.2,40.5
			c-7.5,10.1-17.3,17.7-29.5,22.8c-12.2,5.2-28.3,10.2-48.5,15.1c-16,3.9-28.3,7.7-37,11.2C1960.1,46,1953.5,50.5,1949.1,56
			 M1825.8-98.2c16.7,17.7,25.1,43.4,25.1,77v164h-34.3V-20.4c0-24.1-5.5-42.3-16.4-54.7c-10.9-12.4-26.5-18.6-46.6-18.6
			c-20.2,0-35.8,6.2-46.8,18.6c-11.1,12.4-16.6,30.7-16.6,54.7v163.3h-33.9v-164c0-33.9,8.3-59.7,24.9-77.2
			c16.6-17.6,46-26.4,77.7-26.4C1790.2-124.8,1809.1-115.9,1825.8-98.2 M1604-119.6h36.5l-99.9,262.4h-46.1l-99.5-262.4h36.1
			l28.8,78.1h115.7L1604-119.6z M1564.6-11.6h-94l8.8,24c15,41.3,27.6,76.9,38,106.9h0.7c10.3-30,23-65.6,38-106.9L1564.6-11.6z
			 M1335-119.6h34.3v262.4H1335V31.5h-133.8v111.3h-33.9v-262.4h33.9V1.7H1335V-119.6z M1058.9,112.6h84.7v30.2H939.9v-30.2h84.7
			v-232.2h34.3V112.6z M897.2,61.8h34.3c0,28.5-7.9,50-23.6,64.5c-15.7,14.5-39.2,21.7-70.4,21.7c-17.4,0-32.7-3.1-45.9-9.2
			c-13.1-6.1-23.3-14.7-30.4-25.6c-7.1-10.9-10.7-23.4-10.7-37.4c0-16.7,3.6-30,10.9-39.8c7.2-9.8,16.9-17.4,28.9-22.7
			C802.3,8,818.4,2.9,838.6-2c16.2-4.2,28.7-7.9,37.4-11.2c8.7-3.3,15.4-7.8,19.9-13.5c4.6-5.7,6.8-13.1,6.8-22.5
			c0-14.7-5.1-26.2-15.3-34.3c-10.2-8.1-24.6-12.2-43.3-12.2c-20.1,0-35.8,5.2-46.8,15.7c-11,10.4-16.6,26.2-16.6,47.4h-35
			c0-30,8.6-52.8,25.8-68.6c17.2-15.7,46.5-23.6,77.5-23.6c18.9,0,30.2,3.2,44.3,9.6c14.1,6.4,25.1,15.4,32.8,27.1
			c7.7,11.7,16.8,25.3,16.8,40.7c0,17-9,30.5-16.5,40.5C919,3.3,909.2,10.9,897,16c-12.2,5.2-28.3,10.2-48.5,15.1
			c-16,3.9-28.3,7.7-37,11.2c-8.7,3.6-15.3,8.1-19.7,13.6c-4.4,5.5-6.6,12.8-6.6,21.9c0,12.5,4.6,22.5,13.8,29.9
			c9.2,7.4,21.9,11.1,38.1,11.1c19.7,0,34.6-4.7,44.8-14.2C892.1,95.2,897.2,80.9,897.2,61.8 M640.4-119.6h50.1v262.4h-33.2v-105
			c0-41.8,0.4-83.7,1.1-125.7h-0.7c-17.4,33.2-38.6,72.4-63.4,117.6l-62.6,113.2h-49.8v-262.4h33.2v105c0,41.8-0.4,83.7-1.1,125.7
			h0.7C533.4,75,554.5,35.8,578.1-6.4L640.4-119.6z M390.5-98.2c16.7,17.7,25.1,43.4,25.1,77v164h-34.3V-20.4
			c0-24.1-5.5-42.3-16.4-54.7c-10.9-12.4-26.5-18.6-46.6-18.6c-20.2,0-35.8,6.2-46.8,18.6c-11.1,12.4-16.6,30.7-16.6,54.7v163.3
			h-33.9v-164c0-33.9,8.3-59.7,24.9-77.2c16.6-17.6,46-26.4,77.7-26.4C354.9-124.8,373.7-115.9,390.5-98.2 M193.9-119.6L68.5,17.9
			l114.6,125h-42.8L34.6,24.5h-0.7v118.3H0v-262.4h33.9v129h0.7l113.9-129H193.9"/>
	</g>
</g>
</svg>
