<?xml version="1.0" encoding="UTF-8"?>
<svg id="BL-Logo" xmlns="http://www.w3.org/2000/svg" version="1.1" viewBox="0 0 318.87 73.24">
  <!-- Generator: Adobe Illustrator 30.6.0, SVG Export Plug-In . SVG Version: 2.1.4 Build 109)  -->
  <path d="M114.82,51.34l10.61,15.02h-4.59l-8.75-12.41-4.41,4.22v8.19h-3.79v-25.32h3.85v12.66l12.91-12.66h4.84l-10.67,10.3Z" fill="#1d1d1d"/>
  <path d="M143.43,48.05v18.31h-3.41v-2.73c-1.24,1.99-3.41,3.17-5.77,3.17-3.91,0-6.39-2.3-6.39-6.45v-12.29h3.54v11.79c0,2.61,1.37,3.85,3.85,3.85,2.17,0,4.59-1.61,4.59-5.27v-10.3h3.6v-.06Z" fill="#1d1d1d"/>
  <path d="M147.4,41.1h3.54v25.26h-3.54v-25.26Z" fill="#1d1d1d"/>
  <path d="M159.94,50.9v10.98c0,1.06.56,1.55,2.11,1.55h1.61v2.85c-.81.06-1.55.12-2.17.12-3.29,0-5.09-1.12-5.09-4.22v-11.36h-2.98v-2.92h2.98v-5.15h3.54v5.28h3.72v2.92l-3.72-.06Z" fill="#1d1d1d"/>
  <path d="M182.03,48.05v18.31h-3.41v-2.73c-1.24,1.99-3.41,3.17-5.77,3.17-3.97,0-6.45-2.3-6.45-6.45v-12.29h3.54v11.79c0,2.61,1.37,3.85,3.85,3.85,2.17,0,4.59-1.61,4.59-5.27v-10.3h3.66v-.06Z" fill="#1d1d1d"/>
  <path d="M196.18,47.8v3.35h-.87c-3.54,0-5.71,1.74-5.71,5.27v9.93h-3.54v-18.31h3.41v3.29c.99-2.23,3.29-3.6,5.71-3.54.31-.06.68-.06.99,0Z" fill="#1d1d1d"/>
  <path d="M216.91,57.17c0,5.83-3.29,9.56-8.38,9.56-2.36.06-4.59-1.06-5.96-2.98v9.49h-3.54v-25.26h3.41v2.73c1.3-2.05,3.66-3.29,6.08-3.16,5.09.06,8.38,3.79,8.38,9.62ZM213.25,57.05c0-4.22-2.11-6.39-5.34-6.39s-5.34,2.36-5.34,6.52,2.11,6.52,5.34,6.52,5.34-2.48,5.34-6.64Z" fill="#1d1d1d"/>
  <path d="M230.19,47.8v3.35h-.87c-3.54,0-5.71,1.74-5.71,5.27v9.93h-3.54v-18.31h3.41v3.29c.99-2.23,3.29-3.6,5.71-3.54.31-.06.68-.06.99,0Z" fill="#1d1d1d"/>
  <path d="M232.18,57.17c0-5.83,3.72-9.56,9.06-9.56s9.06,3.72,9.06,9.56-3.72,9.56-9.06,9.56-9.06-3.72-9.06-9.56ZM246.64,57.17c0-4.22-2.11-6.52-5.34-6.52s-5.4,2.36-5.4,6.52,2.11,6.52,5.4,6.52,5.34-2.3,5.34-6.52Z" fill="#1d1d1d"/>
  <path d="M267.74,63.44v2.92h-15.14v-2.48l7.88-10.05c.74-.99,1.55-1.99,2.36-2.92h-9.93v-2.92h14.4v2.48l-7.88,10.05c-.75.93-1.55,1.92-2.36,2.92,1.3-.06,2.54-.06,3.85-.06l6.83.06Z" fill="#1d1d1d"/>
  <path d="M287.41,58.35h-13.78c.31,3.72,2.3,5.46,5.28,5.46,2.36,0,3.91-1.18,4.53-3.04h3.6c-.93,3.54-3.79,6.02-8.19,6.02-5.21,0-8.75-3.66-8.75-9.56s3.48-9.56,8.69-9.56c5.52,0,8.69,4.22,8.69,9.74l-.06.93ZM273.63,55.56h10.12c-.31-2.85-2.05-4.96-5.03-4.96-2.67,0-4.59,1.61-5.09,4.96Z" fill="#1d1d1d"/>
  <path d="M306.15,54.07v12.29h-3.54v-11.79c0-2.61-1.37-3.85-3.85-3.85-2.17,0-4.59,1.61-4.59,5.27v10.36h-3.54v-18.31h3.41v2.73c1.24-1.99,3.41-3.16,5.77-3.16,3.91,0,6.33,2.23,6.33,6.45Z" fill="#1d1d1d"/>
  <path d="M315.15,50.9v10.98c0,1.06.5,1.55,2.11,1.55h1.61v2.85c-.74.06-1.55.12-2.17.12-3.29,0-5.09-1.12-5.09-4.22v-11.36h-2.98v-2.92h2.98v-5.15h3.54v5.28h3.66v2.92l-3.66-.06Z" fill="#1d1d1d"/>
  <path d="M126.24,30.42v-14.52l-6.21,14.52h-3.54l-6.14-14.52v14.52h-6.45V5.23h8.69l5.9,14.21,6.27-14.21h7.94v25.2h-6.45Z" fill="#1d1d1d"/>
  <path d="M137.66,30.42V5.23h5.52c.56.06.93.5.99.99v24.26h-6.52v-.06Z" fill="#1d1d1d"/>
  <path d="M162.11,15.9h8.19c.56,0,1.05.5.99,1.06v13.09c-2.86.56-5.71.81-8.63.81-9.43,0-14.4-4.47-14.4-13.16,0-7.76,4.96-13.09,13.22-13.09,3.66,0,6.83.99,8.87,2.36l-2.54,4.34c-1.86-.81-3.85-1.3-5.9-1.37-4.78,0-6.95,3.16-6.95,7.76,0,4.9,2.54,7.88,7.32,7.88.93,0,1.86-.06,2.79-.19v-4.34h-3.1l.12-5.15Z" fill="#1d1d1d"/>
  <path d="M185.76,10.07h-3.17v6.33h3.17c1.92,0,3.41-.99,3.41-3.41s-1.55-2.92-3.41-2.92ZM190.54,30.42l-2.98-6.95c-.62-1.43-1.05-2.11-2.36-2.11h-2.61v9.06h-6.33V6.22c.06-.5.44-.93.99-.99h8.94c4.84,0,9.06.99,9.06,7.32,0,2.79-1.55,5.71-4.47,6.27,1.43.5,2.92,2.36,3.72,4.41l2.86,7.26h-6.83v-.06Z" fill="#1d1d1d"/>
  <path d="M211.33,10.07c-3.41,0-5.83,2.42-5.83,7.7s2.42,7.82,5.83,7.82c2.92,0,5.34-2.42,5.34-7.82s-2.42-7.7-5.34-7.7ZM211.33,30.92c-8.25,0-12.66-5.83-12.66-13.16s4.34-13.09,12.66-13.09c7.76,0,12.1,5.83,12.1,13.09s-4.34,13.16-12.1,13.16Z" fill="#1d1d1d"/>
  <path d="M235.9,30.92c-4.28,0-8.25-1.55-9.99-2.73l2.86-5.09c1.61.99,4.72,2.48,7.63,2.48,1.61,0,3.72-.31,3.72-2.11,0-1.68-2.3-2.23-5.34-3.1-3.66-1.06-7.88-2.48-7.88-7.38,0-5.27,4.72-8.25,10.8-8.25,4.03,0,7.14,1.43,8.75,2.98l-3.47,3.97c-1.74-1.06-3.47-1.86-5.52-1.86-2.42,0-3.72.93-3.72,2.23s1.74,1.99,3.91,2.61c3.85,1.18,9.12,2.42,9.12,7.45s-4.16,8.81-10.86,8.81Z" fill="#1d1d1d"/>
  <path d="M82.82,5.54c-7.38-7.38-19.35-7.38-26.73,0l-8.87,8.87,13.34,13.4c5.27,5.09,7.88,12.34,7.13,19.6l15.13-15.13c7.38-7.38,7.38-19.35,0-26.73Z" fill="#1d1d1d"/>
  <path d="M56.77,31.71L32.27,7.15C24.89-.23,12.92-.23,5.54,7.15c-7.38,7.38-7.38,19.35,0,26.73l37.9,37.9,13.34-13.4c7.38-7.38,7.38-19.35,0-26.67Z" fill="#1d1d1d"/>
</svg>