<?xml version="1.0" encoding="utf-8"?>
<!-- Generator: Adobe Illustrator 27.5.0, SVG Export Plug-In . SVG Version: 6.00 Build 0)  -->
<svg version="1.1" xmlns="http://www.w3.org/2000/svg" xmlns:xlink="http://www.w3.org/1999/xlink" x="0px" y="0px"
	 viewBox="0 0 366.7 124.7" style="enable-background:new 0 0 366.7 124.7;" xml:space="preserve">
<style type="text/css">
	.st0{fill:#FFFFFF;}
</style>
<g id="Logo_deutsch">
	<g>
		<g>
			<g>
				<path class="st0" d="M87.5,52.6c-1.7-1.6-4-2.4-6.9-2.4c-2.9,0-5.6,0.6-7.9,1.9c-2.4,1.3-4.4,2.9-6,4.8
					c-2.2,2.7-3.8,5.8-4.7,9.4c-0.9,3.6-1.3,7.2-1.3,10.7c0,4.3,0.9,7.7,2.8,10.1c1.9,2.4,4.6,3.6,8.2,3.6c3,0,5.7-0.5,8.1-1.6
					c2.4-1,4.4-2.2,5.9-3.6l0,0l0,0c0.3-0.6,0.5-1.3,0.7-2.1c0.2-0.8,0.3-1.6,0.3-2.4v-0.4l-0.3,0.2c-0.8,0.6-1.8,1.1-2.8,1.5
					c-1,0.4-2,0.8-3.1,1.1c-1.1,0.3-2.1,0.6-3.1,0.7c-1,0.2-2,0.3-2.8,0.3c-4.3,0-6.4-3.1-6.4-9.5v-2.2c4.4-0.2,8-0.7,10.8-1.5
					c2.8-0.9,5.1-1.9,6.7-3.2c1.6-1.3,2.7-2.7,3.4-4.3c0.6-1.6,0.9-3.2,0.9-4.8C90,56.4,89.1,54.2,87.5,52.6z M82.6,62.4
					c-0.3,0.9-1,1.8-2,2.5c-1,0.8-2.5,1.4-4.4,2c-1.9,0.5-4.4,0.8-7.6,0.9c0.2-1.4,0.5-2.8,0.9-4.1c0.4-1.4,1-2.7,1.7-3.9
					c0.9-1.5,2-2.7,3.4-3.6c1.4-0.9,2.9-1.3,4.5-1.3c1.4,0,2.4,0.4,3,1.3c0.6,0.9,0.9,2,0.9,3.4C83.1,60.5,82.9,61.5,82.6,62.4z"/>
			</g>
			<g>
				<path class="st0" d="M51.3,45.7c1.3,0,2.4-0.4,3.2-1.3c0.9-0.9,1.3-2.1,1.3-3.6c0-1.4-0.4-2.6-1.3-3.4c-0.8-0.8-1.9-1.2-3.3-1.2
					c-1.3,0-2.4,0.4-3.3,1.3c-0.9,0.9-1.3,2-1.3,3.3C46.7,44,48.3,45.7,51.3,45.7z"/>
			</g>
			<g>
				<path class="st0" d="M49.6,84.1c-0.1-0.4-0.1-0.5-0.1-0.6l4-32.5L53.4,51c-0.3-0.1-0.9-0.2-1.6-0.2c-0.8-0.1-1.3-0.1-1.7-0.1
					c-1.6,0-3.2,0.2-4.5,0.6C44.2,51.6,43,52,42,52.5c-0.4,0.4-0.8,1.1-1,2.1c-0.3,1-0.5,1.7-0.5,2.1V57l5.8-0.6l-4.1,28.3
					c0,0.7,0.3,1.7,0.9,2.9c0.6,1.2,1.2,2.2,2,3.1l0.1,0.1h0.1c0.6,0,1.3-0.1,2.1-0.2c0.8-0.1,1.6-0.2,2.6-0.4
					c0.9-0.2,1.7-0.3,2.6-0.6c0.9-0.2,1.6-0.5,2.3-0.7l0.1,0l0-0.1c0.3-0.5,0.6-1.3,0.9-2.2c0.3-0.9,0.4-1.7,0.4-2.3V84l-6.3,0.6
					C49.7,84.5,49.7,84.3,49.6,84.1z"/>
			</g>
			<g>
				<path class="st0" d="M30.1,83.9c0-0.2-0.1-0.6-0.1-0.7l6-48.5l-0.2-0.1c-0.3-0.1-0.9-0.2-1.6-0.2c-0.7-0.1-1.3-0.1-1.7-0.1
					c-1.6,0-3.1,0.2-4.4,0.6c-1.4,0.4-2.5,0.8-3.5,1.3c-0.4,0.4-0.7,1.1-1,2.1c-0.3,1-0.4,1.7-0.4,2.1v0.2l5.7-0.6l-1.6,11.6
					c-0.9-0.4-1.9-0.7-2.9-1c-1.1-0.3-2.2-0.4-3.3-0.4c-3.2,0-6,0.7-8.6,2.2c-2.5,1.5-4.7,3.5-6.4,5.9c-1.7,2.4-3,5.2-3.9,8.3
					c-0.9,3.1-1.3,6.4-1.3,9.8c0,2.6,0.3,4.8,0.8,6.6c0.5,1.8,1.3,3.3,2.2,4.4c0.9,1.1,2.1,2,3.4,2.5c1.3,0.5,2.7,0.8,4.3,0.8
					c2,0,4.1-0.5,6.2-1.4c2.1-0.9,4-2.4,5.6-4.5h0.1c0.2,0.9,0.4,1.9,0.8,3c0.4,1.1,0.8,2.1,1.2,2.8l0.1,0.1h0.1
					c0.5,0,1.2-0.1,2-0.2c0.8-0.1,1.6-0.2,2.6-0.4c0.9-0.2,1.7-0.4,2.6-0.6c0.8-0.2,1.6-0.5,2.3-0.7l0.1,0l0-0.1
					c0.3-0.5,0.6-1.3,0.9-2.2c0.3-0.9,0.4-1.7,0.4-2.3v-0.2l-6.2,0.6C30.3,84.4,30.2,84.2,30.1,83.9z M8.2,71.8
					c0.1-1.3,0.3-2.6,0.6-3.9c0.3-1.3,0.6-2.6,1.1-3.8c0.4-1.2,1-2.3,1.6-3.3c1-1.6,2.4-3,4-4.2c1.6-1.1,3.5-1.7,5.7-1.7
					c0.9,0,1.8,0.1,2.9,0.4c0.9,0.2,1.8,0.6,2.4,0.9l-3,22.9c-1,1.8-2.3,3.2-3.9,4.1c-1.5,0.9-3.1,1.4-4.8,1.4c-2,0-3.7-0.7-4.9-2.2
					C8.7,81.1,8,78.7,8,75.4C8,74.3,8.1,73.1,8.2,71.8z"/>
			</g>
		</g>
		<g>
			<path class="st0" d="M355.2,89.8h-11.2V51.2h9.1l1.6,3.8c1.4-2.5,4-4.5,9.9-4.5h1.9l-1.4,9.6c0,0-1.4-0.1-2.3-0.1
				c-3.3,0-5.8,1.9-7.5,4.7V89.8z"/>
			<path class="st0" d="M182.4,60.2c-3.9,0-6.1,3.7-6.1,10.4c0,6.7,2.2,10.3,6.1,10.3c4,0,6.1-3.6,6.1-10.3
				C188.5,63.8,186.4,60.2,182.4,60.2 M182.4,90.7c-13,0-17.6-10.9-17.6-20.2c0-14.9,9.1-20.3,17.6-20.3c8.5,0,17.6,5.3,17.6,20.3
				C200,85.4,190.9,90.7,182.4,90.7"/>
			<path class="st0" d="M217,80.2c0.8,0.5,2,0.9,4.1,0.9c3.1,0,7.3-1.1,7.3-11.1c0-6.6-2-9.9-6.2-9.9c-1.9,0-3.7,0.8-5.1,2.4V80.2z
				 M220.4,90.7c-8.4,0-12.7-2.9-14.5-4.2l-0.2-0.2V36.2l11.2-1.5v19.4c1.6-1.7,4.6-3.8,9.2-3.8c8.7,0,13.6,6.7,13.6,18.4
				C239.8,83.3,233.3,90.7,220.4,90.7"/>
			<path class="st0" d="M251.7,47.7c-3.6,0-5.7-2.1-5.7-5.6v-0.4c0-3.5,2.1-5.5,5.7-5.5c3.6,0,5.7,2,5.7,5.5v0.4
				C257.5,45.6,255.3,47.7,251.7,47.7 M257.3,89.8h-11.2V51.2h11.2V89.8z"/>
			<polygon class="st0" points="265.5,89.8 276.8,89.8 276.8,34.7 265.5,36.2 			"/>
			<path class="st0" d="M290.6,47.7c-3.6,0-5.7-2.1-5.7-5.6v-0.4c0-3.5,2.1-5.5,5.7-5.5s5.7,2,5.7,5.5v0.4
				C296.3,45.6,294.2,47.7,290.6,47.7 M296.2,89.8H285V51.2h11.2V89.8z"/>
			<path class="st0" d="M325.3,78.7c-1.1,1.4-2.8,2.2-5,2.2c-3,0-6.5-1.2-6.5-10.2c0-7.1,2.6-10.7,7.9-10.7c1.5,0,2.6,0.2,3.6,0.6
				V78.7z M336.3,53.4c-1.6-0.9-6-3.1-13.5-3.1c-13,0-20.5,7.6-20.5,20.8c0,12.7,5.3,19.6,14.8,19.6c3.1,0,6.5-1,8.3-3.2
				c0.3-0.3,0.4-0.6,0.4-0.6l1.2,2.9h9.4V76.3V53.5L336.3,53.4z"/>
			<polygon class="st0" points="144.9,36.2 131.8,71.4 118.8,36.2 106.7,36.2 103.2,89.8 114.5,89.8 116.3,60.7 127.5,89.8 
				136,89.8 147.2,60.7 148.9,89.8 160.3,89.8 156.8,36.2 			"/>
		</g>
	</g>
</g>
<g id="Schutzzone">
</g>
</svg>
