<?xml version="1.0" encoding="UTF-8"?>
<svg id="Layer_1" xmlns="http://www.w3.org/2000/svg" version="1.1" viewBox="0 0 99.11 98.3">
  <!-- Generator: Adobe Illustrator 30.6.0, SVG Export Plug-In . SVG Version: 2.1.4 Build 109)  -->
  <g>
    <path d="M71.32,30.96s2.49-2.11,3.28-3.26c.8-1.17-5.27-2.23-7.86-1.49-1.36.39-6.67,2.74-9.04,3.14-.79.13-3.36.11-3.28-.37,0,0,1.07-2.35.8-3.91.1-.08.14-.2.12-.33l-.05-.23c-.32-1.37-.59-2.56-2.41-3.48-1.8-.91-4.32.06-4.72.46-.05.05-.07.11-.08.17-.59.08-1.63.43-1.9,1.86,0,.05-.02.12-.02.19-.86.52-.86,1.17-.86,1.53,0,.05,0,.12,0,.15-.22.23-.45.45-.65.65-.53.5-.91.87-.91,1.24,0,.12,0,.26.9.56l-.1.62c-.02.1.04.2.14.24.07.02.51.18.91.28-.14.11-.34.24-.6.35-.14.06-.18.16-.19.21-.03.16.09.27.2.38.11.1.25.23.27.37.03.14.02.25,0,.36-.02.21-.04.44.29.72.21.17.47.23.74.23.35,0,.72-.1,1.02-.19.19-.05.36-.1.45-.1.1,0,.22,0,.36.02.44.03,1,.07,1.37-.1.48-.22,1-1.06,1.06-1.15.06-.1.03-.23-.07-.3-.1-.06-.23-.03-.3.07-.19.31-.6.86-.88.99-.27.13-.79.09-1.16.07-.15-.01-.28-.02-.39-.02-.15,0-.33.05-.57.12-.45.12-1.06.29-1.37.03-.16-.13-.15-.17-.14-.35.01-.11.03-.27-.01-.47-.05-.26-.22-.44-.36-.57.57-.28.86-.65.87-.67.05-.06.06-.15.02-.22-.03-.07-.11-.12-.19-.12-.25-.01-.76-.17-1.06-.27l.1-.62c.02-.11-.05-.21-.15-.24-.28-.09-.61-.21-.75-.29.09-.2.44-.54.76-.85.21-.2.46-.43.69-.68.1-.11.1-.26.1-.43,0-.34,0-.8.71-1.19.04-.02.07-.06.09-.1.99-.06,2.82.42,3.33.94.6.62-.1,2.83.3,2.88.61.08.79-1.84,1.87-1.68.82.13,1.15,1.17.37,1.92-.5.48-1.45,1.07-1.45,1.07,0,0,.86-.02,1.19-.08.42-.08.84-.33.84-.33l-.46,1.65c-.31.06,3.76.62,6.5.3,1.94-.22,5.23-2.79,7.29-3.13,1.09-.18,3.91-.17,3.91-.17l.08.85c-.12-.12-3.41-.11-4.8.39-1.87.68-4.94,2.86-7.02,2.93-1.35.04-6.09-.27-6.09-.27,0,0-.47.48-.72.57-.27.09-1.62.03-2.26-.03s-1.49.37-1.49.37l-.52,1.74,5.2-.69-.43.53-4.71,1.12-4.5.27s-.47-.6-.8-.4c-.33.2.04.78.02,1.17-.03.51-.47.87-.2,1.14.27.27,1.39.17,1.39.17,0,0-.22,1.19-1.74.2-.53-.34-.07-1.01-.15-1.6-.06-.49-.22-1.12.03-1.42.89-1.04,1.54.12,1.54.12,0,0,3.06-.3,3.26-.28.2.02.2-1.29.2-1.29l-4.31.03-8.31-4.42-.38.53c-.14-.11-.3-.2-.46-.28-.21-.11-.41-.22-.58-.4-.17-.18-.2-.32-.24-.49-.06-.26-.13-.55-.58-.95-.67-.59-2.64-1.83-2.97-2.03-.03-.04-.08-.07-.13-.08-.06-.01-.16-.02-.27.1-.12.14-.24.44-.25.8-.41-.28-.5-.31-.58-.28l-.71-.44c-.16-.1-.53-.2-.8.08-.09.09-.13.19-.15.3-.19-.09-.54-.15-.78.14-.09.11-.12.22-.13.33-.23-.05-.48-.03-.66.19-.32.38-.12.8.02.96,0,0,.01,0,.02.01-.07.04-.14.1-.21.17-.31.38-.05.83.16,1.05,0,0,.01.01.02.02l.07.06c-.09.04-.18.09-.26.17-.13.14-.19.3-.18.48.02.31.26.54.29.56,0,0,.01,0,.02.01.32.23,3.12,2.27,3.76,2.48.34.11,1.35.09,1.65.08l1.52,1.09c-1.04,2.45-2.34,5.72-2.69,6.83-1.3,4.11-1.3,10.06-1.3,10.06,0,0,2.64-.13,5.18-.53,2.54-.4,7.73-4.1,8.62-4.51,1.87-.87,5.26-1.47,5.26-1.47,0,0-2.16,1.11-2.9,1.45s-2.47,1.6-2.14,2.01c.33.4,1.23,1.16,1.23,1.16.22,0,3.82-.88,6.74-1.14,4.33-.38,6.7,1.27,7.25.8,1.02-.86,1.61-3.03,1.44-3.68-.2-.76-1.26-1.02-1.3-2.56-.03-1.27,1.89-5.12,1.57-6.32-.2-.79-4.01-.95-3.82-2.27.05-.35,2.3-.25,4.17.85,1.87,1.09,5.33,7.65,6,11.06s.94,9.23.94,9.23c0,0-1,2.01-1.4,2.27-.4.27-.87.6-.87.6l.53,1.14,4.95-1.6s3.32-6.72,3.48-7.29c.16-.57,1.91-5.43,2.65-6.98l-3.39-11.28ZM50.92,23.54c-1.38-.84-1.6-1.11-2.19-1.66.53-.3,2.49-.95,3.85-.26,1.55.79,1.77,1.73,2.07,3.05l.02.1c-1.16.14-2.47-.45-3.75-1.23ZM26.24,25.36c.1-.1.25-.02.27-.01l.64.4c-.05.17-.06.38-.05.58l-.84-.63c-.04-.08-.1-.26-.02-.34ZM29.78,31.68s-.08-.04-.13-.04c-.49.02-1.34.02-1.58-.06-.43-.14-2.4-1.51-3.63-2.41-.07-.06-.23-.25-.07-.42.1-.11.33-.09.44-.07l1.35,1.05s.09.05.13.05c.06,0,.13-.03.17-.08.07-.09.06-.23-.04-.3l-1.38-1.08s0,0,0,0l-.52-.41c-.05-.05-.25-.31-.13-.47.09-.12.25-.11.32-.11l1.79,1.35s.08.04.13.04c.07,0,.13-.03.17-.09.07-.1.05-.23-.04-.3l-1.83-1.38s0,0,0,0l-.36-.27c-.04-.06-.14-.22,0-.39.13-.15.47.05.48.06.01,0,.02,0,.03.01,0,0,0,.01.01.02,0,.01.02.02.03.03l1.98,1.54c.09.07.23.06.3-.04.07-.09.06-.23-.04-.3l-1.95-1.53c-.04-.05-.14-.22-.06-.32.08-.1.23-.04.27-.02l1.65,1.23s0,0,0,0l1.57,1.18s.08.04.13.04c.07,0,.13-.03.17-.09.07-.1.05-.23-.04-.3l-1.51-1.14c-.05-.31-.06-.64-.03-.79.47.29,2.03,1.47,2.45,1.85.33.29.52.94.66,1.41.04.13.08.25.11.35.17.48,1.09,1.08,1.41,1.24-.22.45-.53,1.16-.89,2l-1.5-1.08ZM39.84,37.85s.05-2.7.05-3.28-7.42-4.35-7.42-4.35c-.02.01-.05.06-.1.14-.21-.09-1.08-.67-1.19-.99-.03-.09-.06-.2-.1-.33-.15-.52-.37-1.23-.78-1.61-.26-.24-.95-.77-1.48-1.17-.11-.08-.21-.16-.3-.22-.08-.3-.03-.58.03-.73.49.31,2.23,1.42,2.83,1.94.35.3.39.5.44.72.05.2.1.42.34.69.21.23.47.37.69.49.15.08.28.15.4.24,0,0,0,0,.01,0l-.32.44,7.42,4,.13,3.64-.65.38Z" fill="#1d1d1b"/>
    <path d="M46.51,24.87c-.24.15-.04.28.29.39-.05.06-.08.15-.08.24,0,.18.11.33.24.33s.24-.15.24-.33c0-.05,0-.1-.03-.15.51.12,1.08.18,1.08.18,0,0-1.21-.99-1.74-.67Z" fill="#1d1d1b"/>
    <path d="M61.51,74.52v-.02s-.03.03,0,.02Z" fill="#1d1d1b"/>
    <path d="M69.35,70.82c-.11-.13-.3-.16-.44-.06l-.05.03-.6-.81s-.02-.02-.03-.03c.68-.66.96-1.14.96-1.14,0,0-4-3.73-4.45-4.26-.42-.49-2.3-2.85-2.56-3.17-.38-.44-3.6-3.74-3.77-4.03-.18-.31-.45-1.09-.58-1.28-.12-.17-.6-.64-.66-.77-.06-.13.07-.83-.13-1.76-.2-.94-.6-1.69-.6-1.69,0,0,.24-2.82-.45-3.02-2.02-.58-3.74-.78-6.37-.81-2.9-.03-6.1.93-7.17,1.16l-.43,4.01s-2.25,6.36-3.26,7.34c-.69.67-1.22,1.24-1.22,1.24-.07.26-.36,1.4-.54,1.75-.18.37-.97,2.62-1.83,4.08-.9,1.53-2.38,3.04-2.38,3.04,0,0,.51.56.78.76s.93.71,1.96,1.35c.47.29,1.46.72,2.4,1.12l-.71,1.08-.46-.34s-.06-.04-.1-.05l-3.65-1.13-.63-1.25c-.03-.06-.08-.11-.14-.14-.02,0-1.52-.8-2.41-1.96-.22-.29-.46-.71-.7-1.12-.62-1.09-1.21-2.12-1.99-1.89-.97.29-.22,3.82-.08,4.28.32,1.07,2.02,3.22,3.07,4.04.62.49,1.44.9,2.08,1.06.38.09.99.17,1.32.2.08.26.25.65.56.85l2.83,2.08c.06.04.12.06.19.06.1,0,.19-.04.26-.13l1.98-2.59c.05-.07.08-.16.06-.24s-.06-.16-.13-.22l-.18-.13.97-1.55s.02-.04.03-.05c.02,0,.04.01.04.01,0,0,5.84-12.59,5.88-11.54.08,2.02-4.51,12.17-4.51,12.17,0,0,3.34,1.54,9.6,1.54,6.31,0,8.79-2.34,8.79-2.34l-7.1-14.81.38-4.01s.2.07.33.97c.13.9.1,2.94.1,2.94l7.87,14.82c.21-.22,2.56-1.84,3.91-2.55.36-.19.69-.38.99-.57l.55.73-.78.54s-.07.07-.1.11c-.75,1.34-1.69,2.89-1.9,3.06-.11.06-.37.09-.59.12-.19.02-.39.05-.56.09-.24.07-.49.36-1.08,1.07-.57.68-1.35,1.61-2.02,2.06-.45.29-1.01.57-1.5.82-1.03.52-1.71.86-1.67,1.37.02.21.11.49.48.7.28.15.66.23,1.13.23,1.23,0,3.02-.51,4.76-1.41,2.86-1.48,4.27-4.27,4.61-5.03l.97-.06c.08,0,.16-.04.21-.1l2.16-2.26c.11-.12.12-.3.02-.43l-1.74-2.15ZM37.05,78.88l-2.59-1.9c-.21-.13-.32-.53-.35-.67v-.03c-.05-.13-.16-.22-.29-.23,0,0-.97-.09-1.44-.21-.55-.14-1.29-.52-1.83-.94-1.02-.8-2.59-2.85-2.85-3.72-.38-1.29-.46-3.1-.3-3.48.31.04.88,1.04,1.2,1.59.24.42.49.86.74,1.19.85,1.12,2.17,1.89,2.53,2.09l.65,1.29c.04.08.11.14.19.16l3.73,1.15,2.21,1.64-1.59,2.08ZM38.59,75.97l-.85-.63.77-1.16s.02-.04.03-.06c.36.15.7.28.97.39l-.91,1.46ZM66.93,71.03c.32-.22.59-.44.84-.64l.57.77-.86.59-.55-.72ZM68.53,75.12l-1.05.07c-.13,0-.23.09-.28.2-.01.03-1.34,3.31-4.38,4.89-2.38,1.23-4.6,1.58-5.28,1.2-.1-.06-.13-.11-.14-.15.13-.18.81-.52,1.31-.77.51-.25,1.09-.54,1.57-.86.75-.49,1.53-1.43,2.16-2.18.29-.35.65-.78.78-.86.12-.03.29-.05.44-.07.3-.04.62-.07.84-.21.38-.22,1.46-2.09,2.1-3.23l.92-.64s.06-.03.09-.05c.02-.02.04-.03.05-.05l1.3-.9s.01,0,.02-.01c0,0,.01-.01.02-.02l.03-.02,1.37,1.69-1.88,1.97Z" fill="#1d1d1b"/>
  </g>
  <g>
    <path d="M80.78,19.92c.46-.52.71-1.09.77-1.73.07-.85-.28-1.61-1.04-2.29l-.44-.39-3.76,4.23.44.39c.76.68,1.56.93,2.39.76.63-.13,1.18-.45,1.64-.97Z" fill="#1d1d1b"/>
    <path d="M49.42,0C28.34,0,10.34,13.17,3.19,31.73l12.11,5.06c5.16-13.82,18.49-23.66,34.11-23.66s29.14,9.8,34.2,23.77l12.13-4.94C88.64,13.28,70.58,0,49.42,0ZM17.78,29.23c-.99,1.54-2.28,2.38-3.86,2.53-1.2.11-2.35-.19-3.45-.9-1.22-.79-2.01-1.81-2.37-3.08-.41-1.44-.14-2.9.82-4.38.64-.99,1.44-1.67,2.39-2.03.68-.26,1.48-.34,2.41-.23l-.48,2.62c-.51-.08-.93-.06-1.28.05-.49.16-.89.47-1.19.93-.61.95-.55,1.93.18,2.93.27.37.6.68.98.93.8.51,1.62.69,2.48.53.64-.12,1.16-.49,1.56-1.11.36-.55.48-1.1.37-1.63-.07-.35-.3-.69-.67-1.03l-1.16,1.79-1.66-1.07,2.79-4.33c.91.59,1.58,1.17,2.03,1.74.67.87,1.01,1.82,1.02,2.84,0,.98-.3,1.95-.91,2.89ZM22.55,22.71l-6.51-7.57,4.31-3.71,1.41,1.64-2.34,2.01,1.11,1.29,2.21-1.9,1.41,1.64-2.21,1.9,1.16,1.35,2.34-2.01,1.41,1.64-4.31,3.71ZM39.09,12.98l-2.89-5.02v6.23s-.97.4-.97.4l-4.34-4.42,1.43,5.63-2.39,1-2.27-9.87,2.37-.99,3.68,3.6.16-5.2,2.39-1,5.23,8.64-2.4,1ZM44.9,11.77l-.79-9.95,5.67-.45.17,2.16-3.08.25.14,1.7,2.91-.23.17,2.16-2.91.23.14,1.78,3.08-.25.17,2.16-5.67.45ZM57.38,12.23l-2.57-.33,1.28-9.9,2.58.33-1.28,9.9ZM67.94,16.2l-2.07-7.48-2.35,5.65-2.4-1,3.83-9.22,2.4,1,2.07,7.47,2.34-5.64,2.4,1-3.83,9.22-2.4-1ZM77.16,23.02c-.51-.21-.96-.49-1.36-.85l-2.86-2.55,6.63-7.46,2.86,2.55c.7.62,1.18,1.39,1.43,2.31.25.9.25,1.81,0,2.72-.21.75-.56,1.41-1.06,1.96-.69.78-1.56,1.29-2.62,1.53-1.06.25-2.06.17-3.02-.22ZM88.9,29.33l-1.82,1.17-1.58-2.45-1.5.97,1.67,2.59-1.82,1.17-3.08-4.78,8.39-5.41,3.08,4.78-1.82,1.17-1.67-2.59-1.43.92,1.58,2.45Z" fill="#1d1d1b"/>
  </g>
  <g>
    <path d="M12.78,38.07l-.47,4.05-8.26,1.49v.03s7.69,3.36,7.69,3.36l-.46,3.95-.43-.05.2-1.67-10.43-1.21-.2,1.67-.43-.05.62-5.31.43.05-.2,1.73,10.62,1.24v-.03S.81,42.65.81,42.65l.05-.39,11.44-2.07v-.03s-10.62-1.24-10.62-1.24l-.2,1.73-.43-.05.45-3.85.43.05-.2,1.69,10.43,1.21.2-1.69.43.05Z" fill="#1d1d1b"/>
    <path d="M13.33,61.81l-.44-1.8.42-.1.96,3.94-.42.1-.42-1.74-6.67,1.63c-.97.24-1.7.34-2.19.3-.5-.03-.95-.2-1.35-.51-.41-.31-.75-.71-1.02-1.21-.27-.5-.48-1.04-.62-1.61-.3-1.21-.32-2.14-.08-2.79.24-.65.62-1.11,1.15-1.37.52-.26,1.25-.51,2.18-.74l6.67-1.63-.39-1.6.42-.1,1.29,5.28-.42.1-.42-1.74-6.48,1.59c-.89.22-1.59.43-2.08.64s-.86.53-1.11.98c-.25.45-.28,1.06-.09,1.84.16.64.43,1.18.81,1.62.38.44.82.71,1.31.8.49.09,1.33,0,2.53-.3l6.48-1.59ZM14.82,55.4c.23-.06.45-.02.65.1s.33.3.38.52c.06.23.02.44-.1.64-.12.2-.3.33-.53.38-.23.06-.44.02-.64-.1-.2-.12-.32-.3-.38-.53-.06-.23-.02-.44.1-.64.12-.2.3-.33.53-.38ZM15.68,58.93c.23-.06.45-.02.65.1.2.12.33.3.38.52.06.23.02.44-.1.64-.12.2-.3.33-.53.38-.23.06-.44.02-.64-.1-.2-.12-.33-.3-.38-.53-.06-.23-.02-.44.1-.64.12-.2.3-.33.53-.38Z" fill="#1d1d1b"/>
    <path d="M19.93,73.53l-9.34,6.16-.19-.29,5.27-12.43-.02-.03-8.81,5.8,1.06,1.61-.36.24-2.22-3.37.36-.24.93,1.41,8.76-5.78-.99-1.51.36-.24,2.39,3.62-3.74,8.8.02.03,6.29-4.14-1.03-1.57.36-.24,2.22,3.37-.36.24-.95-1.44Z" fill="#1d1d1b"/>
    <path d="M28.94,80.81l-2.13,2.61-.28-.23c.99-1.84.84-3.28-.44-4.32-.69-.56-1.41-.7-2.16-.42s-1.84,1.29-3.24,3.02c-1.16,1.42-1.88,2.45-2.16,3.07-.28.62-.34,1.18-.19,1.68.15.49.43.9.84,1.23.53.43,1.18.63,1.97.61.78-.02,1.66-.36,2.63-1.03l.31.25-2.29,2.6-.27-.22c.13-.36.16-.73.1-1.09-1.16.01-2.1-.28-2.84-.88-.93-.76-1.42-1.89-1.47-3.39-.05-1.5.44-2.89,1.48-4.17,1.06-1.3,2.33-2.1,3.82-2.39,1.49-.29,2.73-.03,3.72.77.76.62,1.21,1.44,1.35,2.46.39-.13.72-.27.97-.4l.28.23Z" fill="#1d1d1b"/>
    <path d="M28,92.96l3.75-9.8-1.67-.64.15-.4,5.24,2-.15.4-1.69-.64-1.73,4.53,4.58,1.75,1.73-4.53-1.65-.63.15-.4,5.21,1.99-.15.4-1.67-.64-3.75,9.8,1.67.64-.15.4-5.21-1.99.15-.4,1.65.63,1.86-4.87-4.58-1.75-1.86,4.87,1.69.64-.15.4-5.24-2,.15-.4,1.67.64Z" fill="#1d1d1b"/>
    <path d="M47.29,87.22l-.12,4.87,1.02.03c.36,0,.67-.02.92-.08.25-.06.48-.25.69-.55.21-.31.34-.79.38-1.45h.44s-.12,4.82-.12,4.82h-.44c-.02-.93-.18-1.53-.48-1.83-.3-.3-.77-.46-1.4-.47l-1.02-.03-.13,5.19,2.31.06c1.31.03,2.22-.22,2.74-.76.52-.54.84-1.38.97-2.52h.43s-.21,3.81-.21,3.81l-10.07-.26v-.43s1.81.05,1.81.05l.27-10.49-1.8-.05v-.43s9.67.25,9.67.25l.12,3.04h-.43c-.12-.93-.41-1.61-.86-2.02s-1.2-.64-2.27-.67l-2.41-.06Z" fill="#1d1d1b"/>
    <path d="M64.7,84.42l3.24,10.71-.33.1-10.41-8.6h-.03s3.05,10.11,3.05,10.11l1.84-.56.12.41-3.87,1.17-.12-.41,1.61-.49-3.04-10.05-1.73.52-.12-.41,4.15-1.25,7.37,6.09h.03s-2.18-7.22-2.18-7.22l-1.8.54-.12-.41,3.86-1.17.12.41-1.65.5Z" fill="#1d1d1b"/>
    <path d="M73.13,78.62l1.68,2.42-.33.22c-1.45-1.15-2.77-1.33-3.96-.54-.66.44-1.05.96-1.16,1.57-.12.61-.05,1.11.21,1.49.24.36.6.57,1.07.62.47.05,1.16-.12,2.05-.52s1.62-.64,2.17-.72c.55-.08,1.13.01,1.73.28.6.27,1.1.71,1.5,1.31.62.92.83,1.9.64,2.91-.19,1.02-.73,1.83-1.62,2.42-.73.49-1.63.7-2.72.65l-.27,1.03-.25.17-1.77-2.64.3-.2c.83.64,1.64,1.01,2.42,1.09.78.08,1.46-.07,2.05-.47.59-.39.99-.95,1.23-1.66s.15-1.37-.25-1.96c-.33-.5-.78-.8-1.35-.91-.57-.11-1.28.02-2.13.41s-1.53.62-2.06.73c-.52.1-1.07.04-1.65-.19s-1.04-.6-1.38-1.12c-.48-.71-.65-1.52-.52-2.42.13-.9.63-1.64,1.5-2.22.73-.49,1.56-.71,2.5-.67.06-.28.08-.57.06-.88l.29-.19Z" fill="#1d1d1b"/>
    <path d="M75.14,77.31l6.31-7.34,3.12,2.29-.28.33c-1.15-.64-2.06-.96-2.72-.95-.66,0-1.23.28-1.69.82l-.6.7,7.96,6.84,1.33-1.54.33.28-3.96,4.61-.33-.28,1.33-1.54-7.96-6.84-.6.7c-.46.54-.65,1.14-.56,1.79.09.66.54,1.51,1.35,2.55l-.28.33-2.74-2.74Z" fill="#1d1d1b"/>
    <path d="M84.25,65.27l4.48,1.92.4-.94c.14-.33.23-.63.27-.89.03-.26-.05-.54-.26-.85-.21-.31-.61-.6-1.2-.89l.17-.4,4.42,1.9-.17.4c-.86-.32-1.48-.39-1.87-.23-.39.17-.71.54-.96,1.12l-.4.94,4.77,2.05.91-2.13c.52-1.2.62-2.15.31-2.83-.31-.68-.97-1.29-1.98-1.83l.17-.4,3.45,1.6-3.97,9.26-.4-.17.71-1.66-9.65-4.14-.71,1.66-.4-.17,3.81-8.88,2.86,1.02-.17.4c-.9-.23-1.63-.21-2.19.05-.55.26-1.04.88-1.46,1.86l-.95,2.22Z" fill="#1d1d1b"/>
    <path d="M97.68,57.09l-10.39-1.51-.27,1.84-.43-.06.83-5.68.43.06-.27,1.85,10.39,1.51.27-1.85.43.06-.83,5.68-.43-.06.27-1.84Z" fill="#1d1d1b"/>
    <path d="M87.02,40.03l11.1-1.39.04.34-10.23,8.82v.03s10.47-1.31,10.47-1.31l-.24-1.91.43-.05.5,4.01-.43.05-.21-1.67-10.42,1.3.22,1.79-.43.05-.54-4.3,7.25-6.24v-.03s-7.48.93-7.48.93l.23,1.87-.43.05-.5-4,.43-.05.21,1.71Z" fill="#1d1d1b"/>
  </g>
</svg>