<?xml version="1.0" encoding="UTF-8"?>
<svg id="Layer_1" xmlns="http://www.w3.org/2000/svg" version="1.1" viewBox="0 0 125.2 36.5">
  <!-- Generator: Adobe Illustrator 30.2.1, SVG Export Plug-In . SVG Version: 2.1.1 Build 1)  -->
  <path d="M32.1,9.6c-.1.2-.2.3-.4.4s-.4.2-.6.2h-1.1c-.2,0-.4-.1-.6-.2-.2-.1-.3-.3-.4-.4,0-.1-.1-.1-.1-.2l.5-.2c.1.2.3.4.4.5h1.5c.2-.1.3-.3.4-.4v-.5c0-.2-.2-.3-.4-.4l-1.6-.1c-.5,0-.8-.4-.8-.9v-.2c0-.2,0-.4.1-.5.1-.2.2-.3.4-.4.2-.1.4-.2.6-.2h1c.2,0,.4.1.6.2s.3.3.4.5c.07.07.1.13.1.2l-.5.2c-.1-.2-.3-.4-.5-.5h-1.4c-.2.1-.3.2-.4.4v.5c0,.2.2.3.4.4l1.6.1c.5,0,.8.4.8.9v.3c.1,0,.1.2,0,.3Z"/>
  <path d="M36.1,10.1c-.2.1-.4.2-.6.2h-1c-.2,0-.4-.1-.6-.2-.2-.1-.3-.3-.4-.5-.1-.2-.1-.3-.1-.5v-1.9c0-.2,0-.4.1-.5.1-.2.3-.3.4-.5.2-.1.4-.2.6-.2h.9c.2,0,.4.1.6.2.2.2.4.4.6.7l-.5.2c-.1-.2-.3-.4-.5-.5h-1.3c-.2.1-.3.3-.4.5v2.3c.1.2.3.3.4.5h1.4c.2-.1.3-.3.4-.5h0l.5.2c0,.1-.2.3-.5.5Z"/>
  <path d="M40.5,10.2v-3.2c-.1-.2-.3-.3-.4-.5h-.9c-.3.1-.5.3-.7.6h0v3h-.5v-5.6h.5v2.1c.1-.1.2-.2.4-.3.1-.1.3-.2.5-.2h.7c.2,0,.4.1.6.2.2.1.3.3.4.5-.1.1-.1.2-.1.4v3s-.5,0-.5,0Z"/>
  <path d="M46.6,10.2h-.7l-1-3.5-1,3.5h-.7l-1.2-4.1h.6l1,3.5h.1l.9-3.5h.7l1,3.5h.1l.9-3.5h.5s-1.2,4.1-1.2,4.1Z"/>
  <path d="M51.4,9.2l.5.2c0,.1-.1.1-.1.2-.1.2-.3.3-.4.5-.2.1-.4.2-.6.2h-1c-.2,0-.4-.1-.6-.2-.2-.1-.3-.3-.4-.5-.1-.1-.1-.3-.1-.5v-1.9c0-.2,0-.4.1-.5.1-.2.3-.3.4-.5.2-.1.4-.2.6-.2h.9c.2,0,.4.1.6.2.2.1.3.3.4.5.1.2.1.3.1.5v1.2h-2.7v.9c.1.2.3.3.4.5h1.4c.2-.2.4-.4.5-.6h0ZM49.2,7.2v.7h2.2v-.9c-.1-.2-.3-.3-.5-.5h-1.3c-.2.1-.3.3-.5.5.1.1.1.2.1.2Z"/>
  <path d="M53.2,5.1v-.7h.6v.6h-.6v.1ZM53.2,10.2v-4.1h.5v4.1h-.5Z"/>
  <path d="M55.1,10.2v-.5l2.1-3.1h-2.2v-.5h2.9v.5l-2.1,3.1h2.2v.5h-2.9Z"/>
  <path d="M61.9,9.2l.5.2c0,.1-.1.1-.1.2-.1.2-.3.3-.4.5-.2.1-.4.2-.6.2h-1c-.2,0-.4-.1-.6-.2-.2-.1-.3-.3-.4-.5-.1-.1-.1-.3-.1-.5v-1.9c0-.2,0-.4.1-.5.1-.2.3-.3.4-.5.2-.1.4-.2.6-.2h.9c.2,0,.4.1.6.2.2.1.3.3.4.5.1.2.1.3.1.5v1.2h-2.7v.9c.1.2.3.3.4.5h1.4c.2-.2.3-.4.5-.6h0ZM59.6,7.2v.7h2.2v-.9c-.1-.2-.3-.3-.5-.5h-1.3c-.2.1-.3.3-.5.5.1.1.1.2.1.2Z"/>
  <path d="M66.1,7.1c-.1-.2-.3-.3-.5-.5h-.7c-.3.1-.5.3-.7.6v3h-.5v-3.4l-.1-.7h.5l.1.5c.1-.1.2-.2.4-.3.1-.1.3-.2.5-.2h.5c.2,0,.4.1.6.2s.3.3.4.5c.07.07.1.13.1.2,0,0-.6.1-.6.1Z"/>
  <path d="M72.2,10.2l-1.8-1.9h-.2v1.9h-.5v-5.7h.5v3.3h.2l1.6-1.7h.7l-1.8,1.9,2,2.1s-.7.1-.7.1Z"/>
  <path d="M76.5,10.2l-.1-.5c-.1.1-.2.2-.4.3-.1.1-.3.2-.5.2h-.7c-.2,0-.4-.1-.6-.2-.2-.1-.3-.3-.4-.5s-.1-.3-.1-.5v-3h.5v3.2c.1.2.3.3.5.5h1c.3-.1.5-.3.7-.6v-3h.5v3.4l.1.7h-.5Z"/>
  <path d="M78.4,10.2c0-.2-.1-.4-.1-.5v-5.2h.5v5.1c0,.2.1.4.1.6,0,0-.5,0-.5,0Z"/>
  <path d="M81.1,6.6v2.6c.1.2.3.3.4.4h.8v.5h-.6c-.2,0-.4-.1-.6-.2-.2-.1-.3-.3-.4-.5-.1-.1-.1-.3-.1-.5v-2.3h-.7v-.5h.7v-1.6h.5v1.6h1.3v.5s-1.3,0-1.3,0Z"/>
  <path d="M86.1,10.2l-.1-.5c0,.1-.1.2-.3.3-.1.1-.3.2-.5.2h-.7c-.2,0-.4-.1-.6-.2-.2-.1-.3-.3-.4-.5s-.1-.3-.1-.5v-3h.5v3.2c.1.2.3.3.5.5h1c.3-.1.5-.3.7-.6v-3h.5v3.4l.1.7h-.6Z"/>
  <path d="M90.5,7.1c-.1-.2-.3-.3-.5-.5h-.8c-.3.1-.5.3-.7.6v3h-.5v-3.4l-.1-.7h.5l.1.5c.1-.1.2-.2.4-.3.1-.1.3-.2.5-.2h.5c.2,0,.4.1.6.2s.3.3.4.5c.1.1.1.2.1.2,0,0-.5.1-.5.1Z"/>
  <path d="M94.9,9.6c-.1.2-.2.3-.4.4-.2.1-.4.2-.6.2h-1.1c-.2,0-.4-.1-.6-.2-.2-.1-.3-.3-.4-.4,0-.1-.1-.2-.1-.2l.5-.2c.1.2.3.4.4.5h1.6c.2-.1.3-.3.4-.4v-.5c0-.2-.2-.3-.4-.4l-1.6-.1c-.5,0-.8-.4-.8-.9v-.2c0-.2,0-.4.1-.5.1-.2.2-.3.4-.4.2-.1.4-.2.6-.2h1c.2,0,.4.1.6.2s.3.3.4.5c.07,0,.13.03.2.1l-.5.2c-.1-.2-.3-.4-.5-.5h-1.4c-.2.1-.3.2-.4.4v.5c0,.2.2.3.4.4l1.6.1c.5,0,.8.4.8.9v.3c0,.1-.1.3-.2.4Z"/>
  <path d="M97.2,6.6v2.6c.1.2.3.3.4.4h.8v.5h-.6c-.2,0-.4-.1-.6-.2-.2-.1-.3-.3-.4-.5-.1-.1-.1-.3-.1-.5v-2.3h-.7v-.5h.7v-1.6h.5v1.6h1.3v.5s-1.3,0-1.3,0Z"/>
  <path d="M99.6,5.1v-.7h.6v.6h-.6v.1ZM99.6,10.2v-4.1h.5v4.1h-.5Z"/>
  <path d="M103.1,5h-.2c-.2.1-.3.3-.4.5v.7h.7v.5h-.7v3.6h-.5v-3.7h-.7v-.5h.7v-.5c0-.2,0-.4.1-.5.1-.2.3-.3.4-.5.2-.1.4-.2.6-.2h.6v.6s-.6,0-.6,0Z"/>
  <path d="M105.3,6.6v2.6c.1.2.3.3.4.4h.8v.5h-.6c-.2,0-.4-.1-.6-.2-.2-.1-.3-.3-.4-.5-.1-.1-.1-.3-.1-.5v-2.3h-.7v-.5h.7v-1.6h.5v1.6h1.3v.5s-1.3,0-1.3,0Z"/>
  <path d="M110.3,10.2l-.1-.5c-.1.1-.2.2-.4.3-.1.1-.3.2-.5.2h-.7c-.2,0-.4-.1-.6-.2-.2-.1-.3-.3-.4-.5s-.1-.3-.1-.5v-3h.5v3.2c.1.2.3.3.5.5h1c.3-.1.5-.3.7-.6v-3h.5v3.4l.1.7h-.5Z"/>
  <path d="M114.8,10.2v-3.2c-.1-.2-.3-.3-.5-.5h-1c-.3.1-.5.3-.7.6v3h-.5v-3.3l-.1-.7h.5l.1.5c.1-.1.2-.2.4-.3.1-.1.3-.2.5-.2h.7c.2,0,.4.1.6.2s.3.3.4.5.1.3.1.5v3l-.5-.1Z"/>
  <path d="M120,6.8v3.9c0,.2,0,.4-.1.5-.1.2-.3.3-.4.5-.2.1-.4.2-.6.2h-1c-.2,0-.4-.1-.6-.2-.2-.2-.4-.4-.6-.7l.5-.2h0c.1.2.3.3.4.5h1.4c.2-.1.3-.3.5-.5v-1.2c-.1.1-.2.2-.4.3-.1.1-.3.2-.5.2h-.8c-.2,0-.4-.1-.6-.2-.2-.1-.3-.3-.4-.5s-.1-.3-.1-.5v-1.7c0-.2,0-.4.1-.5.1-.2.3-.3.4-.5.2-.1.4-.2.6-.2h.8c.2,0,.3.1.5.2.1.1.3.2.4.4l.1-.5h.5s-.1.7-.1.7ZM119.5,7.2h0c-.2-.3-.5-.5-.7-.6h-1.1c-.2.1-.3.3-.4.5v2.3c.1.2.3.3.4.5h1.1c.3-.2.5-.3.7-.6h0s0-2.1,0-2.1Z"/>
  <path d="M23.3,28.9h-2.4v-2.4h-2.9v.4c-.1,1.6,1.1,2.9,2.7,3h2.4c1.6.1,2.9-1.1,3-2.7v-.7h-2.9v2.4s.1,0,.1,0ZM23.1,20.9h-2.1c-1.6-.1-2.9,1.2-3,2.7v.6h2.8v-2.4h2.4v2.4h2.9v-.3c.1-1.6-1.2-2.9-2.7-3,0,0-.3,0-.3,0Z"/>
  <path d="M5.2,27.9h-2.2c-.5.1-1-.3-1.1-.8v-3.3c-.1-.5.3-1,.8-1.1h2.4c.5-.1,1,.3,1.1.8v3.2c.1.5-.3,1-.8,1.1,0,.1-.1.1-.2.1ZM5.2,20.8h-2.2C1.4,20.7,0,22,0,23.6v9.8H2v-3.6h.1c.3.1.6.2,1,.2h2.1c1.6.1,3-1.2,3-2.8v-3.3c.1-1.6-1.2-3-2.8-3,0-.1-.1-.1-.2-.1Z"/>
  <path d="M34.2,20.8h-2.1c-.3,0-.7.1-1,.2h-.1v-3.5h-2v12.3h2v-6c-.1-.5.3-1,.9-1.1h2.3c.5-.1,1,.3,1.1.8v6.3h2v-6c.1-1.6-1.2-3-2.8-3h-.3Z"/>
  <path d="M88,29.9h2v-9.1h-2v9.1ZM89.9,17.6h-2v2.1h2v-2.1Z"/>
  <path d="M84.9,22.8v-2h-2.7v-3.2h-2v3.2h-1.7v2h1.7v4c-.1,1.6,1.1,3,2.7,3h1.9v-2h-1.6c-.5.1-1-.3-1.1-.8v-4.3h2.8s0,.1,0,.1Z"/>
  <path d="M54.2,27.9c-.5.1-1-.3-1.1-.8v-9.6h-2v9.3c-.1,1.6,1.1,2.9,2.7,3h1.9v-2s-1.5.1-1.5.1Z"/>
  <path d="M13.8,20.8c-1.6-.1-3,1.1-3,2.7v6.3h2v-6c-.1-.5.3-1,.8-1.1h2.7v-2s-2.5.1-2.5.1Z"/>
  <path d="M64,20.8l-.9,3.2-.9,3.4c-.2.5-.2.6-.6.6s-.4,0-.5-.5l-1.9-6.7h-2.1l2,7.1c.4,1.5,1.1,2,2.5,2s2-.5,2.5-2.1l2-7.1-2.1.1Z"/>
  <path d="M43.1,22.7h2.1c.6-.1,1.1.3,1.2.9v.9h-4.4v-.6c-.1-.6.3-1.1.9-1.2.1,0,.2,0,.2,0ZM45.3,20.8h-2.1c-1.6-.1-3,1.2-3,2.8v3.3c-.1,1.6,1.2,3,2.8,3h5v-2h-4.8c-.5.1-1-.3-1.1-.8v-.7h5c.8,0,1.4-.6,1.4-1.4h0v-1.1c.1-1.6-1.2-3-2.8-3-.2-.1-.3-.1-.4-.1Z"/>
  <path d="M69.9,24c0-.8.5-1.4,1.2-1.4h2.1c.6-.1,1.1.3,1.2.9v.9h-4.5s0-.4,0-.4ZM73.3,20.8h-2.1c-1.6-.1-3,1.2-3,2.8v3.3c-.1,1.6,1.2,3,2.8,3h5v-2h-4.8c-.5.1-1-.3-1.1-.8v-.7h5c.8,0,1.4-.6,1.4-1.4h0v-1.1c.1-1.6-1.2-3-2.8-3-.2-.07-.33-.1-.4-.1Z"/>
  <path d="M98.4,28h-2.7c-1,0-1.2-.5-1.2-.9,0-.6.2-.8,1-.9l3.1-.3.4-.1v1.6c0,.4-.2.6-.6.6ZM97.9,20.8h-4v2h4c.5-.1.9.3,1,.7v.2c0,.1-.1.2-.5.3l-3,.3c-2.4.3-2.7,1.8-2.7,2.8,0,1.5,1.2,2.8,2.8,2.8h3c1.3.1,2.5-1,2.5-2.3v-3.7c.1-1.6-1.1-3-2.7-3-.2-.1-.3-.1-.4-.1Z"/>
</svg>