<?xml version="1.0" encoding="utf-8"?>
<!-- Generator: Adobe Illustrator 27.5.0, SVG Export Plug-In . SVG Version: 6.00 Build 0)  -->
<svg version="1.1" id="Layer_1" xmlns="http://www.w3.org/2000/svg" xmlns:xlink="http://www.w3.org/1999/xlink" x="0px" y="0px"
	 viewBox="0 0 125.2 36.5" style="enable-background:new 0 0 125.2 36.5;" xml:space="preserve">
<style type="text/css">
	.st0{fill:#FFFFFF;}
</style>
<path class="st0" d="M32.1,9.6c-0.1,0.2-0.2,0.3-0.4,0.4c-0.2,0.1-0.4,0.2-0.6,0.2H30c-0.2,0-0.4-0.1-0.6-0.2
	c-0.2-0.1-0.3-0.3-0.4-0.4c0-0.1-0.1-0.1-0.1-0.2l0.5-0.2c0.1,0.2,0.3,0.4,0.4,0.5c0.1,0,0.1,0,0.2,0h1.1c0.1,0,0.1,0,0.2,0
	c0.2-0.1,0.3-0.3,0.4-0.4c0-0.1,0-0.1,0-0.2V8.8c0-0.2-0.2-0.3-0.4-0.4l-1.6-0.1c-0.5,0-0.8-0.4-0.8-0.9V7.2c0-0.2,0-0.4,0.1-0.5
	c0.1-0.2,0.2-0.3,0.4-0.4c0.2-0.1,0.4-0.2,0.6-0.2h1c0.2,0,0.4,0.1,0.6,0.2c0.2,0.1,0.3,0.3,0.4,0.5c0.1,0.1,0.1,0.1,0.1,0.2
	l-0.5,0.2c-0.1-0.2-0.3-0.4-0.5-0.5c0,0-0.1,0-0.2,0h-1c-0.1,0-0.1,0-0.2,0c-0.2,0.1-0.3,0.2-0.4,0.4c0,0.1,0,0.1,0,0.2v0.3
	c0,0.2,0.2,0.3,0.4,0.4l1.6,0.1c0.5,0,0.8,0.4,0.8,0.9v0.3C32.2,9.3,32.2,9.5,32.1,9.6z"/>
<path class="st0" d="M36.1,10.1c-0.2,0.1-0.4,0.2-0.6,0.2h-1c-0.2,0-0.4-0.1-0.6-0.2c-0.2-0.1-0.3-0.3-0.4-0.5
	c-0.1-0.2-0.1-0.3-0.1-0.5V7.2c0-0.2,0-0.4,0.1-0.5c0.1-0.2,0.3-0.3,0.4-0.5c0.2-0.1,0.4-0.2,0.6-0.2h0.9c0.2,0,0.4,0.1,0.6,0.2
	c0.2,0.2,0.4,0.4,0.6,0.7l-0.5,0.2c-0.1-0.2-0.3-0.4-0.5-0.5c-0.1,0-0.1,0-0.2,0h-0.9c-0.1,0-0.1,0-0.2,0c-0.2,0.1-0.3,0.3-0.4,0.5
	c0,0.1,0,0.1,0,0.2v1.9c0,0.1,0,0.1,0,0.2c0.1,0.2,0.3,0.3,0.4,0.5c0.1,0,0.1,0,0.2,0h1c0.1,0,0.1,0,0.2,0c0.2-0.1,0.3-0.3,0.4-0.5
	l0,0l0.5,0.2C36.6,9.7,36.4,9.9,36.1,10.1z"/>
<path class="st0" d="M40.5,10.2v-3c0-0.1,0-0.1,0-0.2c-0.1-0.2-0.3-0.3-0.4-0.5c-0.1,0-0.1,0-0.2,0h-0.6c0,0-0.1,0-0.1,0
	c-0.3,0.1-0.5,0.3-0.7,0.6c0,0,0,0,0,0v3h-0.5V4.5h0.5v2.1c0.1-0.1,0.2-0.2,0.4-0.3c0.1-0.1,0.3-0.2,0.5-0.2h0.7
	c0.2,0,0.4,0.1,0.6,0.2c0.2,0.1,0.3,0.3,0.4,0.5C41,6.9,41,7,41,7.2v3L40.5,10.2z"/>
<path class="st0" d="M46.6,10.2h-0.7l-1-3.5l-1,3.5h-0.7L42,6.1h0.6l1,3.5h0.1l0.9-3.5h0.7l1,3.5h0.1l0.9-3.5h0.5L46.6,10.2z"/>
<path class="st0" d="M51.4,9.2l0.5,0.2c0,0.1-0.1,0.1-0.1,0.2c-0.1,0.2-0.3,0.3-0.4,0.5c-0.2,0.1-0.4,0.2-0.6,0.2h-1
	c-0.2,0-0.4-0.1-0.6-0.2c-0.2-0.1-0.3-0.3-0.4-0.5c-0.1-0.1-0.1-0.3-0.1-0.5V7.2c0-0.2,0-0.4,0.1-0.5c0.1-0.2,0.3-0.3,0.4-0.5
	c0.2-0.1,0.4-0.2,0.6-0.2h0.9c0.2,0,0.4,0.1,0.6,0.2c0.2,0.1,0.3,0.3,0.4,0.5c0.1,0.2,0.1,0.3,0.1,0.5v1.2h-2.7v0.7
	c0,0.1,0,0.1,0,0.2c0.1,0.2,0.3,0.3,0.4,0.5c0,0,0.1,0,0.2,0h1c0.1,0,0.1,0,0.2,0C51.1,9.6,51.3,9.4,51.4,9.2L51.4,9.2z M49.2,7.2
	v0.7h2.2V7.2c0-0.1,0-0.1,0-0.2c-0.1-0.2-0.3-0.3-0.5-0.5c-0.1,0-0.1,0-0.2,0h-0.9c-0.1,0-0.1,0-0.2,0c-0.2,0.1-0.3,0.3-0.5,0.5
	C49.2,7.1,49.2,7.2,49.2,7.2z"/>
<path class="st0" d="M53.2,5.1V4.4h0.6v0.6H53.2z M53.2,10.2V6.1h0.5v4.1H53.2z"/>
<path class="st0" d="M55.1,10.2V9.7l2.1-3.1H55V6.1h2.9v0.5l-2.1,3.1H58v0.5L55.1,10.2z"/>
<path class="st0" d="M61.9,9.2l0.5,0.2c0,0.1-0.1,0.1-0.1,0.2c-0.1,0.2-0.3,0.3-0.4,0.5c-0.2,0.1-0.4,0.2-0.6,0.2h-1
	c-0.2,0-0.4-0.1-0.6-0.2c-0.2-0.1-0.3-0.3-0.4-0.5c-0.1-0.1-0.1-0.3-0.1-0.5V7.2c0-0.2,0-0.4,0.1-0.5c0.1-0.2,0.3-0.3,0.4-0.5
	c0.2-0.1,0.4-0.2,0.6-0.2h0.9c0.2,0,0.4,0.1,0.6,0.2c0.2,0.1,0.3,0.3,0.4,0.5c0.1,0.2,0.1,0.3,0.1,0.5v1.2h-2.7v0.7
	c0,0.1,0,0.1,0,0.2c0.1,0.2,0.3,0.3,0.4,0.5c0,0,0.1,0,0.2,0h1c0.1,0,0.1,0,0.2,0C61.6,9.6,61.7,9.4,61.9,9.2L61.9,9.2z M59.6,7.2
	v0.7h2.2V7.2c0-0.1,0-0.1,0-0.2c-0.1-0.2-0.3-0.3-0.5-0.5c-0.1,0-0.1,0-0.2,0h-0.9c-0.1,0-0.1,0-0.2,0c-0.2,0.1-0.3,0.3-0.5,0.5
	C59.6,7.1,59.6,7.2,59.6,7.2z"/>
<path class="st0" d="M66.1,7.1c-0.1-0.2-0.3-0.3-0.5-0.5c-0.1,0-0.1,0-0.2,0H65c0,0-0.1,0-0.1,0c-0.3,0.1-0.5,0.3-0.7,0.6v3h-0.5
	V6.8l-0.1-0.7h0.5l0.1,0.5c0.1-0.1,0.2-0.2,0.4-0.3c0.1-0.1,0.3-0.2,0.5-0.2h0.5c0.2,0,0.4,0.1,0.6,0.2c0.2,0.1,0.3,0.3,0.4,0.5
	c0.1,0.1,0.1,0.1,0.1,0.2L66.1,7.1z"/>
<path class="st0" d="M72.2,10.2l-1.8-1.9h-0.2v1.9h-0.5V4.5h0.5v3.3h0.2L72,6.1h0.7L70.9,8l2,2.1L72.2,10.2z"/>
<path class="st0" d="M76.5,10.2l-0.1-0.5c-0.1,0.1-0.2,0.2-0.4,0.3c-0.1,0.1-0.3,0.2-0.5,0.2h-0.7c-0.2,0-0.4-0.1-0.6-0.2
	c-0.2-0.1-0.3-0.3-0.4-0.5c-0.1-0.2-0.1-0.3-0.1-0.5v-3h0.5v3c0,0.1,0,0.1,0,0.2c0.1,0.2,0.3,0.3,0.5,0.5c0.1,0,0.1,0,0.2,0h0.7
	c0,0,0.1,0,0.1,0c0.3-0.1,0.5-0.3,0.7-0.6v-3h0.5v3.4l0.1,0.7L76.5,10.2z"/>
<path class="st0" d="M78.4,10.2c0-0.2-0.1-0.4-0.1-0.5V4.5h0.5v5.1c0,0.2,0.1,0.4,0.1,0.6L78.4,10.2z"/>
<path class="st0" d="M81.1,6.6V9c0,0.1,0,0.1,0,0.2c0.1,0.2,0.3,0.3,0.4,0.4c0.1,0,0.1,0,0.2,0h0.6v0.5h-0.6c-0.2,0-0.4-0.1-0.6-0.2
	c-0.2-0.1-0.3-0.3-0.4-0.5c-0.1-0.1-0.1-0.3-0.1-0.5V6.6h-0.7V6.1h0.7V4.5h0.5v1.6h1.3v0.5L81.1,6.6z"/>
<path class="st0" d="M86.1,10.2l-0.1-0.5C86,9.8,85.9,9.9,85.7,10c-0.1,0.1-0.3,0.2-0.5,0.2h-0.7c-0.2,0-0.4-0.1-0.6-0.2
	c-0.2-0.1-0.3-0.3-0.4-0.5c-0.1-0.2-0.1-0.3-0.1-0.5v-3h0.5v3c0,0.1,0,0.1,0,0.2c0.1,0.2,0.3,0.3,0.5,0.5c0.1,0,0.1,0,0.2,0h0.7
	c0,0,0.1,0,0.1,0c0.3-0.1,0.5-0.3,0.7-0.6v-3h0.5v3.4l0.1,0.7L86.1,10.2z"/>
<path class="st0" d="M90.5,7.1c-0.1-0.2-0.3-0.3-0.5-0.5c-0.1,0-0.1,0-0.2,0h-0.5c0,0-0.1,0-0.1,0c-0.3,0.1-0.5,0.3-0.7,0.6v3H88
	V6.8l-0.1-0.7h0.5l0.1,0.5c0.1-0.1,0.2-0.2,0.4-0.3c0.1-0.1,0.3-0.2,0.5-0.2h0.5c0.2,0,0.4,0.1,0.6,0.2c0.2,0.1,0.3,0.3,0.4,0.5
	c0.1,0.1,0.1,0.2,0.1,0.2L90.5,7.1z"/>
<path class="st0" d="M94.9,9.6c-0.1,0.2-0.2,0.3-0.4,0.4c-0.2,0.1-0.4,0.2-0.6,0.2h-1.1c-0.2,0-0.4-0.1-0.6-0.2
	c-0.2-0.1-0.3-0.3-0.4-0.4c0-0.1-0.1-0.2-0.1-0.2l0.5-0.2c0.1,0.2,0.3,0.4,0.4,0.5c0.1,0,0.1,0,0.2,0H94c0.1,0,0.1,0,0.2,0
	c0.2-0.1,0.3-0.3,0.4-0.4c0-0.1,0-0.1,0-0.2V8.8c0-0.2-0.2-0.3-0.4-0.4l-1.6-0.1c-0.5,0-0.8-0.4-0.8-0.9V7.2c0-0.2,0-0.4,0.1-0.5
	c0.1-0.2,0.2-0.3,0.4-0.4c0.2-0.1,0.4-0.2,0.6-0.2h1c0.2,0,0.4,0.1,0.6,0.2c0.2,0.1,0.3,0.3,0.4,0.5C95,6.8,95,6.8,95.1,6.9
	l-0.5,0.2c-0.1-0.2-0.3-0.4-0.5-0.5c0,0-0.1,0-0.2,0h-1c-0.1,0-0.1,0-0.2,0c-0.2,0.1-0.3,0.2-0.4,0.4c0,0.1,0,0.1,0,0.2v0.3
	c0,0.2,0.2,0.3,0.4,0.4l1.6,0.1c0.5,0,0.8,0.4,0.8,0.9v0.3C95.1,9.3,95,9.5,94.9,9.6z"/>
<path class="st0" d="M97.2,6.6V9c0,0.1,0,0.1,0,0.2c0.1,0.2,0.3,0.3,0.4,0.4c0.1,0,0.1,0,0.2,0h0.6v0.5h-0.6c-0.2,0-0.4-0.1-0.6-0.2
	c-0.2-0.1-0.3-0.3-0.4-0.5c-0.1-0.1-0.1-0.3-0.1-0.5V6.6H96V6.1h0.7V4.5h0.5v1.6h1.3v0.5L97.2,6.6z"/>
<path class="st0" d="M99.6,5.1V4.4h0.6v0.6H99.6z M99.6,10.2V6.1h0.5v4.1H99.6z"/>
<path class="st0" d="M103.1,5c-0.1,0-0.1,0-0.2,0c-0.2,0.1-0.3,0.3-0.4,0.5c0,0.1,0,0.1,0,0.2v0.5h0.7v0.5h-0.7v3.6H102V6.6h-0.7
	V6.1h0.7V5.6c0-0.2,0-0.4,0.1-0.5c0.1-0.2,0.3-0.3,0.4-0.5c0.2-0.1,0.4-0.2,0.6-0.2h0.6V5H103.1z"/>
<path class="st0" d="M105.3,6.6V9c0,0.1,0,0.1,0,0.2c0.1,0.2,0.3,0.3,0.4,0.4c0.1,0,0.1,0,0.2,0h0.6v0.5h-0.6
	c-0.2,0-0.4-0.1-0.6-0.2c-0.2-0.1-0.3-0.3-0.4-0.5c-0.1-0.1-0.1-0.3-0.1-0.5V6.6h-0.7V6.1h0.7V4.5h0.5v1.6h1.3v0.5L105.3,6.6z"/>
<path class="st0" d="M110.3,10.2l-0.1-0.5c-0.1,0.1-0.2,0.2-0.4,0.3c-0.1,0.1-0.3,0.2-0.5,0.2h-0.7c-0.2,0-0.4-0.1-0.6-0.2
	c-0.2-0.1-0.3-0.3-0.4-0.5c-0.1-0.2-0.1-0.3-0.1-0.5v-3h0.5v3c0,0.1,0,0.1,0,0.2c0.1,0.2,0.3,0.3,0.5,0.5c0.1,0,0.1,0,0.2,0h0.7
	c0,0,0.1,0,0.1,0c0.3-0.1,0.5-0.3,0.7-0.6v-3h0.5v3.4l0.1,0.7L110.3,10.2z"/>
<path class="st0" d="M114.8,10.2v-3c0-0.1,0-0.1,0-0.2c-0.1-0.2-0.3-0.3-0.5-0.5c-0.1,0-0.1,0-0.2,0h-0.7c0,0-0.1,0-0.1,0
	c-0.3,0.1-0.5,0.3-0.7,0.6v3h-0.5V6.8l-0.1-0.7h0.5l0.1,0.5c0.1-0.1,0.2-0.2,0.4-0.3c0.1-0.1,0.3-0.2,0.5-0.2h0.7
	c0.2,0,0.4,0.1,0.6,0.2c0.2,0.1,0.3,0.3,0.4,0.5c0.1,0.2,0.1,0.3,0.1,0.5v3L114.8,10.2z"/>
<path class="st0" d="M120,6.8v3.9c0,0.2,0,0.4-0.1,0.5c-0.1,0.2-0.3,0.3-0.4,0.5c-0.2,0.1-0.4,0.2-0.6,0.2h-1
	c-0.2,0-0.4-0.1-0.6-0.2c-0.2-0.2-0.4-0.4-0.6-0.7l0.5-0.2l0,0c0.1,0.2,0.3,0.3,0.4,0.5c0,0,0.1,0,0.2,0h1c0.1,0,0.1,0,0.2,0
	c0.2-0.1,0.3-0.3,0.5-0.5c0-0.1,0-0.1,0-0.2v-1c-0.1,0.1-0.2,0.2-0.4,0.3c-0.1,0.1-0.3,0.2-0.5,0.2h-0.8c-0.2,0-0.4-0.1-0.6-0.2
	c-0.2-0.1-0.3-0.3-0.4-0.5c-0.1-0.2-0.1-0.3-0.1-0.5V7.2c0-0.2,0-0.4,0.1-0.5c0.1-0.2,0.3-0.3,0.4-0.5c0.2-0.1,0.4-0.2,0.6-0.2h0.8
	c0.2,0,0.3,0.1,0.5,0.2c0.1,0.1,0.3,0.2,0.4,0.4l0.1-0.5h0.5L120,6.8z M119.5,7.2L119.5,7.2c-0.2-0.3-0.5-0.5-0.7-0.6
	c0,0-0.1,0-0.1,0h-0.8c-0.1,0-0.1,0-0.2,0c-0.2,0.1-0.3,0.3-0.4,0.5c0,0.1,0,0.1,0,0.2v1.9c0,0.1,0,0.1,0,0.2
	c0.1,0.2,0.3,0.3,0.4,0.5c0.1,0,0.1,0,0.2,0h0.8c0,0,0.1,0,0.1,0c0.3-0.2,0.5-0.3,0.7-0.6l0,0V7.2z"/>
<path class="st0" d="M23.3,28.9h-2.4v-2.4H18v0.4c-0.1,1.6,1.1,2.9,2.7,3c0.1,0,0.2,0,0.3,0h2.1c1.6,0.1,2.9-1.1,3-2.7
	c0-0.1,0-0.2,0-0.3v-0.4h-2.9V28.9z M23.1,20.9H21c-1.6-0.1-2.9,1.2-3,2.7c0,0.1,0,0.2,0,0.3v0.3h2.8v-2.4h2.4v2.4h2.9v-0.3
	c0.1-1.6-1.2-2.9-2.7-3C23.3,20.9,23.2,20.9,23.1,20.9L23.1,20.9z"/>
<path class="st0" d="M5.2,27.9H3c-0.5,0.1-1-0.3-1.1-0.8c0-0.1,0-0.2,0-0.3v-3c-0.1-0.5,0.3-1,0.8-1.1c0.1,0,0.2,0,0.3,0h2.1
	c0.5-0.1,1,0.3,1.1,0.8c0,0.1,0,0.2,0,0.2v3c0.1,0.5-0.3,1-0.8,1.1C5.4,27.9,5.3,27.9,5.2,27.9z M5.2,20.8H3c-1.6-0.1-3,1.2-3,2.8
	c0,0.1,0,0.2,0,0.3v9.5l2,0v-3.6c0,0,0.1,0,0.1,0c0.3,0.1,0.6,0.2,1,0.2h2.1c1.6,0.1,3-1.2,3-2.8c0-0.1,0-0.2,0-0.3v-3
	c0.1-1.6-1.2-3-2.8-3C5.4,20.8,5.3,20.8,5.2,20.8z"/>
<path class="st0" d="M34.2,20.8h-2.1c-0.3,0-0.7,0.1-1,0.2L31,21v-3.5H29l0,12.3h2v-6c-0.1-0.5,0.3-1,0.9-1.1c0.1,0,0.1,0,0.2,0h2.1
	c0.5-0.1,1,0.3,1.1,0.8c0,0.1,0,0.2,0,0.3v6h2v-6c0.1-1.6-1.2-3-2.8-3C34.4,20.8,34.3,20.8,34.2,20.8z"/>
<path class="st0" d="M88,29.9h2v-9.1l-2,0L88,29.9z M89.9,17.6h-2l0,2.1h2L89.9,17.6z"/>
<path class="st0" d="M84.9,22.8l0-2l-2.7,0v-3.2h-2l0,3.2l-1.7,0v2h1.7l0,4c-0.1,1.6,1.1,3,2.7,3c0.1,0,0.2,0,0.3,0h1.6v-2l-1.6,0
	c-0.5,0.1-1-0.3-1.1-0.8c0-0.1,0-0.2,0-0.3v-4H84.9z"/>
<path class="st0" d="M54.2,27.9c-0.5,0.1-1-0.3-1.1-0.8c0-0.1,0-0.2,0-0.3v-9.3h-2l0,9.3c-0.1,1.6,1.1,2.9,2.7,3c0.1,0,0.2,0,0.3,0
	h1.6v-2L54.2,27.9z"/>
<path class="st0" d="M13.8,20.8c-1.6-0.1-3,1.1-3,2.7c0,0.1,0,0.2,0,0.3v6h2v-6c-0.1-0.5,0.3-1,0.8-1.1c0.1,0,0.2,0,0.3,0h2.4v-2
	L13.8,20.8z"/>
<path class="st0" d="M64,20.8L63.1,24l-0.9,3.4C62,27.9,62,28,61.6,28c-0.4,0-0.4,0-0.5-0.5l-1.9-6.7h-2.1l2,7.1
	c0.4,1.5,1.1,2,2.5,2c1.4,0,2-0.5,2.5-2.1l2-7.1L64,20.8z"/>
<path class="st0" d="M43.1,22.7h2.1c0.6-0.1,1.1,0.3,1.2,0.9c0,0.1,0,0.2,0,0.3v0.6H42v-0.6c-0.1-0.6,0.3-1.1,0.9-1.2
	C43,22.7,43.1,22.7,43.1,22.7z M45.3,20.8h-2.1c-1.6-0.1-3,1.2-3,2.8c0,0.1,0,0.2,0,0.3v3c-0.1,1.6,1.2,3,2.8,3c0.1,0,0.2,0,0.3,0
	h4.7v-2l-4.8,0c-0.5,0.1-1-0.3-1.1-0.8c0-0.1,0-0.2,0-0.2v-0.5h5c0.8,0,1.4-0.6,1.4-1.4c0,0,0,0,0,0v-1.1c0.1-1.6-1.2-3-2.8-3
	C45.5,20.8,45.4,20.8,45.3,20.8z"/>
<path class="st0" d="M69.9,24c0-0.8,0.5-1.4,1.2-1.4h2.1c0.6-0.1,1.1,0.3,1.2,0.9c0,0.1,0,0.2,0,0.3v0.6h-4.5L69.9,24z M73.3,20.8
	h-2.1c-1.6-0.1-3,1.2-3,2.8c0,0.1,0,0.2,0,0.3v3c-0.1,1.6,1.2,3,2.8,3c0.1,0,0.2,0,0.3,0h4.7v-2l-4.8,0c-0.5,0.1-1-0.3-1.1-0.8
	c0-0.1,0-0.2,0-0.2v-0.5h5c0.8,0,1.4-0.6,1.4-1.4c0,0,0,0,0,0v-1.1c0.1-1.6-1.2-3-2.8-3C73.4,20.8,73.4,20.8,73.3,20.8z"/>
<path class="st0" d="M98.4,28h-2.7c-1,0-1.2-0.5-1.2-0.9c0-0.6,0.2-0.8,1-0.9l3.1-0.3c0,0,0.4-0.1,0.4-0.1l0,1.6
	C99,27.8,98.8,28,98.4,28z M97.9,20.8h-4v2h4c0.5-0.1,0.9,0.3,1,0.7c0,0,0,0.1,0,0.1v0.1c0,0.1-0.1,0.2-0.5,0.3l-3,0.3
	c-2.4,0.3-2.7,1.8-2.7,2.8c0,1.5,1.2,2.8,2.8,2.8c0.1,0,0.2,0,0.3,0h2.7c1.3,0.1,2.5-1,2.5-2.3c0-0.1,0-0.2,0-0.2v-3.5
	c0.1-1.6-1.1-3-2.7-3C98.1,20.8,98,20.8,97.9,20.8z"/>
</svg>
