<?xml version="1.0" encoding="UTF-8"?>
<svg id="BL-Logo" xmlns="http://www.w3.org/2000/svg" version="1.1" viewBox="0 0 152.9 30.01">
  <!-- Generator: Adobe Illustrator 30.6.0, SVG Export Plug-In . SVG Version: 2.1.4 Build 109)  -->
  <g>
    <path d="M41.3,20.74V7.95h-.1c-.45.42-2.14.45-2.85.45h-1.24v.1c1.43.88,1.23,2.17,1.23,3.78v5.41c0,2.7-2.65,4.6-4.8,4.6-2.83,0-4-2.01-4-5.24V7.95h-.1c-.45.42-2.14.45-2.86.45h-1.23v.1c1.43.88,1.24,2.17,1.24,3.78v5.39c0,4.94,2.14,7.28,5.97,7.28,2.27,0,4.61-.81,5.77-2.73v2.33h4.18v-.11c-1.43-.81-1.23-2.11-1.23-3.73Z" fill="#1d1d1b"/>
    <path d="M47.78,13.9c.39-2.2,2.01-3.59,4.19-3.59,2.34,0,3.83,1.15,4.19,3.59h-8.38ZM59.56,15.94c.13-4.51-2.89-7.92-7.3-7.92-4.84,0-8.11,3.51-8.11,8.38s3.79,8.64,9.31,8.64c1.52,0,3.09-.24,4.48-.87l1.62-3.29h-.1c-1.49,1.27-3.37,1.87-5.32,1.87-3.67,0-6.43-2.51-6.49-6.81h11.91Z" fill="#1d1d1b"/>
    <path d="M62.14.52c.78,0,2.37-.05,2.84-.52h.1v22.15c.87.24,1.77.42,2.68.42,3.55,0,5.58-2.48,5.58-5.94s-1.58-6.01-4.84-6.01c-1.03,0-1.84.28-2.71.77l1.74-2.98c.74-.28,1.51-.39,2.29-.39,3.67,0,6.8,3.19,6.8,7.98,0,5.48-3.71,9.03-9.58,9.03-2.19,0-4.3-.39-5.89-.63v-.11c1.07-.49.98-1.66.98-2.81V5.39c0-1.62.19-3.88-1.2-4.76v-.1h1.21Z" fill="#1d1d1b"/>
    <path d="M82.39,13.9c.39-2.2,2.01-3.59,4.19-3.59,2.34,0,3.83,1.15,4.19,3.59h-8.38ZM94.17,15.94c.13-4.51-2.89-7.92-7.3-7.92-4.84,0-8.12,3.51-8.12,8.38s3.8,8.64,9.32,8.64c1.53,0,3.09-.24,4.48-.87l1.63-3.29h-.1c-1.5,1.27-3.38,1.87-5.33,1.87-3.67,0-6.43-2.51-6.49-6.81h11.91Z" fill="#1d1d1b"/>
    <path d="M108.69,12.03h-.1c-.94-1.16-2.5-1.72-3.96-1.72-3.15,0-5.42,2.39-5.42,5.73,0,4.04,3.15,6.71,6.75,6.71,1.65,0,3.47-.7,4.74-1.72h.1l-1.69,3.32c-1.36.56-2.86.7-4.29.7-5,0-8.91-3.52-8.91-8.09,0-6.05,4.36-8.93,9.26-8.93,1.17,0,2.37.14,3.51.42v3.59Z" fill="#1d1d1b"/>
    <path d="M55.51,5.12V1.6c-2.13.95-4.1,2.74-5.42,4.47v1.37c3.16-2.13,5.42-2.23,5.42-2.32Z" fill="#1d1d1b" fill-rule="evenodd"/>
    <path d="M12.01,22.62c-4.9,0-8.31-5.53-8.31-10.23,0-.05,0-.48,0-.53.06-4.55,3.01-8.82,8.15-8.82,5.41,0,8.2,5.12,8.25,9.97v.5c0,5.17-3.21,9.1-8.08,9.1ZM28.82,28c-3.62.59-7.1-.55-10.8-4.78,3.57-1.79,5.78-6.26,5.78-10.4,0-.04,0-.47,0-.52-.07-7.1-5.39-11.79-11.75-11.79S.05,5.39,0,12.55c0,.03,0,.45,0,.48,0,6.96,5.16,12.13,11.49,12.13.91,0,1.79-.14,2.66-.35,4.15,3.88,7.84,5.54,11.04,5.15,1.52-.18,3.12-.78,4.08-2.03l-.45.08Z" fill="#1d1d1b"/>
  </g>
  <g>
    <path d="M116.61.53v9.7h15.84V.53h-15.84ZM128.39,6.11c-.19.6-.53.8-.62.8,0,0,.15-.67-.33-1-.45-.32-1.01-.13-1.26.26-.24.36-.28.86-.28.86h.83v.61h-1.66s.04.86.95.78c0,0-.11.68-.95.32,0,0,.04.71-.54,1.07-.58-.36-.53-1.07-.53-1.07-.84.35-.95-.32-.95-.32.91.08.95-.78.95-.78h-1.66s0-.61,0-.61h.82s-.04-.49-.28-.86c-.26-.38-.81-.57-1.27-.26-.48.34-.32,1-.32,1-.1,0-.43-.2-.63-.8-.36-1.15.77-2.25,1.92-1.61.81.45,1.15,1.46,1.15,2.53h.43c-.01.08.11-.8-.07-1.45-.12-.45-.28-.93-.56-1.5-.24-.5-.33-1.34.18-1.97.44-.55.7-.85.81-1.06.12.21.38.52.81,1.06.51.63.42,1.47.18,1.97-.27.57-.43,1.05-.56,1.5-.18.66-.06,1.53-.07,1.45h.44c0-1.07.33-2.08,1.14-2.53,1.15-.63,2.28.47,1.92,1.61Z" fill="#1d1d1b" fill-rule="evenodd"/>
    <path d="M137.06.53v9.7h15.84V.53h-15.84ZM148.83,6.11c-.19.6-.52.8-.62.8,0,0,.15-.67-.32-1-.45-.32-1.01-.13-1.27.26-.24.36-.28.86-.28.86h.83v.61h-1.66s.04.86.96.78c0,0-.11.68-.96.32,0,0,.04.71-.53,1.07-.58-.36-.54-1.07-.54-1.07-.84.35-.95-.32-.95-.32.91.08.95-.78.95-.78h-1.66s0-.61,0-.61h.82s-.04-.49-.28-.86c-.26-.38-.82-.57-1.26-.26-.48.34-.32,1-.32,1-.09,0-.43-.2-.62-.8-.36-1.15.77-2.25,1.92-1.61.81.45,1.14,1.46,1.14,2.53h.44c-.01.08.1-.8-.07-1.45-.13-.45-.28-.93-.56-1.5-.24-.5-.33-1.34.17-1.97.44-.55.7-.85.82-1.06.11.21.37.52.81,1.06.5.63.42,1.47.18,1.97-.28.57-.44,1.05-.56,1.5-.18.66-.06,1.53-.07,1.45h.44c0-1.07.33-2.08,1.14-2.53,1.15-.63,2.28.47,1.92,1.61Z" fill="#1d1d1b" fill-rule="evenodd"/>
  </g>
  <g>
    <path d="M116.61,14.85v9.7h15.84v-9.7h-15.84ZM128.39,20.44c-.19.6-.53.8-.62.8,0,0,.15-.66-.33-1-.45-.32-1.01-.13-1.26.25-.24.36-.28.86-.28.86h.83v.61h-1.66s.04.86.95.78c0,0-.11.68-.95.32,0,0,.04.71-.54,1.07-.58-.36-.53-1.07-.53-1.07-.84.36-.95-.32-.95-.32.91.08.95-.78.95-.78h-1.66v-.61h.82s-.04-.5-.28-.86c-.26-.38-.81-.57-1.27-.25-.48.34-.32,1-.32,1-.1,0-.43-.2-.63-.8-.36-1.14.77-2.25,1.92-1.61.81.45,1.15,1.46,1.15,2.53h.43c-.01.08.11-.8-.07-1.45-.12-.46-.28-.93-.56-1.51-.24-.5-.33-1.34.18-1.97.44-.55.7-.85.81-1.06.12.21.38.52.81,1.06.51.63.42,1.47.18,1.97-.27.58-.43,1.05-.56,1.51-.18.66-.06,1.53-.07,1.45h.44c0-1.07.33-2.08,1.14-2.53,1.15-.64,2.28.47,1.92,1.61Z" fill="#1d1d1b" fill-rule="evenodd"/>
    <path d="M137.06,14.85v9.7h15.84v-9.7h-15.84ZM148.83,20.44c-.19.6-.52.8-.62.8,0,0,.15-.66-.32-1-.45-.32-1.01-.13-1.27.25-.24.36-.28.86-.28.86h.83v.61h-1.66s.04.86.96.78c0,0-.11.68-.96.32,0,0,.04.71-.53,1.07-.58-.36-.54-1.07-.54-1.07-.84.36-.95-.32-.95-.32.91.08.95-.78.95-.78h-1.66v-.61h.82s-.04-.5-.28-.86c-.26-.38-.82-.57-1.26-.25-.48.34-.32,1-.32,1-.09,0-.43-.2-.62-.8-.36-1.14.77-2.25,1.92-1.61.81.45,1.14,1.46,1.14,2.53h.44c-.01.08.1-.8-.07-1.45-.13-.46-.28-.93-.56-1.51-.24-.5-.33-1.34.17-1.97.44-.55.7-.85.82-1.06.11.21.37.52.81,1.06.5.63.42,1.47.18,1.97-.28.58-.44,1.05-.56,1.51-.18.66-.06,1.53-.07,1.45h.44c0-1.07.33-2.08,1.14-2.53,1.15-.64,2.28.47,1.92,1.61Z" fill="#1d1d1b" fill-rule="evenodd"/>
  </g>
</svg>