<?xml version="1.0" encoding="utf-8"?>
<!-- Generator: Adobe Illustrator 26.1.0, SVG Export Plug-In . SVG Version: 6.00 Build 0)  -->
<svg version="1.1" id="Ebene_1" xmlns="http://www.w3.org/2000/svg" xmlns:xlink="http://www.w3.org/1999/xlink" x="0px" y="0px"
	 width="559px" height="267.5px" viewBox="0 0 559 267.5" style="enable-background:new 0 0 559 267.5;" xml:space="preserve">
<style type="text/css">
	.st0{fill:#FFFFFF;}
</style>
<g>
	<path class="st0" d="M135.4,152.5c2.4,0,4.2-0.9,5.5-2.1c2.7-2.4,3.7-6.2,3.7-10.3c0-4.1-1-7.9-3.7-10.3c-1.3-1.2-3.1-2.1-5.5-2.1
		c-2.7,0-4.6,1.1-6,2.5c-2.4,2.4-3.5,6-3.5,9.8c0,3.8,1,7.6,3.4,10C130.8,151.6,132.7,152.5,135.4,152.5z"/>
	<path class="st0" d="M0,267.3h267.3V0H0V267.3z M198.1,127c2.4-2.3,6.2-3.9,10.3-3.9c4.1,0,7.8,1.6,10.2,3.9
		c3.5,3.5,5.1,8,5.1,13.1c0,5.1-1.5,9.8-5.1,13.3c-2.4,2.3-6,3.9-10.2,3.9c-4.1,0-7.9-1.6-10.3-3.9c-3.5-3.5-5.1-8-5.1-13.2
		C193,135,194.6,130.5,198.1,127z M169.9,110h7.8v7.7h-7.8V110z M159.5,151.8h11.8v-23.2h-10.5v-4.6h16v27.9h11.8v4.7h-29.1V151.8z
		 M125.4,126.7c2.1-2,5.3-3.7,9.3-3.7c4.1,0,7.8,1.9,9.6,4.6V110h5.5v46.4h-4.8l-0.4-4.2c-1.9,3.3-6.3,5.1-10,5.1
		c-4,0-7.3-1.6-9.5-3.8c-3.1-3.2-4.7-7.8-4.7-13.3C120.3,134.7,122.1,129.9,125.4,126.7z M103.2,129.4c-1.1-1-2.8-1.9-5.5-1.9
		c-3,0-4.8,0.9-5.9,2c-1,1-1.6,2.1-1.7,3.8h-5.4c0.1-2.8,1.3-5,3-6.7c2.3-2.3,6-3.6,10-3.6c6.3,0,10,2.9,11.6,6.4c0.6,1.5,1,3,1,4.8
		v15.8c0,1.7,0.8,2.2,1.9,2.2c0.6,0,1.4-0.2,1.4-0.2v4.1c-1.2,0.6-2.3,0.8-3.6,0.8c-2.9,0-4.8-2.2-4.8-4.9h-0.1
		c-1.9,3.3-6.2,5.3-10.7,5.3c-7.8,0-11.3-4.9-11.3-9.6c0-4.8,3.3-10.2,11.6-10.6l10.2-0.6v-2.4C104.9,132.5,104.7,130.8,103.2,129.4
		z M43.7,110.9h15.6c5.3,0,9.1,1.5,11.6,4.1c2.2,2.3,3.6,5.3,3.6,9.3c0,4-1.3,6.7-3.5,9c-1.4,1.4-3.3,2.5-5.5,3.2l9.1,20.1h-6.2
		l-8.6-19H49.4v19h-5.7V110.9z"/>
	<path class="st0" d="M88.7,147.3c0,2.9,1.9,5.4,6.5,5.4c2.5,0,5.1-0.8,6.8-2.6c1.9-2,2.9-4.6,2.9-7.3v-1.9l-9,0.5
		C92.4,141.5,88.7,143.2,88.7,147.3z"/>
	<path class="st0" d="M68.6,124.2c0-5.8-3.9-8-9.3-8h-9.9v16h9.9C64.7,132.1,68.6,130,68.6,124.2z"/>
	<path class="st0" d="M208.4,152.5c2.6,0,4.6-1,6-2.3c2.8-2.5,3.7-6.5,3.7-10c0-3.5-0.9-7.5-3.7-10c-1.4-1.3-3.5-2.3-6-2.3
		c-2.6,0-4.6,1-6,2.3c-2.8,2.5-3.7,6.4-3.7,10c0,3.5,0.9,7.6,3.7,10.1C203.7,151.5,205.8,152.5,208.4,152.5z"/>
	<path class="st0" d="M291.6,0.2v267.3H559V0.2H291.6z M404.1,47.4l25.2,37.8l27.4-37.8h58.6L466.5,120h-80.4l-48.3-72.6H404.1z
		 M452.8,220.4l-26.8-40.2L399,220.4h-67.6l50.3-69.4h91.5l46.2,69.4H452.8z"/>
</g>
</svg>
