<?xml version="1.0" encoding="utf-8"?>
<!-- Generator: Adobe Illustrator 27.5.0, SVG Export Plug-In . SVG Version: 6.00 Build 0)  -->
<svg version="1.1" id="Ebene_1" xmlns="http://www.w3.org/2000/svg" xmlns:xlink="http://www.w3.org/1999/xlink" x="0px" y="0px"
	 viewBox="0 0 101.6 70.9" style="enable-background:new 0 0 101.6 70.9;" xml:space="preserve">
<style type="text/css">
	.Grün_x0020_bogenförmig{fill:url(#SVGID_1_);stroke:#FFFFFF;stroke-width:0.25;stroke-miterlimit:1;}
	.st0{fill:#FFFFFF;}
</style>
<linearGradient id="SVGID_1_" gradientUnits="userSpaceOnUse" x1="-20.0503" y1="-32.5986" x2="-19.3432" y2="-33.3057">
	<stop  offset="0" style="stop-color:#259E2E"/>
	<stop  offset="0.9831" style="stop-color:#1C381D"/>
</linearGradient>
<g>
	<polygon class="st0" points="44.2,5.5 48.6,5.5 48.6,9.9 50.2,9.9 50.2,0.1 48.6,0.1 48.6,4.1 44.2,4.1 44.2,0.1 42.6,0.1 
		42.6,9.9 44.2,9.9 	"/>
	<polygon class="st0" points="70.4,8.5 65.6,8.5 65.6,0.1 64,0.1 64,9.9 70.4,9.9 	"/>
	<polygon class="st0" points="78.7,8.5 73.6,8.5 73.6,5.6 78.1,5.6 78.1,4.2 73.6,4.2 73.6,1.5 78.7,1.5 78.7,0.1 72,0.1 72,9.9 
		78.7,9.9 	"/>
	<path class="st0" d="M27.3,8.6h-1.5c-0.8,0-1.4-0.6-1.4-1.4l-1.6,0c0,1.5,1.3,2.8,2.8,2.8h1.9c1.6,0,2.9-1.3,2.9-2.9
		c0-1.5-1.1-2.7-2.6-2.9L25.7,4c-0.6-0.1-1.1-0.6-1.1-1.3c0-0.7,0.6-1.3,1.3-1.3h1.3c0.8,0,1.4,0.6,1.4,1.4l1.6,0
		C30.2,1.3,29,0,27.4,0l-1.8,0C24.2,0,23,1.2,23,2.7c0,1.4,1,2.5,2.4,2.7l2.2,0.2c0.8,0.1,1.3,0.7,1.3,1.5
		C28.9,7.9,28.2,8.6,27.3,8.6z"/>
	<path class="st0" d="M56.1,10h2c1.5,0,2.8-1.3,2.8-2.8V0.1h-1.6v7.1c0,0.8-0.6,1.4-1.4,1.4h-1.6c-0.8,0-1.4-0.6-1.4-1.4l0-7.1h-1.6
		v7.1C53.3,8.7,54.6,10,56.1,10z"/>
	<path class="st0" d="M35.4,10h2c1.5,0,2.8-1.3,2.8-2.8V7.1l-1.6,0v0.1c0,0.8-0.6,1.4-1.4,1.4h-1.6c-0.8,0-1.4-0.6-1.4-1.4V2.8
		c0-0.8,0.6-1.4,1.4-1.4h1.5c0.8,0,1.4,0.6,1.4,1.4h1.6c0-1.5-1.3-2.8-2.8-2.8h-1.9c-1.5,0-2.8,1.3-2.8,2.8v4.4
		C32.6,8.7,33.9,10,35.4,10z"/>
	<rect x="18.2" y="11.8" class="st0" width="65" height="4.4"/>
	<rect x="32.8" y="30" class="st0" width="35.9" height="4.4"/>
	<rect x="24.2" y="66.5" class="st0" width="53.2" height="4.4"/>
	<rect y="48.3" class="st0" width="101.6" height="4.4"/>
	<polygon class="st0" points="44,19.7 44,18.3 37.6,18.3 37.6,28.1 39.2,28.1 39.2,23.9 43.4,23.9 43.4,22.5 39.2,22.5 39.2,19.7 	
		"/>
	<path class="st0" d="M63.9,21.1c0-1.5-1.2-2.8-2.8-2.8h-4.3v9.8h1.6v-4.2l2.1,0l2.1,4.2h1.8l-2.3-4.4
		C63.1,23.3,63.9,22.3,63.9,21.1z M60.9,22.5h-2.5v-2.8l2.5,0c0.8,0,1.4,0.6,1.4,1.4C62.3,21.9,61.7,22.5,60.9,22.5z"/>
	<path class="st0" d="M47.8,25.5l0-7.1h-1.6v7.1c0,1.5,1.3,2.8,2.8,2.8h2c1.5,0,2.8-1.3,2.8-2.8v-7.1h-1.6v7.1
		c0,0.8-0.6,1.4-1.4,1.4h-1.6C48.4,26.9,47.8,26.3,47.8,25.5z"/>
	<rect x="48.5" y="17.3" class="st0" width="1.1" height="2.3"/>
	<rect x="50.4" y="17.3" class="st0" width="1.1" height="2.3"/>
	<polygon class="st0" points="37.8,46.3 37.8,37.9 40.6,37.9 40.6,36.5 33.4,36.5 33.4,37.9 36.2,37.9 36.2,46.3 	"/>
	<polygon class="st0" points="62.5,46.3 62.5,37.9 65.2,37.9 65.2,36.5 58,36.5 58,37.9 60.8,37.9 60.8,46.3 	"/>
	<path class="st0" d="M7.3,46.3h2.3c0.6,0,1.1-0.4,1.3-0.9v0.9h1.5V41H9.3v1.3h1.6v1.2c0,0.8-0.6,1.4-1.4,1.4h-2
		c-0.8,0-1.4-0.6-1.4-1.4v-4.3c0-0.8,0.6-1.4,1.4-1.4h1.8c0.8,0,1.4,0.6,1.4,1.4h1.6c0-1.5-1.3-2.8-2.8-2.8H7.3
		c-1.5,0-2.8,1.3-2.8,2.8v4.3C4.5,45.1,5.8,46.3,7.3,46.3z"/>
	<path class="st0" d="M91.5,46.3h2.3c0.6,0,1.1-0.4,1.3-0.9v0.9h1.5l0-5.4h-3.1v1.3h1.6v1.2c0,0.8-0.6,1.4-1.4,1.4h-2
		c-0.8,0-1.4-0.6-1.4-1.4v-4.3c0-0.8,0.6-1.4,1.4-1.4h1.8c0.8,0,1.4,0.6,1.4,1.4h1.6c0-1.5-1.3-2.8-2.8-2.8h-2.2
		c-1.5,0-2.8,1.3-2.8,2.8v4.3C88.7,45.1,90,46.3,91.5,46.3z"/>
	<polygon class="st0" points="80,36.5 77.9,36.5 77.9,46.3 79.5,46.3 79.4,38.4 83.8,46.3 85.9,46.3 85.9,36.5 84.3,36.5 84.4,44.5 
			"/>
	<polygon class="st0" points="22.2,44.9 17.1,44.9 17.1,42 21.6,42 21.6,40.6 17.1,40.6 17.1,37.9 22.2,37.9 22.2,36.5 15.5,36.5 
		15.5,46.3 22.2,46.3 	"/>
	<path class="st0" d="M29.1,45h-1.5c-0.8,0-1.4-0.6-1.4-1.4h-1.6c0,1.5,1.3,2.8,2.8,2.8h1.9c1.6,0,2.9-1.3,2.9-2.9
		c0-1.5-1.1-2.7-2.6-2.9l-2.2-0.2c-0.6-0.1-1.1-0.6-1.1-1.3c0-0.7,0.6-1.3,1.3-1.3h1.3c0.8,0,1.4,0.6,1.4,1.4l1.6,0
		c0-1.5-1.3-2.8-2.8-2.8h-1.8c-1.5,0-2.7,1.2-2.7,2.7c0,1.4,1,2.5,2.4,2.7l2.2,0.2c0.8,0.1,1.3,0.7,1.3,1.5
		C30.6,44.4,29.9,45,29.1,45z"/>
	<polygon class="st0" points="53.3,36.5 51.7,36.5 51.7,46.3 58.1,46.3 58.1,44.9 53.3,44.9 	"/>
	<path class="st0" d="M40.9,46.3h1.7l0.7-2h3.9l0.7,2h1.7l-3.4-9.8h-1.8L40.9,46.3z M45.2,38.4l1.6,4.6h-3.2L45.2,38.4L45.2,38.4z"
		/>
	<path class="st0" d="M70,46.4h2c1.5,0,2.8-1.3,2.8-2.8v-7.1h-1.6v7.1c0,0.8-0.6,1.4-1.4,1.4h-1.6c-0.8,0-1.4-0.6-1.4-1.4l0-7.1
		h-1.6v7.1C67.2,45.2,68.5,46.4,70,46.4z"/>
	<path class="st0" d="M43.8,62.5l0.7,2h1.7l-3.4-9.8h-1.8l-3.4,9.8h1.7l0.7-2H43.8z M41.8,56.7L41.8,56.7l1.6,4.6h-3.2L41.8,56.7z"
		/>
	<path class="st0" d="M36,57.3c0-1.4-1.2-2.6-2.6-2.6H29v9.8h4.7c1.5,0,2.7-1.2,2.7-2.8c0-1-0.6-2-1.4-2.4
		C35.6,58.9,36,58.2,36,57.3z M30.6,56.1h2.6c0.7,0,1.3,0.6,1.3,1.3c0,0.7-0.6,1.3-1.3,1.3h-2.6V56.1z M33.3,63.2h-2.7l0-3h2.7
		c0.8,0,1.5,0.7,1.5,1.5C34.8,62.5,34.1,63.2,33.3,63.2z"/>
	<path class="st0" d="M51.7,63.2h-1.5c-0.8,0-1.4-0.6-1.4-1.4l-1.6,0c0,1.5,1.3,2.8,2.8,2.8h1.9c1.6,0,2.9-1.3,2.9-2.9
		c0-1.5-1.1-2.7-2.6-2.9l-2.2-0.2C49.4,58.6,49,58,49,57.4c0-0.7,0.6-1.3,1.3-1.3h1.3c0.8,0,1.4,0.6,1.4,1.4h1.6
		c0-1.5-1.3-2.8-2.8-2.8l-1.8,0c-1.5,0-2.7,1.2-2.7,2.7c0,1.4,1,2.5,2.4,2.7l2.2,0.2c0.8,0.1,1.3,0.7,1.3,1.5
		C53.2,62.6,52.6,63.2,51.7,63.2z"/>
	<polygon class="st0" points="64.1,56.1 64.1,54.7 57.4,54.7 57.4,64.6 64.1,64.6 64.1,63.2 59,63.2 59,60.3 63.5,60.3 63.5,58.9 
		59,58.9 59,56.1 	"/>
	<polygon class="st0" points="68.5,63.2 68.5,54.7 66.9,54.7 66.9,64.6 73.3,64.6 73.3,63.2 	"/>
</g>
</svg>
