<?xml version="1.0" encoding="UTF-8"?>
<svg id="BL-Logo" xmlns="http://www.w3.org/2000/svg" version="1.1" viewBox="0 0 152.9 64.3">
  <!-- Generator: Adobe Illustrator 30.2.1, SVG Export Plug-In . SVG Version: 2.1.1 Build 1)  -->
  <path d="M71.78,10.67c0-1.54-.84-2.88-2.35-3.43,1.21-.55,1.91-1.61,1.91-2.97,0-2.75-1.96-3.96-4.64-3.96h-5.28v14.69h5.5c2.86,0,4.86-1.56,4.86-4.33ZM63.62,2.29h3.12c1.43,0,2.33.75,2.33,2.02s-.9,2.02-2.33,2.02h-3.12V2.29ZM63.62,13.02v-4.8h3.23c1.65,0,2.66.92,2.66,2.4s-1.01,2.4-2.66,2.4h-3.23Z"/>
  <path d="M77.64,10.95h4.51l1.08,4.05h2.29L81.42.3h-2.93l-4.1,14.7h2.18l1.07-4.05ZM79.88,2.92l1.81,6.25h-3.63l1.82-6.25Z"/>
  <path d="M92.76,13.29c-1.45,0-2.33-.81-2.42-2.24h-2.2c.07,1.32.48,2.35,1.25,3.08s1.96,1.1,3.34,1.1c1.52,0,2.77-.48,3.61-1.3.75-.73,1.14-1.72,1.14-2.88,0-.59-.11-1.17-.33-1.67-.59-1.34-2.05-2.05-3.37-2.66-1.43-.66-2.31-1.01-2.75-1.61-.29-.35-.35-.75-.35-1.17,0-1.17.95-1.94,2.18-1.94,1.3,0,2.09.7,2.22,1.96h2.18c-.04-1.1-.4-1.98-1.03-2.64-.77-.79-1.94-1.23-3.32-1.23s-2.55.44-3.37,1.25c-.7.7-1.1,1.72-1.1,2.75,0,.68.13,1.3.42,1.83.59,1.08,1.63,1.61,2.88,2.13,1.47.62,2.66,1.12,3.19,2.09.18.31.26.64.26.99,0,1.19-.96,2.16-2.43,2.16Z"/>
  <polygon points="110.44 13.02 103.55 13.02 103.55 8.31 109.27 8.31 109.27 6.31 103.55 6.31 103.55 2.29 110.19 2.29 110.19 .31 101.37 .31 101.37 15 110.44 15 110.44 13.02"/>
  <polygon points="124.52 13.02 116.98 13.02 116.98 .31 114.78 .31 114.78 15 124.52 15 124.52 13.02"/>
  <polygon points="2.2 19.84 0 19.84 0 34.53 9.75 34.53 9.75 32.55 2.2 32.55 2.2 19.84"/>
  <path d="M15.9,19.84l-4.1,14.7h2.18l1.08-4.05h4.51l1.08,4.05h2.29l-4.1-14.7s-2.94,0-2.94,0ZM15.47,28.7l1.81-6.25,1.81,6.25h-3.62Z"/>
  <polygon points="33.59 29.83 28.56 19.84 26.14 19.84 26.14 34.53 28.23 34.53 28.23 24.15 33.44 34.53 35.68 34.53 35.68 19.84 33.59 19.84 33.59 29.83"/>
  <path d="M56.93,32.82c-1.45,0-2.33-.81-2.42-2.24h-2.2c.07,1.32.48,2.35,1.25,3.08s1.96,1.1,3.34,1.1c1.52,0,2.77-.48,3.61-1.3.75-.73,1.14-1.72,1.14-2.88,0-.59-.11-1.17-.33-1.67-.59-1.34-2.05-2.05-3.37-2.66-1.43-.66-2.31-1.01-2.75-1.61-.29-.35-.35-.75-.35-1.17,0-1.17.95-1.94,2.18-1.94,1.3,0,2.09.7,2.22,1.96h2.18c-.04-1.1-.4-1.98-1.03-2.64-.77-.79-1.94-1.23-3.32-1.23s-2.55.44-3.37,1.25c-.7.7-1.1,1.72-1.1,2.75,0,.68.13,1.3.42,1.83.59,1.08,1.63,1.61,2.88,2.13,1.47.62,2.66,1.12,3.19,2.09.18.31.26.64.26.99.02,1.19-.95,2.16-2.43,2.16Z"/>
  <polygon points="86.99 34.53 86.99 19.84 84.79 19.84 84.79 25.84 80 25.84 80 19.84 77.8 19.84 77.8 34.53 80 34.53 80 27.85 84.79 27.85 84.79 34.53 86.99 34.53"/>
  <path d="M94.3,19.84l-4.1,14.7h2.18l1.08-4.05h4.51l1.08,4.05h2.29l-4.1-14.7h-2.94ZM93.87,28.7l1.81-6.25,1.81,6.25s-3.62,0-3.62,0Z"/>
  <polygon points="112.23 21.82 112.23 19.84 104.53 19.84 104.53 34.53 106.73 34.53 106.73 28.02 111.2 28.02 111.2 26.04 106.73 26.04 106.73 21.82 112.23 21.82"/>
  <polygon points="114.59 21.82 118.44 21.82 118.44 34.53 120.64 34.53 120.64 21.82 124.53 21.82 124.53 19.84 114.59 19.84 114.59 21.82"/>
  <path d="M64.76,27.17c0,5.04,1.69,7.59,4.97,7.59,2.83,0,4.35-1.49,4.43-4.19h-2.22c-.05,1.43-.8,2.25-2.19,2.18-1.89-.09-2.71-2.09-2.71-5.59s.81-5.54,2.71-5.53c1.38.01,1.96.7,2.05,1.83h2.19c-.05-2.54-1.67-3.85-4.2-3.85-3.32.01-5.03,2.52-5.03,7.56Z"/>
  <path d="M49.45,27.19c0-5.06-1.92-7.36-6.99-7.35h-2.2v14.7h2.2c5.06,0,6.99-2.27,6.99-7.35ZM42.46,21.86c3.63,0,4.85,1.01,4.85,5.32s-1.19,5.32-4.85,5.32v-10.64Z"/>
  <polygon points="133.61 19.84 132.43 35.84 135.84 31.11 138.07 35.83 140.31 31.12 143.71 35.83 141.86 19.84 133.61 19.84"/>
  <path d="M151.38,6.72c-.05,0-.1.01-.16.02-.15-.61-.42-1.22-.79-1.78.35-.28.57-.7.57-1.18,0-.84-.68-1.52-1.52-1.52-.47,0-.89.22-1.17.56-.52-.35-1.09-.65-1.72-.88.04-.13.06-.26.06-.41,0-.84-.68-1.52-1.52-1.52-.79,0-1.44.61-1.51,1.39h-.06c-.58,0-1.21.06-1.86.2-.19-.63-.76-1.09-1.45-1.09-.84,0-1.52.68-1.52,1.52,0,.26.07.5.18.71-.52.33-1.02.74-1.49,1.23-.26-.22-.6-.35-.96-.35-.84,0-1.52.68-1.52,1.52,0,.57.31,1.05.77,1.32-.27.54-.51,1.13-.72,1.78-.13-.04-.27-.06-.41-.06-.84,0-1.52.68-1.52,1.52,0,.75.55,1.37,1.27,1.5-.05.38-.11.75-.15,1.16-.08.83-.13,1.71-.2,2.67h7.33c-.11-.94-.2-1.75-.31-2.66-.3-2.59,0-4.61,1.26-5.67.58-.49,1.41-.94,2.43-.94,1.89,0,3.11,1.53,3.11,3.05,0,1.72-1.34,3.02-2.86,3.1,0,0-.15-.01-.1.11.17.44,1.33,1.59,3.32.94,0,0,.08-.02.21-.07.2.37.59.64,1.04.64.66,0,1.2-.54,1.2-1.2,0-.32-.13-.62-.34-.83.35-.44.67-1,.87-1.71.08.01.16.02.24.02.84,0,1.52-.68,1.52-1.52,0-.89-.68-1.57-1.52-1.57h0Z"/>
  <polygon points="141.47 16.43 127.36 16.43 127.36 18.41 141.7 18.41 141.47 16.43"/>
  <path d="M104.05,53.6c-1.67,0-2.09,1.22-2.09,3.17s.42,3.19,2.09,3.19,2.09-1.22,2.09-3.19-.42-3.17-2.09-3.17Z"/>
  <path d="M120.65,50.6l-1.3-.51c-1.04-.4-2.46-.86-4.23-.86s-3.27.46-4.41,1.33c-.43.33-.79.71-1.09,1.12-1.19-1.59-3.08-2.45-5.57-2.45-4.45,0-7,2.75-7,7.54,0,.29.01.58.03.85h-1.43v-8.21h-6.97v.77l-.21-.08c-1.04-.4-2.46-.86-4.23-.86s-3.27.46-4.41,1.33c-.11.08-.05.04-.16.12l-.17-.07-1.3-.51c-1.04-.4-2.46-.86-4.23-.86s-3.27.46-4.41,1.33c-.11.08-.22.18-.32.27v-1.42h-11.95l-.21,1.81-.06.49h-2.9l-.06-.49-.21-1.81h-6.89l.06.49c-.97-.34-2.21-.67-3.69-.67-1.75,0-3.27.46-4.41,1.33-1.23.94-2.02,2.35-2.04,3.84v7.78l1.02.59c1.76,1.04,3.54,1.54,5.43,1.54,2.45,0,4.17-.78,5.23-1.9l.22,1.72h5.23l.59-1.03.97-1.69.97,1.69.59,1.03h12.1v-.98c1.53.78,3.09,1.16,4.73,1.16,2.17,0,3.77-.61,4.84-1.54,1.76,1.03,3.53,1.54,5.42,1.54s3.39-.48,4.44-1.22v1.04h11.46v-.78c1.06.63,2.38.96,3.92.96,2.17,0,3.88-.65,5.07-1.87l.56.33c1.76,1.04,3.53,1.54,5.43,1.54,4.53,0,6.56-2.65,6.56-5.27,0-1.29-.41-2.27-1.03-3.04v-5.42h.02ZM43.35,62.25c-1.97,0-3.4-.67-4.39-1.25v-2.8c1.54,1.08,3.43,1.63,4.37,1.63.8,0,1.42-.18,1.42-.8s-.46-.76-1.7-1.13c-2-.6-4-1.25-4-3.5,0-1.74,1.59-3.12,4.3-3.12,1.29,0,2.39.3,3.48.72v2.5c-1.24-.5-2.3-.78-3.47-.78-.85,0-1.22.21-1.22.65s.48.62,1.45.94c2,.66,4.27,1.42,4.27,3.71,0,1.89-1.67,3.23-4.51,3.23ZM60.55,62.08h-2.23l-2.74-4.8-2.75,4.8h-2.23l-1.31-10.62h2.75l.67,5.8,2-3.51h1.74l2,3.51.67-5.8h2.74s-1.31,10.62-1.31,10.62ZM67.19,62.08h-2.87v-10.62h2.87v10.62ZM73.97,62.25c-1.96,0-3.4-.67-4.39-1.25v-2.8c1.54,1.08,3.43,1.63,4.37,1.63.79,0,1.41-.18,1.41-.8s-.46-.76-1.7-1.13c-2-.6-4-1.25-4-3.5,0-1.74,1.59-3.12,4.3-3.12,1.29,0,2.39.3,3.49.72v2.5c-1.24-.5-2.3-.78-3.47-.78-.85,0-1.22.21-1.22.65s.48.62,1.45.94c2,.66,4.27,1.42,4.27,3.71,0,1.89-1.67,3.23-4.51,3.23ZM84.23,62.25c-1.96,0-3.4-.67-4.39-1.25v-2.8c1.54,1.08,3.43,1.63,4.37,1.63.8,0,1.42-.18,1.42-.8s-.46-.76-1.7-1.13c-2-.6-4-1.25-4-3.5,0-1.74,1.59-3.12,4.3-3.12,1.29,0,2.39.3,3.49.72v2.5c-1.24-.5-2.3-.78-3.47-.78-.85,0-1.22.21-1.22.65s.48.62,1.45.94c2,.66,4.26,1.42,4.26,3.71,0,1.89-1.66,3.23-4.51,3.23ZM98.09,62.08h-7.36v-10.62h2.87v8.21h4.5v2.41h-.01ZM104.05,62.25c-3.66,0-4.95-2.23-4.95-5.49s1.29-5.49,4.95-5.49,4.96,2.23,4.96,5.49-1.29,5.49-4.96,5.49ZM115.12,62.25c-1.96,0-3.4-.67-4.39-1.25v-2.8c1.54,1.08,3.43,1.63,4.37,1.63.8,0,1.42-.18,1.42-.8s-.46-.76-1.7-1.13c-2-.6-4-1.25-4-3.5,0-1.74,1.59-3.12,4.3-3.12,1.29,0,2.39.3,3.49.72v2.5c-1.24-.5-2.3-.78-3.47-.78-.85,0-1.22.21-1.22.65s.48.62,1.45.94c2,.66,4.26,1.42,4.26,3.71,0,1.89-1.67,3.23-4.51,3.23Z"/>
</svg>