<?xml version="1.0" encoding="UTF-8"?>
<svg id="logo" xmlns="http://www.w3.org/2000/svg" version="1.1" viewBox="0 0 172.99 20.02">
  <!-- Generator: Adobe Illustrator 30.2.1, SVG Export Plug-In . SVG Version: 2.1.1 Build 1)  -->
  <g id="Gruppe_1">
    <path id="Pfad_1" d="M8.72,11.08c0,2.22-1.93,3.29-4.29,3.29S0,13.01,0,10.44h2.43c0,1.43.86,1.93,2.07,1.93,1,0,1.79-.36,1.79-1.29,0-1-1.07-1.07-3.36-2-1.5-.5-2.57-1.08-2.57-2.93,0-2.07,1.86-3.14,4.08-3.14,2.14-.15,3.99,1.46,4.14,3.6v.04h-2.5c.09-.82-.5-1.56-1.33-1.65-.13-.01-.26-.01-.39,0-.86,0-1.57.43-1.57,1.14,0,.93,1,1.07,3,1.79,1.5.64,2.93,1.14,2.93,3.14"/>
  </g>
  <path id="Pfad_2" d="M18.44,6l-2.86,8.08h-1.64L9.72,3.29h2.72l2.36,6.86,2.43-6.86h2.5l2.43,6.86,2.36-6.86h2.72l-4.22,10.79h-1.72l-2.86-8.08Z"/>
  <g id="Gruppe_2">
    <path id="Pfad_3" d="M29.45,3.29h2.5v10.79h-2.5V3.29ZM30.67,16.3c1.02,0,1.85.81,1.86,1.83v.03c.02,1.03-.79,1.88-1.82,1.9s-1.88-.79-1.9-1.82v-.09c0-1.02.81-1.85,1.83-1.86h.03"/>
    <path id="Pfad_4" d="M43.46,11.08c0,2.22-1.93,3.29-4.29,3.29s-4.43-1.36-4.43-3.93h2.43c0,1.43.86,1.93,2.07,1.93,1,0,1.79-.36,1.79-1.29,0-1-1.07-1.07-3.36-2-1.5-.57-2.57-1.14-2.57-3,0-2.07,1.86-3.14,4.08-3.14,2.14-.15,3.99,1.46,4.14,3.6v.04h-2.43c.09-.82-.5-1.57-1.32-1.66-.13-.01-.26-.01-.39,0-.86,0-1.57.43-1.57,1.22,0,.93,1,1.07,3,1.79,1.43.64,2.86,1.14,2.86,3.14"/>
    <path id="Pfad_5" d="M54.11,11.08c0,2.22-1.93,3.29-4.29,3.29s-4.43-1.36-4.43-3.93h2.43c0,1.43.86,1.93,2.07,1.93,1,0,1.79-.36,1.79-1.29,0-1-1.07-1.07-3.36-2-1.5-.5-2.57-1.07-2.57-2.93,0-2.07,1.86-3.14,4.07-3.14,2.14-.15,3.99,1.46,4.14,3.6v.04h-2.5c.09-.82-.5-1.56-1.33-1.66-.13-.01-.26-.01-.39,0-.86,0-1.57.43-1.57,1.22,0,.93,1,1.07,3,1.79,1.5.57,2.93,1.07,2.93,3.07"/>
    <path id="Pfad_6" d="M66.62,3.29v10.79h-2.5v-1.5c-.75,1.19-2.09,1.88-3.5,1.79-1.26.09-2.49-.45-3.29-1.43-.55-.98-.8-2.1-.71-3.22V3.29h2.5v5.58c0,1.86.5,3.29,2.36,3.29s2.57-1.43,2.57-3.29V3.29h2.57Z"/>
    <path id="Pfad_7" d="M69.98,3.29h2.5v1.5c.75-1.19,2.09-1.88,3.5-1.79,1.25-.11,2.46.43,3.22,1.43.55.98.8,2.1.71,3.22v6.43h-2.5v-5.58c0-1.86-.5-3.29-2.36-3.29s-2.57,1.43-2.57,3.29v5.58h-2.5V3.29Z"/>
    <path id="Pfad_8" d="M83.14,3.29h2.5v10.79h-2.5V3.29ZM84.35,16.3c1.02,0,1.85.81,1.86,1.83v.03c.02,1.03-.79,1.88-1.82,1.9s-1.88-.79-1.9-1.82v-.09c0-1.02.81-1.85,1.83-1.86h.03"/>
  </g>
  <path id="Pfad_9" d="M90.43,3.29l2.93,7.15,3.07-7.15h2.72l-4.93,10.79h-1.72l-4.79-10.79h2.72Z"/>
  <g id="Gruppe_3">
    <path id="Pfad_10" d="M102.08,7.58h5.29c.03-1.32-1.01-2.41-2.33-2.44-.1,0-.21,0-.31.01-1.28-.17-2.46.74-2.63,2.03-.02.13-.02.27-.02.4M102.08,9.44c-.15,1.4.86,2.65,2.26,2.8.2.02.4.02.6,0,1.01.14,1.97-.46,2.29-1.43h2.57c-.36,1.86-2.07,3.5-4.86,3.5-3.65,0-5.43-2.72-5.43-5.72,0-3.22,1.93-5.72,5.36-5.72,2.71-.06,4.94,2.09,5,4.8v.06c0,.53-.04,1.06-.14,1.57h-7.65s0,.14,0,.14Z"/>
    <path id="Pfad_11" d="M119.52,5.64c-.33-.08-.66-.13-1-.14-2.15,0-3.36,1.22-3.36,3.93v4.65h-2.5V3.29h2.5v1.72c.72-1.16,1.99-1.86,3.36-1.86.34,0,.67.05,1,.14v2.36h0Z"/>
    <path id="Pfad_12" d="M129.24,11.08c0,2.22-1.93,3.29-4.29,3.29s-4.43-1.36-4.43-3.93h2.43c0,1.43.86,1.93,2.07,1.93,1,0,1.79-.36,1.79-1.29,0-1-1.07-1.07-3.36-2-1.5-.57-2.57-1.14-2.57-3,0-2.07,1.86-3.14,4.07-3.14,2.14-.15,3.99,1.46,4.14,3.6v.04h-2.43c.09-.82-.5-1.57-1.32-1.66-.13-.01-.26-.01-.39,0-.86,0-1.57.43-1.57,1.22,0,.93,1,1.07,3,1.79,1.43.64,2.86,1.14,2.86,3.14"/>
    <path id="Pfad_13" d="M131.89,3.29h2.5v10.79h-2.5V3.29ZM133.18,16.3c1.02,0,1.85.81,1.86,1.83v.03c-.02,1.03-.88,1.84-1.9,1.82-.99-.02-1.79-.82-1.82-1.82-.03-.99.75-1.83,1.74-1.86h.12"/>
    <path id="Pfad_14" d="M143.97,14.08c-.62.09-1.24.14-1.86.14-1.21,0-3.5-.14-3.5-3.79v-5h-1.86v-2.15h1.86V0h2.5v3.29h2.5v2.14h-2.5v4.43c0,1.86.57,2.15,1.57,2.15.43,0,1-.07,1.29-.07,0,0,0,2.14,0,2.14Z"/>
    <path id="Pfad_15" d="M146.76,3.29h2.5v10.79h-2.5V3.29ZM147.97,16.3c1.02,0,1.85.81,1.86,1.83v.03c.02,1.03-.79,1.88-1.82,1.9-1.03.02-1.88-.79-1.9-1.82v-.09c0-1.02.81-1.85,1.83-1.86h.03"/>
    <path id="Pfad_16" d="M154.62,7.58h5.29c.03-1.32-1.01-2.41-2.33-2.44-.1,0-.21,0-.31.01-1.26-.19-2.44.69-2.62,1.95-.02.16-.03.32-.02.48M154.55,9.44c-.15,1.4.86,2.65,2.26,2.8.2.02.4.02.6,0,1.01.14,1.97-.46,2.29-1.43h2.57c-.36,1.86-2.07,3.5-4.86,3.5-3.65,0-5.43-2.72-5.43-5.72,0-3.22,1.93-5.72,5.36-5.72,2.71-.06,4.94,2.09,5,4.8v.06c0,.53-.04,1.06-.14,1.57h-7.65v.14h0Z"/>
    <path id="Pfad_17" d="M172.99,11.08c0,2.22-1.93,3.29-4.29,3.29s-4.43-1.36-4.43-3.93h2.43c0,1.43.86,1.93,2.07,1.93,1,0,1.79-.36,1.79-1.29,0-1-1.07-1.07-3.36-2-1.5-.57-2.57-1.14-2.57-3,0-2.07,1.86-3.14,4.07-3.14,2.14-.15,3.99,1.46,4.14,3.6v.04h-2.43c.09-.82-.5-1.57-1.32-1.66-.13-.01-.26-.01-.39,0-.86,0-1.57.43-1.57,1.22,0,.93,1,1.07,3,1.79,1.43.64,2.86,1.14,2.86,3.14"/>
  </g>
</svg>