<?xml version="1.0" encoding="UTF-8"?>
<svg id="Ebene_1" xmlns="http://www.w3.org/2000/svg" version="1.1" viewBox="0 0 435.57 209.11">
  <!-- Generator: Adobe Illustrator 30.2.1, SVG Export Plug-In . SVG Version: 2.1.1 Build 1)  -->
  <rect x="274.43" y="128.11" width="13.4" height="6.82"/>
  <polygon points="305.26 134.82 320.12 134.82 320.12 128.8 305.26 128.8 305.26 120.37 322.47 120.37 322.47 114.35 298.07 114.35 298.07 149.94 305.26 149.94 305.26 134.82"/>
  <path d="M350.44,136.98c0-3.87-1.25-7.07-3.74-9.6-2.49-2.53-5.69-3.8-9.59-3.8-2.52,0-4.81.56-6.86,1.67-2.05,1.12-3.63,2.74-4.75,4.86s-1.67,4.31-1.67,6.58c0,2.96.56,5.47,1.67,7.54,1.12,2.06,2.75,3.63,4.89,4.7,2.14,1.07,4.4,1.6,6.76,1.6,3.82,0,6.99-1.28,9.5-3.85,2.53-2.57,3.79-5.8,3.79-9.7h0ZM341.62,142.93c-1.21,1.36-2.7,2.04-4.48,2.04s-3.28-.68-4.49-2.04-1.82-3.32-1.82-5.88.61-4.52,1.82-5.88c1.21-1.36,2.71-2.04,4.49-2.04s3.27.68,4.48,2.04c1.21,1.36,1.81,3.3,1.81,5.83s-.61,4.57-1.81,5.93h0Z"/>
  <path d="M369.51,129.48c.66.45,1.13,1.09,1.42,1.91s.44,2.62.44,5.4v13.16h6.82v-16.02c0-1.99-.13-3.52-.38-4.59-.25-1.07-.7-2.02-1.33-2.87-.64-.84-1.58-1.53-2.83-2.08-1.25-.54-2.62-.81-4.13-.81-3.41,0-6.25,1.46-8.5,4.37v-3.79h-6.34v25.78h6.82v-11.68c0-2.88.17-4.86.52-5.92.35-1.07.99-1.93,1.93-2.57.94-.65,2-.97,3.18-.97.94,0,1.73.23,2.38.68h0Z"/>
  <path d="M401.18,146.16v3.79h6.34v-35.59h-6.82v12.82c-2.1-2.4-4.6-3.59-7.48-3.59-3.14,0-5.74,1.14-7.79,3.41-2.06,2.27-3.08,5.6-3.08,9.97s1.06,7.6,3.17,9.99c2.11,2.39,4.65,3.58,7.61,3.58,1.46,0,2.9-.36,4.33-1.08,1.42-.73,2.66-1.83,3.72-3.3h0ZM390.45,142.47c-.76-1.23-1.14-3.22-1.14-5.97,0-2.56.55-4.48,1.64-5.77,1.09-1.29,2.45-1.93,4.07-1.93s3.04.65,4.1,1.95c1.07,1.3,1.6,3.44,1.6,6.4,0,2.65-.55,4.65-1.65,5.98-1.1,1.34-2.44,2-4.01,2-1.98,0-3.51-.88-4.61-2.66h0Z"/>
  <path d="M433.43,136.81c-1.44-1.2-3.98-2.21-7.61-3.04-3.63-.83-5.76-1.46-6.37-1.92-.45-.34-.68-.75-.68-1.24,0-.57.26-1.03.78-1.38.78-.5,2.06-.75,3.86-.75,1.42,0,2.52.27,3.29.8.77.53,1.29,1.3,1.57,2.31l6.43-1.19c-.65-2.25-1.83-3.95-3.54-5.1-1.72-1.15-4.34-1.72-7.87-1.72-3.71,0-6.44.76-8.21,2.28-1.76,1.52-2.65,3.4-2.65,5.63,0,2.48,1.02,4.41,3.06,5.8,1.47,1,4.96,2.11,10.46,3.33,1.18.28,1.94.57,2.28.9.32.34.49.77.49,1.29,0,.76-.3,1.37-.9,1.82-.89.65-2.22.97-3.98.97-1.6,0-2.85-.34-3.74-1.03-.89-.69-1.48-1.7-1.77-3.02l-6.85,1.04c.63,2.44,1.97,4.38,4.02,5.8s4.83,2.14,8.34,2.14c3.87,0,6.79-.85,8.76-2.55s2.96-3.73,2.96-6.09c.01-2.17-.7-3.87-2.13-5.08h0Z"/>
  <path d="M153.2,175.93c1.54-.7,2.76-1.74,3.65-3.13.9-1.39,1.35-2.92,1.35-4.59,0-1.54-.36-2.93-1.09-4.16-.73-1.24-1.64-2.23-2.73-2.97s-2.33-1.23-3.71-1.47c-1.38-.23-3.48-.35-6.3-.35h-14.23v35.59h12.11c4.58-.03,7.47-.11,8.67-.24,1.91-.21,3.52-.77,4.82-1.69s2.33-2.14,3.08-3.67,1.13-3.1,1.13-4.72c0-2.05-.58-3.84-1.75-5.37-1.16-1.52-2.83-2.6-5-3.23h0ZM137.33,165.18h4.13c3.38,0,5.43.04,6.14.12,1.2.15,2.1.56,2.71,1.25s.91,1.58.91,2.68-.35,2.08-1.06,2.78-1.67,1.13-2.9,1.27c-.68.08-2.42.12-5.22.12h-4.71v-8.22h0ZM151.52,187.21c-.67.75-1.54,1.23-2.61,1.42-.7.15-2.34.22-4.93.22h-6.65v-9.52h5.8c3.27,0,5.39.17,6.37.51s1.73.88,2.25,1.63c.52.74.78,1.65.78,2.72,0,1.26-.34,2.27-1.01,3.02h0Z"/>
  <path d="M186.23,186.37l.07-7.96c0-2.96-.3-5-.91-6.11s-1.66-2.02-3.14-2.74c-1.49-.72-3.75-1.08-6.8-1.08-3.35,0-5.88.6-7.57,1.8-1.7,1.2-2.9,3.04-3.59,5.54l6.19,1.12c.42-1.2.97-2.04,1.65-2.51.68-.48,1.63-.72,2.84-.72,1.8,0,3.02.28,3.67.84s.97,1.49.97,2.8v.68c-1.23.52-3.44,1.08-6.63,1.67-2.36.45-4.17.98-5.43,1.59-1.25.61-2.23,1.48-2.93,2.62s-1.04,2.44-1.04,3.9c0,2.2.76,4.02,2.29,5.46s3.62,2.16,6.28,2.16c1.51,0,2.92-.28,4.25-.85s2.57-1.42,3.74-2.55c.05.13.13.4.24.8.26.89.48,1.56.66,2.01h6.75c-.6-1.23-1.01-2.38-1.23-3.46-.22-1.07-.33-2.74-.33-5.01h0ZM179.6,183.82c0,1.64-.09,2.74-.27,3.33-.26.89-.8,1.64-1.63,2.26-1.12.81-2.29,1.21-3.52,1.21-1.1,0-2.01-.35-2.72-1.04-.71-.7-1.07-1.52-1.07-2.48s.44-1.77,1.34-2.4c.58-.39,1.82-.78,3.71-1.19,1.89-.4,3.28-.75,4.15-1.04v1.35h.01Z"/>
  <path d="M212.57,181.71c-1.44-1.2-3.98-2.21-7.61-3.04-3.63-.83-5.76-1.46-6.37-1.92-.45-.34-.68-.75-.68-1.24,0-.57.26-1.03.78-1.38.78-.5,2.06-.75,3.86-.75,1.42,0,2.52.27,3.29.8.77.53,1.29,1.3,1.57,2.31l6.43-1.19c-.65-2.25-1.83-3.95-3.54-5.1-1.72-1.15-4.34-1.72-7.87-1.72-3.71,0-6.44.76-8.21,2.28-1.76,1.52-2.65,3.4-2.65,5.63,0,2.48,1.02,4.41,3.06,5.8,1.47,1,4.96,2.11,10.46,3.33,1.18.28,1.94.57,2.28.9.32.34.49.77.49,1.29,0,.76-.3,1.37-.9,1.82-.89.65-2.22.97-3.98.97-1.6,0-2.85-.34-3.74-1.03s-1.48-1.7-1.77-3.02l-6.85,1.04c.63,2.44,1.97,4.38,4.02,5.8s4.83,2.14,8.34,2.14c3.87,0,6.79-.85,8.76-2.55s2.96-3.73,2.96-6.09c0-2.18-.7-3.87-2.13-5.08h0Z"/>
  <path d="M238.6,172.28c-2.22-2.53-5.24-3.8-9.08-3.8-3.41,0-6.24,1.21-8.47,3.63s-3.35,5.77-3.35,10.04c0,3.58.85,6.54,2.55,8.89,2.15,2.93,5.47,4.39,9.95,4.39,2.83,0,5.19-.65,7.08-1.96,1.88-1.3,3.27-3.2,4.14-5.69l-6.8-1.14c-.37,1.29-.92,2.23-1.65,2.82-.73.58-1.63.87-2.69.87-1.57,0-2.88-.56-3.93-1.69-1.05-1.12-1.6-2.7-1.65-4.72h17.09c.09-5.23-.97-9.11-3.19-11.64h0ZM224.81,179.74c-.02-1.86.46-3.33,1.43-4.42.97-1.08,2.2-1.63,3.69-1.63,1.39,0,2.57.51,3.54,1.54.97,1.03,1.48,2.53,1.53,4.5h-10.19,0Z"/>
  <rect x="247.34" y="159.25" width="6.82" height="35.59"/>
  <rect x="264.58" y="176.54" width="13.4" height="6.82"/>
  <path d="M310.94,175.19c-1.68-.88-4.26-1.74-7.76-2.56-3.5-.83-5.7-1.62-6.6-2.38-.71-.6-1.07-1.32-1.07-2.16,0-.92.38-1.66,1.14-2.21,1.18-.86,2.82-1.29,4.9-1.29s3.54.4,4.55,1.2c1.01.8,1.67,2.12,1.98,3.94l7.19-.32c-.11-3.27-1.3-5.88-3.56-7.84-2.26-1.96-5.62-2.94-10.09-2.94-2.74,0-5.07.41-7,1.24s-3.42,2.03-4.44,3.61c-1.03,1.58-1.54,3.27-1.54,5.09,0,2.82,1.09,5.2,3.28,7.16,1.55,1.39,4.26,2.57,8.11,3.52,2.99.74,4.91,1.26,5.75,1.55,1.23.44,2.09.95,2.58,1.54s.74,1.31.74,2.15c0,1.31-.59,2.46-1.76,3.44s-2.92,1.47-5.23,1.47c-2.19,0-3.92-.55-5.21-1.65-1.29-1.1-2.14-2.82-2.56-5.17l-6.99.68c.47,3.98,1.91,7.01,4.32,9.09s5.87,3.12,10.37,3.12c3.09,0,5.67-.43,7.75-1.3,2.07-.87,3.67-2.19,4.81-3.97,1.13-1.78,1.7-3.69,1.7-5.73,0-2.25-.47-4.14-1.42-5.67-.96-1.52-2.27-2.73-3.94-3.61h0Z"/>
  <path d="M331.09,189.77c-.45,0-.84-.11-1.15-.34-.32-.23-.52-.51-.61-.86s-.13-1.57-.13-3.68v-10.39h4.66v-5.44h-4.66v-9.1l-6.85,3.98v5.12h-3.13v5.44h3.13v11.24c0,2.41.07,4.01.22,4.81.18,1.12.5,2,.96,2.66s1.19,1.19,2.17,1.6c.99.41,2.1.62,3.33.62,2.01,0,3.8-.34,5.39-1.02l-.58-5.29c-1.2.43-2.11.65-2.75.65h0Z"/>
  <path d="M361.09,186.37l.07-7.96c0-2.96-.3-5-.91-6.11-.61-1.11-1.66-2.02-3.14-2.74-1.49-.72-3.75-1.08-6.8-1.08-3.35,0-5.88.6-7.58,1.8-1.7,1.2-2.9,3.04-3.59,5.54l6.19,1.12c.42-1.2.97-2.04,1.65-2.51.68-.48,1.63-.72,2.84-.72,1.8,0,3.02.28,3.67.84.65.56.97,1.49.97,2.8v.68c-1.23.52-3.44,1.08-6.63,1.67-2.36.45-4.17.98-5.43,1.59-1.25.61-2.23,1.48-2.92,2.62-.7,1.14-1.04,2.44-1.04,3.9,0,2.2.76,4.02,2.29,5.46s3.62,2.16,6.28,2.16c1.5,0,2.92-.28,4.25-.85s2.57-1.42,3.74-2.55c.05.13.13.4.24.8.26.89.48,1.56.66,2.01h6.75c-.6-1.23-1.01-2.38-1.23-3.46-.22-1.07-.33-2.74-.33-5.01h0ZM354.47,183.82c0,1.64-.09,2.74-.27,3.33-.26.89-.8,1.64-1.63,2.26-1.12.81-2.29,1.21-3.52,1.21-1.1,0-2.01-.35-2.72-1.04-.71-.7-1.07-1.52-1.07-2.48s.44-1.77,1.34-2.4c.58-.39,1.82-.78,3.71-1.19,1.89-.4,3.28-.75,4.15-1.04v1.35h.01Z"/>
  <path d="M384.42,172.07c-2.1-2.4-4.6-3.59-7.48-3.59-3.14,0-5.74,1.14-7.79,3.41-2.06,2.27-3.08,5.6-3.08,9.97s1.06,7.6,3.17,9.99c2.11,2.39,4.65,3.58,7.61,3.58,1.46,0,2.9-.36,4.33-1.08s2.67-1.82,3.73-3.29v3.79h6.34v-35.59h-6.82v12.81h0ZM382.79,188.03c-1.1,1.33-2.44,2-4.01,2-1.97,0-3.51-.89-4.61-2.67-.76-1.23-1.14-3.22-1.14-5.97,0-2.56.55-4.48,1.64-5.77,1.09-1.29,2.45-1.93,4.07-1.93s3.04.65,4.1,1.95c1.07,1.3,1.6,3.44,1.6,6.4,0,2.66-.55,4.66-1.65,5.99h0Z"/>
  <path d="M408.01,189.77c-.45,0-.84-.11-1.15-.34-.32-.23-.52-.51-.61-.86s-.13-1.57-.13-3.68v-10.39h4.66v-5.44h-4.66v-9.1l-6.85,3.98v5.12h-3.13v5.44h3.13v11.24c0,2.41.07,4.01.22,4.81.18,1.12.5,2,.96,2.66s1.19,1.19,2.17,1.6c.99.41,2.1.62,3.33.62,2.01,0,3.8-.34,5.39-1.02l-.58-5.29c-1.2.43-2.12.65-2.75.65h0Z"/>
  <path d="M265.15,130.29v-13.09l-3.18-1.23c-2.52-.98-5.96-2.1-10.25-2.1s-7.94,1.12-10.71,3.22c-1.04.8-1.92,1.72-2.63,2.73-2.88-3.87-7.48-5.95-13.52-5.95-10.8,0-17,6.66-17,18.29,0,.71.02,1.4.07,2.08h-3.48v-19.94h-16.91v1.87l-.53-.2c-2.52-.98-5.97-2.1-10.26-2.1s-7.94,1.12-10.71,3.22c-.27.21-.13.1-.38.3l-.43-.17-3.15-1.25c-2.52-.98-5.97-2.1-10.26-2.1s-7.94,1.12-10.7,3.22c-.27.21-.53.43-.78.65v-3.44h-28.99l-.51,4.4-.14,1.18h-3.39l-2.16-11.91v-.94c2.08-1.66,3.42-4.24,3.42-7.13,0-.21-.02-.42-.03-.62,4.38-1.56,7.55-5.69,7.55-10.43,0-5.31-3.67-9.7-8.67-10.82v-.05c0-4.22-2.87-7.78-6.76-8.8-.31-3.08-.66-5.69-.94-7.41l-.15-.95c-.45-2.81-1.2-7.52-2.46-12.19-1.04-3.85-2.82-9.3-3.29-10.58-1.22-3.27-3.79-8.35-4.72-9.86-.46-.74-.85-1.47-1.26-2.25-.58-1.1-1.24-2.34-2.15-3.69-.36-.54-.79-1.11-1.22-1.68-.39-.51-.79-1.05-1.04-1.44l-.43-.58c-1.42-1.69-3.26-3.85-4-4.55-2.8-2.67-6.89-5.51-7.63-6.01-3.36-2.44-8.84-4.89-11.37-5.67C55.53.95,50.14.12,47.13,0c-1.95-.07-7.84.21-10.34.73-.13.02-.31.05-.54.09-3.35.54-13.5,2.2-21.9,9.69-1.09.87-5.83,4.85-9.38,11.09-1.27,2.22-2.49,5.21-3.43,8.41-2.81,9.48-1.83,19.71,2.7,28.06,4.4,8.06,11.56,12.65,16.36,14.12,4.1,1.26,8.54,1.83,12.19,1.56,2.99-.22,6.21-1.14,8.85-2.53.65-.34,1.29-.73,1.9-1.15-1.9,2.32-2.14,5.4-1.94,7.84-5.25.89-9.26,5.43-9.26,10.9,0,4.75,2.93,8.79,7.22,10.39-.02.23-.04.45-.04.68,0,2.73,1.26,5.24,3.21,6.91v1.5l-16,100.79,29.31-26.08,18.66,19.76,18.57-19.8,30.2,26.14-10.7-59.09h27.57v-2.38c3.72,1.89,7.49,2.81,11.48,2.81,5.28,0,9.16-1.49,11.77-3.72,4.26,2.5,8.56,3.72,13.16,3.72s8.22-1.16,10.78-2.97v2.53h27.82v-1.9c2.57,1.53,5.76,2.34,9.5,2.34,5.25,0,9.42-1.58,12.31-4.54l1.36.8c4.27,2.52,8.58,3.74,13.18,3.74,11,0,15.92-6.43,15.92-12.79.02-3.12-.96-5.51-2.47-7.37h0ZM97.73,74.59c.2-.03.4-.06.6-.06,1.96,0,3.54,1.61,3.54,3.6s-1.58,3.59-3.54,3.59c-.21,0-.41-.02-.61-.06h-46.48c-.2.03-.4.06-.61.06-1.95,0-3.54-1.61-3.54-3.59s1.58-3.6,3.54-3.6c.21,0,.41.02.6.06h46.5ZM39.03,66.52c-1.88.99-4.32,1.74-6.67,1.91-3.41.25-7.24-.43-10.17-1.33s-9.21-4.29-13.1-11.48c-3.9-7.19-4.58-16.03-2.26-23.86.93-3.13,2.01-5.62,2.94-7.25,3.44-6.04,8.14-9.59,8.14-9.59,8.03-7.24,18.27-8.25,19.99-8.6,1.96-.4,7.39-.68,9.04-.62,2.54.09,7.47.85,11.45,2.07,2.16.66,7.13,2.95,9.8,4.9,1.5,1.02,4.86,3.46,7,5.5.67.64,3.58,4.1,3.58,4.1.67,1.05,1.64,2.21,2.34,3.24,1.33,1.98,2.04,3.72,3.29,5.75.76,1.23,3.17,6,4.24,8.89.39,1.05,2.13,6.36,3.13,10.08,1.33,4.93,2.05,9.89,2.49,12.59.44,2.7.86,5.1,1.19,10.07-13.48,0-27.91.08-41.39.08.34-1.01,1.24-12.64,1.24-13.54,0-3.05-.29-6.53-.48-7.73-.33-2.09-1.32-5.63-1.86-6.91-1.86-4.43-5.34-7.87-8.92-9.11-3.76-1.3-8.5-.95-11.75.81-2.44,1.32-4.27,3.68-4.84,4.8-1.15,2.25-1.47,4.66-1.23,6.48.21,1.58,1.56,5.09,4.68,5.15,2.06.02,3.22-1.46,3.34-2.55.16-1.46-.51-2.51-.9-2.9-.87-.87-3.06-1.08-4.02-.49.11-3.21,1.98-5.31,3.95-6.2,2.04-.92,4.52-.66,5.24-.57,3.47.44,5.43,2.34,6.77,4.34,1.4,2.11,1.9,4.09,2.09,6.21.21,2.27-.15,4.95-1.17,7.58-.41,1.04-1.51,3.04-1.99,3.68-1.37,1.86-3.13,3.42-5.18,4.5ZM37.81,88.96c0-3.1,2.53-5.57,5.65-5.57-.21-.02.21,0,0,0h61.6c3.04.09,5.48,2.56,5.48,5.6s-2.44,5.51-5.48,5.6h-62.11s0-.04,0-.04c-2.88-.26-5.14-2.66-5.14-5.59ZM44.99,100.03c0-1.81,1.43-3.43,3.21-3.52h51.23c.08-.02.16-.02.25-.02,1.86,0,3.34,1.69,3.34,3.55s-1.51,3.54-3.37,3.54h-51.45v-.02c-1.79-.09-3.21-1.73-3.21-3.53ZM115.22,194.83l-22.39-19.38-18.18,19.38-18.3-19.38-21.79,19.38,14.21-89.69h50.2l1.66,9.16h-14.3l.15,1.19c-2.37-.83-5.36-1.62-8.96-1.62-4.24,0-7.94,1.12-10.71,3.22-2.99,2.28-4.89,5.7-4.94,9.32v.14l.02,18.73,2.45,1.44c4.27,2.52,8.58,3.74,13.18,3.74,5.95,0,10.12-1.88,12.7-4.62l.52,4.19h12.69l1.44-2.5,1.35-2.36,9,49.66h0ZM76.79,134.91c-4.85-1.46-9.71-3.05-9.71-8.5,0-4.21,3.87-7.57,10.44-7.57,3.14,0,5.8.74,8.46,1.76v6.06c-3.01-1.2-5.59-1.89-8.42-1.89-2.06,0-2.96.51-2.96,1.59s1.16,1.51,3.52,2.28c4.85,1.58,10.35,3.43,10.35,9.02,0,4.55-4.04,7.82-10.95,7.82-4.77,0-8.25-1.63-10.65-3.05v-6.79c3.74,2.62,8.33,3.95,10.61,3.95,1.93,0,3.43-.43,3.43-1.93s-1.11-1.85-4.12-2.75h0ZM119.28,145.05h-5.41l-6.66-11.64-6.66,11.64h-5.42l-3.18-25.77h6.66l1.63,14.09,4.86-8.5h4.21l4.86,8.5,1.63-14.09h6.66l-3.18,25.77h0ZM135.39,145.05h-6.96v-25.77h6.96v25.77ZM151.84,145.48c-4.77,0-8.24-1.63-10.65-3.05v-6.79c3.73,2.62,8.33,3.95,10.62,3.95,1.93,0,3.43-.43,3.43-1.93s-1.12-1.85-4.13-2.75c-4.85-1.46-9.71-3.05-9.71-8.5,0-4.21,3.87-7.57,10.44-7.57,3.14,0,5.8.74,8.47,1.76v6.06c-3.01-1.2-5.58-1.89-8.42-1.89-2.06,0-2.96.51-2.96,1.59s1.16,1.51,3.52,2.28c4.86,1.58,10.36,3.43,10.36,9.02-.02,4.56-4.05,7.82-10.97,7.82h0ZM176.76,145.48c-4.77,0-8.25-1.63-10.66-3.05v-6.79c3.74,2.62,8.34,3.95,10.61,3.95,1.93,0,3.44-.43,3.44-1.93s-1.12-1.85-4.13-2.75c-4.85-1.46-9.7-3.05-9.7-8.5,0-4.21,3.87-7.57,10.44-7.57,3.13,0,5.79.74,8.46,1.76v6.06c-3.01-1.2-5.58-1.89-8.42-1.89-2.06,0-2.96.51-2.96,1.59s1.16,1.51,3.52,2.28c4.86,1.58,10.36,3.43,10.36,9.02,0,4.56-4.05,7.82-10.96,7.82h0ZM210.39,145.05h-17.87v-25.77h6.96v19.93h10.91v5.84h0ZM224.87,145.48c-8.9,0-12.03-5.41-12.03-13.32s3.13-13.32,12.03-13.32,12.03,5.41,12.03,13.32-3.14,13.32-12.03,13.32h0ZM251.72,145.48c-4.77,0-8.25-1.63-10.66-3.05v-6.79c3.74,2.62,8.33,3.95,10.62,3.95,1.93,0,3.43-.43,3.43-1.93s-1.12-1.85-4.12-2.75c-4.85-1.46-9.71-3.05-9.71-8.5,0-4.21,3.87-7.57,10.44-7.57,3.13,0,5.8.74,8.46,1.76v6.06c-3.01-1.2-5.58-1.89-8.42-1.89-2.06,0-2.96.51-2.96,1.59s1.16,1.51,3.52,2.28c4.86,1.58,10.35,3.43,10.35,9.02,0,4.56-4.04,7.82-10.95,7.82h0Z"/>
  <path d="M224.87,124.47c-4.04,0-5.07,2.97-5.07,7.69s1.03,7.74,5.07,7.74,5.07-2.97,5.07-7.74-1.04-7.69-5.07-7.69Z"/>
</svg>