<svg id="logo" xmlns="http://www.w3.org/2000/svg" width="172.992" height="20.016" viewBox="0 0 172.992 20.016">
  <g id="Gruppe_1" data-name="Gruppe 1" transform="translate(0 3.002)">
    <path id="Pfad_1" data-name="Pfad 1" d="M8.721,12.278c0,2.216-1.93,3.288-4.289,3.288C2.145,15.566,0,14.208,0,11.634H2.43c0,1.43.858,1.93,2.073,1.93,1,0,1.787-.357,1.787-1.287,0-1-1.072-1.072-3.36-2C1.43,9.776.357,9.2.357,7.345.357,5.272,2.216,4.2,4.432,4.2A3.882,3.882,0,0,1,8.578,7.846h-2.5A1.5,1.5,0,0,0,4.361,6.2c-.858,0-1.573.429-1.573,1.144,0,.929,1,1.072,3,1.787,1.5.643,2.931,1.144,2.931,3.145" transform="translate(0 -4.2)" fill="#fff"/>
  </g>
  <path id="Pfad_2" data-name="Pfad 2" d="M22.321,7.316l-2.859,8.078H17.818L13.6,4.6h2.716l2.359,6.862L21.106,4.6h2.5l2.43,6.862L28.4,4.6h2.716L26.9,15.394H25.18Z" transform="translate(-3.878 -1.312)" fill="#fff"/>
  <g id="Gruppe_2" data-name="Gruppe 2" transform="translate(28.808 2.931)">
    <path id="Pfad_3" data-name="Pfad 3" d="M40.943,4.6h2.5V15.394h-2.5Zm1.215,13.01a1.846,1.846,0,0,1,1.859,1.859,1.859,1.859,0,1,1-3.717,0,1.846,1.846,0,0,1,1.859-1.859" transform="translate(-40.3 -4.243)" fill="#fff"/>
    <path id="Pfad_4" data-name="Pfad 4" d="M57.321,12.249c0,2.216-1.93,3.288-4.289,3.288S48.6,14.179,48.6,11.606h2.43c0,1.43.858,1.93,2.073,1.93,1,0,1.787-.357,1.787-1.287,0-1-1.072-1.072-3.36-2-1.5-.572-2.573-1.144-2.573-3,0-2.073,1.859-3.145,4.075-3.145a3.882,3.882,0,0,1,4.146,3.646h-2.43A1.5,1.5,0,0,0,53.032,6.1c-.858,0-1.573.429-1.573,1.215,0,.929,1,1.072,3,1.787,1.43.643,2.859,1.144,2.859,3.145" transform="translate(-42.667 -4.1)" fill="#fff"/>
    <path id="Pfad_5" data-name="Pfad 5" d="M72.221,12.278c0,2.216-1.93,3.288-4.289,3.288S63.5,14.208,63.5,11.634h2.43c0,1.43.858,1.93,2.073,1.93,1,0,1.787-.357,1.787-1.287,0-1-1.072-1.072-3.36-2-1.5-.5-2.573-1.072-2.573-2.931,0-2.073,1.859-3.145,4.075-3.145a3.882,3.882,0,0,1,4.146,3.646h-2.5A1.5,1.5,0,0,0,67.861,6.2c-.858,0-1.573.429-1.573,1.215,0,.929,1,1.072,3,1.787,1.5.572,2.931,1.072,2.931,3.074" transform="translate(-46.916 -4.129)" fill="#fff"/>
    <path id="Pfad_6" data-name="Pfad 6" d="M89.208,4.6V15.394h-2.5v-1.5a3.836,3.836,0,0,1-3.5,1.787,3.883,3.883,0,0,1-3.288-1.43,5.648,5.648,0,0,1-.715-3.217V4.6h2.5v5.576c0,1.859.5,3.288,2.359,3.288,1.787,0,2.573-1.43,2.573-3.288V4.6Z" transform="translate(-51.393 -4.243)" fill="#fff"/>
    <path id="Pfad_7" data-name="Pfad 7" d="M97.9,4.486h2.5v1.5A3.836,3.836,0,0,1,103.9,4.2a3.649,3.649,0,0,1,3.217,1.43,5.648,5.648,0,0,1,.715,3.217V15.28h-2.5V9.7c0-1.859-.5-3.288-2.359-3.288-1.787,0-2.573,1.43-2.573,3.288V15.28H97.9Z" transform="translate(-56.725 -4.129)" fill="#fff"/>
    <path id="Pfad_8" data-name="Pfad 8" d="M116.043,4.6h2.5V15.394h-2.5Zm1.215,13.01a1.846,1.846,0,0,1,1.859,1.859,1.859,1.859,0,1,1-3.717,0,1.846,1.846,0,0,1,1.859-1.859" transform="translate(-61.715 -4.243)" fill="#fff"/>
  </g>
  <path id="Pfad_9" data-name="Pfad 9" d="M125.416,4.6l2.931,7.148L131.421,4.6h2.716l-4.932,10.794h-1.716L122.7,4.6Z" transform="translate(-34.989 -1.312)" fill="#fff"/>
  <g id="Gruppe_3" data-name="Gruppe 3" transform="translate(99.506)">
    <path id="Pfad_10" data-name="Pfad 10" d="M141.773,8.718h5.29a2.388,2.388,0,0,0-2.645-2.43,2.346,2.346,0,0,0-2.645,2.43m0,1.859a2.542,2.542,0,0,0,2.859,2.788,2.109,2.109,0,0,0,2.288-1.43h2.573c-.357,1.859-2.073,3.5-4.861,3.5-3.646,0-5.433-2.716-5.433-5.719C139.2,6.5,141.13,4,144.561,4a4.9,4.9,0,0,1,5,4.861,7.346,7.346,0,0,1-.143,1.573h-7.649Z" transform="translate(-139.2 -1.141)" fill="#fff"/>
    <path id="Pfad_11" data-name="Pfad 11" d="M164.462,6.9a4.827,4.827,0,0,0-1-.143c-2.145,0-3.36,1.215-3.36,3.932v4.646h-2.5V4.543h2.5V6.259a3.942,3.942,0,0,1,3.36-1.859,3.726,3.726,0,0,1,1,.143Z" transform="translate(-144.447 -1.255)" fill="#fff"/>
    <path id="Pfad_12" data-name="Pfad 12" d="M177.321,12.249c0,2.216-1.93,3.288-4.289,3.288-2.287,0-4.432-1.358-4.432-3.932h2.43c0,1.43.858,1.93,2.073,1.93,1,0,1.787-.357,1.787-1.287,0-1-1.072-1.072-3.36-2-1.5-.572-2.573-1.144-2.573-3,0-2.073,1.859-3.145,4.075-3.145a3.882,3.882,0,0,1,4.146,3.646h-2.43A1.5,1.5,0,0,0,173.032,6.1c-.858,0-1.573.429-1.573,1.215,0,.929,1,1.072,3,1.787,1.43.643,2.859,1.144,2.859,3.145" transform="translate(-147.584 -1.169)" fill="#fff"/>
    <path id="Pfad_13" data-name="Pfad 13" d="M184.272,4.6h2.5V15.394h-2.5Zm1.287,13.01a1.846,1.846,0,0,1,1.859,1.859,1.859,1.859,0,0,1-3.717,0,1.8,1.8,0,0,1,1.859-1.859" transform="translate(-151.889 -1.312)" fill="#fff"/>
    <path id="Pfad_14" data-name="Pfad 14" d="M198.52,14.082a12.288,12.288,0,0,1-1.859.143c-1.215,0-3.5-.143-3.5-3.789v-5H191.3V3.288h1.859V0h2.5V3.288h2.5V5.433h-2.5V9.865c0,1.859.572,2.145,1.573,2.145.429,0,1-.071,1.287-.071Z" transform="translate(-154.057)" fill="#fff"/>
    <path id="Pfad_15" data-name="Pfad 15" d="M205.043,4.6h2.5V15.394h-2.5Zm1.215,13.01a1.846,1.846,0,0,1,1.859,1.859,1.859,1.859,0,1,1-3.717,0,1.846,1.846,0,0,1,1.859-1.859" transform="translate(-157.792 -1.312)" fill="#fff"/>
    <path id="Pfad_16" data-name="Pfad 16" d="M215.245,8.718h5.29a2.388,2.388,0,0,0-2.645-2.43,2.314,2.314,0,0,0-2.645,2.43m-.071,1.859a2.542,2.542,0,0,0,2.859,2.788,2.109,2.109,0,0,0,2.287-1.43h2.573c-.357,1.859-2.073,3.5-4.861,3.5-3.646,0-5.433-2.716-5.433-5.719C212.6,6.5,214.53,4,217.961,4a4.9,4.9,0,0,1,5,4.861,7.346,7.346,0,0,1-.143,1.573h-7.649Z" transform="translate(-160.13 -1.141)" fill="#fff"/>
    <path id="Pfad_17" data-name="Pfad 17" d="M238.521,12.249c0,2.216-1.93,3.288-4.289,3.288-2.288,0-4.432-1.358-4.432-3.932h2.43c0,1.43.858,1.93,2.073,1.93,1,0,1.787-.357,1.787-1.287,0-1-1.072-1.072-3.36-2-1.5-.572-2.573-1.144-2.573-3,0-2.073,1.859-3.145,4.075-3.145a3.882,3.882,0,0,1,4.146,3.646h-2.43A1.5,1.5,0,0,0,234.232,6.1c-.858,0-1.573.429-1.573,1.215,0,.929,1,1.072,3,1.787,1.43.643,2.859,1.144,2.859,3.145" transform="translate(-165.035 -1.169)" fill="#fff"/>
  </g>
</svg>
