<?xml version="1.0" encoding="UTF-8"?>
<svg id="svg2" xmlns="http://www.w3.org/2000/svg" xmlns:svg="http://www.w3.org/2000/svg" xmlns:rdf="http://www.w3.org/1999/02/22-rdf-syntax-ns#" xmlns:dc="http://purl.org/dc/elements/1.1/" xmlns:cc="http://creativecommons.org/ns#" version="1.1" viewBox="0 0 295.3 39.5">
  <!-- Generator: Adobe Illustrator 30.2.1, SVG Export Plug-In . SVG Version: 2.1.1 Build 1)  -->
  <g id="g14">
    <g id="g22">
      <path id="path24" d="M213.54,26.09l-4.3,12h2.1l2.7-7.6.5-2.3h.2c.1.4.2.8.3,1.1.1.3.1.5.2.8.1.2.1.4.1.4l2.6,7.6h2.1l-4.3-12h-2.2ZM287.44,37.79h7.9v-2h-5.9v-3h5.4v-2h-5.4v-3h5.9v-2h-7.9v12ZM270.84,33.39l-.5,2.3h-.2c-.1-.4-.2-.8-.3-1.1-.1-.3-.1-.5-.2-.8-.1-.2-.1-.4-.1-.4l-2.6-7.6h-2.1l4.3,11.9h2.1l4.3-11.9h-2.1l-2.6,7.6h0ZM251.14,37.79h1.9v-11.9h-1.9v11.9ZM229.64,27.89h3.6v10h2v-10h3.6v-2h-9.2v2h0ZM194.94,33.39l-.5,2.3h-.2c-.1-.4-.2-.8-.3-1.1s-.1-.5-.2-.8-.1-.4-.1-.4l-2.6-7.6h-2.1l4.3,11.9h2.1l4.3-11.9h-2.1l-2.6,7.6h0ZM175.24,37.79h1.9v-11.9h-1.9v11.9ZM155.74,31.49v-3.7h2.7c.6,0,1.2.1,1.6.4s.6.7.6,1.4-.2,1.2-.6,1.5c-.4.3-.9.4-1.6.4,0,0-2.7,0-2.7,0ZM160.74,32.79c.4-.2.7-.4,1-.7s.5-.6.7-1.1.2-.9.2-1.5c0-.7-.1-1.2-.4-1.7-.2-.5-.5-.9-.9-1.1-.4-.3-.8-.5-1.3-.6s-1-.2-1.6-.2h-4.6v11.9h2v-4.6h1.4l3.6,4.6h2.4l-3.8-4.7c.5,0,.9-.1,1.3-.3M133.24,37.79h7.9v-2h-5.9v-3h5.4v-2h-5.4v-3h5.9v-2h-7.9v12ZM118.54,34.09c0,.3-.1.6-.2.8s-.3.4-.5.5-.5.2-.8.3-.6.1-1,.1h-2.3v-8h2.3c.3,0,.7,0,1,.1s.6.2.8.3.4.3.5.6c.1.2.2.5.2.8v4.5ZM119.14,26.79c-.4-.3-.9-.5-1.4-.7-.5-.1-1.1-.2-1.7-.2h-4.3v11.9h4.3c.6,0,1.1-.1,1.7-.2.5-.1,1-.4,1.4-.7s.7-.7,1-1.1c.2-.5.4-1,.4-1.7v-4.5c0-.7-.1-1.2-.4-1.7-.3-.4-.6-.8-1-1.1M81.44,31.29l-2.9-5.4h-2.2l4.1,7.3v4.6h2v-4.6l4.2-7.3h-2.3s-2.9,5.4-2.9,5.4ZM63.14,35.59c-.4.2-.9.4-1.4.4h-2.8v-3.5h2.8c.6,0,1.1.1,1.5.4.4.3.6.7.6,1.4-.1.6-.3,1-.7,1.3M58.84,27.79h2.7c.5,0,.9.1,1.2.3s.5.6.5,1c0,.6-.2.9-.5,1.2-.3.2-.7.4-1.2.4h-2.7v-2.9ZM65.34,32.59c-.1-.2-.3-.5-.5-.7s-.5-.4-.8-.5c.4-.3.7-.6.8-1,.2-.4.3-.8.3-1.2,0-.5-.1-1-.3-1.4s-.5-.8-.8-1c-.3-.3-.7-.5-1.2-.6-.4-.1-.9-.2-1.4-.2h-4.6v11.9h4.6c.6,0,1.1-.1,1.6-.2.5-.1.9-.3,1.3-.6.4-.3.7-.6.9-1.1.2-.4.3-1,.3-1.7,0-.3,0-.6-.1-.9.1-.3,0-.5-.1-.8M284.64,3.69h4.4c.9,0,1.6.2,2,.6.6.4.9,1.2.9,2.2,0,.8-.3,1.5-.8,2.1s-1.3.9-2.4.9h-4.2V3.69h.1ZM291.94,20.09h3.3l-4.3-8.4c2.3-.9,3.5-2.7,3.6-5.3-.1-1.8-.7-3.1-1.8-4-1-.8-2.2-1.2-3.8-1.2h-7.2v19h2.8v-8.1h3.6l3.8,8ZM275.04,17.39h-9v-5.6h7.7v-2.5h-7.7V3.89h9V1.19h-11.7v19h11.7v-2.8ZM252.34,14.59h0l-8.4-13.5h-2.6v19h2.8V6.59h.1l8.2,13.5h2.6V1.09h-2.8v13.5h.1,0ZM233.84,13.59v-3.9h-6.5v2.7h3.8v1c0,1.2-.4,2.2-1.1,2.9-.7.8-1.6,1.1-2.7,1.1-.7,0-1.2-.1-1.7-.4-.5-.2-.9-.6-1.2-1-.4-.4-.6-.9-.7-1.6s-.2-1.9-.2-3.8.1-3.1.2-3.8c.1-.6.4-1.2.7-1.6s.7-.7,1.2-1,1-.4,1.7-.4c.9,0,1.6.3,2.3.8.6.5,1,1.2,1.2,2h3c-.3-1.6-1-2.9-2.1-4s-2.6-1.6-4.3-1.6c-1.4,0-2.7.4-3.6,1.1-1,.7-1.7,1.5-2.1,2.3-.3.5-.5,1.1-.6,1.8-.1.7-.2,2.2-.2,4.4s.1,3.6.2,4.4c.1.4.2.7.3,1,.1.3.2.5.4.8.4.9,1.2,1.6,2.1,2.3,1,.7,2.2,1.1,3.6,1.1,1.9,0,3.4-.7,4.7-2,.9-1.2,1.5-2.7,1.6-4.6M213.44,1.19h-2.8v19h2.8V1.19ZM198.44,9.29c-.9-.1-1.6-.2-2.1-.3-.9-.2-1.6-.5-2-.9s-.6-.9-.6-1.5c0-.9.3-1.6.9-2.1.6-.4,1.3-.7,2.1-.7,1.7,0,3.2.5,4.6,1.5l1.6-2.4c-1.7-1.3-3.7-1.9-6-2-1.9,0-3.4.5-4.4,1.5-1.1,1-1.6,2.4-1.6,4,0,1.4.4,2.6,1.3,3.5.8.9,2,1.5,3.6,1.8.9.1,1.7.2,2.4.4,1.6.3,2.4,1.1,2.4,2.6,0,1.7-1.2,2.6-3.6,2.6-2,0-3.8-.6-5.2-1.9l-1.8,2.2c2,1.7,4.3,2.6,7,2.6,4.2-.1,6.4-1.9,6.5-5.5,0-1.3-.4-2.5-1.2-3.5-.9-1-2.1-1.7-3.9-1.9M173.14,20.09h11.7v-2.7h-9v-5.6h7.7v-2.5h-7.7V3.89h9V1.19h-11.7v18.9ZM162.64,14.19c-.1.6-.3,1.1-.6,1.6-.7,1.1-1.8,1.7-3.4,1.7h-3.3V3.89h3.3c1.4,0,2.5.5,3.3,1.6.4.4.6,1,.7,1.7.1.7.1,1.9.1,3.5.1,1.7,0,2.9-.1,3.5M164.64,4.39c-1.2-2.1-3.1-3.2-5.6-3.2h-6.4v19h6.2c1.4,0,2.5-.3,3.5-.9s1.7-1.3,2.2-2.2c.2-.3.4-.7.5-1s.2-.7.3-1.1c.1-.8.2-2.2.2-4.3,0-1.9,0-3.3-.1-4-.1-.9-.4-1.6-.8-2.3M141.64,9.29h-7.3V1.19h-2.8v19h2.8v-8.3h7.3v8.3h2.8V1.19h-2.8s0,8.1,0,8.1ZM116.04,5.19c.3-.4.7-.7,1.2-1s1-.4,1.7-.4c.9,0,1.7.3,2.3.8s1,1.2,1.2,2h3c-.3-1.6-1-2.9-2.1-4s-2.6-1.6-4.3-1.6c-1.4,0-2.7.4-3.6,1.1-1,.7-1.7,1.5-2.1,2.3-.3.5-.5,1.1-.6,1.8-.1.7-.2,2.2-.2,4.4s.1,3.6.2,4.4c.1.4.2.7.3,1,.1.3.2.5.4.8.4.9,1.2,1.6,2.1,2.3,1,.7,2.2,1.1,3.6,1.1,1.6,0,3-.5,4.2-1.4,1.1-.9,1.9-2.3,2.3-4.1h-3c-.8,1.7-1.9,2.6-3.5,2.6-.7,0-1.2-.1-1.7-.4-.5-.2-.9-.6-1.2-1-.4-.4-.6-.9-.7-1.6-.1-.7-.2-1.9-.2-3.8s.1-3.1.2-3.8c-.1-.5.2-1.1.5-1.5M102.44,13.39c0,1.3-.4,2.3-1.1,3-.7.7-1.6,1.1-2.7,1.1s-2-.4-2.7-1.1-1.1-1.7-1.1-3V1.19h-2.8v12.6c0,2,.7,3.6,1.9,4.7,1.2,1.2,2.8,1.8,4.6,1.8,1.9,0,3.4-.6,4.7-1.8,1.2-1.2,1.8-2.8,1.9-4.8V1.09h-2.8v12.3h.1ZM76.74,16.99c-.5-.2-.9-.6-1.2-1-.4-.4-.6-.9-.7-1.6-.1-.7-.2-1.9-.2-3.8s.1-3.1.2-3.8c.1-.6.4-1.2.7-1.6s.7-.7,1.2-1,1-.4,1.7-.4,1.2.2,1.7.4c.5.3.8.6,1.1,1,.4.4.6.9.7,1.6s.2,2,.2,3.8-.1,3.1-.2,3.8c-.1.7-.4,1.2-.7,1.6-.3.4-.6.7-1.1,1s-1.1.4-1.7.4c-.7,0-1.3-.1-1.7-.4M82.04,19.19c1-.7,1.7-1.4,2.1-2.3.3-.5.5-1.1.6-1.8.1-.8.2-2.2.2-4.4s-.1-3.7-.2-4.4c-.1-.7-.3-1.4-.6-1.8-.4-.9-1.1-1.7-2.1-2.3-1-.7-2.2-1-3.7-1.1-1.4,0-2.7.4-3.6,1.1-1,.7-1.7,1.5-2.1,2.3-.3.5-.5,1.1-.6,1.8-.1.7-.2,2.2-.2,4.4s.1,3.6.2,4.4c.1.4.2.7.3,1,.1.3.2.5.4.8.4.9,1.2,1.6,2.1,2.3,1,.7,2.2,1.1,3.6,1.1s2.6-.4,3.6-1.1M53.94,3.69h5v16.4h2.8V3.69h5V1.09h-12.9s.1,2.6.1,2.6ZM19.34,24.79c-4-1.3-8.3.9-9.5,4.9-1.3,4,.9,8.2,4.9,9.4,4,1.3,8.3-.9,9.5-4.9,1.3-3.9-.9-8.1-4.9-9.4M26.34,10.19c-7.8,2.8-8.7,2.4-11.6-5.3C13.24.99,8.94-1.01,4.94.39,1.04,1.79-1.06,6.09.44,10.09c1.5,3.9,5.8,5.9,9.8,4.5,7.8-2.8,8.7-2.4,11.6,5.3,1.5,3.9,5.8,5.9,9.8,4.5s6-5.7,4.5-9.7c-1.5-3.9-5.9-5.9-9.8-4.5"/>
    </g>
  </g>
</svg>