<?xml version="1.0" encoding="utf-8"?>
<!-- Generator: Adobe Illustrator 27.5.0, SVG Export Plug-In . SVG Version: 6.00 Build 0)  -->
<svg version="1.1"
	 id="svg2" xmlns:cc="http://creativecommons.org/ns#" xmlns:dc="http://purl.org/dc/elements/1.1/" xmlns:rdf="http://www.w3.org/1999/02/22-rdf-syntax-ns#" xmlns:svg="http://www.w3.org/2000/svg"
	 xmlns="http://www.w3.org/2000/svg" xmlns:xlink="http://www.w3.org/1999/xlink" x="0px" y="0px" viewBox="0 0 295.3 39.5"
	 style="enable-background:new 0 0 295.3 39.5;" xml:space="preserve">
<style type="text/css">
	.st0{fill:#FFFFFF;}
</style>
<g id="g14">
	<g id="g22" transform="translate(299.4367,80.0911)">
		<path id="path24" class="st0" d="M-85.9-54l-4.3,12h2.1l2.7-7.6l0.5-2.3h0.2c0.1,0.4,0.2,0.8,0.3,1.1c0.1,0.3,0.1,0.5,0.2,0.8
			c0.1,0.2,0.1,0.4,0.1,0.4l2.6,7.6h2.1l-4.3-12H-85.9z M-12-42.3h7.9v-2h-5.9v-3h5.4v-2h-5.4v-3h5.9v-2H-12V-42.3z M-28.6-46.7
			l-0.5,2.3h-0.2c-0.1-0.4-0.2-0.8-0.3-1.1c-0.1-0.3-0.1-0.5-0.2-0.8c-0.1-0.2-0.1-0.4-0.1-0.4l-2.6-7.6h-2.1l4.3,11.9h2.1l4.3-11.9
			H-26L-28.6-46.7z M-48.3-42.3h1.9v-11.9h-1.9V-42.3z M-69.8-52.2h3.6v10h2v-10h3.6v-2h-9.2V-52.2z M-104.5-46.7l-0.5,2.3h-0.2
			c-0.1-0.4-0.2-0.8-0.3-1.1c-0.1-0.3-0.1-0.5-0.2-0.8s-0.1-0.4-0.1-0.4l-2.6-7.6h-2.1l4.3,11.9h2.1l4.3-11.9h-2.1L-104.5-46.7z
			 M-124.2-42.3h1.9v-11.9h-1.9V-42.3z M-143.7-48.6v-3.7h2.7c0.6,0,1.2,0.1,1.6,0.4s0.6,0.7,0.6,1.4c0,0.7-0.2,1.2-0.6,1.5
			c-0.4,0.3-0.9,0.4-1.6,0.4H-143.7z M-138.7-47.3c0.4-0.2,0.7-0.4,1-0.7c0.3-0.3,0.5-0.6,0.7-1.1s0.2-0.9,0.2-1.5
			c0-0.7-0.1-1.2-0.4-1.7c-0.2-0.5-0.5-0.9-0.9-1.1c-0.4-0.3-0.8-0.5-1.3-0.6c-0.5-0.1-1-0.2-1.6-0.2h-4.6v11.9h2v-4.6h1.4l3.6,4.6
			h2.4L-140-47C-139.5-47-139.1-47.1-138.7-47.3 M-166.2-42.3h7.9v-2h-5.9v-3h5.4v-2h-5.4v-3h5.9v-2h-7.9V-42.3z M-180.9-46
			c0,0.3-0.1,0.6-0.2,0.8c-0.1,0.2-0.3,0.4-0.5,0.5c-0.2,0.1-0.5,0.2-0.8,0.3c-0.3,0.1-0.6,0.1-1,0.1h-2.3v-8h2.3c0.3,0,0.7,0,1,0.1
			c0.3,0.1,0.6,0.2,0.8,0.3c0.2,0.1,0.4,0.3,0.5,0.6c0.1,0.2,0.2,0.5,0.2,0.8V-46z M-180.3-53.3c-0.4-0.3-0.9-0.5-1.4-0.7
			c-0.5-0.1-1.1-0.2-1.7-0.2h-4.3v11.9h4.3c0.6,0,1.1-0.1,1.7-0.2c0.5-0.1,1-0.4,1.4-0.7c0.4-0.3,0.7-0.7,1-1.1
			c0.2-0.5,0.4-1,0.4-1.7v-4.5c0-0.7-0.1-1.2-0.4-1.7C-179.6-52.6-179.9-53-180.3-53.3 M-218-48.8l-2.9-5.4h-2.2l4.1,7.3v4.6h2v-4.6
			l4.2-7.3h-2.3L-218-48.8z M-236.3-44.5c-0.4,0.2-0.9,0.4-1.4,0.4h-2.8v-3.5h2.8c0.6,0,1.1,0.1,1.5,0.4c0.4,0.3,0.6,0.7,0.6,1.4
			C-235.7-45.2-235.9-44.8-236.3-44.5 M-240.6-52.3h2.7c0.5,0,0.9,0.1,1.2,0.3c0.3,0.2,0.5,0.6,0.5,1c0,0.6-0.2,0.9-0.5,1.2
			c-0.3,0.2-0.7,0.4-1.2,0.4h-2.7V-52.3z M-234.1-47.5c-0.1-0.2-0.3-0.5-0.5-0.7c-0.2-0.2-0.5-0.4-0.8-0.5c0.4-0.3,0.7-0.6,0.8-1
			c0.2-0.4,0.3-0.8,0.3-1.2c0-0.5-0.1-1-0.3-1.4c-0.2-0.4-0.5-0.8-0.8-1c-0.3-0.3-0.7-0.5-1.2-0.6c-0.4-0.1-0.9-0.2-1.4-0.2h-4.6
			v11.9h4.6c0.6,0,1.1-0.1,1.6-0.2c0.5-0.1,0.9-0.3,1.3-0.6c0.4-0.3,0.7-0.6,0.9-1.1c0.2-0.4,0.3-1,0.3-1.7c0-0.3,0-0.6-0.1-0.9
			C-233.9-47-234-47.2-234.1-47.5 M-14.8-76.4h4.4c0.9,0,1.6,0.2,2,0.6c0.6,0.4,0.9,1.2,0.9,2.2c0,0.8-0.3,1.5-0.8,2.1
			c-0.5,0.6-1.3,0.9-2.4,0.9h-4.2V-76.4z M-7.5-60h3.3l-4.3-8.4c2.3-0.9,3.5-2.7,3.6-5.3c-0.1-1.8-0.7-3.1-1.8-4
			c-1-0.8-2.2-1.2-3.8-1.2h-7.2v19h2.8v-8.1h3.6L-7.5-60z M-24.4-62.7h-9v-5.6h7.7v-2.5h-7.7v-5.4h9v-2.7h-11.7v19h11.7V-62.7z
			 M-47.1-65.5L-47.1-65.5l-8.4-13.5h-2.6v19h2.8v-13.5h0.1L-47-60h2.6v-19h-2.8V-65.5z M-65.6-66.5v-3.9h-6.5v2.7h3.8v1
			c0,1.2-0.4,2.2-1.1,2.9c-0.7,0.8-1.6,1.1-2.7,1.1c-0.7,0-1.2-0.1-1.7-0.4c-0.5-0.2-0.9-0.6-1.2-1c-0.4-0.4-0.6-0.9-0.7-1.6
			c-0.1-0.7-0.2-1.9-0.2-3.8s0.1-3.1,0.2-3.8c0.1-0.6,0.4-1.2,0.7-1.6c0.3-0.4,0.7-0.7,1.2-1c0.5-0.3,1-0.4,1.7-0.4
			c0.9,0,1.6,0.3,2.3,0.8c0.6,0.5,1,1.2,1.2,2h3c-0.3-1.6-1-2.9-2.1-4c-1.1-1.1-2.6-1.6-4.3-1.6c-1.4,0-2.7,0.4-3.6,1.1
			c-1,0.7-1.7,1.5-2.1,2.3c-0.3,0.5-0.5,1.1-0.6,1.8c-0.1,0.7-0.2,2.2-0.2,4.4c0,2.2,0.1,3.6,0.2,4.4c0.1,0.4,0.2,0.7,0.3,1
			c0.1,0.3,0.2,0.5,0.4,0.8c0.4,0.9,1.2,1.6,2.1,2.3c1,0.7,2.2,1.1,3.6,1.1c1.9,0,3.4-0.7,4.7-2C-66.3-63.1-65.7-64.6-65.6-66.5
			 M-86-78.9h-2.8v19h2.8V-78.9z M-101-70.8c-0.9-0.1-1.6-0.2-2.1-0.3c-0.9-0.2-1.6-0.5-2-0.9c-0.4-0.4-0.6-0.9-0.6-1.5
			c0-0.9,0.3-1.6,0.9-2.1c0.6-0.4,1.3-0.7,2.1-0.7c1.7,0,3.2,0.5,4.6,1.5l1.6-2.4c-1.7-1.3-3.7-1.9-6-2c-1.9,0-3.4,0.5-4.4,1.5
			c-1.1,1-1.6,2.4-1.6,4c0,1.4,0.4,2.6,1.3,3.5c0.8,0.9,2,1.5,3.6,1.8c0.9,0.1,1.7,0.2,2.4,0.4c1.6,0.3,2.4,1.1,2.4,2.6
			c0,1.7-1.2,2.6-3.6,2.6c-2,0-3.8-0.6-5.2-1.9l-1.8,2.2c2,1.7,4.3,2.6,7,2.6c4.2-0.1,6.4-1.9,6.5-5.5c0-1.3-0.4-2.5-1.2-3.5
			C-98-69.9-99.2-70.6-101-70.8 M-126.3-60h11.7v-2.7h-9v-5.6h7.7v-2.5h-7.7v-5.4h9v-2.7h-11.7V-60z M-136.8-65.9
			c-0.1,0.6-0.3,1.1-0.6,1.6c-0.7,1.1-1.8,1.7-3.4,1.7h-3.3v-13.6h3.3c1.4,0,2.5,0.5,3.3,1.6c0.4,0.4,0.6,1,0.7,1.7
			c0.1,0.7,0.1,1.9,0.1,3.5C-136.6-67.7-136.7-66.5-136.8-65.9 M-134.8-75.7c-1.2-2.1-3.1-3.2-5.6-3.2h-6.4v19h6.2
			c1.4,0,2.5-0.3,3.5-0.9c1-0.6,1.7-1.3,2.2-2.2c0.2-0.3,0.4-0.7,0.5-1c0.1-0.3,0.2-0.7,0.3-1.1c0.1-0.8,0.2-2.2,0.2-4.3
			c0-1.9,0-3.3-0.1-4C-134.1-74.3-134.4-75-134.8-75.7 M-157.8-70.8h-7.3v-8.1h-2.8v19h2.8v-8.3h7.3v8.3h2.8v-19h-2.8V-70.8z
			 M-183.4-74.9c0.3-0.4,0.7-0.7,1.2-1c0.5-0.3,1-0.4,1.7-0.4c0.9,0,1.7,0.3,2.3,0.8c0.6,0.5,1,1.2,1.2,2h3c-0.3-1.6-1-2.9-2.1-4
			c-1.1-1.1-2.6-1.6-4.3-1.6c-1.4,0-2.7,0.4-3.6,1.1c-1,0.7-1.7,1.5-2.1,2.3c-0.3,0.5-0.5,1.1-0.6,1.8c-0.1,0.7-0.2,2.2-0.2,4.4
			c0,2.2,0.1,3.6,0.2,4.4c0.1,0.4,0.2,0.7,0.3,1c0.1,0.3,0.2,0.5,0.4,0.8c0.4,0.9,1.2,1.6,2.1,2.3c1,0.7,2.2,1.1,3.6,1.1
			c1.6,0,3-0.5,4.2-1.4c1.1-0.9,1.9-2.3,2.3-4.1h-3c-0.8,1.7-1.9,2.6-3.5,2.6c-0.7,0-1.2-0.1-1.7-0.4c-0.5-0.2-0.9-0.6-1.2-1
			c-0.4-0.4-0.6-0.9-0.7-1.6c-0.1-0.7-0.2-1.9-0.2-3.8s0.1-3.1,0.2-3.8C-184-73.9-183.7-74.5-183.4-74.9 M-197-66.7
			c0,1.3-0.4,2.3-1.1,3c-0.7,0.7-1.6,1.1-2.7,1.1s-2-0.4-2.7-1.1c-0.7-0.7-1.1-1.7-1.1-3v-12.2h-2.8v12.6c0,2,0.7,3.6,1.9,4.7
			c1.2,1.2,2.8,1.8,4.6,1.8c1.9,0,3.4-0.6,4.7-1.8c1.2-1.2,1.8-2.8,1.9-4.8v-12.6h-2.8V-66.7z M-222.7-63.1c-0.5-0.2-0.9-0.6-1.2-1
			c-0.4-0.4-0.6-0.9-0.7-1.6c-0.1-0.7-0.2-1.9-0.2-3.8s0.1-3.1,0.2-3.8c0.1-0.6,0.4-1.2,0.7-1.6c0.3-0.4,0.7-0.7,1.2-1
			c0.5-0.3,1-0.4,1.7-0.4c0.7,0,1.2,0.2,1.7,0.4c0.5,0.3,0.8,0.6,1.1,1c0.4,0.4,0.6,0.9,0.7,1.6c0.1,0.7,0.2,2,0.2,3.8
			s-0.1,3.1-0.2,3.8c-0.1,0.7-0.4,1.2-0.7,1.6c-0.3,0.4-0.6,0.7-1.1,1c-0.5,0.3-1.1,0.4-1.7,0.4C-221.7-62.7-222.3-62.8-222.7-63.1
			 M-217.4-60.9c1-0.7,1.7-1.4,2.1-2.3c0.3-0.5,0.5-1.1,0.6-1.8c0.1-0.8,0.2-2.2,0.2-4.4c0-2.2-0.1-3.7-0.2-4.4
			c-0.1-0.7-0.3-1.4-0.6-1.8c-0.4-0.9-1.1-1.7-2.1-2.3c-1-0.7-2.2-1-3.7-1.1c-1.4,0-2.7,0.4-3.6,1.1c-1,0.7-1.7,1.5-2.1,2.3
			c-0.3,0.5-0.5,1.1-0.6,1.8c-0.1,0.7-0.2,2.2-0.2,4.4c0,2.2,0.1,3.6,0.2,4.4c0.1,0.4,0.2,0.7,0.3,1c0.1,0.3,0.2,0.5,0.4,0.8
			c0.4,0.9,1.2,1.6,2.1,2.3c1,0.7,2.2,1.1,3.6,1.1C-219.6-59.8-218.4-60.2-217.4-60.9 M-245.5-76.4h5V-60h2.8v-16.4h5v-2.6h-12.9
			L-245.5-76.4z M-280.1-55.3c-4-1.3-8.3,0.9-9.5,4.9c-1.3,4,0.9,8.2,4.9,9.4c4,1.3,8.3-0.9,9.5-4.9
			C-273.9-49.8-276.1-54-280.1-55.3 M-273.1-69.9c-7.8,2.8-8.7,2.4-11.6-5.3c-1.5-3.9-5.8-5.9-9.8-4.5c-3.9,1.4-6,5.7-4.5,9.7
			c1.5,3.9,5.8,5.9,9.8,4.5c7.8-2.8,8.7-2.4,11.6,5.3c1.5,3.9,5.8,5.9,9.8,4.5c4-1.4,6-5.7,4.5-9.7
			C-264.8-69.3-269.2-71.3-273.1-69.9"/>
	</g>
</g>
</svg>
