<?xml version="1.0" standalone="no"?>
<!DOCTYPE svg PUBLIC "-//W3C//DTD SVG 20010904//EN"
 "http://www.w3.org/TR/2001/REC-SVG-20010904/DTD/svg10.dtd">
<svg version="1.0" xmlns="http://www.w3.org/2000/svg"
 width="1000.000000pt" height="1000.000000pt" viewBox="0 0 1000.000000 1000.000000"
 preserveAspectRatio="xMidYMid meet">
<metadata>
Created by potrace 1.14, written by Peter Selinger 2001-2017
</metadata>
<g transform="translate(0.000000,1000.000000) scale(0.100000,-0.100000)"
fill="#000000" stroke="none">
<path d="M4719 9996 c-2 -2 -50 -7 -107 -11 -57 -3 -113 -8 -125 -10 -12 -2
-49 -6 -82 -10 -33 -3 -76 -8 -95 -11 -47 -7 -160 -26 -235 -39 -22 -4 -49 -9
-60 -11 -215 -38 -621 -160 -884 -265 -175 -70 -519 -242 -681 -339 -117 -71
-321 -204 -354 -231 -6 -5 -51 -39 -101 -76 -274 -203 -553 -466 -809 -763
-183 -213 -435 -577 -547 -790 -18 -36 -36 -67 -39 -70 -8 -6 -117 -229 -169
-345 -127 -285 -264 -706 -316 -970 -32 -165 -53 -283 -61 -345 -3 -25 -7 -56
-10 -70 -2 -14 -6 -56 -10 -95 -3 -38 -8 -78 -10 -88 -22 -120 -22 -757 1
-921 4 -29 9 -70 21 -186 2 -25 7 -56 9 -70 2 -14 9 -54 14 -90 6 -36 13 -76
16 -90 3 -14 9 -47 15 -75 34 -175 96 -410 155 -591 116 -352 297 -743 479
-1039 40 -65 237 -359 245 -365 3 -3 35 -43 70 -90 233 -306 606 -680 896
-895 44 -33 82 -62 85 -65 3 -3 34 -26 70 -51 477 -337 974 -578 1510 -732
166 -48 288 -77 420 -102 14 -3 36 -7 50 -10 14 -3 36 -7 50 -10 31 -6 210
-33 265 -39 22 -3 56 -7 75 -10 119 -15 270 -21 530 -21 254 0 366 4 515 19
17 2 61 7 99 10 38 4 72 9 75 11 3 2 29 6 56 9 42 5 207 34 280 49 11 2 38 8
60 12 22 5 45 9 50 10 144 31 469 131 660 203 574 216 1155 578 1608 1002 131
122 296 292 387 400 30 36 63 74 73 85 10 11 51 63 90 115 40 52 78 101 85
109 30 31 263 394 329 511 58 104 182 351 213 425 5 11 18 41 29 66 22 50 111
278 115 294 2 6 6 17 9 25 20 51 81 258 116 390 45 174 71 305 101 495 6 39
13 81 15 95 2 14 7 54 10 90 4 36 11 99 15 140 9 81 6 852 -4 910 -3 19 -8 58
-11 85 -3 28 -8 70 -11 95 -5 41 -28 187 -40 250 -2 14 -7 41 -10 60 -12 82
-100 417 -146 560 -292 907 -828 1700 -1567 2318 -102 86 -338 262 -350 262
-5 0 -11 4 -13 9 -1 5 -39 32 -83 60 -44 28 -85 54 -90 59 -23 19 -318 184
-420 235 -422 212 -945 385 -1365 452 -19 3 -42 8 -50 10 -8 2 -37 7 -65 10
-27 3 -63 7 -80 10 -56 9 -100 14 -175 21 -41 3 -84 8 -95 11 -23 6 -690 14
-696 9z"/>
</g>
</svg>
