<?xml version="1.0" encoding="UTF-8"?>
<svg id="Ebene_1" xmlns="http://www.w3.org/2000/svg" version="1.1" viewBox="0 0 474.68 112.55">
  <!-- Generator: Adobe Illustrator 30.2.1, SVG Export Plug-In . SVG Version: 2.1.1 Build 1)  -->
  <path d="M230.25,85.52c-5.23,0-8.56,4.28-8.56,9.18,0,5.51,3.96,9.14,9.22,9.14,2.72,0,5.51-1.12,7.22-3.16l-2.69-2.68c-.84.91-2.43,2.03-4.43,2.03-2.51,0-4.5-1.7-4.75-4.17h12.19c.07-.39.11-.87.11-1.34,0-4.9-3.45-9-8.31-9h0ZM226.47,92.41c.22-1.6,1.82-3.09,3.78-3.09s3.34,1.53,3.48,3.09h-7.26Z"/>
  <path d="M120.05,85.52c-5.33,0-9.36,4.1-9.36,9.18s4.03,9.14,9.36,9.14,9.36-4.06,9.36-9.14-4.02-9.18-9.36-9.18ZM120.05,99.49c-2.76,0-4.65-2.14-4.65-4.79s1.89-4.83,4.65-4.83,4.65,2.17,4.65,4.83-1.89,4.79-4.65,4.79Z"/>
  <polygon points="204.03 93.28 194.77 78.07 191.33 78.07 191.33 103.48 196.22 103.48 196.22 89.32 202.32 99.31 205.73 99.31 211.83 89.32 211.83 103.48 216.73 103.48 216.73 78.07 213.28 78.07 204.03 93.28"/>
  <path d="M143.74,85.52c-1.99,0-3.77.65-5.16,1.77v-1.41h-4.53v26.31h4.72v-9.94c1.41,1.09,2.94,1.6,4.72,1.6,2.61,0,5.12-1.16,6.68-2.98,1.38-1.6,2.21-3.77,2.21-6.16,0-5.2-3.85-9.19-8.64-9.19h0ZM143.02,99.49c-1.78,0-3.34-.87-4.25-2.18v-5.26c.98-1.3,2.54-2.17,4.35-2.17,2.76,0,4.54,2.29,4.54,4.83,0,2.74-2,4.78-4.64,4.78Z"/>
  <path d="M247.79,87.66v-1.78h-4.54v17.6h4.72v-11.07c.58-1.06,2.21-2.54,4.28-2.54.69,0,1.38.07,1.71.18l.55-4.39c-.51-.08-.91-.14-1.6-.14-2.14,0-4.07.83-5.12,2.14h0Z"/>
  <path d="M101.71,80.98h-4.71v4.9h-4.9v3.99h4.9v6.17c0,2.51.4,4.07,1.31,5.26,1.2,1.6,3.27,2.54,6.09,2.54.91,0,2.33-.14,2.94-.36l-.73-3.99c-.33.07-1.23.18-1.92.18-1.16,0-1.92-.33-2.39-.87-.4-.47-.58-1.12-.58-2.21v-6.71h5.8v-3.99h-5.8v-4.91h0Z"/>
  <path d="M37.39,85.52c-1.81,0-3.49.62-4.79,1.63v-9.44h-4.72v25.77h4.72v-11.44c.65-.9,2.29-2.17,4.28-2.17,1.09,0,2.03.36,2.65.98s1.05,1.56,1.05,3.3v9.33h4.72v-8.97c0-3.01-.65-4.79-1.82-6.17-1.44-1.74-3.66-2.82-6.09-2.82Z"/>
  <path d="M13.58,99.49c-4.9,0-8.68-3.77-8.68-8.71s3.63-8.71,8.46-8.71c2.5,0,4.65,1.09,6.17,2.62l3.16-3.34c-2.29-2.21-5.52-3.63-9.29-3.63C5.48,77.71,0,83.48,0,90.78s5.55,13.06,13.46,13.06c4.65,0,8.42-1.99,10.67-4.86l-3.38-3.01c-1.48,1.92-3.88,3.52-7.17,3.52Z"/>
  <path d="M55.46,87.66v-1.78h-4.54v17.6h4.72v-11.07c.58-1.06,2.21-2.54,4.29-2.54.69,0,1.38.07,1.71.18l.54-4.39c-.51-.08-.91-.14-1.6-.14-2.15,0-4.07.83-5.12,2.14Z"/>
  <rect x="66.08" y="85.88" width="4.72" height="17.6"/>
  <path d="M80.56,90.92c0-.9,1.09-1.41,2.39-1.41s2.47.54,3.38,1.2l2.21-3.41c-1.16-.91-3.66-1.77-5.95-1.77-3.48,0-6.75,2.1-6.75,5.48,0,5.66,8.53,4.72,8.53,7.37,0,.87-.98,1.49-2.25,1.49-1.78,0-3.63-.65-4.83-1.74l-2.29,3.37c2.07,1.53,4.65,2.36,7.08,2.36,3.7,0,7-2.07,7-5.44.01-6.12-8.52-5.21-8.52-7.5Z"/>
  <path d="M68.44,76.62c-1.7,0-3.08,1.3-3.08,3.01s1.38,3.02,3.08,3.02,3.08-1.31,3.08-3.02-1.37-3.01-3.08-3.01Z"/>
  <path d="M166.54,85.52c-1.81,0-3.48.62-4.79,1.63v-9.44h-4.72v25.77h4.72v-11.44c.65-.9,2.29-2.17,4.28-2.17,1.09,0,2.03.36,2.65.98.65.65,1.05,1.56,1.05,3.3v9.33h4.72v-8.97c0-3.01-.66-4.79-1.81-6.17-1.45-1.74-3.67-2.82-6.1-2.82Z"/>
  <path d="M399.21,80.98h-4.71v4.9h-4.9v3.99h4.9v6.17c0,2.51.4,4.07,1.3,5.26,1.2,1.6,3.27,2.54,6.1,2.54.91,0,2.32-.14,2.94-.36l-.72-3.99c-.33.07-1.23.18-1.93.18-1.16,0-1.92-.33-2.4-.87-.39-.47-.58-1.12-.58-2.21v-6.71h5.81v-3.99h-5.81v-4.91h0Z"/>
  <rect x="363.25" y="85.88" width="4.72" height="17.6"/>
  <path d="M365.61,76.62c-1.7,0-3.08,1.3-3.08,3.01s1.38,3.02,3.08,3.02,3.09-1.31,3.09-3.02-1.38-3.01-3.09-3.01Z"/>
  <path d="M381.69,82.54c.58-.69,1.49-1.01,2.65-1.01.44,0,1.01.07,1.42.18l.73-4.03c-.98-.26-1.85-.33-2.79-.33-2.39,0-4.24.87-5.48,2.07-1.23,1.2-1.88,2.9-1.88,5.73v.73h-4.54v3.99h4.54v13.61h4.71v-13.61h5.44v-3.99h-5.44v-.55c-.02-1.63.24-2.28.64-2.79Z"/>
  <path d="M421.73,97.31c-.65.83-2.1,2.18-4.1,2.18-.91,0-1.92-.29-2.65-1.09-.55-.62-.87-1.41-.87-3.01v-9.51h-4.71v9.33c0,2.61.65,4.43,1.77,5.8,1.38,1.71,3.56,2.83,5.99,2.83,1.7,0,3.38-.54,4.75-1.78v1.42h4.53v-17.6h-4.71s0,11.43,0,11.43Z"/>
  <path d="M467.86,87.29c-1.38-1.12-3.15-1.77-5.15-1.77-4.79,0-8.64,3.99-8.64,9.18,0,2.39.84,4.57,2.21,6.16,1.56,1.82,4.06,2.98,6.68,2.98,1.78,0,3.3-.51,4.72-1.6v.58c0,2.25-.37,3.34-1.09,4.14-.8.94-2.07,1.42-3.59,1.42-2.9,0-4.53-1.52-5.48-2.54l-2.97,3.09c1.74,2.03,5.01,3.63,8.45,3.63s6.2-1.31,7.8-3.52c1.05-1.48,1.59-3.37,1.59-6.53v-16.63h-4.54v1.41h.01ZM467.68,97.31c-.91,1.31-2.47,2.18-4.24,2.18-2.65,0-4.65-2.03-4.65-4.79,0-2.54,1.77-4.83,4.54-4.83,1.81,0,3.38.87,4.35,2.17v5.27h0Z"/>
  <path d="M441.84,85.52c-1.96,0-3.63.69-4.97,1.77v-1.41h-4.54v17.6h4.72v-11.44c.65-.9,2.29-2.17,4.28-2.17,1.09,0,2.04.36,2.65.98.65.65,1.06,1.56,1.06,3.3v9.33h4.71v-8.97c0-3.01-.65-4.79-1.81-6.17-1.46-1.74-3.67-2.82-6.1-2.82h0Z"/>
  <path d="M352.7,80.98h-4.72v4.9h-4.89v3.99h4.89v6.17c0,2.51.4,4.07,1.31,5.26,1.2,1.6,3.26,2.54,6.09,2.54.91,0,2.32-.14,2.94-.36l-.72-3.99c-.33.07-1.24.18-1.92.18-1.17,0-1.92-.33-2.4-.87-.4-.47-.58-1.12-.58-2.21v-6.71h5.8v-3.99h-5.8v-4.91Z"/>
  <path d="M281.45,87.29c-1.38-1.12-3.16-1.77-5.15-1.77-4.79,0-8.64,3.99-8.64,9.18,0,2.39.87,4.57,2.25,6.16,1.56,1.82,4.03,2.98,6.64,2.98,1.78,0,3.45-.54,4.9-1.78v1.42h4.54v-17.6h-4.54s0,1.41,0,1.41ZM281.27,97.31c-.91,1.31-2.47,2.18-4.25,2.18-2.65,0-4.65-2.03-4.65-4.79,0-2.54,1.78-4.83,4.54-4.83,1.81,0,3.37.87,4.35,2.17v5.27h0Z"/>
  <path d="M301.38,85.52c-1.96,0-3.62.69-4.97,1.77v-1.41h-4.53v17.6h4.71v-11.44c.65-.9,2.29-2.17,4.28-2.17,1.09,0,2.03.36,2.65.98.65.65,1.05,1.56,1.05,3.3v9.33h4.72v-8.97c0-3.01-.65-4.79-1.82-6.17-1.44-1.74-3.65-2.82-6.09-2.82h0Z"/>
  <path d="M260.78,76.62c-1.71,0-3.09,1.3-3.09,3.01s1.38,3.02,3.09,3.02,3.08-1.31,3.08-3.02-1.37-3.01-3.08-3.01Z"/>
  <path d="M329.69,84.82c0-1.96,2.07-2.76,3.92-2.76,1.67,0,3.38.73,4.39,1.67l2.54-3.63c-2.39-1.78-4.79-2.4-7.37-2.4-4.21,0-8.38,2.61-8.38,7.15,0,2.87,1.6,4.61,3.59,5.77,3.41,1.99,8.13,2.39,8.13,5.66,0,1.85-1.52,3.2-3.7,3.2-2.32,0-4.53-1.2-5.99-2.8l-3.2,3.34c2.61,2.4,5.77,3.81,9.18,3.81,4.57,0,8.6-3.12,8.6-7.62,0-8.55-11.71-7.28-11.71-11.39h0Z"/>
  <rect x="258.42" y="85.88" width="4.72" height="17.6"/>
  <path d="M474.68,41.68c0-19.73-27.59-16.79-27.59-24.19,0-2.93,3.53-4.58,7.75-4.58s7.98,1.76,10.92,3.88l7.16-11.04C469.16,2.82,461.06,0,453.66,0,442.39,0,431.83,6.81,431.83,17.73c0,18.32,27.59,15.27,27.59,23.83,0,2.82-3.17,4.82-7.28,4.82-5.76,0-11.74-2.11-15.61-5.63l-7.4,10.92c6.7,4.93,15.03,7.63,22.89,7.63,11.97,0,22.66-6.7,22.66-17.62h0Z"/>
  <path d="M420.66,58.12v-30.18c0-8.46-2.12-14.32-5.75-18.79C410.33,3.52,402.81,0,394.95,0,386.49,0,379.33,4.11,374.75,8.92,370.29,3.52,363.36,0,355.62,0,350.1,0,344.7,1.76,340.24,5.75V1.17h-14.68v56.94h15.26V21.13c2.11-2.7,6.81-7.04,13.27-7.04,2.94,0,6.22.94,8.58,3.52,1.76,1.99,2.82,4.58,2.82,9.74v30.76h15.26v-30.17c0-2.35-.23-4.46-.47-6.34,2-2.94,7.16-7.51,13.74-7.51,2.93,0,6.22.94,8.57,3.52,1.76,1.99,2.82,4.58,2.82,9.74v30.76h15.25Z"/>
  <path d="M291.48,45.2c-9.27,0-15.73-6.58-15.73-15.5s6.57-15.61,15.38-15.61c5.52,0,10.1,2.82,13.14,6.81l10.8-9.51C309.8,4.58,301,0,291.14,0,273.76,0,260.49,13.15,260.49,29.7s12.92,29.59,30.53,29.59c10.68,0,19.13-3.88,25.83-12.8l-11.74-8.8c-2.47,3.75-7.4,7.51-13.63,7.51h0Z"/>
</svg>