<?xml version="1.0" encoding="UTF-8"?>
<svg id="Ebene_1" xmlns="http://www.w3.org/2000/svg" version="1.1" viewBox="0 0 363 107">
  <!-- Generator: Adobe Illustrator 30.2.1, SVG Export Plug-In . SVG Version: 2.1.1 Build 1)  -->
  <path d="M15,13.6h18.8v4.6h-13.8v7h13v4.6h-13v7.7h14.4v4.6H15V13.6Z"/>
  <path d="M41.8,13.6h9.8c5.4,0,10.6,1.8,10.6,8.1,0,4.1-2.4,7.1-6.6,7.7l7.5,12.5h-6.1l-6.6-12h-3.7v12h-5V13.6h.1ZM50.8,25.6c2.8,0,6.2-.2,6.2-3.9,0-3.4-3.1-3.8-5.7-3.8h-4.4v7.7s3.9,0,3.9,0Z"/>
  <path d="M69.4,13.6h6.7l13.7,21,.1.1h-.1l.1-.1V13.6h5v28.3h-6.4l-14-21.7h-.1v21.7h-5s0-28.3,0-28.3Z"/>
  <path d="M117.5,19.7c-1.1-1.5-3-2.2-5-2.2-2.3,0-4.6,1-4.6,3.6,0,5.7,13.4,2.4,13.4,12.5,0,6.1-4.8,9-10.4,9-3.5,0-7-1.1-9.3-3.8l3.8-3.7c1.2,1.9,3.4,3,5.6,3s5-1.3,5-3.9c0-6.2-13.4-2.6-13.4-12.8,0-5.8,5.2-8.6,10.4-8.6,3,0,5.9.8,8.1,2.9,0,0-3.6,4-3.6,4Z"/>
  <path d="M134.8,18.2h-8.7v-4.6h22.4v4.6h-8.7v23.8h-5v-23.8Z"/>
  <path d="M193.8,39.9c-3.4,1.8-7.4,2.8-11.7,2.8-8.7,0-15-5.9-15-14.8s6.2-15,15-15c4.3,0,8.2.9,11.2,3.6l-3.7,3.8c-1.8-1.8-4.6-2.8-7.4-2.8-5.8,0-9.7,4.5-9.7,10.1,0,6,3.9,10.5,9.7,10.5,2.6,0,4.9-.5,6.6-1.5v-6.7h-5.8v-4.6h10.8v14.6h0Z"/>
  <path d="M215.6,12.9c8.8-.2,15.1,5.8,15.1,14.8s-6.2,14.8-15.1,14.9c-8.7,0-15-5.9-15-14.8s6.2-14.9,15-14.9ZM215.6,38.1c5.9,0,9.8-4.5,9.8-10.5,0-5.6-3.9-10.1-9.8-10.1s-9.7,4.5-9.7,10.1c0,6,3.9,10.5,9.7,10.5ZM211.5,5.9c1.8,0,3.1,1.2,3.1,2.9,0,1.6-1.4,2.9-3.1,2.9-1.8,0-3-1.4-3-2.9-.1-1.5,1.2-2.9,3-2.9ZM219.7,5.9c1.8,0,3.1,1.2,3.1,2.9,0,1.6-1.4,2.9-3.1,2.9-1.8,0-3-1.4-3-2.9s1.3-2.9,3-2.9Z"/>
  <path d="M237.8,13.6h5v11.3h13.2v-11.3h5v28.3h-5v-12.4h-13.2v12.5h-5V13.6Z"/>
  <path d="M269.9,13.6h6.7l13.7,21,.1.1h-.1l.1-.1V13.6h5v28.3h-6.4l-14-21.7h-.1v21.7h-5V13.6h0Z"/>
  <path d="M304.1,13.6h18.8v4.6h-13.7v7h13v4.6h-13v7.7h14.4v4.6h-19.5V13.6h0Z"/>
  <path d="M331,13.6h9.8c5.4,0,10.6,1.8,10.6,8.1,0,4.1-2.4,7.1-6.6,7.7l7.5,12.5h-6.1l-6.6-12h-3.6v12h-5V13.6h0ZM339.9,25.6c2.8,0,6.2-.2,6.2-3.9,0-3.4-3.1-3.8-5.7-3.8h-4.4v7.7s3.9,0,3.9,0Z"/>
  <path d="M150.4,84.7c1.4,2.4,3.7,3.6,6.5,3.6,3.6,0,6.4-2.2,6.4-5.6,0-7.9-14.6-3.3-14.6-14,0-5,4.3-7.8,9.1-7.8,3.1,0,5.8,1,7.7,3.6l-2.3,1.6c-1.3-1.8-3.1-2.8-5.5-2.8-3.4,0-6.4,1.8-6.4,5.4,0,8.5,14.6,3.4,14.6,14,0,5.1-4.2,8-8.8,8-3.7,0-7-1.2-9.2-4.3l2.5-1.7Z"/>
  <path d="M180.6,64h-9.7v-2.4h22v2.4h-9.7v25.9h-2.6v-25.9Z"/>
  <path d="M199.7,61.6h2.6v28.3h-2.6s0-28.3,0-28.3Z"/>
  <path d="M212.5,61.6h17v2.4h-14.3v10.1h13.3v2.4h-13.3v13.4h-2.6v-28.3h-.1,0Z"/>
  <path d="M243.4,64h-9.7v-2.4h22v2.4h-9.7v25.9h-2.6v-25.9Z"/>
  <path d="M282.6,79.1c0,6-2.6,11.6-10.3,11.6s-10.3-5.5-10.3-11.6v-17.5h2.6v16.8c0,4,1.1,9.8,7.7,9.8s7.7-5.8,7.7-9.8v-16.8h2.6v17.5h0Z"/>
  <path d="M292.2,61.6h3.4l17.2,24.8h.1v-24.8h2.6v28.3h-3.4l-17.1-24.8h-.1v24.8h-2.6v-28.3s-.1,0-.1,0Z"/>
  <path d="M349.1,88.1c-3.3,1.9-6.9,2.6-10.6,2.6-8.6,0-14.6-6.2-14.6-14.9s6-14.9,14.6-14.9c4.2,0,7.6,1.3,10.2,3.9l-1.9,2c-1.7-2.1-5.2-3.5-8.3-3.5-7.4,0-12,5.4-12,12.5s4.6,12.5,12,12.5c3,0,5.8-.4,7.9-1.7v-9.5h-6.8v-2.4h9.4v13.4h.1,0Z"/>
</svg>