<?xml version="1.0" encoding="UTF-8"?>
<svg id="Ebene_1" xmlns="http://www.w3.org/2000/svg" version="1.1" viewBox="0 0 567.8 35.3">
  <!-- Generator: Adobe Illustrator 30.2.1, SVG Export Plug-In . SVG Version: 2.1.1 Build 1)  -->
  <path d="M24,28.8v5.5H0V2.2h23.2v5.5H6.6v7.3h15.4v5.5H6.6v8.3h17.4Z"/>
  <path d="M35,34.3h-6.2V2.2h6.2v32.1Z"/>
  <path d="M60.3,23.3v1.1h-15.9c.1,3.2,1.6,6.2,5.4,6.2,2.2,0,3.5-1.1,4.3-3h6.1c-1.4,4.7-4.8,7.7-10.6,7.7-7.2,0-11.3-4.7-11.3-12.3,0-8,4.2-12.9,11-12.9,4.6,0,11,2.7,11,13.2ZM53.9,20.2c-.3-3.5-1.9-5.4-4.8-5.4-2.7,0-4.3,1.8-4.7,5.4h9.5Z"/>
  <path d="M78.2,10.5h7l-8.1,9,8.7,14.8h-7.2l-5.7-10.5-2.5,2.7v7.8h-6.2V2.2h6.2v17.6s7.8-9.3,7.8-9.3Z"/>
  <path d="M99,15.1h-3.4v12.3c0,2.1.4,2.6,2,2.6.4,0,.8,0,1.4-.1v4.9c-1.1.4-2.2.5-3.6.5-4,0-6-1.8-6-5.6v-14.6h-3v-4.1h3v-6.4h6.2v6.4h3.4s0,4.1,0,4.1Z"/>
  <path d="M108.9,10.5v4.7c1.3-3.2,3.8-5.1,6.6-5.1h.7v6.2c-.8-.1-1.3-.2-1.9-.2-3.6,0-5.4,1.8-5.4,5.4v12.6h-6.2V10.5h6.2Z"/>
  <path d="M141.4,22.9c0,7.6-4.5,12.4-11.7,12.4s-11.8-4.8-11.8-12.6,4.4-12.6,11.7-12.6,11.8,4.7,11.8,12.8ZM124.1,22.7c0,4.5,2.2,7.6,5.6,7.6s5.6-3.1,5.6-7.5c0-4.7-2.2-7.7-5.6-7.7s-5.6,3.1-5.6,7.6Z"/>
  <path d="M151.3,10.5v3.4c1.8-2.6,3.9-3.8,7.1-3.8,5.1,0,8,3,8,8.2v15.9h-6.2v-14.6c0-2.8-1.3-4.3-4-4.3-3,0-5,1.8-5,4.7v14.3h-6.2V10.5h6.3,0Z"/>
  <path d="M170.1,4.1C170.1,1.9,171.9,0,174.2,0s4.1,1.9,4.1,4.1-1.8,4.1-4.1,4.1c-2.2.1-4.1-1.8-4.1-4.1h0ZM177.3,34.3h-6.2V10.5h6.2v23.8Z"/>
  <path d="M187.1,27.4c.4,1.6,1,3.1,4.8,3.1,2.9,0,4.6-.8,4.6-2.4,0-1.1-.7-1.5-2.1-1.9l-7.3-2c-3.2-.8-5.2-2.9-5.2-6.4,0-4.6,3.7-7.7,9.8-7.7,6.4,0,10.3,3,10.3,8.1h-5.9c0-2.2-1.5-3.2-4.2-3.2-2.4,0-3.8.9-3.8,2.2,0,1,.7,1.8,2.2,2.1l7.4,1.9c3.3.8,5.1,3,5.1,6.2,0,3.4-2.1,8-10.7,8-6.9,0-10.7-2.7-10.9-7.9h5.9v-.1h0Z"/>
  <path d="M211.5,22.9c0,4.6,1.9,7.4,5,7.4,2.4,0,3.6-1.2,4.4-4.3h5.9c-.6,5.7-4.6,9.2-10.3,9.2-7,0-11.1-4.6-11.1-12.4s4.1-12.8,11.2-12.8c5.9,0,9.8,3.5,10.3,9.3h-5.9c-.7-3.1-1.9-4.3-4.4-4.3-4.3.1-5.1,4.6-5.1,7.9h0Z"/>
  <path d="M245.3,19.8c0-2.6-.9-4.4-3.8-4.4s-4.8,1.9-4.8,4.7v14.3h-6.2V2.2h6.2v11.7c1.7-2.6,3.9-3.8,7-3.8,3.4,0,7.7,1.6,7.7,8.2v15.9h-6.2v-14.4s.1,0,.1,0Z"/>
  <path d="M276.8,23.3v1.1h-15.9c.1,3.2,1.6,6.2,5.4,6.2,2.2,0,3.5-1.1,4.3-3h6.1c-1.4,4.7-4.8,7.7-10.6,7.7-7.2,0-11.3-4.7-11.3-12.3,0-8,4.2-12.9,11-12.9,4.6,0,11,2.7,11,13.2ZM270.3,20.2c-.3-3.5-1.9-5.4-4.8-5.4-2.7,0-4.3,1.8-4.7,5.4h9.5Z"/>
  <path d="M284.8,27.4c.4,1.6,1,3.1,4.8,3.1,2.9,0,4.6-.8,4.6-2.4,0-1.1-.7-1.5-2.1-1.9l-7.3-2c-3.2-.8-5.2-2.9-5.2-6.4,0-4.6,3.7-7.7,9.8-7.7,6.4,0,10.3,3,10.3,8.1h-5.9c0-2.2-1.5-3.2-4.2-3.2-2.4,0-3.8.9-3.8,2.2,0,1,.7,1.8,2.2,2.1l7.4,1.9c3.3.8,5.1,3,5.1,6.2,0,3.4-2.1,8-10.7,8-6.9,0-10.7-2.7-10.9-7.9h5.9v-.1h0Z"/>
  <path d="M333,12c-.2-3.3-2.6-5-6.4-5s-5.8,1.6-5.8,4.1c0,2.2,1.7,3.1,3.8,3.5l7.7,1.5c4.6.9,8,3.4,8,8.9,0,6.5-4.8,10.4-13.1,10.4s-12.9-3.7-13.3-10.6h6.4c.2,3.4,2.7,5.3,7.1,5.3,4.1,0,6.5-1.7,6.5-4.5,0-2.5-1.9-3.6-4.2-4l-8-1.6c-4.6-.9-7.3-3.6-7.3-8.3,0-6.2,4.4-9.9,12.1-9.9,5,0,12.6,1.5,12.6,10.3h-6.1v-.1h0Z"/>
  <path d="M354.6,15.1h-3.4v12.3c0,2.1.4,2.6,2,2.6.4,0,.8,0,1.4-.1v4.9c-1.1.4-2.2.5-3.6.5-4,0-6-1.8-6-5.6v-14.6h-3v-4.1h3v-6.4h6.2v6.4h3.4s0,4.1,0,4.1Z"/>
  <path d="M373.2,34.3v-2.8c-1.8,2.6-3.9,3.8-7.1,3.8-5.1,0-8-3-8-8.2V10.5h6.2v15.3c0,2.9,1.3,4.3,4,4.3,3,0,5-1.8,5-4.7v-14.9h6.2v23.8h-6.3Z"/>
  <path d="M383.7,22.8c0-7.2,4.3-12.6,10-12.6,2.9,0,5,1.1,6.6,3.5V2.2h6.2v32.1h-6.2v-2.4c-1.5,2.3-3.6,3.4-6.6,3.4-6,0-10-5.6-10-12.5ZM389.8,22.8c0,4.4,2.1,7.4,5.2,7.4s5.2-3,5.2-7.3-2.1-7.6-5.2-7.6-5.2,3.1-5.2,7.5Z"/>
  <path d="M410.3,4.1C410.3,1.9,412.1,0,414.4,0s4.1,1.9,4.1,4.1-1.8,4.1-4.1,4.1c-2.2.1-4.1-1.8-4.1-4.1ZM417.5,34.3h-6.2V10.5h6.2v23.8Z"/>
  <path d="M444.7,22.9c0,7.6-4.5,12.4-11.8,12.4s-11.8-4.8-11.8-12.6,4.4-12.6,11.7-12.6,11.9,4.7,11.9,12.8h0ZM427.3,22.7c0,4.5,2.2,7.6,5.6,7.6s5.6-3.1,5.6-7.5c0-4.7-2.2-7.7-5.6-7.7s-5.6,3.1-5.6,7.6Z"/>
  <path d="M484.5,24.9c0,4-2.2,9.4-11.3,9.4h-14.4V2.2h14.3c8.4,0,10.5,5.1,10.5,8.4,0,2.4-1,4.9-4.3,6.7,3.9,2.2,5.2,4.4,5.2,7.6h0ZM465.4,7.7v7.3h7.2c3,0,4.7-1.3,4.7-3.6s-1.6-3.7-4.7-3.7h-7.2ZM473.3,28.8c3.2,0,4.9-1.5,4.9-4.1s-1.7-4.2-4.9-4.2h-7.9v8.3h7.9Z"/>
  <path d="M488.1,27.9c0-3.9,2.3-6.4,7-7.2l4.2-.7c1.6-.3,3.2-.6,3.2-2.5,0-1.6-1.2-2.4-3.6-2.4-3,0-4.1,1.2-4.3,3.3h-5.9c.2-5.2,3.5-8.2,10.3-8.2,6.1,0,9.6,2.5,9.6,7.3v13.2c0,1.2.3,1.9,1.4,2.9v.7h-6.7c-.6-.7-.7-1.1-.7-2.4-2.1,2.2-4.1,3.2-6.8,3.2-4.4,0-7.7-2.5-7.7-7.2ZM502.5,23.1c-.7.4-1,.4-2.6.7l-2.1.4c-2,.4-3.5,1-3.5,3.1,0,1.9,1.3,3,3.5,3,3,0,4.8-2,4.8-5.6v-1.6h-.1,0Z"/>
  <path d="M518.2,27.4c.4,1.6,1,3.1,4.8,3.1,2.9,0,4.6-.8,4.6-2.4,0-1.1-.7-1.5-2.1-1.9l-7.3-2c-3.2-.8-5.2-2.9-5.2-6.4,0-4.6,3.7-7.7,9.8-7.7,6.4,0,10.3,3,10.3,8.1h-5.9c0-2.2-1.5-3.2-4.2-3.2-2.4,0-3.8.9-3.8,2.2,0,1,.7,1.8,2.2,2.1l7.4,1.9c3.3.8,5.1,3,5.1,6.2,0,3.4-2.1,8-10.7,8-6.9,0-10.7-2.7-10.9-7.9h5.9v-.1h0Z"/>
  <path d="M558,23.3v1.1h-16c.1,3.2,1.6,6.2,5.4,6.2,2.2,0,3.5-1.1,4.3-3h6.1c-1.4,4.7-4.8,7.7-10.6,7.7-7.2,0-11.3-4.7-11.3-12.3,0-8,4.2-12.9,11-12.9,4.7,0,11.1,2.7,11.1,13.2ZM551.6,20.2c-.3-3.5-1.9-5.4-4.8-5.4-2.7,0-4.3,1.8-4.7,5.4h9.5Z"/>
  <path d="M567.8,34.3h-6.2V2.2h6.2v32.1Z"/>
</svg>