<?xml version="1.0" encoding="UTF-8"?>
<svg id="Ebene_1" xmlns="http://www.w3.org/2000/svg" version="1.1" viewBox="0 0 218.1 28.3">
  <!-- Generator: Adobe Illustrator 30.2.1, SVG Export Plug-In . SVG Version: 2.1.1 Build 1)  -->
  <g>
    <rect x="20.4" y="0" width="1" height="28.3"/>
    <path d="M5.8,9.4c.5-.6,1.5-2.7,4.6-2.7,2.2,0,3.3.9,3.8,1.3,1.3,1.3,1.4,3.2,1.4,4.2v9h-5.6v-7.9c0-.2,0-2-1.9-2-2,0-2,1.8-2,2.3v7.6H.6V7.1h5.3v2.3h-.1Z"/>
    <path d="M46.1,6.8c-1,0-1.9.8-1.9,1.9,0,1,.8,1.9,1.9,1.9,1,0,1.4-.7,1.4-.7.5,1.7-2.3,10.2-6.3,10.2-1.3,0-1.7-1-1.7-2.4,0-1.6.5-3.2,1-5.4.6-2.1,1.1-4.2,1.5-5.3h-3.8c-.5,1.9-4.2,12.7-7.3,12.7-.4,0-.8-.4-.8-1.2,0-.4.4-1.9.5-2.4l1.2-4.2c.3-.9.7-2,.7-2.9,0-1.5-1-2.3-2.2-2.3-3.4,0-4.8,3.1-5.5,4.3l.6.4c.3-.5,1.8-3.1,2.9-3.1.2,0,.3.2.3.7,0,.4-.2,1.2-.4,1.9l-1.3,4.3c-.2.8-.7,2.3-.7,3.4,0,2,1.5,3,2.8,3,4.8,0,7-5.9,7.7-7.6l.1.1c-.1.3-.5,2.1-.5,3,0,2.6,1.2,4.5,3.7,4.5,7.2.1,11.2-14.8,6.1-14.8Z"/>
  </g>
  <path d="M198.4,15.7h2c.7,0,1.1.1,1.4.4.2.2.4.6.4,1,0,.9-.7,1.1-.9,1.2.3.1,1.1.3,1.1,1.4,0,.8-.5,1.1-.7,1.3-.4.3-.8.3-1.2.3h-2v-5.6s-.1,0-.1,0ZM199.1,18.1h1.1c.3,0,1.1,0,1.1-.9,0-.8-.7-.8-1.1-.8h-1.1s0,1.7,0,1.7ZM199.1,20.6h1.3c.6,0,1.1-.3,1.1-1,0-.6-.4-1-1.1-1h-1.3v2Z"/>
  <path d="M205.8,21.3c-.1-.2-.1-.4-.1-.6-.3.6-.9.7-1.2.7-.9,0-1.4-.5-1.4-1.1,0-.3.1-.8.7-1.1.4-.2,1-.3,1.3-.3h.5c0-.5,0-.7-.1-.9-.1-.2-.5-.3-.7-.3-.7,0-.8.5-.8.7h-.7c0-.2,0-.5.3-.7.3-.3.8-.4,1.2-.4.6,0,1.2.2,1.4.6.1.2.1.4.1.6v1.8c0,.1,0,.6.1,1,0,0-.6,0-.6,0ZM205.4,19.4c-.3,0-1.4,0-1.4.8,0,.2.2.7.8.7.4,0,.6-.1.8-.4s.2-.5.2-1c-.2-.1-.3-.1-.4-.1h0Z"/>
  <path d="M208.3,20.1c0,.3.1.7.8.7.3,0,.5-.1.7-.2.1-.1.1-.2.1-.4,0-.4-.3-.4-.8-.6-.8-.2-1.5-.3-1.5-1.1,0-.7.6-1.2,1.5-1.2.5,0,1.2.1,1.4.6.1.2.1.4.1.6h-.7c0-.6-.5-.6-.7-.6-.1,0-.8,0-.8.6,0,.4.3.4.5.5,1.1.3,1.3.3,1.5.5s.3.5.3.7c0,.4-.2.8-.5,1s-.7.3-1.1.3c-.8,0-1.5-.3-1.5-1.2h.7s0-.2,0-.2Z"/>
  <path d="M216.2,15.7h.7v5.5h-.7v-5.5Z"/>
  <path d="M212.3,19.5c0,.8.3,1.4,1.1,1.4.5,0,.8-.2.9-.8h.7c0,.2-.1.5-.3.8-.2.2-.6.5-1.3.5-1.2,0-1.8-.8-1.8-2,0-.8.2-1.4.8-1.8.4-.3.8-.3,1.1-.3,1.7,0,1.7,1.5,1.7,2.2,0,0-2.9,0-2.9,0ZM214.3,19c0-.4-.1-1.1-1-1.1-.5,0-1,.3-1.1,1.1h2.1Z"/>
  <g>
    <path d="M62.2,12.6v-5.5h3.3v.7h-2.5v1.7h2.4v.7h-2.4v2.5h-.8s0-.1,0-.1Z"/>
    <path d="M68.4,10.2c0-.7,0-1.1-.8-1.1-.4,0-.7.2-.7.6h-.8c0-.8.7-1.1,1.5-1.1s1.6.2,1.6,1.3v2.6h-.5c-.1,0-.2,0-.2-.1v-.5h0c-.2.5-.7.7-1.2.7-.7,0-1.3-.3-1.3-1.1,0-1.1,1-1.4,1.9-1.4h.5v.1ZM67.6,10.7c-.4,0-1,.2-1,.7s.3.7.8.7c.9,0,1-.7,1-1.5h-.8v.1Z"/>
    <path d="M72.6,10c0-.5-.3-.8-.8-.8-.7,0-1,.6-1,1.5s.3,1.5,1,1.5c.5,0,.8-.3.8-.9h.7c-.1.9-.7,1.4-1.6,1.4-1.2,0-1.7-.9-1.7-2s.6-2.1,1.8-2.1c.8,0,1.4.5,1.5,1.3h-.7s0,.1,0,.1Z"/>
    <path d="M74.3,12.6v-5.5h.7v2.2h0c.3-.4.7-.6,1.2-.6,1,0,1.3.7,1.3,1.4v2.6h-.7v-2.3c0-.7-.2-1.1-.9-1.1-.3,0-.7.2-.9.5-.2.4-.1.7-.1.9v2h-.6s0-.1,0-.1Z"/>
    <path d="M79,12.6v-5.5h.7v2.2h0c.3-.4.7-.6,1.3-.6,1,0,1.3.7,1.3,1.4v2.6h-.7v-2.3c0-.7-.2-1.1-.9-1.1-.3,0-.7.2-.9.5-.2.4-.1.7-.1.9v2h-.7s0-.1,0-.1Z"/>
    <path d="M87,10.7c0,1.2-.7,2-1.9,2-1.3,0-1.9-.8-1.9-2s.7-2,1.9-2,1.9.8,1.9,2ZM85.1,12.2c.9,0,1.1-.7,1.1-1.5s-.3-1.5-1.1-1.5c-.9,0-1.1.7-1.1,1.5-.1.8.2,1.5,1.1,1.5Z"/>
    <path d="M90.2,10c0-.5-.3-.8-.8-.8-.7,0-1,.6-1,1.5s.3,1.5,1,1.5c.5,0,.8-.3.8-.9h.8c-.1.9-.7,1.4-1.6,1.4-1.2,0-1.7-.9-1.7-2s.6-2.1,1.8-2.1c.8,0,1.4.5,1.5,1.3h-.8s0,.1,0,.1Z"/>
    <path d="M92,12.6v-5.5h.7v2.2h0c.3-.4.7-.6,1.3-.6,1,0,1.3.7,1.3,1.4v2.6h-.7v-2.3c0-.7-.2-1.1-.9-1.1-.3,0-.7.2-.9.5-.2.4-.1.7-.1.9v2h-.7s0-.1,0-.1Z"/>
    <path d="M97.8,8.7c.7,0,1.5.3,1.5,1.2h-.8c0-.5-.3-.6-.8-.6-.4,0-.7.2-.7.6s.7.5.9.5c.7.2,1.4.3,1.4,1.2s-.9,1.2-1.7,1.2-1.5-.4-1.5-1.3h.9c0,.5.3.7.8.7.4,0,.9-.2.9-.7,0-.9-2.3-.2-2.3-1.7-.1-.8.7-1.1,1.4-1.1Z"/>
    <path d="M102.6,10c0-.5-.3-.8-.8-.8-.7,0-1,.6-1,1.5s.3,1.5,1,1.5c.5,0,.8-.3.8-.9h.7c-.1.9-.7,1.4-1.6,1.4-1.2,0-1.7-.9-1.7-2s.6-2.1,1.8-2.1c.8,0,1.4.5,1.5,1.3h-.7s0,.1,0,.1Z"/>
    <path d="M104.4,12.6v-5.5h.7v2.2h0c.3-.4.7-.6,1.2-.6,1,0,1.3.7,1.3,1.4v2.6h-.6v-2.3c0-.7-.2-1.1-.9-1.1-.3,0-.7.2-.9.5-.2.4-.1.7-.1.9v2h-.7s0-.1,0-.1Z"/>
    <path d="M111.4,8.8h.7v3.8h-.7v-.6h0c-.3.5-.8.7-1.3.7-.8,0-1.3-.6-1.3-1.4v-2.5h.7v2.2c0,.7.2,1.2.8,1.2.3,0,.7-.2.9-.6.1-.4.1-.8.1-.9v-1.9h.1Z"/>
    <path d="M113.4,12.6v-5.5h.7v5.5h-.7Z"/>
    <path d="M115.9,10.8c-.1.7.2,1.4,1,1.4.6,0,.8-.2.9-.8h.8c-.1.9-.8,1.3-1.7,1.3-1.2,0-1.7-.9-1.7-2s.6-2.1,1.8-2.1c1.1,0,1.7.8,1.7,1.8v.4h-2.8ZM117.8,10.3c0-.6-.3-1.1-1-1.1-.6,0-1,.5-1,1.1h2Z"/>
    <path d="M125.9,7.1v5.5h-.9l-2.8-4.7h0v4.7h-.7v-5.5h1l2.7,4.6h0v-4.6s.7,0,.7,0Z"/>
    <path d="M130.8,10.7c0,1.2-.7,2-1.9,2-1.3,0-1.9-.8-1.9-2s.7-2,1.9-2c1.3,0,1.9.8,1.9,2ZM128.9,12.2c.9,0,1.1-.7,1.1-1.5s-.3-1.5-1.1-1.5c-.9,0-1.1.7-1.1,1.5s.3,1.5,1.1,1.5Z"/>
    <path d="M132.5,12.6h-.7v-3.8h.7v.7h0c.1-.5.6-.8,1.1-.8h.3v.7h-.3c-.9,0-1.1.5-1.1,1.3v1.9Z"/>
    <path d="M137.1,7.1h.7v5.5h-.7v-.6h0c-.3.5-.8.7-1.3.7-1.1,0-1.6-1-1.6-2s.5-2,1.7-2c.5,0,1,.2,1.2.6h0v-2.2h0ZM136,12.2c.9,0,1.1-.8,1.1-1.5s-.3-1.5-1.1-1.5c-.9,0-1.1.8-1.1,1.5.1.7.3,1.5,1.1,1.5Z"/>
    <path d="M144.8,8.8l-1.4,3.8h-.8l-.9-3.2h0l-1,3.2h-.8l-1.3-3.8h.8l.9,3.1h0l1-3.1h.9l.9,3h0l1-3h.7Z"/>
    <path d="M146,10.8c-.1.7.2,1.4,1,1.4.6,0,.8-.2.9-.8h.8c-.1.9-.8,1.3-1.7,1.3-1.2,0-1.7-.9-1.7-2s.6-2.1,1.8-2.1c1.1,0,1.7.8,1.7,1.8v.4h-2.8ZM147.9,10.3c0-.6-.3-1.1-1-1.1-.6,0-1,.5-1,1.1h2Z"/>
    <path d="M151,8.7c.7,0,1.5.3,1.5,1.2h-.8c0-.5-.3-.6-.8-.6-.4,0-.7.2-.7.6s.7.5.9.5c.7.2,1.4.3,1.4,1.2s-.9,1.2-1.7,1.2-1.5-.4-1.5-1.3h.8c0,.5.3.7.8.7.4,0,.9-.2.9-.7,0-.9-2.3-.2-2.3-1.7,0-.8.8-1.1,1.5-1.1h0Z"/>
    <path d="M153.8,8.8v-.8l.7-.2v1h.9v.5h-.9v2.5c0,.3.2.4.5.4h.4v.6h-1c-.1,0-.3-.1-.4-.3-.1-.2-.2-.2-.2-.7v-2.5h-.7v-.5h.7Z"/>
    <path d="M157.6,8.7c.7,0,1.5.3,1.5,1.2h-.8c0-.5-.3-.6-.8-.6-.4,0-.7.2-.7.6s.7.5.9.5c.7.2,1.4.3,1.4,1.2s-.9,1.2-1.7,1.2-1.5-.4-1.5-1.3h.8c0,.5.3.7.8.7.4,0,.9-.2.9-.7,0-.9-2.3-.2-2.3-1.7,0-.8.8-1.1,1.5-1.1h0Z"/>
    <path d="M162.4,10c0-.5-.3-.8-.8-.8-.7,0-1,.6-1,1.5s.3,1.5,1,1.5c.5,0,.8-.3.8-.9h.7c-.1.9-.7,1.4-1.6,1.4-1.2,0-1.7-.9-1.7-2s.6-2.1,1.8-2.1c.8,0,1.4.5,1.5,1.3h-.7s0,.1,0,.1Z"/>
    <path d="M164.2,12.6v-5.5h.7v2.2h0c.3-.4.7-.6,1.2-.6,1,0,1.3.7,1.3,1.4v2.6h-.7v-2.3c0-.7-.2-1.1-.9-1.1-.3,0-.7.2-.9.5-.2.4-.1.7-.1.9v2h-.6s0-.1,0-.1Z"/>
    <path d="M174.2,8.8l-1.4,3.8h-.8l-.9-3.2h0l-1,3.2h-.8l-1.3-3.8h.8l.9,3.1h0l1-3.1h.9l.9,3h0l1-3h.7Z"/>
    <path d="M175.4,10.8c-.1.7.2,1.4,1,1.4.6,0,.8-.2.9-.8h.8c-.1.9-.8,1.3-1.7,1.3-1.2,0-1.7-.9-1.7-2s.6-2.1,1.8-2.1c1.1,0,1.7.8,1.7,1.8v.4h-2.8ZM177.4,10.3c0-.6-.3-1.1-1-1.1-.6,0-1,.5-1,1.1h2Z"/>
    <path d="M179,7.1h.9v.8h-.9v-.8ZM179.1,12.6v-3.8h.7v3.8h-.7Z"/>
    <path d="M183.7,12.6h-2.8v-.5l1.9-2.8h-1.9v-.5h2.7v.5l-1.9,2.8h2v.5Z"/>
    <path d="M62.2,21.3v-5.5h.8v2.4h2.6v-2.4h.8v5.5h-.8v-2.5h-2.6v2.5h-.8Z"/>
    <path d="M71.1,19.3c0,1.2-.7,2-1.9,2-1.3,0-1.9-.8-1.9-2s.7-2,1.9-2c1.3,0,1.9.8,1.9,2ZM69.2,20.8c.9,0,1.1-.7,1.1-1.5s-.3-1.5-1.1-1.5-1.1.7-1.1,1.5c0,.9.3,1.5,1.1,1.5Z"/>
    <path d="M74.4,18.6c0-.5-.3-.8-.8-.8-.7,0-1,.6-1,1.5s.3,1.5,1,1.5c.5,0,.8-.3.8-.9h.7c-.1.9-.7,1.4-1.6,1.4-1.2,0-1.7-.9-1.7-2s.6-2.1,1.8-2.1c.8,0,1.4.5,1.5,1.3h-.7s0,.1,0,.1Z"/>
    <path d="M76.1,21.3v-5.5h.7v2.2h0c.3-.4.7-.6,1.2-.6,1,0,1.3.7,1.3,1.4v2.6h-.7v-2.4c0-.7-.2-1.1-.9-1.1-.3,0-.7.2-.9.5-.2.4-.1.7-.1.9v2h-.6Z"/>
    <path d="M81.9,17.3c.7,0,1.5.3,1.5,1.2h-.8c0-.5-.3-.7-.8-.7-.4,0-.7.2-.7.6s.7.5.9.5c.7.2,1.4.3,1.4,1.2s-.9,1.2-1.7,1.2-1.5-.4-1.5-1.3h.8c0,.5.3.7.8.7.4,0,.9-.2.9-.7,0-.9-2.3-.2-2.3-1.7,0-.6.8-1,1.5-1Z"/>
    <path d="M86.7,18.6c0-.5-.3-.8-.8-.8-.7,0-1,.6-1,1.5s.3,1.5,1,1.5c.5,0,.8-.3.8-.9h.7c-.1.9-.7,1.4-1.6,1.4-1.2,0-1.7-.9-1.7-2s.6-2.1,1.8-2.1c.8,0,1.4.5,1.5,1.3h-.7s0,.1,0,.1Z"/>
    <path d="M88.5,21.3v-5.5h.7v2.2h0c.3-.4.7-.6,1.2-.6,1,0,1.3.7,1.3,1.4v2.6h-.7v-2.4c0-.7-.2-1.1-.9-1.1-.3,0-.7.2-.9.5-.2.4-.1.7-.1.9v2h-.6Z"/>
    <path d="M95.5,17.4h.7v3.8h-.7v-.6h0c-.3.5-.8.7-1.3.7-.8,0-1.3-.6-1.3-1.4v-2.6h.7v2.3c0,.7.2,1.2.8,1.2.3,0,.7-.2.9-.6.1-.4.1-.8.1-.9v-1.9h.1Z"/>
    <path d="M97.5,21.3v-5.5h.7v5.5h-.7Z"/>
    <path d="M99.9,19.5c-.1.7.2,1.4,1,1.4.6,0,.8-.2.9-.8h.8c-.1.9-.8,1.3-1.7,1.3-1.2,0-1.7-.9-1.7-2s.6-2.1,1.8-2.1c1.1,0,1.7.8,1.7,1.8v.4s-2.8,0-2.8,0ZM101.9,19c0-.6-.3-1.1-1-1.1-.6,0-1,.5-1,1.1h2Z"/>
    <path d="M105.7,21.3v-3.3h-.7v-.5h.7v-.7c0-.8.7-1.1,1.2-1.1.2,0,.3,0,.5.1v.6h-.4c-.4,0-.7.1-.6.5v.6h.9v.5h-.9v3.3h-.7Z"/>
    <path d="M110.7,17.4h.7v3.8h-.7v-.6h0c-.3.5-.8.7-1.3.7-.8,0-1.3-.6-1.3-1.4v-2.6h.7v2.3c0,.7.2,1.2.8,1.2.3,0,.7-.2.9-.6.1-.4.1-.8.1-.9v-1.9h.1ZM108.7,16.5v-.8h.7v.8h-.7ZM110.2,16.5v-.8h.7v.8h-.7Z"/>
    <path d="M113.7,21.3h-.7v-3.8h.7v.7h0c.1-.5.6-.8,1.1-.8h.3v.7h-.3c-.9,0-1.1.5-1.1,1.3,0,0,0,1.9,0,1.9Z"/>
    <path d="M121.2,17.1c-.1-.7-.7-.8-1.3-.8-1.4,0-1.8,1.2-1.8,2.2.1,1.4.5,2.2,2.1,2.2.4,0,.7-.1,1.1-.2v-1.5h-1.3v-.7h2v2.7c-.6.2-1.3.3-1.9.3-.8,0-1.4-.1-2-.6s-.8-1.5-.8-2.2c0-.6.2-1.2.5-1.7.5-.8,1.3-1.2,2.2-1.2s2,.4,2,1.5h-.8,0Z"/>
    <path d="M124,19.5c-.1.7.2,1.4,1,1.4.6,0,.8-.2.9-.8h.8c-.1.9-.8,1.3-1.7,1.3-1.2,0-1.7-.9-1.7-2s.6-2.1,1.8-2.1c1.1,0,1.7.8,1.7,1.8v.4s-2.8,0-2.8,0ZM125.9,19c0-.6-.3-1.1-1-1.1-.6,0-1,.5-1,1.1h2Z"/>
    <path d="M129.1,17.3c.7,0,1.5.3,1.5,1.2h-.8c0-.5-.3-.7-.8-.7-.4,0-.7.2-.7.6s.7.5.9.5c.7.2,1.4.3,1.4,1.2s-.9,1.2-1.7,1.2-1.5-.4-1.5-1.3h.8c0,.5.3.7.8.7.4,0,.9-.2.9-.7,0-.9-2.3-.2-2.3-1.7,0-.6.8-1,1.5-1h0Z"/>
    <path d="M131.8,17.4v-.8l.7-.2v1h.9v.5h-.9v2.5c0,.3.2.4.5.4h.4v.6h-1c-.1,0-.3-.1-.4-.3-.1-.2-.2-.2-.2-.7v-2.4h-.7v-.5l.7-.1Z"/>
    <path d="M136.6,18.9c0-.7,0-1.1-.8-1.1-.4,0-.7.2-.7.6h-.8c0-.8.7-1.1,1.5-1.1s1.6.2,1.6,1.3v2.6h-.5c-.1,0-.2,0-.2-.1v-.5h0c-.2.5-.7.7-1.2.7-.7,0-1.3-.3-1.3-1.1,0-1.1,1-1.4,1.9-1.4h.5v.1ZM135.9,19.4c-.4,0-1,.2-1,.7s.3.7.8.7c.9,0,1-.7,1-1.5h-.8s0,.1,0,.1Z"/>
    <path d="M138.7,21.3v-5.5h.7v5.5h-.7Z"/>
    <path d="M140.9,17.4v-.8l.7-.2v1h.9v.5h-.9v2.5c0,.3.2.4.5.4h.4v.6h-1c-.1,0-.3-.1-.4-.3-.1-.2-.2-.2-.2-.7v-2.4h-.7v-.5l.7-.1Z"/>
    <path d="M146.1,17.4h.7v3.8h-.7v-.6h0c-.3.5-.8.7-1.3.7-.8,0-1.3-.6-1.3-1.4v-2.6h.7v2.3c0,.7.2,1.2.8,1.2.3,0,.7-.2.9-.6.1-.4.1-.8.1-.9v-1.9h.1Z"/>
    <path d="M149,18h0c.3-.5.8-.7,1.2-.7.3,0,1.5.1,1.5,1.3v2.7h-.7v-2.4c0-.6-.3-1-.9-1,0,0-.4,0-.7.3-.1.1-.3.3-.3,1v2.1h-.7v-3.8h.7v.5h-.1Z"/>
    <path d="M155.7,17.4h.7v3.4c0,1.4-.6,2-2,2-.8,0-1.4-.4-1.4-1.2h.8c0,.5.4.7.9.7,1,0,1-.9,1.1-1.7h0c-.2.5-.8.7-1.3.7-1.2,0-1.6-.8-1.6-1.9s.6-2,1.8-2c.4,0,.8.2,1,.5l.1.2-.1-.7ZM154.6,20.7c.8,0,1.1-.7,1.1-1.4s-.3-1.4-1.1-1.4-1.1.8-1.1,1.4.2,1.4,1.1,1.4Z"/>
    <path d="M161.7,17.4h.7v3.8h-.7v-.6h0c-.3.5-.8.7-1.3.7-.8,0-1.3-.6-1.3-1.4v-2.6h.7v2.3c0,.7.2,1.2.8,1.2.3,0,.7-.2.9-.6.1-.4.1-.8.1-.9v-1.9h.1Z"/>
    <path d="M164.6,18h0c.3-.5.8-.7,1.2-.7.3,0,1.5.1,1.5,1.3v2.7h-.7v-2.4c0-.6-.3-1-.9-1,0,0-.4,0-.7.3-.1.1-.3.3-.3,1v2.1h-.7v-3.8h.7v.5h-.1Z"/>
    <path d="M171.2,15.7h.7v5.5h-.7v-.6h0c-.3.5-.8.7-1.3.7-1.1,0-1.6-1-1.6-2s.5-2,1.7-2c.5,0,1,.2,1.2.6h0v-2.2h0ZM170.1,20.9c.9,0,1.1-.8,1.1-1.5s-.3-1.5-1.1-1.5c-.9,0-1.1.8-1.1,1.5s.3,1.5,1.1,1.5Z"/>
    <path d="M175.2,21.3v-5.5h.8v2.4l2.3-2.4h1l-2.5,2.5,2.7,3.1h-1.1l-2.5-2.9v2.9h-.7v-.1Z"/>
    <path d="M183,17.4h.7v3.8h-.7v-.6h0c-.3.5-.8.7-1.3.7-.8,0-1.3-.6-1.3-1.4v-2.6h.7v2.3c0,.7.2,1.2.8,1.2.3,0,.7-.2.9-.6.1-.4.1-.8.1-.9v-1.9h.1Z"/>
    <path d="M185.9,18h0c.3-.5.8-.7,1.2-.7.3,0,1.5.1,1.5,1.3v2.7h-.7v-2.4c0-.6-.3-1-.9-1,0,0-.4,0-.7.3-.1.1-.3.3-.3,1v2.1h-.7v-3.8h.7v.5h-.1Z"/>
    <path d="M191.1,17.3c.7,0,1.5.3,1.5,1.2h-.8c0-.5-.3-.7-.8-.7-.4,0-.7.2-.7.6s.7.5.9.5c.7.2,1.4.3,1.4,1.2s-.9,1.2-1.7,1.2-1.5-.4-1.5-1.3h.8c0,.5.3.7.8.7.4,0,.9-.2.9-.7,0-.9-2.3-.2-2.3-1.7,0-.6.8-1,1.5-1h0Z"/>
    <path d="M193.9,17.4v-.8l.7-.2v1h.9v.5h-.9v2.5c0,.3.2.4.5.4h.4v.6h-1c-.1,0-.3-.1-.4-.3-.1-.2-.2-.2-.2-.7v-2.4h-.7v-.5l.7-.1Z"/>
  </g>
  <g>
    <rect x="20.4" y="0" width="1" height="28.3"/>
    <path d="M5.8,9.4c.5-.6,1.5-2.7,4.6-2.7,2.2,0,3.3.9,3.8,1.3,1.3,1.3,1.4,3.2,1.4,4.2v9h-5.6v-7.9c0-.2,0-2-1.9-2-2,0-2,1.8-2,2.3v7.6H.6V7.1h5.3v2.3h-.1Z"/>
    <path d="M46.1,6.8c-1,0-1.9.8-1.9,1.9,0,1,.8,1.9,1.9,1.9,1,0,1.4-.7,1.4-.7.5,1.7-2.3,10.2-6.3,10.2-1.3,0-1.7-1-1.7-2.4,0-1.6.5-3.2,1-5.4.6-2.1,1.1-4.2,1.5-5.3h-3.8c-.5,1.9-4.2,12.7-7.3,12.7-.4,0-.8-.4-.8-1.2,0-.4.4-1.9.5-2.4l1.2-4.2c.3-.9.7-2,.7-2.9,0-1.5-1-2.3-2.2-2.3-3.4,0-4.8,3.1-5.5,4.3l.6.4c.3-.5,1.8-3.1,2.9-3.1.2,0,.3.2.3.7,0,.4-.2,1.2-.4,1.9l-1.3,4.3c-.2.8-.7,2.3-.7,3.4,0,2,1.5,3,2.8,3,4.8,0,7-5.9,7.7-7.6l.1.1c-.1.3-.5,2.1-.5,3,0,2.6,1.2,4.5,3.7,4.5,7.2.1,11.2-14.8,6.1-14.8Z"/>
  </g>
</svg>