<?xml version="1.0" encoding="UTF-8"?>
<svg id="Ebene_1" xmlns="http://www.w3.org/2000/svg" version="1.1" viewBox="0 0 296.3 28.3">
  <!-- Generator: Adobe Illustrator 30.2.1, SVG Export Plug-In . SVG Version: 2.1.1 Build 1)  -->
  <g>
    <path d="M61.7,15.8h2c.7,0,1.1.1,1.4.4.2.2.4.6.4,1,0,.9-.7,1.1-.9,1.2.3.1,1.1.3,1.1,1.4,0,.8-.5,1.1-.7,1.3-.4.3-.8.3-1.2.3h-2v-5.6s-.1,0-.1,0ZM62.5,18.1h1.1c.3,0,1.1,0,1.1-.9,0-.8-.7-.8-1.1-.8h-1.1s0,1.7,0,1.7ZM62.5,20.7h1.3c.6,0,1.1-.3,1.1-1,0-.6-.4-1-1.1-1h-1.3s0,2,0,2Z"/>
    <path d="M69.2,21.3c-.1-.2-.1-.4-.1-.6-.3.6-.9.7-1.2.7-.9,0-1.4-.5-1.4-1.1,0-.3.1-.8.7-1.1.4-.2,1-.3,1.3-.3h.5c0-.5,0-.7-.1-.9-.1-.2-.5-.3-.7-.3-.7,0-.8.5-.8.7h-.7c0-.2,0-.5.3-.7.3-.3.8-.4,1.2-.4.6,0,1.2.2,1.4.6.1.2.1.4.1.6v1.8c0,.1,0,.6.1,1,0,0-.6,0-.6,0ZM68.7,19.4c-.3,0-1.4,0-1.4.8,0,.2.2.7.8.7.4,0,.6-.1.8-.4.2-.3.2-.5.2-1-.1-.1-.2-.1-.4-.1Z"/>
    <path d="M71.6,20.1c0,.3.1.7.8.7.3,0,.5-.1.7-.2.1-.1.1-.2.1-.4,0-.4-.3-.4-.8-.6-.8-.2-1.5-.3-1.5-1.1,0-.7.6-1.2,1.5-1.2.5,0,1.2.1,1.4.6.1.2.1.4.1.6h-.7c0-.6-.5-.6-.7-.6-.1,0-.8,0-.8.6,0,.4.3.4.5.5,1.1.3,1.3.3,1.5.5s.3.5.3.7c0,.4-.2.8-.5,1s-.7.3-1.1.3c-.8,0-1.5-.3-1.5-1.2h.7s0-.2,0-.2Z"/>
    <path d="M79.6,15.8h.7v5.5h-.7s0-5.5,0-5.5Z"/>
    <path d="M75.7,19.5c0,.8.3,1.4,1.1,1.4.5,0,.8-.2.9-.8h.7c0,.2-.1.5-.3.8-.2.2-.6.5-1.3.5-1.2,0-1.8-.8-1.8-2,0-.8.2-1.4.8-1.8.4-.3.8-.3,1.1-.3,1.7,0,1.7,1.5,1.7,2.2h-2.9,0ZM77.7,19c0-.4-.1-1.1-1-1.1-.5,0-1,.3-1.1,1.1h2.1Z"/>
  </g>
  <g>
    <rect x="19.8" y="0" width="1" height="28.3"/>
    <path d="M5.3,9.4c.5-.6,1.5-2.7,4.6-2.7,2.2,0,3.3.9,3.8,1.3,1.3,1.3,1.4,3.2,1.4,4.2v9h-5.6v-7.9c0-.2,0-2-1.9-2-2,0-2,1.8-2,2.3v7.6H0V7.1h5.3v2.3Z"/>
    <path d="M45.5,6.8c-1,0-1.9.8-1.9,1.9,0,1,.8,1.9,1.9,1.9,1,0,1.4-.7,1.4-.7.5,1.7-2.3,10.2-6.3,10.2-1.3,0-1.7-1-1.7-2.4,0-1.6.5-3.2,1-5.4.6-2.1,1.1-4.2,1.5-5.3h-3.8c-.5,1.9-4.2,12.7-7.3,12.7-.4,0-.8-.4-.8-1.2,0-.4.4-1.9.5-2.4l1.2-4.2c.3-.9.7-2,.7-2.9,0-1.5-1-2.3-2.2-2.3-3.4,0-4.8,3.1-5.5,4.3l.6.4c.3-.5,1.8-3.1,2.9-3.1.1,0,.3.2.3.7,0,.4-.2,1.2-.4,1.9l-1.3,4.3c-.2.8-.7,2.3-.7,3.4,0,2,1.5,3,2.8,3,4.8,0,7-5.9,7.7-7.6l.1.1c-.1.3-.5,2.1-.5,3,0,2.6,1.2,4.5,3.7,4.5,7.2.1,11.2-14.8,6.1-14.8Z"/>
    <path d="M66.2,10.4c0,1.4-.7,2.3-2.2,2.3s-2.3-.9-2.2-2.3v-3.3h.8v3.5c0,1,.6,1.5,1.5,1.5s1.4-.5,1.5-1.5v-3.5h.8v3.3h-.2Z"/>
    <path d="M68.2,9.3h0c.3-.5.8-.7,1.2-.7.3,0,1.5.1,1.5,1.3v2.7h-.7v-2.4c0-.6-.3-1-.9-1,0,0-.4,0-.7.3-.1.1-.3.3-.3,1v2.1h-.7v-3.8h.7v.5h-.1Z"/>
    <path d="M72.2,7.1h.9v.8h-.9v-.8ZM72.3,12.6v-3.8h.7v3.8h-.7Z"/>
    <path d="M75.5,12.6l-1.6-3.8h.8l1.2,3.1,1.2-3.1h.8l-1.7,3.8s-.7,0-.7,0Z"/>
    <path d="M79.2,10.8c-.1.7.2,1.4,1,1.4.6,0,.9-.2.9-.8h.8c-.1.9-.8,1.3-1.7,1.3-1.2,0-1.7-.9-1.7-2s.6-2.1,1.8-2.1,1.7.8,1.7,1.8v.4h-2.8ZM81.1,10.3c0-.6-.3-1.1-1-1.1-.6,0-1,.5-1,1.1h2Z"/>
    <path d="M83.7,12.6h-.7v-3.8h.7v.7h0c.1-.5.6-.8,1.1-.8h.3v.7h-.3c-.9,0-1.1.5-1.1,1.3v1.9Z"/>
    <path d="M87.1,8.7c.7,0,1.5.3,1.5,1.2h-.8c0-.5-.3-.7-.8-.7-.4,0-.7.2-.7.6s.7.5.9.5c.7.2,1.4.3,1.4,1.2s-.9,1.2-1.7,1.2-1.5-.4-1.5-1.3h.8c0,.5.3.7.8.7.4,0,.9-.2.9-.7,0-.9-2.3-.2-2.3-1.7,0-.7.8-1,1.5-1Z"/>
    <path d="M89.6,7.1h.9v.8h-.9v-.8ZM89.7,12.6v-3.8h.7v3.8h-.7Z"/>
    <path d="M91.9,8.8v-.8l.7-.2v1.1h.9v.5h-.9v2.5c0,.3.2.4.5.4h.4v.6h-1c-.1,0-.3-.1-.4-.3s-.2-.2-.2-.7v-2.6h-.7v-.5s.7,0,.7,0Z"/>
    <path d="M95.7,14.1h-.7l.6-1.5-1.6-3.8h.8l1.2,3,1.2-3h.8l-2.3,5.3Z"/>
    <path d="M103.5,10.7c0,1.2-.7,2-1.9,2-1.3,0-1.9-.8-1.9-2s.7-2,1.9-2,1.9.8,1.9,2ZM101.6,12.2c.9,0,1.1-.7,1.1-1.5s-.3-1.5-1.1-1.5c-.9,0-1.2.7-1.2,1.5s.3,1.5,1.2,1.5Z"/>
    <path d="M104.9,12.6v-3.3h-.8v-.5h.8v-.8c0-.8.7-1.1,1.2-1.1.2,0,.3,0,.5.1v.6h-.4c-.4,0-.7.1-.6.5v.6h.9v.5h-.9v3.3h-.7s0,.1,0,.1Z"/>
    <path d="M108.2,12.6l2.3-5.5h.8l2.2,5.5h-.8l-.6-1.4h-2.6l-.6,1.4h-.7ZM109.8,10.5h2.1l-1-2.7-1.1,2.7Z"/>
    <path d="M114.4,9.5v-.7h.7v.6h0c.2-.6.7-.7,1.3-.7,1.1,0,1.6,1,1.6,2s-.5,2-1.8,2c-.3,0-.8-.2-1.1-.6h0v1.9h-.7v-4.5ZM116.2,9.2c-.8,0-1.1.8-1.1,1.5s.2,1.5,1,1.5c.9,0,1.2-.8,1.2-1.5s-.2-1.5-1.1-1.5Z"/>
    <path d="M119.1,9.5v-.7h.7v.6h0c.2-.6.7-.7,1.3-.7,1.1,0,1.6,1,1.6,2s-.5,2-1.8,2c-.3,0-.8-.2-1.1-.6h0v1.9h-.7v-4.5ZM120.9,9.2c-.8,0-1.1.8-1.1,1.5s.2,1.5,1,1.5c.9,0,1.2-.8,1.2-1.5s-.2-1.5-1.1-1.5Z"/>
    <path d="M123.9,12.6v-5.5h.7v5.5h-.7Z"/>
    <path d="M126.1,7.1h.9v.8h-.9v-.8ZM126.1,12.6v-3.8h.7v3.8h-.7Z"/>
    <path d="M128.7,10.8c-.1.7.2,1.4,1,1.4.6,0,.9-.2.9-.8h.8c-.1.9-.8,1.3-1.7,1.3-1.2,0-1.7-.9-1.7-2s.6-2.1,1.8-2.1c1.1,0,1.7.8,1.7,1.8v.4h-2.8ZM130.6,10.3c0-.6-.3-1.1-1-1.1-.6,0-1,.5-1,1.1h2Z"/>
    <path d="M135.1,7.1h.7v5.6h-.7v-.6h0c-.3.5-.8.7-1.3.7-1.1,0-1.6-1.1-1.6-2,0-1,.5-2,1.7-2,.5,0,1,.2,1.2.6h0v-2.3h0ZM134,12.2c.9,0,1.1-.8,1.1-1.5s-.3-1.5-1.1-1.5c-.9,0-1.1.8-1.1,1.5s.3,1.5,1.1,1.5Z"/>
    <path d="M139.5,11c0,.8.5,1.1,1.2,1.1.6,0,1.4-.2,1.4-1,0-.5-.4-.8-.9-.9-.9-.2-2.4-.4-2.4-1.6s1.1-1.6,2.1-1.6c.9,0,1.9.4,1.9,1.5h-.8c0-.6-.6-.8-1.1-.8s-1.3.2-1.3.9c0,.6.4.7.9.8,1,.3,2.4.3,2.4,1.7,0,1.3-1.1,1.7-2.2,1.7-1.2,0-2-.5-2-1.7h.8v-.1h0Z"/>
    <path d="M146.2,10c0-.5-.3-.8-.8-.8-.7,0-1,.6-1,1.5s.3,1.5,1,1.5c.5,0,.8-.3.8-.9h.7c-.1.9-.7,1.4-1.6,1.4-1.2,0-1.7-.9-1.7-2s.6-2.1,1.8-2.1c.8,0,1.4.5,1.5,1.3h-.7s0,.1,0,.1Z"/>
    <path d="M147.7,7.1h.9v.8h-.9v-.8ZM147.8,12.6v-3.8h.7v3.8h-.7Z"/>
    <path d="M150.5,10.8c-.1.7.2,1.4,1,1.4.6,0,.8-.2.9-.8h.8c-.1.9-.8,1.3-1.7,1.3-1.2,0-1.7-.9-1.7-2s.6-2.1,1.8-2.1,1.7.8,1.7,1.8v.4h-2.8ZM152.4,10.3c0-.6-.3-1.1-1-1.1-.6,0-1,.5-1,1.1h2Z"/>
    <path d="M155,9.3h0c.3-.5.8-.7,1.2-.7.3,0,1.5.1,1.5,1.3v2.7h-.7v-2.4c0-.6-.3-1-.9-1,0,0-.4,0-.7.3-.1.1-.3.3-.3,1v2.1h-.7v-3.8h.7v.5h-.1Z"/>
    <path d="M161.1,10c0-.5-.3-.8-.8-.8-.7,0-1,.6-1,1.5s.3,1.5,1,1.5c.5,0,.8-.3.8-.9h.7c-.1.9-.7,1.4-1.6,1.4-1.2,0-1.7-.9-1.7-2s.6-2.1,1.8-2.1c.8,0,1.4.5,1.5,1.3h-.7s0,.1,0,.1Z"/>
    <path d="M163.4,10.8c-.1.7.2,1.4,1,1.4.6,0,.9-.2.9-.8h.8c-.1.9-.8,1.3-1.7,1.3-1.2,0-1.7-.9-1.7-2s.6-2.1,1.8-2.1,1.7.8,1.7,1.8v.4h-2.8ZM165.3,10.3c0-.6-.3-1.1-1-1.1-.6,0-1,.5-1,1.1h2Z"/>
    <path d="M168.5,8.7c.7,0,1.5.3,1.5,1.2h-.8c0-.5-.3-.7-.8-.7-.4,0-.7.2-.7.6s.7.5.9.5c.7.2,1.4.3,1.4,1.2s-.9,1.2-1.7,1.2-1.5-.4-1.5-1.3h.8c0,.5.3.7.8.7.4,0,.9-.2.9-.7,0-.9-2.3-.2-2.3-1.7,0-.7.8-1,1.5-1h0Z"/>
    <path d="M208.7,7.1v5.5h-1l-2.7-4.7h0v4.7h-.7v-5.5h1.1l2.7,4.6h0v-4.6h.6,0Z"/>
    <path d="M213.6,10.7c0,1.2-.7,2-1.9,2-1.3,0-1.9-.8-1.9-2s.7-2,1.9-2,1.9.8,1.9,2ZM211.7,12.2c.9,0,1.2-.7,1.2-1.5s-.3-1.5-1.2-1.5-1.2.7-1.2,1.5.3,1.5,1.2,1.5Z"/>
    <path d="M215.2,12.6h-.7v-3.8h.7v.7h0c.1-.5.6-.8,1.1-.8h.3v.7h-.3c-.9,0-1.1.5-1.1,1.3v1.9Z"/>
    <path d="M217.6,8.8v-.8l.7-.2v1.1h.9v.5h-.9v2.5c0,.3.2.4.5.4h.4v.6h-1c-.1,0-.3-.1-.4-.3-.1-.2-.2-.2-.2-.7v-2.6h-.7v-.5s.7,0,.7,0Z"/>
    <path d="M220.2,12.6v-5.5h.7v2.2h0c.3-.4.7-.6,1.2-.6,1,0,1.3.7,1.3,1.4v2.6h-.7v-2.3c0-.7-.2-1.1-.9-1.1-.3,0-.7.2-.9.5-.2.4-.1.7-.1.9v2h-.6s0-.1,0-.1Z"/>
    <path d="M230.3,8.8l-1.4,3.8h-.8l-.9-3.2h0l-1,3.2h-.9l-1.3-3.8h.8l.9,3.1h0l1-3.1h.9l.9,3h0l1-3s.8,0,.8,0Z"/>
    <path d="M231.5,10.8c-.1.7.2,1.4,1,1.4.6,0,.8-.2.9-.8h.8c-.1.9-.8,1.3-1.7,1.3-1.2,0-1.7-.9-1.7-2s.6-2.1,1.8-2.1,1.7.8,1.7,1.8v.4h-2.8ZM233.4,10.3c0-.6-.3-1.1-1-1.1-.6,0-1,.5-1,1.1h2Z"/>
    <path d="M236.6,8.7c.7,0,1.5.3,1.5,1.2h-.8c0-.5-.3-.7-.8-.7-.4,0-.7.2-.7.6s.7.5.9.5c.7.2,1.4.3,1.4,1.2s-.9,1.2-1.7,1.2-1.5-.4-1.5-1.3h.8c0,.5.3.7.8.7.4,0,.9-.2.9-.7,0-.9-2.3-.2-2.3-1.7,0-.7.8-1,1.5-1h0Z"/>
    <path d="M239.4,8.8v-.8l.7-.2v1.1h.9v.5h-.9v2.5c0,.3.2.4.5.4h.4v.6h-1c-.1,0-.3-.1-.4-.3-.1-.2-.2-.2-.2-.7v-2.6h-.7v-.5s.7,0,.7,0Z"/>
    <path d="M242.4,10.8c-.1.7.2,1.4,1,1.4.6,0,.9-.2.9-.8h.8c-.1.9-.8,1.3-1.7,1.3-1.2,0-1.7-.9-1.7-2s.6-2.1,1.8-2.1,1.7.8,1.7,1.8v.4h-2.8ZM244.3,10.3c0-.6-.3-1.1-1-1.1-.6,0-1,.5-1,1.1h2Z"/>
    <path d="M246.7,12.6h-.7v-3.8h.7v.7h0c.1-.5.6-.8,1.1-.8h.3v.7h-.3c-.9,0-1.1.5-1.1,1.3v1.9Z"/>
    <path d="M249.6,9.3h0c.3-.5.8-.7,1.2-.7.3,0,1.5.1,1.5,1.3v2.7h-.7v-2.4c0-.6-.3-1-.9-1,0,0-.4,0-.7.3-.1.1-.3.3-.3,1v2.1h-.7v-3.8h.7v.5h-.1Z"/>
    <path d="M255.9,11c0,.8.5,1.1,1.2,1.1.6,0,1.4-.2,1.4-1,0-.5-.4-.8-.9-.9-.9-.2-2.4-.4-2.4-1.6s1.1-1.6,2.1-1.6c.9,0,1.9.4,1.9,1.5h-.8c0-.6-.6-.8-1.1-.8s-1.3.2-1.3.9c0,.6.4.7.9.8,1,.3,2.4.3,2.4,1.7,0,1.3-1.1,1.7-2.2,1.7-1.2,0-2-.5-2-1.7h.8v-.1h0Z"/>
    <path d="M266,8.8l-1.4,3.8h-.8l-.9-3.2h0l-1,3.2h-.9l-1.3-3.8h.8l.9,3.1h0l1-3.1h.9l.9,3h0l1-3s.8,0,.8,0Z"/>
    <path d="M266.6,7.1h.9v.8h-.9v-.8ZM266.7,12.6v-3.8h.7v3.8h-.7Z"/>
    <path d="M268.9,8.8v-.8l.7-.2v1.1h.9v.5h-.9v2.5c0,.3.2.4.5.4h.4v.6h-1c-.1,0-.3-.1-.4-.3s-.2-.2-.2-.7v-2.6h-.7v-.5s.7,0,.7,0Z"/>
    <path d="M273.9,12.6h-2.8v-.5l1.9-2.8h-1.9v-.5h2.7v.5l-1.9,2.8h2v.5h0Z"/>
    <path d="M275.3,10.8c-.1.7.2,1.4,1,1.4.6,0,.9-.2.9-.8h.8c-.1.9-.8,1.3-1.7,1.3-1.2,0-1.7-.9-1.7-2s.6-2.1,1.8-2.1,1.7.8,1.7,1.8v.4h-2.8,0ZM277.2,10.3c0-.6-.3-1.1-1-1.1-.6,0-1,.5-1,1.1h2Z"/>
    <path d="M279.8,12.6h-.7v-3.8h.7v.7h0c.1-.5.6-.8,1.1-.8h.3v.7h-.3c-.9,0-1.1.5-1.1,1.3v1.9Z"/>
    <path d="M282,12.6v-5.5h.7v5.5h-.7Z"/>
    <path d="M286.3,10.2c0-.7,0-1.1-.8-1.1-.4,0-.7.2-.7.6h-.8c0-.8.7-1.1,1.5-1.1s1.6.2,1.6,1.3v2.6h-.5c-.1,0-.2,0-.2-.1v-.5h0c-.2.5-.7.7-1.2.7-.7,0-1.3-.3-1.3-1.1,0-1.1,1-1.4,1.9-1.4h.5v.1ZM285.6,10.8c-.4,0-1,.2-1,.7s.3.7.8.7c.9,0,1-.7,1-1.5h-.8v.1Z"/>
    <path d="M289,9.3h0c.3-.5.8-.7,1.2-.7.3,0,1.5.1,1.5,1.3v2.7h-.7v-2.4c0-.6-.3-1-.9-1,0,0-.4,0-.7.3-.1.1-.3.3-.3,1v2.1h-.7v-3.8h.7v.5h-.1Z"/>
    <path d="M295.5,7.1h.7v5.6h-.7v-.6h0c-.3.5-.8.7-1.3.7-1.1,0-1.6-1.1-1.6-2,0-1,.5-2,1.7-2,.5,0,1,.2,1.2.6h0v-2.3h0ZM294.4,12.2c.9,0,1.1-.8,1.1-1.5s-.3-1.5-1.1-1.5c-.9,0-1.1.8-1.1,1.5s.3,1.5,1.1,1.5Z"/>
    <path d="M186.9,12.6l2.3-5.5h.8l2.2,5.5h-.8l-.6-1.4h-2.6l-.6,1.4h-.7,0ZM188.6,10.5h2.1l-1-2.7-1.1,2.7Z"/>
    <path d="M193.9,12.6h-.7v-3.8h.7v.7h0c.1-.5.6-.8,1.1-.8h.3v.7h-.3c-.9,0-1.1.5-1.1,1.3v1.9Z"/>
    <path d="M196.3,8.8v-.8l.7-.2v1.1h.9v.5h-.9v2.5c0,.3.2.4.5.4h.4v.6h-1c-.1,0-.3-.1-.4-.3-.1-.2-.2-.2-.2-.7v-2.6h-.7v-.5s.7,0,.7,0Z"/>
    <path d="M174.8,10.2c0-.7,0-1.1-.8-1.1-.4,0-.7.2-.7.6h-.8c0-.8.7-1.1,1.5-1.1s1.6.2,1.6,1.3v2.6h-.5c-.1,0-.2,0-.2-.1v-.5h0c-.2.5-.7.7-1.2.7-.7,0-1.3-.3-1.3-1.1,0-1.1,1-1.4,1.9-1.4h.5v.1ZM174.1,10.8c-.4,0-1,.2-1,.7s.3.7.8.7c.9,0,1-.7,1-1.5h-.8v.1Z"/>
    <path d="M177.5,9.3h0c.3-.5.8-.7,1.2-.7.3,0,1.5.1,1.5,1.3v2.7h-.7v-2.4c0-.6-.3-1-.9-1,0,0-.4,0-.7.3-.1.1-.3.3-.3,1v2.1h-.7v-3.8h.7v.5h-.1Z"/>
    <path d="M184.1,7.1h.7v5.6h-.7v-.6h0c-.3.5-.8.7-1.3.7-1.1,0-1.6-1.1-1.6-2,0-1,.5-2,1.7-2,.5,0,1,.2,1.2.6h0v-2.3h0ZM183,12.2c.9,0,1.1-.8,1.1-1.5s-.3-1.5-1.1-1.5c-.9,0-1.1.8-1.1,1.5s.2,1.5,1.1,1.5Z"/>
    <path d="M200,8.7c.7,0,1.5.3,1.5,1.2h-.8c0-.5-.3-.7-.8-.7-.4,0-.7.2-.7.6s.7.5.9.5c.7.2,1.4.3,1.4,1.2s-.9,1.2-1.7,1.2-1.5-.4-1.5-1.3h.8c0,.5.3.7.8.7.4,0,.9-.2.9-.7,0-.9-2.3-.2-2.3-1.7-.1-.7.8-1,1.5-1h0Z"/>
  </g>
  <path d="M82.3,21.3l2.3-5.5h.8l2.2,5.5h-.8l-.6-1.4h-2.6l-.6,1.4h-.7ZM84,19.2h2l-1-2.7-1,2.7Z"/>
  <path d="M90.7,18.6c0-.5-.3-.8-.8-.8-.7,0-1,.6-1,1.5s.3,1.5,1,1.5c.5,0,.8-.3.8-.9h.7c-.1.9-.7,1.4-1.6,1.4-1.2,0-1.7-.9-1.7-2s.6-2.1,1.8-2.1c.8,0,1.4.5,1.5,1.3h-.7s0,.1,0,.1Z"/>
  <path d="M94.7,18.9c0-.7,0-1.1-.8-1.1-.4,0-.7.2-.7.6h-.8c0-.8.7-1.1,1.5-1.1s1.6.2,1.6,1.3v2.6h-.5c-.1,0-.2,0-.2-.1v-.5h0c-.2.5-.7.7-1.2.7-.7,0-1.3-.3-1.3-1.1,0-1.1,1-1.4,1.9-1.4h.5v.1ZM94,19.4c-.4,0-1,.2-1,.7s.3.7.8.7c.9,0,1-.7,1-1.5h-.8s0,.1,0,.1Z"/>
  <path d="M99.5,15.7h.7v5.6h-.7v-.6h0c-.3.5-.8.7-1.3.7-1.1,0-1.6-1.1-1.6-2,0-1,.5-2,1.7-2,.5,0,1,.2,1.2.6h0s0-2.3,0-2.3ZM98.4,20.9c.9,0,1.1-.8,1.1-1.5s-.3-1.5-1.1-1.5c-.9,0-1.1.8-1.1,1.5s.3,1.5,1.1,1.5Z"/>
  <path d="M102,19.5c-.1.7.2,1.4,1,1.4.6,0,.9-.2.9-.8h.8c-.1.9-.8,1.3-1.7,1.3-1.2,0-1.7-.9-1.7-2s.6-2.1,1.8-2.1c1.1,0,1.7.8,1.7,1.8v.4s-2.8,0-2.8,0ZM104,19c0-.6-.3-1.1-1-1.1-.6,0-1,.5-1,1.1h2Z"/>
  <path d="M106.6,18h0c.2-.5.7-.7,1.1-.7.7,0,1.2.2,1.4.7.3-.5.7-.7,1.3-.7.9,0,1.4.6,1.4,1.3v2.7h-.7v-2.3c0-.5-.1-1.1-.9-1.1-.2,0-.7.1-.9.6-.1.4-.1.7-.1.8v2h-.7v-2.3c0-.7-.2-1.1-.9-1.1-.3,0-.7.1-1,.6-.1.2-.1.7-.1.8v2h-.7v-3.8h.7v.5s.1,0,.1,0Z"/>
  <path d="M114.4,22.7h-.7l.6-1.5-1.6-3.8h.8l1.2,3,1.2-3h.8l-2.3,5.3Z"/>
  <path d="M122.2,19.3c0,1.2-.7,2-1.9,2-1.3,0-1.9-.8-1.9-2s.7-2,1.9-2,1.9.8,1.9,2ZM120.3,20.8c.9,0,1.1-.7,1.1-1.5s-.3-1.5-1.1-1.5c-.9,0-1.2.7-1.2,1.5,0,.9.3,1.5,1.2,1.5Z"/>
  <path d="M123.6,21.3v-3.3h-.8v-.5h.8v-.7c0-.8.7-1.1,1.2-1.1.2,0,.3,0,.5.1v.6h-.4c-.4,0-.7.1-.6.5v.6h.9v.5h-.9v3.3h-.7Z"/>
  <path d="M126.9,21.3l2.3-5.5h.8l2.2,5.5h-.8l-.6-1.4h-2.6l-.6,1.4h-.7,0ZM128.5,19.2h2.1l-1-2.7-1.1,2.7Z"/>
  <path d="M133.8,21.3h-.7v-3.8h.7v.7h0c.1-.5.6-.8,1.1-.8h.3v.7h-.3c-.9,0-1.1.5-1.1,1.3,0,0,0,1.9,0,1.9Z"/>
  <path d="M136.2,17.4v-.8l.7-.2v1.1h.9v.5h-.9v2.5c0,.3.2.4.5.4h.4v.6h-1c-.1,0-.3-.1-.4-.3-.1-.2-.2-.2-.2-.7v-2.4h-.7v-.5l.7-.2Z"/>
  <path d="M142.8,18.9c0-.7,0-1.1-.8-1.1-.4,0-.7.2-.7.6h-.8c0-.8.7-1.1,1.5-1.1s1.6.2,1.6,1.3v2.6h-.6c-.1,0-.2,0-.2-.1v-.5h0c-.2.5-.7.7-1.2.7-.7,0-1.3-.3-1.3-1.1,0-1.1,1-1.4,1.9-1.4h.6v.1ZM142,19.4c-.4,0-1,.2-1,.7s.3.7.8.7c.9,0,1-.7,1-1.5h-.8s0,.1,0,.1Z"/>
  <path d="M145.4,18h0c.3-.5.8-.7,1.2-.7.3,0,1.5.1,1.5,1.3v2.7h-.7v-2.4c0-.6-.3-1-.9-1,0,0-.4,0-.7.3-.1.1-.3.3-.3,1v2.1h-.7v-3.8h.7v.5h-.1Z"/>
  <path d="M152,15.7h.7v5.6h-.7v-.6h0c-.3.5-.8.7-1.3.7-1.1,0-1.6-1.1-1.6-2,0-1,.5-2,1.7-2,.5,0,1,.2,1.2.6h0v-2.3h0ZM150.9,20.9c.9,0,1.1-.8,1.1-1.5s-.3-1.5-1.1-1.5c-.9,0-1.1.8-1.1,1.5s.3,1.5,1.1,1.5Z"/>
  <path d="M155.5,15.7h1.8c.5,0,1.1.1,1.5.3.8.5,1.2,1.4,1.2,2.4s-.4,1.9-1.2,2.4c-.4.3-1,.3-1.5.3h-1.8s0-5.4,0-5.4ZM156.3,20.6h1.1c.8,0,1.2-.3,1.4-.6.3-.5.4-1,.4-1.5s-.1-1-.4-1.5c-.2-.3-.6-.6-1.4-.6h-1.1v4.2Z"/>
  <path d="M161.6,19.5c-.1.7.2,1.4,1,1.4.6,0,.9-.2.9-.8h.8c-.1.9-.8,1.3-1.7,1.3-1.2,0-1.7-.9-1.7-2s.6-2.1,1.8-2.1c1.1,0,1.7.8,1.7,1.8v.4s-2.8,0-2.8,0ZM163.6,19c0-.6-.3-1.1-1-1.1-.6,0-1,.5-1,1.1h2Z"/>
  <path d="M166.7,17.3c.7,0,1.5.3,1.5,1.2h-.8c0-.5-.3-.7-.8-.7-.4,0-.7.2-.7.6s.7.5.9.5c.7.2,1.4.3,1.4,1.2s-.9,1.2-1.7,1.2-1.5-.4-1.5-1.3h.8c0,.5.3.7.8.7.4,0,.9-.2.9-.7,0-.9-2.3-.2-2.3-1.7,0-.6.8-1,1.5-1h0Z"/>
  <path d="M169.3,15.7h.9v.8h-.9v-.8ZM169.4,21.3v-3.8h.7v3.8h-.7Z"/>
  <path d="M174.2,17.4h.8v3.4c0,1.4-.6,2-2,2-.8,0-1.4-.4-1.4-1.2h.8c0,.5.4.7.9.7,1,0,1-.9,1.1-1.7h0c-.2.5-.8.7-1.3.7-1.2,0-1.6-.8-1.6-1.9s.6-2,1.8-2c.4,0,.8.2,1,.5l.1.2-.2-.7h0ZM173.1,20.7c.8,0,1.1-.7,1.1-1.4s-.3-1.4-1.1-1.4c-.9,0-1.1.8-1.1,1.4s.3,1.4,1.1,1.4Z"/>
  <path d="M176.8,18h0c.3-.5.8-.7,1.2-.7.3,0,1.5.1,1.5,1.3v2.7h-.7v-2.4c0-.6-.3-1-.9-1,0,0-.4,0-.7.3-.1.1-.3.3-.3,1v2.1h-.9v-3.8h.7v.5h.1,0Z"/>
</svg>