<?xml version="1.0" encoding="UTF-8"?>
<svg id="Ebene_1" xmlns="http://www.w3.org/2000/svg" version="1.1" viewBox="0 0 1021.9 218.9">
  <!-- Generator: Adobe Illustrator 30.2.1, SVG Export Plug-In . SVG Version: 2.1.1 Build 1)  -->
  <path d="M387.2,133.1c0,2.2-1.6,3.9-3.9,3.9s-3.9-1.6-3.9-3.9v-47.1c0-2.2,1.6-3.9,3.9-3.9h29.6c1.8,0,3.4,1.5,3.4,3.4,0,1.8-1.5,3.4-3.4,3.4h-25.7v18.1h19.8c1.8,0,3.4,1.5,3.4,3.4,0,1.8-1.5,3.4-3.4,3.4h-19.8v19.3ZM461.2,136.9c-2.2,0-3.9-1.6-3.9-3.9v-47c0-2.2,1.6-3.9,3.9-3.9s3.9,1.6,3.9,3.9v44.1h26.2c1.8,0,3.4,1.5,3.4,3.4,0,1.8-1.5,3.4-3.4,3.4h-30.1ZM530.8,112.9v-26.9c0-2.2,1.6-3.9,3.9-3.9s3.9,1.6,3.9,3.9v26.4c0,12.2,4,18.2,15.2,18.2s15.2-6,15.2-18.2v-26.4c0-2.2,1.6-3.9,3.9-3.9s3.9,1.6,3.9,3.9v26.9c0,15.1-7.7,24.5-22.8,24.5s-23.2-9.3-23.2-24.5h0ZM641.3,116l-16.3,19.5c-.8,1-1.7,1.4-3,1.4-2.2,0-3.9-1.6-3.9-3.9,0-.9.2-1.5.6-2.1l17.9-21.5-17.7-21.3c-.4-.6-.6-1.3-.6-2.1,0-2.2,1.4-3.9,3.7-3.9,1.3,0,2.2.5,3,1.4l16.3,19.4,16.3-19.4c.8-1,1.7-1.4,3-1.4,2.2,0,3.7,1.6,3.7,3.9,0,.9-.2,1.5-.6,2.1l-17.7,21.3,17.9,21.5c.4.6.6,1.3.6,2.1,0,2.2-1.6,3.9-3.9,3.9-1.3,0-2.2-.5-3-1.4l-16.3-19.5ZM711.7,136.9c-2.2,0-3.9-1.6-3.9-3.9v-47c0-2.2,1.6-3.9,3.9-3.9h15.3c15.4,0,26.3,12.1,26.3,27.6s-10.9,27.2-26.3,27.2h-15.3ZM725.2,130.6c12,0,20.4-8.5,20.4-20.5s-8.5-21.2-20.4-21.2h-9.7v41.7h9.7ZM793.4,109.5c0-15.4,12.5-27.9,27.9-27.9s27.9,12.5,27.9,27.9-12.5,28-27.9,28c-15.4-.1-27.9-12.6-27.9-28ZM801.1,109.7c0,11.9,8.3,20.9,20.1,20.9s20.3-9,20.3-20.9-8.4-21.2-20.3-21.2-20.1,9.3-20.1,21.2h0ZM915,137.4c-15.4,0-28.1-12.5-28.1-28s12.7-27.9,28.1-27.9c6.5,0,12.7,2.6,17.4,6.4.9.7,1.3,1.6,1.3,2.7,0,1.8-1.5,3.4-3.6,3.4-.9,0-1.5-.2-2-.7-3.9-3-7.9-4.7-13.2-4.7-12,0-20.3,9.3-20.3,21.2,0,12.9,9.2,20.9,20.3,20.9,4.3,0,10.3-1.2,15.3-6.1.5-.5,1.2-.7,1.9-.7,1.9,0,3.4,1.3,3.4,3.2,0,1.2-.5,1.9-1.2,2.6-4.8,5-11.5,7.7-19.3,7.7h0ZM995.9,108.9l-11.6,11.6v12.6c0,2.2-1.6,3.9-3.9,3.9s-3.9-1.6-3.9-3.9v-47.1c0-2.2,1.6-3.9,3.9-3.9s3.9,1.6,3.9,3.9v23.6l26.3-26.2c.7-.9,1.6-1.3,2.8-1.3,2.2,0,3.9,1.6,3.9,3.9,0,1-.3,1.7-.9,2.4l-14.9,15,19.8,27.4c.5.7.7,1.4.7,2.3,0,2.2-1.6,3.8-3.9,3.8-1.4,0-2.6-.6-3.3-1.7l-18.9-26.3h0ZM299.1,151.4c-.4-.2-.9-.2-1.2,0l-36.4,21.2-36.5-62.3,36.6-21.6c.4-.2.6-.6.6-1.1v-40l35.6,19.7c.5.3,1.1.2,1.5-.2.4-.4.5-1,.2-1.5L262.1,1.9c-.3-.5-.9-.7-1.4-.6-.5.1-.9.6-.9,1.2v42.2l-35.3,19.8L189.5,4.3v-1.8c0-.9-.5-1.7-1.2-2.2-.8-.4-1.7-.4-2.5,0l-73.7,43c-.8.4-1.2,1.3-1.2,2.2v44l-35,60.1-36-61.8c-.3-.6-1.1-.8-1.7-.5L.6,108.8c-.6.3-.8,1.1-.5,1.7s1.1.8,1.7.5l36.4-20.9,36.4,62.6c.2.4.6.6,1.1.6.4,0,.9-.2,1.1-.6l33.9-58.3v122c0,.9.5,1.7,1.2,2.1.4.2.8.3,1.3.3.4,0,.8-.1,1.2-.3l36.9-20.6c.8-.4,1.3-1.3,1.3-2.2v-1.8l34.1-59.6,1.5-.9h0l72.2,41.9h0c.2.1.4.2.6.2h0c.2,0,.4-.1.6-.2h0l35.6-20.8v41.5c0,.7.6,1.2,1.2,1.2.7,0,1.2-.6,1.2-1.2v-43.7c.1-.3-.1-.7-.5-.9h0ZM257.6,170.9l-68.2-39.5h0l33.5-19.7,34.7,59.2ZM115.7,52.3l31.9,55.7v1.8c0,.9.5,1.7,1.2,2.2.8.4,1.7.4,2.5,0l30.9-18-31.9,55-1.5.9c-.8.4-1.3,1.3-1.3,2.2v36.8l-31.9-55.7V52.3h.1ZM222.1,107.7l-32.7-19.3h0c0-.9-.5-1.7-1.2-2.2-.8-.4-1.7-.4-2.5,0l-33.1,19.3v-37.9l.4-.2h69.8l-.7,40.3ZM147.6,103l-31-54.3,31,17.5v36.8ZM184.4,95.2v34.7l-29.8,16.7s29.8-51.4,29.8-51.4ZM189.4,91.3l31.5,18.6-31.5,18.6v-37.2ZM224.6,107.7l.6-40.8,34.6-19.3v39.4l-35.2,20.7h0ZM262.3,7.1l32.8,55.8-32.8-18.2V7.1ZM188.1,47.6c.8-.4,1.3-1.3,1.3-2.2V9.2l32.4,55.7h-64.5l30.8-17.3h0ZM184.4,44l-35.6,20h0l-31.8-17.9L184.5,6.8v37.2h-.1ZM115.7,212.2v-74l31.9,55.7v.4l-31.9,17.9h0ZM152.6,188.9v-35.4l29.8-16.8-29.8,52.2Z"/>
</svg>