<?xml version="1.0" encoding="utf-8"?>
<!-- Generator: Adobe Illustrator 27.5.0, SVG Export Plug-In . SVG Version: 6.00 Build 0)  -->
<svg version="1.1" id="Ebene_1" xmlns="http://www.w3.org/2000/svg" xmlns:xlink="http://www.w3.org/1999/xlink" x="0px" y="0px"
	 viewBox="0 0 1000 1000" style="enable-background:new 0 0 1000 1000;" xml:space="preserve">
<style type="text/css">
	.st0{fill:none;stroke:#FFFFFF;stroke-width:0.6;}
</style>
<g id="Ebene_1_00000055665916034753982880000011252684036123104135_">
</g>
<g>
	<g>
		<line class="st0" x1="0" y1="1000" x2="0" y2="0"/>
		<line class="st0" x1="66.7" y1="1000" x2="66.7" y2="0"/>
		<line class="st0" x1="133.3" y1="1000" x2="133.3" y2="0"/>
		<line class="st0" x1="200" y1="1000" x2="200" y2="0"/>
		<line class="st0" x1="266.7" y1="1000" x2="266.7" y2="0"/>
		<line class="st0" x1="333.3" y1="1000" x2="333.3" y2="0"/>
		<line class="st0" x1="400" y1="1000" x2="400" y2="0"/>
		<line class="st0" x1="466.7" y1="1000" x2="466.7" y2="0"/>
		<line class="st0" x1="533.3" y1="1000" x2="533.3" y2="0"/>
		<line class="st0" x1="600" y1="1000" x2="600" y2="0"/>
		<line class="st0" x1="666.7" y1="1000" x2="666.7" y2="0"/>
		<line class="st0" x1="733.3" y1="1000" x2="733.3" y2="0"/>
		<line class="st0" x1="800" y1="1000" x2="800" y2="0"/>
		<line class="st0" x1="866.7" y1="1000" x2="866.7" y2="0"/>
		<line class="st0" x1="933.3" y1="1000" x2="933.3" y2="0"/>
		<line class="st0" x1="1000" y1="1000" x2="1000" y2="0"/>
		<line class="st0" x1="0" y1="0" x2="1000" y2="0"/>
		<line class="st0" x1="0" y1="66.7" x2="1000" y2="66.7"/>
		<line class="st0" x1="0" y1="133.3" x2="1000" y2="133.3"/>
		<line class="st0" x1="0" y1="200" x2="1000" y2="200"/>
		<line class="st0" x1="0" y1="266.7" x2="1000" y2="266.7"/>
		<line class="st0" x1="0" y1="333.3" x2="1000" y2="333.3"/>
		<line class="st0" x1="0" y1="400" x2="1000" y2="400"/>
		<line class="st0" x1="0" y1="466.7" x2="1000" y2="466.7"/>
		<line class="st0" x1="0" y1="533.3" x2="1000" y2="533.3"/>
		<line class="st0" x1="0" y1="600" x2="1000" y2="600"/>
		<line class="st0" x1="0" y1="666.7" x2="1000" y2="666.7"/>
		<line class="st0" x1="0" y1="733.3" x2="1000" y2="733.3"/>
		<line class="st0" x1="0" y1="800" x2="1000" y2="800"/>
		<line class="st0" x1="0" y1="866.7" x2="1000" y2="866.7"/>
		<line class="st0" x1="0" y1="933.3" x2="1000" y2="933.3"/>
		<line class="st0" x1="0" y1="1000" x2="1000" y2="1000"/>
		<circle class="st0" cx="500" cy="500" r="500"/>
		<circle class="st0" cx="86.1" cy="86.1" r="86.1"/>
		<circle class="st0" cx="86.1" cy="913.9" r="86.1"/>
	</g>
</g>
</svg>
