<?xml version="1.0" encoding="UTF-8"?>
<svg id="Ebene_1" xmlns="http://www.w3.org/2000/svg" version="1.1" viewBox="0 0 143.4 50.1">
  <!-- Generator: Adobe Illustrator 30.2.1, SVG Export Plug-In . SVG Version: 2.1.1 Build 1)  -->
  <path d="M135.3,19.1v-7.8h-.7l-1.5,1.8c-.5-.4-1-.7-1.4-.9-.5-.3-.9-.5-1.4-.7s-1-.3-1.6-.4c-.6-.1-1.3-.2-2-.2-1.9,0-3.6.4-5,1.2s-2.7,1.8-3.9,3.2c-1.2,1.4-2.1,2.9-2.8,4.6-.6,1.7-.9,3.4-.9,5.3,0,1.5.2,3,.7,4.6s1.2,3,2.1,4.3c1.3,1.8,2.8,3.2,4.3,4s3.3,1.2,5.3,1.2,3.6-.3,5.1-1,2.6-1.6,3.6-2.9c.6-.7,1-1.6,1.3-2.7.3-1,.5-2.1.5-3.1h3v-.9h-12.5v.9h4.2v4c0,.9-.2,1.7-.5,2.4s-.8,1.3-1.5,1.7-1.7.6-3,.6c-1.6,0-2.8-.2-3.6-.7-.9-.5-1.6-1.1-2.1-1.9-.3-.5-.5-1-.7-1.5s-.3-1.1-.4-1.8c-.1-.6-.2-1.4-.2-2.2v-7.7c0-2,.1-3.7.3-5,.2-1.3.7-2.5,1.4-3.5.6-.7,1.3-1.2,2.1-1.6.9-.4,2-.6,3.3-.6s2.4.2,3.4.6c.9.4,1.7,1,2.3,1.7s1.1,1.5,1.5,2.3c.4.9.7,1.8.9,2.7h.4,0Z"/>
  <path d="M106.9,38.5c.5.5,1.2.8,2,.8s1.4-.3,2-.8c.5-.5.8-1.2.8-2s-.3-1.4-.8-2c-.5-.5-1.2-.8-2-.8s-1.4.3-2,.8c-.5.5-.8,1.2-.8,2s.2,1.4.8,2"/>
  <polygon points="93.2 25 93.2 37.7 89.2 37.7 89.2 38.6 101.8 38.6 101.8 37.7 97.7 37.7 97.7 12.3 101.8 12.3 101.8 11.5 89.2 11.5 89.2 12.3 93.2 12.3 93.2 24.1 82.1 24.1 82.1 12.3 86.2 12.3 86.2 11.5 73.5 11.5 73.5 12.3 77.6 12.3 77.6 37.7 73.5 37.7 73.5 38.6 86.2 38.6 86.2 37.7 82.1 37.7 82.1 25 93.2 25"/>
  <path d="M62.6,28.6c-.4-.8-.9-1.5-1.6-2.1-.6-.6-1.4-1-2.2-1.4-.9-.4-1.7-.6-2.6-.7v-.1c.8-.2,1.6-.4,2.4-.8s1.4-.8,2-1.3,1-1.1,1.3-1.8c.3-.7.5-1.5.5-2.4,0-1.5-.3-2.6-1-3.5-.7-.8-1.5-1.5-2.5-1.9s-2.2-.7-3.4-.9c-1.2-.1-2.4-.2-3.6-.2h-11.8v.9h4v25.3h-4v.9h12.2c1.1,0,2.1,0,3.1-.1s2-.3,2.9-.5c1.4-.5,2.6-1.2,3.5-2.2s1.4-2.4,1.4-4.3c0-1.1-.2-2.1-.6-2.9ZM48.6,12.3h3.2c.9,0,1.8,0,2.5.1s1.3.3,1.8.7.8.9,1.1,1.7c.2.7.4,1.8.4,3.1,0,2.3-.4,3.9-1.2,4.8-.8.9-2,1.3-3.5,1.3h-4.1v-11.7h-.2ZM57.8,33.9c-.2.9-.5,1.8-1,2.5-.3.4-.7.7-1.1,1-.4.2-1.1.4-1.9.4h-5.2v-12.8h4.4c1,0,1.8.2,2.5.5s1.2.7,1.6,1.3c.4.6.7,1.2.8,2,.2.8.2,1.6.2,2.5,0,.8-.1,1.7-.3,2.6Z"/>
  <polygon points="16.9 11.5 4.3 11.5 4.3 12.3 8.4 12.3 8.4 37.7 4.3 37.7 4.3 38.6 16.9 38.6 16.9 37.7 12.9 37.7 12.9 12.3 16.9 12.3 16.9 11.5"/>
  <polygon points="32.2 38.6 32.2 37.7 30 37.7 17.2 21.9 26.7 12.3 30.3 12.3 30.3 11.5 20.3 11.5 20.3 12.3 25.4 12.3 13.6 24.4 24.3 37.7 19.9 37.7 19.9 38.6 32.2 38.6"/>
</svg>