<?xml version="1.0" encoding="UTF-8"?>
<svg id="Ebene_1" xmlns="http://www.w3.org/2000/svg" version="1.1" viewBox="0 0 366.7 124.7">
  <!-- Generator: Adobe Illustrator 30.2.1, SVG Export Plug-In . SVG Version: 2.1.1 Build 1)  -->
  <g id="Logo_deutsch">
    <g>
      <g>
        <path d="M87.5,52.6c-1.7-1.6-4-2.4-6.9-2.4s-5.6.6-7.9,1.9c-2.4,1.3-4.4,2.9-6,4.8-2.2,2.7-3.8,5.8-4.7,9.4s-1.3,7.2-1.3,10.7c0,4.3.9,7.7,2.8,10.1s4.6,3.6,8.2,3.6c3,0,5.7-.5,8.1-1.6,2.4-1,4.4-2.2,5.9-3.6h0c.3-.6.5-1.3.7-2.1.2-.8.3-1.6.3-2.4v-.4l-.3.2c-.8.6-1.8,1.1-2.8,1.5s-2,.8-3.1,1.1c-1.1.3-2.1.6-3.1.7-1,.2-2,.3-2.8.3-4.3,0-6.4-3.1-6.4-9.5v-2.2c4.4-.2,8-.7,10.8-1.5,2.8-.9,5.1-1.9,6.7-3.2,1.6-1.3,2.7-2.7,3.4-4.3.6-1.6.9-3.2.9-4.8,0-2.5-.9-4.7-2.5-6.3ZM82.6,62.4c-.3.9-1,1.8-2,2.5-1,.8-2.5,1.4-4.4,2-1.9.5-4.4.8-7.6.9.2-1.4.5-2.8.9-4.1.4-1.4,1-2.7,1.7-3.9.9-1.5,2-2.7,3.4-3.6,1.4-.9,2.9-1.3,4.5-1.3,1.4,0,2.4.4,3,1.3.6.9.9,2,.9,3.4.1.9-.1,1.9-.4,2.8Z"/>
        <path d="M51.3,45.7c1.3,0,2.4-.4,3.2-1.3.9-.9,1.3-2.1,1.3-3.6,0-1.4-.4-2.6-1.3-3.4-.8-.8-1.9-1.2-3.3-1.2-1.3,0-2.4.4-3.3,1.3s-1.3,2-1.3,3.3c.1,3.2,1.7,4.9,4.7,4.9Z"/>
        <path d="M49.6,84.1c-.1-.4-.1-.5-.1-.6l4-32.5h-.1c-.3-.1-.9-.2-1.6-.2-.8-.1-1.3-.1-1.7-.1-1.6,0-3.2.2-4.5.6-1.4.3-2.6.7-3.6,1.2-.4.4-.8,1.1-1,2.1-.3,1-.5,1.7-.5,2.1v.3l5.8-.6-4.1,28.3c0,.7.3,1.7.9,2.9s1.2,2.2,2,3.1l.1.1h.1c.6,0,1.3-.1,2.1-.2s1.6-.2,2.6-.4c.9-.2,1.7-.3,2.6-.6.9-.2,1.6-.5,2.3-.7h.1v-.1c.3-.5.6-1.3.9-2.2.3-.9.4-1.7.4-2.3v-.3l-6.3.6c-.3-.1-.3-.3-.4-.5Z"/>
        <path d="M30.1,83.9c0-.2-.1-.6-.1-.7l6-48.5-.2-.1c-.3-.1-.9-.2-1.6-.2-.7-.1-1.3-.1-1.7-.1-1.6,0-3.1.2-4.4.6-1.4.4-2.5.8-3.5,1.3-.4.4-.7,1.1-1,2.1s-.4,1.7-.4,2.1v.2l5.7-.6-1.6,11.6c-.9-.4-1.9-.7-2.9-1-1.1-.3-2.2-.4-3.3-.4-3.2,0-6,.7-8.6,2.2-2.5,1.5-4.7,3.5-6.4,5.9s-3,5.2-3.9,8.3c-.9,3.1-1.3,6.4-1.3,9.8,0,2.6.3,4.8.8,6.6.5,1.8,1.3,3.3,2.2,4.4.9,1.1,2.1,2,3.4,2.5s2.7.8,4.3.8c2,0,4.1-.5,6.2-1.4s4-2.4,5.6-4.5h.1c.2.9.4,1.9.8,3s.8,2.1,1.2,2.8l.1.1h.1c.5,0,1.2-.1,2-.2s1.6-.2,2.6-.4c.9-.2,1.7-.4,2.6-.6.8-.2,1.6-.5,2.3-.7h.1v-.1c.3-.5.6-1.3.9-2.2.3-.9.4-1.7.4-2.3v-.2l-6.2.6c-.1-.2-.2-.4-.3-.7h0ZM8.2,71.8c.1-1.3.3-2.6.6-3.9s.6-2.6,1.1-3.8c.4-1.2,1-2.3,1.6-3.3,1-1.6,2.4-3,4-4.2,1.6-1.1,3.5-1.7,5.7-1.7.9,0,1.8.1,2.9.4.9.2,1.8.6,2.4.9l-3,22.9c-1,1.8-2.3,3.2-3.9,4.1-1.5.9-3.1,1.4-4.8,1.4-2,0-3.7-.7-4.9-2.2-1.2-1.3-1.9-3.7-1.9-7,0-1.1.1-2.3.2-3.6Z"/>
      </g>
      <g>
        <path d="M355.2,89.8h-11.2v-38.6h9.1l1.6,3.8c1.4-2.5,4-4.5,9.9-4.5h1.9l-1.4,9.6s-1.4-.1-2.3-.1c-3.3,0-5.8,1.9-7.5,4.7v25.1h-.1Z"/>
        <path d="M182.4,60.2c-3.9,0-6.1,3.7-6.1,10.4s2.2,10.3,6.1,10.3,6.1-3.6,6.1-10.3-2.1-10.4-6.1-10.4M182.4,90.7c-13,0-17.6-10.9-17.6-20.2,0-14.9,9.1-20.3,17.6-20.3s17.6,5.3,17.6,20.3-9.1,20.2-17.6,20.2"/>
        <path d="M217,80.2c.8.5,2,.9,4.1.9,3.1,0,7.3-1.1,7.3-11.1,0-6.6-2-9.9-6.2-9.9-1.9,0-3.7.8-5.1,2.4v17.7h-.1ZM220.4,90.7c-8.4,0-12.7-2.9-14.5-4.2l-.2-.2v-50.1l11.2-1.5v19.4c1.6-1.7,4.6-3.8,9.2-3.8,8.7,0,13.6,6.7,13.6,18.4.1,14.6-6.4,22-19.3,22"/>
        <path d="M251.7,47.7c-3.6,0-5.7-2.1-5.7-5.6v-.4c0-3.5,2.1-5.5,5.7-5.5s5.7,2,5.7,5.5v.4c.1,3.5-2.1,5.6-5.7,5.6M257.3,89.8h-11.2v-38.6h11.2v38.6Z"/>
        <polygon points="265.5 89.8 276.8 89.8 276.8 34.7 265.5 36.2 265.5 89.8"/>
        <path d="M290.6,47.7c-3.6,0-5.7-2.1-5.7-5.6v-.4c0-3.5,2.1-5.5,5.7-5.5s5.7,2,5.7,5.5v.4c0,3.5-2.1,5.6-5.7,5.6M296.2,89.8h-11.2v-38.6h11.2v38.6Z"/>
        <path d="M325.3,78.7c-1.1,1.4-2.8,2.2-5,2.2-3,0-6.5-1.2-6.5-10.2,0-7.1,2.6-10.7,7.9-10.7,1.5,0,2.6.2,3.6.6v18.1ZM336.3,53.4c-1.6-.9-6-3.1-13.5-3.1-13,0-20.5,7.6-20.5,20.8s5.3,19.6,14.8,19.6c3.1,0,6.5-1,8.3-3.2.3-.3.4-.6.4-.6l1.2,2.9h9.4v-36.3l-.1-.1h0Z"/>
        <polygon points="144.9 36.2 131.8 71.4 118.8 36.2 106.7 36.2 103.2 89.8 114.5 89.8 116.3 60.7 127.5 89.8 136 89.8 147.2 60.7 148.9 89.8 160.3 89.8 156.8 36.2 144.9 36.2"/>
      </g>
    </g>
  </g>
</svg>