<?xml version="1.0" encoding="UTF-8"?>
<svg id="Ebene_1" xmlns="http://www.w3.org/2000/svg" version="1.1" viewBox="0 0 559 267.5">
  <!-- Generator: Adobe Illustrator 30.2.1, SVG Export Plug-In . SVG Version: 2.1.1 Build 1)  -->
  <path d="M135.4,152.5c2.4,0,4.2-.9,5.5-2.1,2.7-2.4,3.7-6.2,3.7-10.3s-1-7.9-3.7-10.3c-1.3-1.2-3.1-2.1-5.5-2.1-2.7,0-4.6,1.1-6,2.5-2.4,2.4-3.5,6-3.5,9.8s1,7.6,3.4,10c1.5,1.6,3.4,2.5,6.1,2.5h0Z"/>
  <path d="M0,267.3h267.3V0H0v267.3ZM198.1,127c2.4-2.3,6.2-3.9,10.3-3.9s7.8,1.6,10.2,3.9c3.5,3.5,5.1,8,5.1,13.1s-1.5,9.8-5.1,13.3c-2.4,2.3-6,3.9-10.2,3.9s-7.9-1.6-10.3-3.9c-3.5-3.5-5.1-8-5.1-13.2s1.6-9.7,5.1-13.2h0ZM169.9,110h7.8v7.7h-7.8v-7.7ZM159.5,151.8h11.8v-23.2h-10.5v-4.6h16v27.9h11.8v4.7h-29.1v-4.8ZM125.4,126.7c2.1-2,5.3-3.7,9.3-3.7s7.8,1.9,9.6,4.6v-17.6h5.5v46.4h-4.8l-.4-4.2c-1.9,3.3-6.3,5.1-10,5.1-4,0-7.3-1.6-9.5-3.8-3.1-3.2-4.7-7.8-4.7-13.3-.1-5.5,1.7-10.3,5-13.5ZM103.2,129.4c-1.1-1-2.8-1.9-5.5-1.9-3,0-4.8.9-5.9,2-1,1-1.6,2.1-1.7,3.8h-5.4c.1-2.8,1.3-5,3-6.7,2.3-2.3,6-3.6,10-3.6,6.3,0,10,2.9,11.6,6.4.6,1.5,1,3,1,4.8v15.8c0,1.7.8,2.2,1.9,2.2.6,0,1.4-.2,1.4-.2v4.1c-1.2.6-2.3.8-3.6.8-2.9,0-4.8-2.2-4.8-4.9h-.1c-1.9,3.3-6.2,5.3-10.7,5.3-7.8,0-11.3-4.9-11.3-9.6s3.3-10.2,11.6-10.6l10.2-.6v-2.4c0-1.6-.2-3.3-1.7-4.7h0ZM43.7,110.9h15.6c5.3,0,9.1,1.5,11.6,4.1,2.2,2.3,3.6,5.3,3.6,9.3s-1.3,6.7-3.5,9c-1.4,1.4-3.3,2.5-5.5,3.2l9.1,20.1h-6.2l-8.6-19h-10.4v19h-5.7v-45.7Z"/>
  <path d="M88.7,147.3c0,2.9,1.9,5.4,6.5,5.4,2.5,0,5.1-.8,6.8-2.6,1.9-2,2.9-4.6,2.9-7.3v-1.9l-9,.5c-3.5.1-7.2,1.8-7.2,5.9h0Z"/>
  <path d="M68.6,124.2c0-5.8-3.9-8-9.3-8h-9.9v16h9.9c5.4-.1,9.3-2.2,9.3-8Z"/>
  <path d="M208.4,152.5c2.6,0,4.6-1,6-2.3,2.8-2.5,3.7-6.5,3.7-10s-.9-7.5-3.7-10c-1.4-1.3-3.5-2.3-6-2.3s-4.6,1-6,2.3c-2.8,2.5-3.7,6.4-3.7,10s.9,7.6,3.7,10.1c1.3,1.2,3.4,2.2,6,2.2Z"/>
  <path d="M291.6.2v267.3h267.4V.2h-267.4ZM404.1,47.4l25.2,37.8,27.4-37.8h58.6l-48.8,72.6h-80.4l-48.3-72.6h66.3,0ZM452.8,220.4l-26.8-40.2-27,40.2h-67.6l50.3-69.4h91.5l46.2,69.4h-66.6,0Z"/>
</svg>