<?xml version="1.0" encoding="UTF-8"?>
<svg id="Ebene_1" xmlns="http://www.w3.org/2000/svg" version="1.1" viewBox="0 0 101.6 70.9">
  <!-- Generator: Adobe Illustrator 30.2.1, SVG Export Plug-In . SVG Version: 2.1.1 Build 1)  -->
  <polygon points="44.2 5.5 48.6 5.5 48.6 9.9 50.2 9.9 50.2 .1 48.6 .1 48.6 4.1 44.2 4.1 44.2 .1 42.6 .1 42.6 9.9 44.2 9.9 44.2 5.5"/>
  <polygon points="70.4 8.5 65.6 8.5 65.6 .1 64 .1 64 9.9 70.4 9.9 70.4 8.5"/>
  <polygon points="78.7 8.5 73.6 8.5 73.6 5.6 78.1 5.6 78.1 4.2 73.6 4.2 73.6 1.5 78.7 1.5 78.7 .1 72 .1 72 9.9 78.7 9.9 78.7 8.5"/>
  <path d="M27.3,8.6h-1.5c-.8,0-1.4-.6-1.4-1.4h-1.6c0,1.5,1.3,2.8,2.8,2.8h1.9c1.6,0,2.9-1.3,2.9-2.9,0-1.5-1.1-2.7-2.6-2.9l-2.1-.2c-.6-.1-1.1-.6-1.1-1.3s.6-1.3,1.3-1.3h1.3c.8,0,1.4.6,1.4,1.4h1.6C30.2,1.3,29,0,27.4,0h-1.8C24.2,0,23,1.2,23,2.7c0,1.4,1,2.5,2.4,2.7l2.2.2c.8.1,1.3.7,1.3,1.5s-.7,1.5-1.6,1.5Z"/>
  <path d="M56.1,10h2c1.5,0,2.8-1.3,2.8-2.8V.1h-1.6v7.1c0,.8-.6,1.4-1.4,1.4h-1.6c-.8,0-1.4-.6-1.4-1.4V.1h-1.6v7.1c0,1.5,1.3,2.8,2.8,2.8Z"/>
  <path d="M35.4,10h2c1.5,0,2.8-1.3,2.8-2.8v-.1h-1.6v.1c0,.8-.6,1.4-1.4,1.4h-1.6c-.8,0-1.4-.6-1.4-1.4V2.8c0-.8.6-1.4,1.4-1.4h1.5c.8,0,1.4.6,1.4,1.4h1.6C40.1,1.3,38.8,0,37.3,0h-1.9C33.9,0,32.6,1.3,32.6,2.8v4.4c0,1.5,1.3,2.8,2.8,2.8Z"/>
  <rect x="18.2" y="11.8" width="65" height="4.4"/>
  <rect x="32.8" y="30" width="35.9" height="4.4"/>
  <rect x="24.2" y="66.5" width="53.2" height="4.4"/>
  <rect y="48.3" width="101.6" height="4.4"/>
  <polygon points="44 19.7 44 18.3 37.6 18.3 37.6 28.1 39.2 28.1 39.2 23.9 43.4 23.9 43.4 22.5 39.2 22.5 39.2 19.7 44 19.7"/>
  <path d="M63.9,21.1c0-1.5-1.2-2.8-2.8-2.8h-4.3v9.8h1.6v-4.2h2.1l2.1,4.2h1.8l-2.3-4.4c1-.4,1.8-1.4,1.8-2.6ZM60.9,22.5h-2.5v-2.8h2.5c.8,0,1.4.6,1.4,1.4s-.6,1.4-1.4,1.4Z"/>
  <path d="M47.8,25.5v-7.1h-1.6v7.1c0,1.5,1.3,2.8,2.8,2.8h2c1.5,0,2.8-1.3,2.8-2.8v-7.1h-1.6v7.1c0,.8-.6,1.4-1.4,1.4h-1.6c-.8,0-1.4-.6-1.4-1.4Z"/>
  <rect x="48.5" y="17.3" width="1.1" height="2.3"/>
  <rect x="50.4" y="17.3" width="1.1" height="2.3"/>
  <polygon points="37.8 46.3 37.8 37.9 40.6 37.9 40.6 36.5 33.4 36.5 33.4 37.9 36.2 37.9 36.2 46.3 37.8 46.3"/>
  <polygon points="62.5 46.3 62.5 37.9 65.2 37.9 65.2 36.5 58 36.5 58 37.9 60.8 37.9 60.8 46.3 62.5 46.3"/>
  <path d="M7.3,46.3h2.3c.6,0,1.1-.4,1.3-.9v.9h1.5v-5.3h-3.1v1.3h1.6v1.2c0,.8-.6,1.4-1.4,1.4h-2c-.8,0-1.4-.6-1.4-1.4v-4.3c0-.8.6-1.4,1.4-1.4h1.8c.8,0,1.4.6,1.4,1.4h1.6c0-1.5-1.3-2.8-2.8-2.8h-2.2c-1.5,0-2.8,1.3-2.8,2.8v4.3c0,1.6,1.3,2.8,2.8,2.8Z"/>
  <path d="M91.5,46.3h2.3c.6,0,1.1-.4,1.3-.9v.9h1.5v-5.4h-3.1v1.3h1.6v1.2c0,.8-.6,1.4-1.4,1.4h-2c-.8,0-1.4-.6-1.4-1.4v-4.3c0-.8.6-1.4,1.4-1.4h1.8c.8,0,1.4.6,1.4,1.4h1.6c0-1.5-1.3-2.8-2.8-2.8h-2.2c-1.5,0-2.8,1.3-2.8,2.8v4.3c0,1.7,1.3,2.9,2.8,2.9Z"/>
  <polygon points="80 36.5 77.9 36.5 77.9 46.3 79.5 46.3 79.4 38.4 83.8 46.3 85.9 46.3 85.9 36.5 84.3 36.5 84.4 44.5 80 36.5"/>
  <polygon points="22.2 44.9 17.1 44.9 17.1 42 21.6 42 21.6 40.6 17.1 40.6 17.1 37.9 22.2 37.9 22.2 36.5 15.5 36.5 15.5 46.3 22.2 46.3 22.2 44.9"/>
  <path d="M29.1,45h-1.5c-.8,0-1.4-.6-1.4-1.4h-1.6c0,1.5,1.3,2.8,2.8,2.8h1.9c1.6,0,2.9-1.3,2.9-2.9,0-1.5-1.1-2.7-2.6-2.9l-2.2-.2c-.6-.1-1.1-.6-1.1-1.3s.6-1.3,1.3-1.3h1.3c.8,0,1.4.6,1.4,1.4h1.6c0-1.5-1.3-2.8-2.8-2.8h-1.8c-1.5,0-2.7,1.2-2.7,2.7,0,1.4,1,2.5,2.4,2.7l2.2.2c.8.1,1.3.7,1.3,1.5.1.9-.6,1.5-1.4,1.5Z"/>
  <polygon points="53.3 36.5 51.7 36.5 51.7 46.3 58.1 46.3 58.1 44.9 53.3 44.9 53.3 36.5"/>
  <path d="M40.9,46.3h1.7l.7-2h3.9l.7,2h1.7l-3.4-9.8h-1.8s-3.5,9.8-3.5,9.8ZM45.2,38.4l1.6,4.6h-3.2l1.6-4.6h0Z"/>
  <path d="M70,46.4h2c1.5,0,2.8-1.3,2.8-2.8v-7.1h-1.6v7.1c0,.8-.6,1.4-1.4,1.4h-1.6c-.8,0-1.4-.6-1.4-1.4v-7.1h-1.6v7.1c0,1.6,1.3,2.8,2.8,2.8Z"/>
  <path d="M43.8,62.5l.7,2h1.7l-3.4-9.8h-1.8l-3.4,9.8h1.7l.7-2h3.8ZM41.8,56.7h0l1.6,4.6h-3.2s1.6-4.6,1.6-4.6Z"/>
  <path d="M36,57.3c0-1.4-1.2-2.6-2.6-2.6h-4.4v9.8h4.7c1.5,0,2.7-1.2,2.7-2.8,0-1-.6-2-1.4-2.4.6-.4,1-1.1,1-2ZM30.6,56.1h2.6c.7,0,1.3.6,1.3,1.3s-.6,1.3-1.3,1.3h-2.6v-2.6ZM33.3,63.2h-2.7v-3h2.7c.8,0,1.5.7,1.5,1.5s-.7,1.5-1.5,1.5Z"/>
  <path d="M51.7,63.2h-1.5c-.8,0-1.4-.6-1.4-1.4h-1.6c0,1.5,1.3,2.8,2.8,2.8h1.9c1.6,0,2.9-1.3,2.9-2.9,0-1.5-1.1-2.7-2.6-2.9l-2.2-.2c-.6,0-1-.6-1-1.2,0-.7.6-1.3,1.3-1.3h1.3c.8,0,1.4.6,1.4,1.4h1.6c0-1.5-1.3-2.8-2.8-2.8h-1.8c-1.5,0-2.7,1.2-2.7,2.7,0,1.4,1,2.5,2.4,2.7l2.2.2c.8.1,1.3.7,1.3,1.5s-.6,1.4-1.5,1.4Z"/>
  <polygon points="64.1 56.1 64.1 54.7 57.4 54.7 57.4 64.6 64.1 64.6 64.1 63.2 59 63.2 59 60.3 63.5 60.3 63.5 58.9 59 58.9 59 56.1 64.1 56.1"/>
  <polygon points="68.5 63.2 68.5 54.7 66.9 54.7 66.9 64.6 73.3 64.6 73.3 63.2 68.5 63.2"/>
</svg>