<?xml version="1.0" encoding="utf-8"?>
<!-- Generator: Adobe Illustrator 27.5.0, SVG Export Plug-In . SVG Version: 6.00 Build 0)  -->
<svg version="1.1" id="Ebene_1" xmlns="http://www.w3.org/2000/svg" xmlns:xlink="http://www.w3.org/1999/xlink" x="0px" y="0px"
	 viewBox="0 0 800 800" style="enable-background:new 0 0 800 800;" xml:space="preserve">
<style type="text/css">
	.st0{fill-rule:evenodd;clip-rule:evenodd;fill:#8C6EFF;}
</style>
<path class="st0" d="M75,241.5h139.5L407.5,50L450,67.5v650L407.5,734l-193-192.5H75l-25-25v-250L75,241.5z M242.5,500L400,657V128
	L242.5,284l-17.5,7.5H100v200h125L242.5,500z M750,391.5c0.1,80.7-27.8,159-78.9,221.4l-35.6-35.5c41.9-52.9,64.6-118.4,64.5-185.9
	c0-70-24-134.4-64.2-185.5l35.6-35.5C722.3,232.9,750.1,311,750,391.5z M650,391.5c0.1,54.2-17.5,106.9-50.1,150.2l-35.8-35.8
	c23.4-33.5,36-73.5,35.9-114.4c0.1-40.8-12.4-80.5-35.7-114l35.8-35.8C631.5,283.5,650,335.3,650,391.5L650,391.5z M550,391.5
	c0,28.7-8,55.5-22,78.3l-36.9-36.9c12-26.1,12-56.1,0.2-82.4l36.9-36.9C542.1,336.3,550,363,550,391.5L550,391.5z"/>
</svg>
