<?xml version="1.0" encoding="UTF-8"?>
<svg id="Linkedin" xmlns="http://www.w3.org/2000/svg" version="1.1" viewBox="0 0 1024 1024">
  <!-- Generator: Adobe Illustrator 30.2.1, SVG Export Plug-In . SVG Version: 2.1.1 Build 1)  -->
  <path d="M1006.3,510.23c0,273.97-222.1,496.07-496.06,496.07S14.17,784.2,14.17,510.23,236.27,14.17,510.24,14.17s496.06,222.1,496.06,496.05h0Z" fill="none" stroke="#000" stroke-miterlimit="10" stroke-width="20"/>
  <g>
    <path d="M510.75,285.5c76.57,0,85.65.29,115.89,1.66,27.96,1.28,43.14,5.96,53.25,9.88,13.39,5.21,22.93,11.42,32.97,21.46,10.04,10.03,16.26,19.58,21.45,32.97,3.92,10.12,8.6,25.3,9.87,53.26,1.38,30.24,1.67,39.31,1.67,115.9s-.29,85.65-1.67,115.89c-1.27,27.96-5.95,43.14-9.87,53.25-5.2,13.4-11.41,22.94-21.45,32.97-10.04,10.04-19.58,16.26-32.97,21.46-10.11,3.92-25.29,8.59-53.25,9.88-30.24,1.37-39.31,1.66-115.89,1.66s-85.66-.3-115.9-1.66c-27.96-1.29-43.15-5.96-53.25-9.88-13.39-5.21-22.93-11.42-32.96-21.46-10.05-10.02-16.27-19.57-21.46-32.97-3.93-10.12-8.6-25.3-9.89-53.25-1.38-30.24-1.67-39.31-1.67-115.89s.29-85.66,1.67-115.9c1.29-27.96,5.96-43.14,9.89-53.26,5.19-13.39,11.41-22.94,21.46-32.97,10.02-10.04,19.57-16.25,32.96-21.46,10.11-3.92,25.29-8.6,53.25-9.88,30.24-1.38,39.32-1.66,115.9-1.66M510.75,233.83c-77.89,0-87.66.32-118.24,1.72-30.53,1.39-51.39,6.24-69.63,13.33-18.85,7.32-34.85,17.13-50.79,33.08-15.94,15.94-25.76,31.94-33.08,50.8-7.09,18.24-11.95,39.09-13.32,69.61-1.41,30.6-1.74,40.36-1.74,118.25s.33,87.65,1.74,118.24c1.38,30.52,6.24,51.37,13.32,69.61,7.33,18.87,17.14,34.86,33.08,50.8,15.94,15.95,31.94,25.76,50.79,33.08,18.24,7.09,39.11,11.93,69.63,13.32,30.58,1.41,40.35,1.73,118.24,1.73s87.66-.32,118.25-1.73c30.52-1.39,51.37-6.24,69.62-13.32,18.86-7.32,34.86-17.13,50.8-33.08,15.94-15.94,25.75-31.93,33.07-50.8,7.1-18.24,11.94-39.09,13.33-69.61,1.4-30.59,1.73-40.36,1.73-118.24s-.33-87.66-1.73-118.25c-1.39-30.52-6.23-51.37-13.33-69.61-7.32-18.86-17.13-34.86-33.07-50.8-15.94-15.95-31.94-25.77-50.8-33.08-18.25-7.09-39.1-11.94-69.62-13.33-30.59-1.4-40.36-1.72-118.25-1.72" fill="none" stroke="#000" stroke-miterlimit="10" stroke-width="20"/>
    <path d="M510.75,373.36c-81.35,0-147.28,65.92-147.28,147.27s65.93,147.27,147.28,147.27,147.27-65.92,147.27-147.27-65.93-147.27-147.27-147.27M510.75,616.23c-52.8,0-95.61-42.81-95.61-95.6s42.81-95.6,95.61-95.6,95.6,42.8,95.6,95.6-42.8,95.6-95.6,95.6" fill="none" stroke="#000" stroke-miterlimit="10" stroke-width="20"/>
    <path d="M698.26,367.53c0,19.01-15.41,34.41-34.42,34.41s-34.42-15.4-34.42-34.41,15.42-34.43,34.42-34.43,34.42,15.42,34.42,34.43" fill="none" stroke="#000" stroke-miterlimit="10" stroke-width="20"/>
  </g>
</svg>