<?xml version="1.0" encoding="UTF-8"?>
<svg id="Linkedin" xmlns="http://www.w3.org/2000/svg" version="1.1" viewBox="0 0 1024 1024">
  <!-- Generator: Adobe Illustrator 30.2.1, SVG Export Plug-In . SVG Version: 2.1.1 Build 1)  -->
  <g id="Background">
    <circle id="bg" cx="510.24" cy="510.24" r="496.06" fill="none" stroke="#000" stroke-miterlimit="10" stroke-width="20"/>
  </g>
  <g id="Linkedin-2">
    <polygon points="289.03 724.08 392.02 724.08 391.9 363.23 288.91 363.23 289.03 724.08" fill="none" stroke="#000" stroke-miterlimit="10" stroke-width="20"/>
    <path d="M747.24,459.77c-2.52-14.36-6.61-28.5-12.88-41.69-3.62-7.62-8.18-14.82-13.58-21.31-6.31-7.57-14.7-14.54-23.22-19.5-7.3-4.25-15.62-8.11-23.77-10.42-4.83-1.23-9.79-2.08-14.82-2.65-15.11-1.7-30.86-.88-46,.29-4.35.51-8.66,1.12-12.94,1.85s-8.51,1.59-12.7,2.55c-7.38,2.28-13.81,5.86-19.29,10.57-5.49,4.71-10.04,10.54-13.7,17.28-2.1,3.87-3.92,7.96-5.1,12.21-.06.22-.91,5.25-.91,5.25h-1.6l-.13-50.98h-102.95l.12,360.93h102.27v-220.02c0-12.3,7.9-22.55,18.04-28.7,9.83-5.96,21.98-6.5,33.16-7.22,5.1-.33,10.41-.16,15.49.36,8.82.91,17.71,3.7,24.3,9.87,11.01,10.3,12.72,26,12.72,40.23v205.49h101.31v-213.37c0-17.01-.87-34.24-3.82-51.02h0Z" fill="none" stroke="#000" stroke-miterlimit="10" stroke-width="20"/>
    <circle cx="340.53" cy="287.31" r="51.74" fill="none" stroke="#000" stroke-miterlimit="10" stroke-width="20"/>
  </g>
</svg>